<?xml version="1.0" encoding="UTF-8"?>
<svg width="40px" height="40px" viewBox="0 0 40 40" version="1.1" xmlns="http://www.w3.org/2000/svg" xmlns:xlink="http://www.w3.org/1999/xlink">
    <!-- Generator: Sketch 47.1 (45422) - http://www.bohemiancoding.com/sketch -->
    <title>noun_698686_cc</title>
    <desc>Created with Sketch.</desc>
    <defs></defs>
    <g id="Page-1" stroke="none" stroke-width="1" fill="none" fill-rule="evenodd">
        <g id="noun_698686_cc" fill-rule="nonzero" fill="#0F75EB">
            <polygon id="Shape" points="31.8762887 39 0.948453608 39 0.948453608 7.75 26.1030928 7.75 27.0515464 6.79166667 0.948453608 6.79166667 0 6.79166667 0 6.79166667 0 7.75 0 7.75 0 39 0 39 0 40 0 40 0.948453608 40 31.8762887 40 32.8659794 40 32.8659794 39 32.8659794 12.625 31.8762887 13.625"></polygon>
            <path d="M39.0103093,1.29166667 L38.3092784,0.583333333 C37.5670103,-0.166666667 36.3298969,-0.166666667 35.5876289,0.583333333 L34.2268041,1.95833333 L15.7938144,20.625 L14.4329897,25.625 L19.2164948,24.0833333 L37.6494845,5.41666667 L39.0103093,4.04166667 C39.7938144,3.29166667 39.7938144,2.04166667 39.0103093,1.29166667 Z M18.185567,23.0416667 L16.8247423,21.6666667 L35.257732,3.04166667 L36.6185567,4.41666667 L18.185567,23.0416667 Z" id="Shape"></path>
        </g>
    </g>
</svg>