<?xml version="1.0" encoding="UTF-8"?>
<svg width="46px" height="41px" viewBox="0 0 46 41" version="1.1" xmlns="http://www.w3.org/2000/svg" xmlns:xlink="http://www.w3.org/1999/xlink">
    <!-- Generator: Sketch 47.1 (45422) - http://www.bohemiancoding.com/sketch -->
    <title>Shape</title>
    <desc>Created with Sketch.</desc>
    <defs></defs>
    <g id="Page-1" stroke="none" stroke-width="1" fill="none" fill-rule="evenodd">
        <path d="M45.104,10.9948006 C45.104,10.9844702 45.1006602,10.9745889 45.1006602,10.9642584 L45.104,6.7849126 C45.104,5.63868041 44.2502725,4.71118453 43.1894794,4.68962531 L43.1894794,4.6824389 L22.6023301,4.6824389 L22.6023301,4.67076098 C20.980039,4.67076098 20.1367483,4.17804284 18.6885425,3.01339548 C17.2791614,1.8797395 16.9380879,0.476144054 14.7747548,0.476144054 L14.7747548,0.473 L2.05525798,0.473 L2.05525798,0.476144054 C0.976931201,0.476144054 0.104,1.41486869 0.104,2.5754737 L0.104,10.9952498 L0.104,38.3709755 C0.104,39.5275381 0.972339023,40.4635678 2.04690856,40.4694068 C2.03480191,40.4703051 2.02269526,40.473 2.01058862,40.473 L43.1969939,40.473 C43.1848873,40.473 43.1731981,40.4703051 43.1610914,40.4694068 C44.2260592,40.4635678 45.0852138,39.5441567 45.1006602,38.4010685 C45.1006602,38.3916364 45.104,38.3817551 45.104,38.3714246 L45.1006602,38.3714246 L45.1006602,10.9948006 L45.104,10.9948006 Z M44.1225264,38.4042126 C44.1045752,38.9665491 43.67959,39.4165979 43.1531595,39.4165979 L43.1531595,39.4192928 L2.05525798,39.4192928 L2.05525798,39.4165979 C1.51755574,39.4165979 1.08255128,38.9481339 1.08255128,38.3700772 L1.08255128,10.9948006 C1.08255128,10.4324642 1.49417738,9.97837296 2.01058862,9.95322053 L43.1969939,9.95322053 C43.7025509,9.97837296 44.1054101,10.414049 44.1225264,10.9597669 L44.1225264,38.4042126 Z M44.1225264,9.18741886 C43.8486657,9.0171908 43.5363976,8.90894552 43.1969939,8.90041166 C43.1823824,8.89996251 43.167771,8.895471 43.1531595,8.895471 L43.1531595,8.90041166 L2.05525798,8.90041166 L2.05525798,8.895471 C2.03981156,8.895471 2.02603503,8.89996251 2.01058862,8.90041166 C1.67118495,8.90894552 1.35808194,9.01763995 1.08255128,9.18876631 L1.08255128,2.57502455 C1.08255128,1.99651865 1.51755574,1.52850378 2.05525798,1.52850378 L2.05525798,1.52535972 L14.7751723,1.52535972 L14.7751723,1.52850378 C16.3974633,1.52850378 16.7351971,2.54358401 18.0990738,3.74057021 C19.4725524,4.94609027 20.438997,5.72356986 22.6023301,5.72356986 L22.6023301,5.73524777 L43.1610914,5.73929013 C43.6942015,5.74423078 44.1258662,6.20955075 44.1258662,6.7849126 L44.1225264,9.18741886 Z" id="Shape" fill="#0F75EB" fill-rule="nonzero"></path>
    </g>
</svg>