<?xml version="1.0" encoding="UTF-8"?>
<svg width="30px" height="40px" viewBox="0 0 30 40" version="1.1" xmlns="http://www.w3.org/2000/svg" xmlns:xlink="http://www.w3.org/1999/xlink">
    <!-- Generator: Sketch 47.1 (45422) - http://www.bohemiancoding.com/sketch -->
    <title>flag</title>
    <desc>Created with Sketch.</desc>
    <defs></defs>
    <g id="icon-artboard" stroke="none" stroke-width="1" fill="none" fill-rule="evenodd">
        <g id="iOS-icon-kit" transform="translate(-1773.000000, -1452.000000)" fill="#0F75EB">
            <g id="Icon-sets">
                <g id="Other-Icons" transform="translate(1380.000000, 1402.000000)">
                    <g id="SVGs" transform="translate(50.000000, 50.000000)">
                        <path d="M343,19.9398111 L343,1.33333333 C343,1.33333333 348.566604,-1.21739953 357.687859,1.92845053 C366.809114,5.0742998 373,0 373,0 L373,20.2487308 C373,20.2487308 368.625,24.6666667 357.375,22 C351.208498,20.5383106 346.212466,20.2505137 344.25,21.2040026 L344.25,40 L343,40 L343,19.9398111 L343,19.9398111 Z M357.6875,3.51762673 C349.682946,0.8311802 344.25,2.52951327 344.25,2.52951327 L344.25,19.3274419 C344.25,19.3274419 345.566858,17.766027 357.6875,20.3155553 C369.808142,22.8650838 371.75,19.3274422 371.75,19.3274422 L371.75,2.66666667 C371.75,2.66666667 365.692054,6.20407253 357.6875,3.51762673 L357.6875,3.51762673 Z" id="flag"></path>
                    </g>
                </g>
            </g>
        </g>
    </g>
</svg>