<?xml version="1.0" encoding="UTF-8"?>
<svg width="30px" height="40px" viewBox="0 0 30 40" version="1.1" xmlns="http://www.w3.org/2000/svg" xmlns:xlink="http://www.w3.org/1999/xlink">
    <!-- Generator: Sketch 47.1 (45422) - http://www.bohemiancoding.com/sketch -->
    <title>trash</title>
    <desc>Created with Sketch.</desc>
    <defs></defs>
    <g id="icon-artboard" stroke="none" stroke-width="1" fill="none" fill-rule="evenodd">
        <g id="iOS-icon-kit" transform="translate(-1778.000000, -1566.000000)" fill="#0F75EB">
            <g id="Icon-sets">
                <g id="Other-Icons" transform="translate(1380.000000, 1402.000000)">
                    <g id="SVGs" transform="translate(50.000000, 50.000000)">
                        <path d="M369.818182,119.245902 L378,119.245902 L378,120.557377 L375.701885,120.557377 L373.282518,151.387794 C373.169833,152.823755 371.854938,154 370.346797,154 L354.671898,154 C353.168905,154 351.872145,152.827289 351.787005,151.380675 L349.972897,120.557377 L348,120.557377 L348,119.245902 L356.181818,119.245902 L356.181818,116.629353 C356.181818,115.172328 357.402625,114 358.908566,114 L367.091433,114 C368.596045,114 369.818181,115.177201 369.818181,116.629353 L369.818182,119.245902 L369.818182,119.245902 Z M351.259347,120.557377 L353.221445,151.379113 C353.267482,152.102281 353.918735,152.688525 354.670022,152.688525 L370.712459,152.688525 C371.46645,152.688525 372.120721,152.1034 372.173997,151.379113 L374.441165,120.557377 L351.259347,120.557377 L351.259347,120.557377 Z M358.905041,115.311475 C358.154162,115.311475 357.545455,115.900499 357.545455,116.621582 L357.545455,119.245902 L368.454545,119.245902 L368.454545,116.621582 C368.454545,115.89803 367.844649,115.311475 367.094958,115.311475 L358.905041,115.311475 L358.905041,115.311475 Z M356.863636,123.180328 L357.470583,148.098361 L358.909091,148.098361 L358.227273,123.180328 L356.863636,123.180328 L356.863636,123.180328 Z M362.318182,123.180328 L362.318182,148.098361 L363.681818,148.098361 L363.681818,123.180328 L362.318182,123.180328 L362.318182,123.180328 Z M367.850256,123.180328 L367.090909,148.098361 L368.454545,148.098361 L369.136364,123.180328 L367.850256,123.180328 L367.850256,123.180328 Z" id="trash"></path>
                    </g>
                </g>
            </g>
        </g>
    </g>
</svg>