<?xml version="1.0" encoding="UTF-8" standalone="no"?>
<svg width="125px" height="41px" viewBox="0 0 125 41" version="1.1" xmlns="http://www.w3.org/2000/svg" xmlns:xlink="http://www.w3.org/1999/xlink">
    <!-- Generator: Sketch 47 (45396) - http://www.bohemiancoding.com/sketch -->
    <title>Artboard</title>
    <desc>Created with Sketch.</desc>
    <defs></defs>
    <g id="Walkthrough" stroke="none" stroke-width="1" fill="none" fill-rule="evenodd">
        <g id="Artboard" fill="#2A27D8">
            <path d="M54.6959443,23.2079646 L56.3207707,24.9342354 C56.3861076,25.0000062 56.3861076,25.1067771 56.3207707,25.1725479 C54.994259,26.4256104 53.2250036,27.1089437 51.3947097,27.0773396 C51.1539947,27.0901521 50.9132797,27.0910062 50.671705,27.0807562 C46.5786899,26.8996729 43.4072695,23.4573812 43.5886655,19.3898396 C43.5835073,19.2335271 43.5826476,19.0772146 43.5869461,18.9209021 C43.6987067,14.7858812 47.1632836,11.5229646 51.325934,11.6340062 C53.2731466,11.5614021 55.167058,12.2729229 56.5786797,13.6071312 C56.6388584,13.6720479 56.6388584,13.7728396 56.5786797,13.8377562 L54.8592867,15.6742146 C54.8592867,15.6750687 54.858427,15.6750687 54.858427,15.6759229 C54.7939497,15.7382771 54.6907861,15.7382771 54.6271686,15.6742146 C53.7631736,14.8354229 52.5939864,14.3801521 51.3861128,14.4100479 C48.4889356,14.4100479 46.7695426,16.5369229 46.7695426,19.3642146 C46.7695426,22.1923604 48.61789,24.3012979 51.4119037,24.3012979 C52.5338076,24.3294854 53.6256222,23.9391312 54.4724232,23.2079646 C54.5351811,23.1498812 54.6331865,23.1498812 54.6959443,23.2079646 Z M68.4770512,15.2894979 C68.5673193,15.2894979 68.6403935,15.3621021 68.6403935,15.4517896 L68.6403935,26.6422271 C68.6403935,26.7310604 68.5673193,26.8036646 68.4770512,26.8036646 L66.061304,26.8036646 C65.9718956,26.8036646 65.8979617,26.7310604 65.8979617,26.6422271 L65.8979617,25.6249146 C65.0004385,26.5439979 63.7461413,27.0300187 62.4591757,26.9574146 C59.3341789,27.1154354 56.6725585,24.7254771 56.5143744,21.6205812 C56.5031983,21.4070396 56.5049177,21.1926437 56.5186728,20.9782479 C56.3544708,17.8408937 58.7822537,15.1656437 61.939919,15.0024979 C62.112718,14.9939562 62.2863767,14.9931021 62.4591757,14.9990812 C63.7315265,14.9452687 64.9712088,15.4048104 65.8979617,16.2717896 L65.8979617,15.4517896 C65.8979617,15.3621021 65.9718956,15.2894979 66.061304,15.2894979 L68.4770512,15.2894979 Z M62.6053241,24.3949146 C64.3479289,24.4205396 65.781043,23.0384979 65.8068338,21.3079563 C65.8085532,21.1977688 65.8042548,21.0875813 65.7947981,20.9782479 C65.9280511,19.2289146 64.6084169,17.7033729 62.8468988,17.5709771 C62.7660873,17.5649979 62.6861355,17.5615813 62.6053241,17.5615813 C60.8584208,17.5316854 59.4175694,18.9145813 59.3866204,20.6502479 C59.384901,20.7595813 59.3891995,20.8697688 59.3986561,20.9782479 C59.2370332,22.7216021 60.5282973,24.2642271 62.2820782,24.4248104 C62.3895403,24.4350604 62.497862,24.4393313 62.6053241,24.4384771 L62.6053241,24.3949146 Z M75.4407648,19.8254646 C77.3063062,20.3892146 78.2167248,21.2860896 78.2167248,23.3787979 C78.2167248,25.7277563 76.2660734,26.9577563 73.9878777,26.9577563 C70.8671794,26.9577563 69.8346839,25.1819438 69.8441406,23.2421313 C69.8441406,23.1532979 69.9172148,23.0798396 70.0074829,23.0798396 L72.4576179,23.0798396 C72.5444473,23.0798396 72.6166618,23.1473188 72.6209603,23.2335896 C72.5504651,23.9331521 73.063704,24.5566938 73.7677954,24.6267354 C73.8546247,24.6352771 73.9431735,24.6352771 74.0300028,24.6258813 C74.7873954,24.6258813 75.39778,24.2585896 75.39778,23.5923396 C75.39778,22.9260896 75.0539014,22.6271313 74.244927,22.4059021 C73.6646318,22.2632563 73.0903546,22.0915688 72.525534,21.8925479 C71.0090293,21.4663188 70.0023247,20.0381521 70.1192434,18.4758813 C70.1192434,16.5369229 71.769001,15.1190063 74.0910413,15.1190063 C76.4122218,15.1190063 77.9252877,16.2892146 78.0112573,18.5869229 C78.0112573,18.6817354 77.9338846,18.7577563 77.839318,18.7577563 L75.4665557,18.7577563 C75.3797263,18.7577563 75.3075118,18.6902771 75.3032133,18.6040063 C75.3255655,17.9437354 74.8054491,17.3910896 74.140044,17.3688813 C74.0867428,17.3671729 74.0325819,17.3688813 73.9792807,17.3740063 C73.2829266,17.3740063 72.8272874,17.7583813 72.8272874,18.3392146 C72.8272874,18.9200479 73.1703063,19.2275479 73.8589232,19.4154646 C74.3833381,19.5692146 74.8553115,19.6546313 75.4407648,19.8254646 Z M84.2442289,15.2814688 C84.3336373,15.2814688 84.4067115,15.3540729 84.4067115,15.4437604 L84.4067115,17.5535521 C84.4067115,17.6432396 84.3336373,17.7158438 84.2442289,17.7158438 L82.6271398,17.7158438 L82.6271398,23.0629271 C82.6271398,23.9170938 82.9108396,24.2929271 83.7361483,24.2929271 L84.2442289,24.2929271 C84.3336373,24.2929271 84.4067115,24.3655313 84.4067115,24.4552188 L84.4067115,26.6162604 C84.4084309,26.6939896 84.3551298,26.7623229 84.2786168,26.7776979 C83.7989061,26.8690938 83.3131776,26.9118021 82.8257297,26.9066771 C80.6335036,26.9066771 79.7213656,25.8048021 79.7213656,23.8914688 L79.7213656,17.7158438 L78.8023501,17.7158438 C78.7112222,17.7158438 78.638148,17.6432396 78.638148,17.5535521 L78.638148,15.4523021 C78.638148,15.3626146 78.7112222,15.2900104 78.8023501,15.2900104 L79.7213656,15.2900104 L79.7213656,14.2820938 C79.7222253,14.2265729 79.751455,14.1744688 79.7987383,14.1454271 L82.3778278,12.5481354 C82.4552005,12.5011563 82.555785,12.5242188 82.6030683,12.6002396 C82.6185428,12.6258646 82.6271398,12.6549063 82.6271398,12.6848021 L82.6271398,15.2814688 L84.2442289,15.2814688 Z M123.738256,17.7159292 L122.122027,17.7159292 L122.122027,23.0630125 C122.122027,23.9171792 122.405727,24.2930125 123.231035,24.2930125 L123.738256,24.2930125 C123.828524,24.2930125 123.901599,24.3656167 123.901599,24.4553042 L123.901599,26.6163458 C123.89902,26.6906583 123.846578,26.7538667 123.772644,26.7700958 C123.293793,26.8606375 122.807205,26.9033458 122.320617,26.8982208 C120.127531,26.8982208 119.216253,25.7963458 119.216253,23.8830125 L119.216253,17.7159292 L118.296378,17.7159292 C118.206109,17.7159292 118.133035,17.643325 118.133035,17.5536375 L118.133035,15.4438458 C118.133035,15.3541583 118.206109,15.2815542 118.296378,15.2815542 L119.216253,15.2815542 L119.216253,14.281325 C119.216253,14.2266583 119.245482,14.1745542 119.293625,14.1455125 L121.872715,12.5482208 C121.949228,12.5012417 122.049812,12.5243042 122.097955,12.600325 C122.11343,12.62595 122.122027,12.6549917 122.122027,12.6848875 L122.122027,15.2815542 L123.738256,15.2815542 C123.828524,15.2815542 123.901599,15.3541583 123.901599,15.4438458 L123.901599,17.5536375 C123.901599,17.643325 123.828524,17.7159292 123.738256,17.7159292 Z M88.4739357,11.8989688 C88.5633441,11.8989688 88.6364183,11.9715729 88.6364183,12.0612604 L88.6364183,26.6504271 C88.6329796,26.7366979 88.560765,26.8041771 88.4739357,26.8041771 L85.8948462,26.8041771 C85.8045781,26.8041771 85.7315039,26.7315729 85.7315039,26.6418854 L85.7315039,12.0612604 C85.7315039,11.9715729 85.8045781,11.8989688 85.8948462,11.8989688 L88.4739357,11.8989688 Z M93.0645431,15.2898396 C93.1539515,15.2898396 93.2270257,15.3624438 93.2270257,15.4521313 L93.2270257,26.6425688 C93.2270257,26.7314021 93.1539515,26.8040063 93.0645431,26.8040063 L93.0645431,26.7698396 L90.4854536,26.7698396 C90.3951854,26.7698396 90.3221112,26.6972354 90.3221112,26.6075479 L90.3221112,15.4521313 C90.3221112,15.3624438 90.3951854,15.2898396 90.4854536,15.2898396 L93.0645431,15.2898396 Z M91.7665733,11.1045083 C92.7156782,11.1045083 93.4859663,11.8698417 93.4859663,12.8128417 C93.4859663,13.7558417 92.7156782,14.521175 91.7665733,14.521175 C90.8174684,14.521175 90.0471803,13.7558417 90.0471803,12.8128417 C90.0471803,11.8698417 90.8174684,11.1045083 91.7665733,11.1045083 Z M106.432566,15.2816396 C106.522834,15.2816396 106.596768,15.3542438 106.596768,15.4439313 L106.596768,24.8397646 C106.596768,29.1703896 104.017678,30.7241188 100.398356,30.7241188 C98.9446092,30.7394938 97.5089161,30.4080771 96.2107744,29.7589104 C96.1385599,29.7187646 96.1093302,29.6299313 96.1419986,29.5539104 L96.9501134,27.5816396 C96.9836415,27.4979313 97.0782081,27.4577854 97.1624584,27.4910979 C97.1667569,27.4919521 97.1701957,27.4936604 97.1744941,27.4962229 C98.1820584,27.9882229 99.2902072,28.2461813 100.41469,28.2478896 C102.237247,28.2478896 103.690134,27.5133063 103.707328,25.8391396 L103.707328,25.7101604 C102.877721,26.5831188 101.707674,27.0537646 100.50066,27.0008063 C97.3627677,27.1835979 94.6693385,24.8047438 94.4862232,21.6870354 C94.4733277,21.4828896 94.472468,21.2770354 94.4827844,21.0728896 C94.3684448,17.8859938 96.8761795,15.2098896 100.083707,15.0962854 C100.182572,15.0928688 100.281437,15.0920146 100.380302,15.0937229 C101.652653,15.0416188 102.891476,15.5003063 103.819088,16.3664313 L103.819088,15.4439313 C103.81565,15.3542438 103.886145,15.2790771 103.977273,15.2756604 C103.992747,15.2748063 104.009941,15.2765146 104.025416,15.2816396 L106.432566,15.2816396 Z M100.597806,24.4374521 C102.335252,24.4562438 103.763208,23.0776188 103.788999,21.3504938 C103.790718,21.2403063 103.78642,21.1309729 103.776104,21.0207854 C103.905918,19.2663271 102.579406,17.7390771 100.81273,17.6109521 C99.0460534,17.4819729 97.5097758,18.7999521 97.3799616,20.5552646 C97.3687856,20.7107229 97.3687856,20.8661813 97.3799616,21.0207854 C97.2475684,22.7709729 98.5663428,24.2973688 100.327861,24.4289104 C100.417269,24.4357438 100.507537,24.4374521 100.597806,24.4374521 Z M113.620058,15.1534292 C116.327243,15.1534292 117.239381,16.9813458 117.239381,19.2021792 L117.239381,26.6419708 C117.239381,26.7316583 117.166306,26.8042625 117.076038,26.8042625 L114.496949,26.8042625 C114.406681,26.8042625 114.333606,26.7316583 114.333606,26.6419708 L114.342203,19.5523875 C114.342203,18.4334292 113.843579,17.7244708 112.777556,17.7244708 C111.710672,17.7244708 111.169064,18.4590542 111.169064,19.5523875 L111.169064,26.6505125 C111.169064,26.7393458 111.095989,26.81195 111.006581,26.81195 L108.427492,26.81195 C108.336364,26.81195 108.264149,26.7393458 108.264149,26.6505125 L108.264149,12.0698875 C108.264149,11.9802 108.336364,11.9075958 108.427492,11.9075958 L111.006581,11.9075958 C111.095989,11.9075958 111.169064,11.9802 111.169064,12.0698875 L111.169064,16.1442625 C111.794923,15.4643458 112.695025,15.1004708 113.620058,15.1534292 Z" id="Combined-Shape"></path>
            <path d="M0.672788066,17.1074208 C0.556729038,17.0817958 0.483654835,16.9681917 0.50944573,16.8528792 L0.775951646,15.6143375 C0.776811343,15.6109208 0.777671039,15.60665 0.779390432,15.6023792 C0.810339506,15.488775 0.928117927,15.4212958 1.04245756,15.4520458 L10.6366705,17.8949625 C10.6383899,17.8958167 10.640969,17.8958167 10.6426884,17.8966708 C10.757028,17.928275 10.8232247,18.04615 10.7914159,18.1597542 C10.7286581,18.3024 10.6968493,18.4441917 10.6968493,18.5868375 C10.6753569,18.6987333 10.5696142,18.7739 10.4561343,18.7576708 L0.681385031,17.1091292 C0.678805941,17.108275 0.675367155,17.108275 0.672788066,17.1074208 Z M10.5336789,20.7993854 C10.5336789,20.8668646 10.4803777,20.9232396 10.4133214,20.9275104 L0.329081404,21.3460521 L0.320484439,21.3460521 C0.24912963,21.3460521 0.191529964,21.2888229 0.191529964,21.2179271 L0.191529964,19.7743854 C0.191529964,19.7709687 0.191529964,19.7684062 0.191529964,19.7658437 C0.196688143,19.6949479 0.257726595,19.6419896 0.329081404,19.6462604 L10.4133214,20.0562604 C10.4846762,20.0613854 10.5379774,20.1228854 10.5336789,20.1929271 L10.5336789,20.7993854 Z M10.8174647,22.9093479 C10.8337989,22.9776813 10.7916738,23.0460146 10.7228981,23.0630979 L0.948148855,25.5743479 C0.878513439,25.5905771 0.809737719,25.5487229 0.793403485,25.4803896 L0.492509709,24.0701604 L0.490790316,24.0658896 C0.478754565,23.9958479 0.525178176,23.9292229 0.59567329,23.9172646 L10.5423618,22.2089313 L10.5449409,22.2089313 C10.615436,22.1995354 10.6790536,22.2499313 10.6885102,22.3199729 C10.7280563,22.5189938 10.7710411,22.7154521 10.8174647,22.9093479 Z M21.4595617,10.2586271 C21.3882069,10.2543563 21.3349057,10.1928563 21.3400639,10.1219604 L21.9762393,0.11966875 C21.9762393,0.11966875 21.9762393,0.11966875 21.9762393,0.118814583 C21.9805378,0.0487729167 22.042436,-0.00503958333 22.1137908,8.5416667e-05 L23.5580809,0.188002083 C23.5589406,0.188002083 23.5589406,0.188002083 23.5598003,0.188002083 C23.6302954,0.198252083 23.6801578,0.26316875 23.6698414,0.333210417 L22.1997604,10.2500854 C22.1739695,10.3004813 22.1180892,10.3286688 22.062209,10.3184188 L21.4604214,10.2586271 L21.4595617,10.2586271 Z M19.3883809,0.154177083 L20.0245563,10.1564687 C20.0288548,10.2273646 19.9755536,10.2888646 19.9041988,10.2931354 L19.3024113,10.3529271 C19.2336355,10.3631771 19.1691583,10.3179062 19.1562629,10.2504271 L17.6947788,0.333552083 C17.6947788,0.332697917 17.6947788,0.33184375 17.6947788,0.330989583 C17.6861818,0.260947917 17.7360442,0.196885417 17.8065394,0.18834375 L19.2508295,0.03459375 L19.2516892,0.03459375 C19.3221843,0.02946875 19.3840824,0.08328125 19.3883809,0.154177083 Z M17.0070216,10.7027938 L13.5682356,1.47779375 C13.5665162,1.47266875 13.5647968,1.46754375 13.5630774,1.46241875 C13.5286896,1.34966875 13.5923071,1.23093958 13.705787,1.19591875 L14.9093621,0.803002083 C14.9128009,0.802147917 14.9162397,0.80129375 14.9196785,0.800439583 C15.0340181,0.768835417 15.1526562,0.83460625 15.184465,0.948210417 L17.8495242,10.4294604 C17.8495242,10.4320229 17.8503839,10.4337313 17.8512436,10.4354396 C17.8796136,10.5498979 17.8099781,10.6660646 17.6947788,10.6942521 L17.2821245,10.8309188 C17.1703639,10.8710646 17.0474273,10.8138354 17.0070216,10.7027938 Z M9.74284407,3.36567292 C9.74112468,3.36311042 9.73940529,3.36054792 9.73768589,3.35713125 C9.67922653,3.25463125 9.71619348,3.12479792 9.82021676,3.06671458 L10.9206283,2.43463125 L10.9318043,2.42865208 C11.0366873,2.37398542 11.1665015,2.41498542 11.2215221,2.52004792 L15.8037044,11.2325479 C15.8037044,11.2325479 15.8037044,11.2334021 15.8037044,11.2334021 C15.8604444,11.3376104 15.821758,11.4665896 15.7177348,11.5229646 L15.3394683,11.7450479 C15.2397435,11.8048396 15.1099293,11.7749438 15.0471715,11.6767146 L9.74284407,3.36567292 Z M6.38968383,6.03075833 C6.38796444,6.02905 6.38624505,6.02734167 6.38452566,6.02563333 C6.30199479,5.94021667 6.30457388,5.80525833 6.38968383,5.72325833 L7.33534999,4.86909167 C7.33706938,4.86738333 7.33878877,4.865675 7.34050817,4.8631125 C7.42647782,4.78196667 7.56230986,4.78452917 7.64484073,4.86909167 L13.96361,12.44555 C13.972207,12.4532375 13.9799443,12.4617792 13.9868218,12.471175 C14.0581766,12.5642792 14.0409827,12.6983833 13.9464161,12.7701333 L13.6197314,13.06055 C13.5363409,13.1416958 13.4022282,13.1416958 13.3188376,13.06055 L6.38968383,6.03075833 Z M3.6905807,9.2168 C3.689721,9.2168 3.689721,9.21594583 3.6888613,9.21594583 C3.5925753,9.14675833 3.56936349,9.01350833 3.63899891,8.91784167 L4.38693486,7.89284167 C4.38865426,7.89113333 4.39037365,7.88857083 4.39209304,7.8868625 C4.47806269,7.80571667 4.61389474,7.80827917 4.6964256,7.89284167 L12.4336941,14.008675 C12.5033295,14.0710292 12.5239623,14.1718208 12.4844162,14.2563833 L12.227367,14.6065917 C12.16203,14.7014042 12.0330756,14.7278833 11.9350702,14.6663833 L3.6905807,9.2168 Z M1.69574093,13.0263833 C1.69058275,13.024675 1.68456488,13.0221125 1.6794067,13.01955 C1.57194464,12.9700083 1.52552103,12.8427375 1.57538342,12.7359667 L2.09120132,11.5828417 C2.09206102,11.5802792 2.09378041,11.5777167 2.09464011,11.5751542 C2.14794129,11.4700917 2.27775547,11.4273833 2.38349814,11.4803417 L11.2211782,15.853675 C11.2263364,15.8553833 11.2314945,15.8570917 11.2366527,15.8588 C11.3475536,15.9015083 11.4017144,16.0253625 11.3587296,16.13555 L11.1781934,16.5284667 C11.1343488,16.6360917 11.0122719,16.68905 10.9030905,16.64805 L1.69574093,13.0263833 Z M11.3846065,24.9338083 C11.4155556,24.9970167 11.3880453,25.0738917 11.3244277,25.1037875 L2.29761445,29.5539958 C2.29417567,29.5565583 2.29073688,29.5582667 2.2872981,29.5591208 C2.22196116,29.5881625 2.14630787,29.5591208 2.11707819,29.4950583 L1.53248457,28.1796417 C1.53248457,28.1779333 1.53162487,28.1770792 1.53076517,28.1753708 C1.50411458,28.1104542 1.53506366,28.0352875 1.60126029,28.0088083 L10.9719522,24.3179542 C11.0364294,24.2948917 11.1077842,24.3247875 11.1352945,24.3862875 C11.2126672,24.5742042 11.2986368,24.7544333 11.3846065,24.9338083 Z M12.5368577,26.7355875 C12.5858604,26.7859833 12.5858604,26.8645667 12.5368577,26.9149625 L4.63624685,33.1332958 C4.58552476,33.1828375 4.50557298,33.1828375 4.45571058,33.1332958 L3.59601408,31.9630875 C3.54615168,31.9135458 3.54615168,31.8341083 3.59601408,31.7837125 L11.9866519,26.2401708 C11.9883713,26.2376083 11.9909504,26.2359 11.9935295,26.2333375 C12.0485501,26.1872125 12.1293616,26.1949 12.1757852,26.2495667 C12.2875457,26.4195458 12.4165002,26.57415 12.5368577,26.7355875 Z M14.0152778,28.3588458 C14.0591223,28.4075333 14.0591223,28.4809917 14.0152778,28.5296792 L7.59334491,36.2171792 C7.54348251,36.2658667 7.46267104,36.2658667 7.41280864,36.2171792 L6.32959105,35.2511167 C6.28058835,35.2024292 6.28058835,35.1221375 6.32959105,35.0717417 L13.3791024,27.913825 C13.3834008,27.9121167 13.3868396,27.9095542 13.3911381,27.9069917 C13.4513169,27.8694083 13.5312686,27.8882 13.5682356,27.9488458 C13.714384,28.0932 13.8605324,28.2307208 14.0152778,28.3588458 Z M15.7863385,29.5116292 C15.847377,29.5457958 15.8697291,29.6209625 15.8379203,29.6824625 L11.1697683,38.5572542 C11.1680489,38.5598167 11.1671892,38.5623792 11.1654698,38.5640875 C11.1293626,38.6247333 11.0502705,38.6443792 10.9892321,38.6085042 L9.73407517,37.8918583 L9.73063638,37.8892958 C9.67045763,37.8508583 9.652404,37.7714208 9.69109034,37.7124833 L15.0899844,29.2553792 C15.1269513,29.19815 15.2026046,29.1793583 15.2619237,29.2126708 L15.7863385,29.5116292 Z M17.7806625,30.3232583 C17.8459994,30.3437583 17.8838261,30.4112375 17.8666321,30.4770083 L15.1499912,40.1290917 C15.1499912,40.1299458 15.1491315,40.1308 15.1491315,40.1316542 C15.1276391,40.1999875 15.0545649,40.2358625 14.9866489,40.2145083 L13.6025375,39.7703417 C13.5363409,39.746425 13.501953,39.6738208 13.5251648,39.60805 L17.0413235,30.2122167 C17.045622,30.19855 17.0516399,30.1865917 17.0593771,30.1746333 C17.1006426,30.1174042 17.1805943,30.1028833 17.2390537,30.1438833 L17.7806625,30.3232583 Z M19.9042848,30.7503417 C19.9584457,30.7511958 20.0065887,30.7853625 20.0246423,30.8357583 L19.3884669,40.83805 C19.3884669,40.8406125 19.3876072,40.8440292 19.3876072,40.8474458 C19.3781505,40.9174875 19.3128136,40.9670292 19.2423185,40.9576333 L17.7980284,40.8038833 L17.7954493,40.8038833 C17.7249542,40.7936333 17.6759515,40.7287167 17.6862678,40.658675 L19.1563488,30.7503417 C19.1855785,30.6990917 19.2457573,30.675175 19.3024972,30.69055 L19.9042848,30.7503417 Z M22.1995885,30.7503417 L23.6610725,40.6672167 L23.6610725,40.668925 C23.6696695,40.7398208 23.6198071,40.8038833 23.549312,40.812425 L22.1050219,40.966175 L22.1041622,40.966175 C22.0336671,40.9713 21.9717689,40.9166333 21.9674704,40.8465917 L21.331295,30.8443 L21.331295,30.8357583 C21.331295,30.7648625 21.3888947,30.7076333 21.4602495,30.7076333 L22.062037,30.6478417 C22.127374,30.6418625 22.186693,30.6862792 22.1995885,30.7503417 Z M24.3144419,30.2205875 L27.8220036,39.6164208 C27.823723,39.6206917 27.8254424,39.6258167 27.8263021,39.6300875 C27.8452154,39.6984208 27.8048097,39.7693167 27.736034,39.7872542 L26.3605195,40.2314208 C26.3596599,40.232275 26.3579405,40.232275 26.3570808,40.2331292 C26.2891647,40.252775 26.2169502,40.2134833 26.1971772,40.1460042 L23.4891332,30.4862333 C23.472799,30.4196083 23.5097659,30.3521292 23.5751029,30.3316292 L24.1510995,30.1437125 C24.2172962,30.1215042 24.2903704,30.1548167 24.3144419,30.2205875 Z M31.6735299,37.7120563 C31.6743896,37.7129104 31.6752493,37.7146188 31.676109,37.7154729 C31.7122162,37.7761188 31.6915835,37.8555563 31.6305451,37.8914313 L30.3753882,38.6174729 C30.3728091,38.6191813 30.3710897,38.6191813 30.3685106,38.6208896 C30.3057528,38.6533479 30.2275204,38.6285771 30.1948519,38.5662229 L25.5181029,29.6905771 C25.4862942,29.6299313 25.5086463,29.5539104 25.5696847,29.5197438 L26.0940996,29.2130979 C26.1534187,29.1797854 26.229072,29.1977229 26.2660389,29.2558063 L31.6735299,37.7120563 Z M27.993771,27.8716292 L35.0432823,35.0295458 C35.092285,35.0790875 35.092285,35.1593792 35.0432823,35.2089208 L33.9600647,36.1741292 C33.9102023,36.2228167 33.8302505,36.2228167 33.7795284,36.1741292 L27.3575956,28.4866292 C27.313751,28.4379417 27.313751,28.3644833 27.3575956,28.31665 C27.5123409,28.1791292 27.6584893,28.0424625 27.8046377,27.9057958 C27.8072168,27.901525 27.8097959,27.8972542 27.8132347,27.8938375 C27.8570792,27.8383167 27.9378907,27.8280667 27.993771,27.8716292 Z M29.3865653,26.2659667 L37.7772031,31.8095083 C37.8262058,31.8599042 37.8262058,31.9393417 37.7772031,31.9888833 L36.9175066,33.1590917 C36.8676442,33.2077792 36.7868328,33.2077792 36.7369704,33.1590917 L28.8363595,26.9407583 C28.7873568,26.8903625 28.7873568,26.8117792 28.8363595,26.7613833 C28.956717,26.5990917 29.0856715,26.4368 29.197432,26.2745083 C29.2000111,26.2719458 29.2017305,26.2693833 29.2043096,26.2668208 C29.254172,26.216425 29.3358432,26.2155708 29.3865653,26.2659667 Z M28.8106546,14.2650958 C28.7616519,14.2147 28.7616519,14.1352625 28.8106546,14.0857208 L36.7112654,7.8673875 C36.7129848,7.864825 36.7155639,7.8622625 36.718143,7.86055417 C36.7705845,7.81186667 36.8522557,7.81528333 36.9003987,7.8673875 L37.7600952,9.02905417 C37.7626743,9.03161667 37.7652533,9.033325 37.7669727,9.0358875 C37.8159754,9.0871375 37.8125367,9.1691375 37.7600952,9.21697083 L29.3694573,14.7605125 C29.3642991,14.7656375 29.3574216,14.7707625 29.3514037,14.7758875 C29.2929443,14.8160333 29.2121328,14.8015125 29.1717271,14.7434292 C29.0513696,14.5811375 28.9310121,14.4188458 28.8106546,14.2650958 Z M27.3322345,12.65055 C27.2823721,12.6001542 27.2823721,12.5207167 27.3322345,12.471175 L33.7541674,4.783675 C33.7558868,4.7811125 33.7584659,4.77940417 33.7610449,4.77684167 C33.8134864,4.72900833 33.8942979,4.73157083 33.9433006,4.783675 L35.0265182,5.74034167 L35.0333958,5.747175 C35.0815388,5.79927917 35.0789597,5.880425 35.0265182,5.92825833 L27.9770069,13.086175 C27.970989,13.0921542 27.9641114,13.0972792 27.9572339,13.10155 C27.8961954,13.1391333 27.8162436,13.1203417 27.7792767,13.06055 C27.6331283,12.9153417 27.4869799,12.778675 27.3322345,12.65055 Z M25.5695988,11.4802563 C25.5085603,11.4460896 25.4862082,11.3709229 25.518017,11.3094229 L30.186169,2.42608958 C30.1878884,2.42352708 30.1887481,2.42181875 30.1904675,2.41925625 C30.2265747,2.35861042 30.3056668,2.33896458 30.3667052,2.37483958 L31.6218621,3.10088125 L31.6253009,3.10344375 C31.6854797,3.14188125 31.7035333,3.22046458 31.664847,3.28025625 L26.2659529,11.7450479 C26.228986,11.8022771 26.1533327,11.8210688 26.0940136,11.7877563 L25.5695988,11.4802563 Z M23.5751889,10.6690542 C23.5098519,10.6485542 23.4720253,10.581075 23.4892192,10.5153042 L26.2058601,0.863220833 C26.2058601,0.862366667 26.2067198,0.8615125 26.2067198,0.859804167 C26.2282123,0.792325 26.3012865,0.755595833 26.3692025,0.777804167 L27.7533139,1.22197083 C27.8195105,1.2458875 27.8538983,1.31849167 27.8306865,1.3842625 L24.3145278,10.7800958 C24.2904563,10.8458667 24.2173821,10.8800333 24.1511855,10.8569708 L23.5751889,10.6690542 Z" id="Combined-Shape"></path>
        </g>
    </g>
</svg>