<?xml version="1.0" encoding="UTF-8"?>
<svg width="86px" height="91px" viewBox="0 0 86 91" version="1.1" xmlns="http://www.w3.org/2000/svg" xmlns:xlink="http://www.w3.org/1999/xlink">
    <!-- Generator: Sketch 47.1 (45422) - http://www.bohemiancoding.com/sketch -->
    <title>Group 11</title>
    <desc>Created with Sketch.</desc>
    <defs></defs>
    <g id="Onboarding" stroke="none" stroke-width="1" fill="none" fill-rule="evenodd">
        <g id="Group-11" fill-rule="nonzero">
            <path d="M66.532,42.58 C64.732,40.829 59.477,35.628 57.084,33.27 C57.084,33.27 56.609,32.803 55.866,32.072 C53.475,29.714 48.276,24.454 46.42,22.761 C45.454,21.88 40.543,21.672 39.688,22.945 C39.368,23.421 36.899,27.415 33.042,33.48 L40.44,40.785 C41.068,41.404 40.326,42.456 39.707,43.083 C39.089,43.711 38.353,44.434 37.724,43.815 L30.816,36.993 C25.311,45.655 18.641,56.177 12.705,65.552 L17.773,70.554 C18.401,71.172 17.765,72.223 17.146,72.852 C16.527,73.478 15.583,74.097 14.954,73.478 L10.38,68.964 C5.231,77.1 1.635,82.91 1.221,83.608 C-0.092,85.809 1.105,87.893 2.196,88.967 C3.286,90.042 5.386,91.208 7.57,89.863 C8.667,89.186 22.599,79.474 36.889,69.613 L30.703,63.505 C30.077,62.886 30.839,61.885 31.457,61.257 C32.075,60.63 33.085,60.055 33.712,60.674 L40.333,67.212 C53.5,58.124 65.559,49.929 66.442,49.316 C67.598,48.515 68.016,44.024 66.532,42.58" id="Shape" fill="#FFAB00"></path>
            <polygon id="Shape" fill="#4ED663" points="57.835 28.045 61.256 31.418 85.354 19.896 82.405 14.058 69.372 20.105 76.917 4.714 71.715 0.469"></polygon>
        </g>
    </g>
</svg>