<?xml version="1.0" encoding="UTF-8"?>
<svg width="52px" height="90px" viewBox="0 0 52 90" version="1.1" xmlns="http://www.w3.org/2000/svg" xmlns:xlink="http://www.w3.org/1999/xlink">
    <!-- Generator: Sketch 47.1 (45422) - http://www.bohemiancoding.com/sketch -->
    <title>Shape</title>
    <desc>Created with Sketch.</desc>
    <defs></defs>
    <g id="Onboarding" stroke="none" stroke-width="1" fill="none" fill-rule="evenodd">
        <path d="M17.612,0 C17.612,0 23.968,15.538 16.352,25.713 C9.452,34.934 0.566,42.983 0.566,58.11 C0.566,73.849 7.055,82.108 25.179,90 C25.179,90 51.432,85.058 51.432,57.515 C51.433,29.968 17.612,0 17.612,0 Z M25.099,88.689 C25.099,88.689 16.56,82.271 16.56,70.769 C16.56,59.267 26.007,52.165 26.007,52.165 C26.007,52.165 35.088,60.943 35.088,70.833 C35.088,80.719 25.099,88.689 25.099,88.689 Z" id="Shape" fill="#FF3A2D" fill-rule="nonzero"></path>
    </g>
</svg>