<?xml version="1.0" encoding="UTF-8"?>
<svg width="44px" height="44px" viewBox="0 0 44 44" version="1.1" xmlns="http://www.w3.org/2000/svg" xmlns:xlink="http://www.w3.org/1999/xlink">
    <!-- Generator: Sketch 53.2 (72643) - https://sketchapp.com -->
    <title>icon</title>
    <desc>Created with Sketch.</desc>
    <defs>
        <path d="M22,44 C34.1502645,44 44,34.1502645 44,22 C44,9.8497355 34.1502645,0 22,0 C9.8497355,0 0,9.8497355 0,22 C0,34.1502645 9.8497355,44 22,44 Z" id="path-1"></path>
        <path d="M15.796,13.2 C15.884,12.474 15.95,11.748 15.95,11 C15.95,10.252 15.884,9.526 15.796,8.8 L19.514,8.8 C19.69,9.504 19.8,10.241 19.8,11 C19.8,11.759 19.69,12.496 19.514,13.2 L15.796,13.2 Z M13.849,19.316 C14.509,18.095 15.015,16.775 15.367,15.4 L18.612,15.4 C17.556,17.215 15.873,18.623 13.849,19.316 L13.849,19.316 Z M13.574,13.2 L8.426,13.2 C8.316,12.474 8.25,11.748 8.25,11 C8.25,10.252 8.316,9.515 8.426,8.8 L13.574,8.8 C13.673,9.515 13.75,10.252 13.75,11 C13.75,11.748 13.673,12.474 13.574,13.2 L13.574,13.2 Z M11,19.756 C10.087,18.436 9.35,16.973 8.899,15.4 L13.101,15.4 C12.65,16.973 11.913,18.436 11,19.756 L11,19.756 Z M6.6,6.6 L3.388,6.6 C4.433,4.774 6.127,3.366 8.14,2.684 C7.48,3.905 6.985,5.225 6.6,6.6 L6.6,6.6 Z M3.388,15.4 L6.6,15.4 C6.985,16.775 7.48,18.095 8.14,19.316 C6.127,18.623 4.433,17.215 3.388,15.4 L3.388,15.4 Z M2.486,13.2 C2.31,12.496 2.2,11.759 2.2,11 C2.2,10.241 2.31,9.504 2.486,8.8 L6.204,8.8 C6.116,9.526 6.05,10.252 6.05,11 C6.05,11.748 6.116,12.474 6.204,13.2 L2.486,13.2 Z M11,2.233 C11.913,3.553 12.65,5.027 13.101,6.6 L8.899,6.6 C9.35,5.027 10.087,3.553 11,2.233 L11,2.233 Z M18.612,6.6 L15.367,6.6 C15.015,5.225 14.509,3.905 13.849,2.684 C15.873,3.377 17.556,4.774 18.612,6.6 L18.612,6.6 Z M11,4.88498131e-16 C4.917,4.88498131e-16 0,4.95 0,11 C-2.44249065e-16,13.9173814 1.15892524,16.7152744 3.22182541,18.7781746 C5.28472557,20.8410748 8.08261861,22 11,22 C17.0751322,22 22,17.0751322 22,11 C22,8.08261861 20.8410748,5.28472557 18.7781746,3.22182541 C16.7152744,1.15892524 13.9173814,2.44249065e-16 11,0 L11,4.88498131e-16 Z" id="path-3"></path>
    </defs>
    <g id="Mocks---templates" stroke="none" stroke-width="1" fill="none" fill-rule="evenodd">
        <g id="MVP---zero-state" transform="translate(-152.000000, -784.000000)">
            <g id="Left-Nav" transform="translate(135.000000, 261.000000)">
                <g id="left-nav" transform="translate(0.000000, 399.000000)">
                    <g id="list" transform="translate(0.000000, 26.000000)">
                        <g id="list-2" transform="translate(1.000000, 80.000000)">
                            <g id="Elements/Benefits/List">
                                <g id="icon" transform="translate(16.000000, 18.000000)">
                                    <g id="Color/Castlight/Pale-Green">
                                        <mask id="mask-2" fill="white">
                                            <use xlink:href="#path-1"></use>
                                        </mask>
                                        <use id="Mask" fill="#D5F5E3" fill-rule="nonzero" xlink:href="#path-1"></use>
                                        <g id="Color/Castlight/Pale-Blue" mask="url(#mask-2)" fill="#E5F0FF">
                                            <rect id="Rectangle" x="0" y="0" width="44" height="44"></rect>
                                        </g>
                                    </g>
                                    <g id="SVG/Medical-plan" transform="translate(11.000000, 11.000000)">
                                        <mask id="mask-4" fill="white">
                                            <use xlink:href="#path-3"></use>
                                        </mask>
                                        <g id="Shape"></g>
                                        <g id="🎨-Color/White" mask="url(#mask-4)" fill="#006DFF">
                                            <g transform="translate(-7.000000, -7.000000)" id="Rectangle">
                                                <rect x="0" y="0" width="36" height="36"></rect>
                                            </g>
                                        </g>
                                    </g>
                                </g>
                            </g>
                        </g>
                    </g>
                </g>
            </g>
        </g>
    </g>
</svg>