<?xml version="1.0" encoding="UTF-8"?>
<svg width="44px" height="44px" viewBox="0 0 44 44" version="1.1" xmlns="http://www.w3.org/2000/svg" xmlns:xlink="http://www.w3.org/1999/xlink">
    <!-- Generator: Sketch 53.2 (72643) - https://sketchapp.com -->
    <title>phone_icon_engage</title>
    <desc>Created with Sketch.</desc>
    <defs>
        <circle id="path-1" cx="22" cy="22" r="22"></circle>
        <path d="M4.66482369,0 C5.08800289,0 5.48578537,0.135415313 5.85818307,0.40625 L5.95974557,0.5078125 L9.20974557,3.859375 L9.26052682,3.91015625 L9.20974557,3.9609375 C9.58214327,4.26562652 9.76833932,4.663409 9.76833932,5.15429687 C9.76833932,5.64518475 9.59907018,6.05989414 9.26052682,6.3984375 L7.63552682,8.0234375 C8.21105053,9.3437566 8.97276166,10.4609329 9.92068307,11.375 C10.8686045,12.2890671 11.9688539,13.0338513 13.2214643,13.609375 L14.8464643,11.984375 C15.1850077,11.679686 15.6081805,11.5273437 16.1159956,11.5273437 C16.6238106,11.5273437 17.0469835,11.679686 17.3855268,11.984375 L17.4363081,12.0859375 L20.6863081,15.3359375 C21.0248514,15.6744809 21.1941206,16.0976537 21.1941206,16.6054687 C21.1941206,17.1132838 21.0248514,17.5364566 20.6863081,17.875 L18.1980268,20.4140625 L18.1472456,20.4140625 C17.3008872,21.1588579 16.35298,21.3619809 15.3034956,21.0234375 C11.6472273,19.5677011 8.56652893,17.604179 6.06130807,15.1328125 C3.35296119,12.3906113 1.38943916,9.30991293 0.17068307,5.890625 C-0.201714625,4.80728625 0.0352621714,3.89323289 0.88162057,3.1484375 L0.88162057,3.09765625 L3.42068307,0.5078125 L3.42068307,0.45703125 L3.47146432,0.40625 C3.84386202,0.135415313 4.2416445,0 4.66482369,0 Z M4.66482369,1.625 C4.61404219,1.625 4.55479799,1.65885383 4.48708932,1.7265625 L1.99880807,4.21484375 L1.99880807,4.265625 C1.66026471,4.53645969 1.55870323,4.89192488 1.69412057,5.33203125 C2.81131366,8.51433883 4.65634729,11.3919142 7.22927682,13.9648437 C9.53137166,16.2669386 12.3920201,18.0950453 15.8113081,19.4492187 C16.2852688,19.6184904 16.7084416,19.5338559 17.0808393,19.1953125 L19.5691206,16.7578125 C19.6368292,16.6562495 19.6368292,16.5716149 19.5691206,16.5039062 L16.2175581,13.203125 C16.1498494,13.101562 16.0821417,13.101562 16.0144331,13.203125 L13.9831831,15.234375 L13.5769331,15.5898437 L13.0691206,15.3359375 C11.5795298,14.7265595 10.2084497,13.8463599 8.95583932,12.6953125 L8.80349557,12.5429687 C8.19411752,12.0012994 7.65245627,11.3665401 7.17849557,10.6386719 C6.70453487,9.91080365 6.36599659,9.3098982 6.16287057,8.8359375 L5.85818307,8.17578125 L5.70583932,7.66796875 L8.09255807,5.28125 C8.19412108,5.21354133 8.22797491,5.14583367 8.19412057,5.078125 L8.14333932,5.078125 L8.09255807,5.02734375 L4.84255807,1.7265625 C4.7748494,1.65885383 4.7156052,1.625 4.66482369,1.625 Z" id="path-3"></path>
    </defs>
    <g id="Page-1" stroke="none" stroke-width="1" fill="none" fill-rule="evenodd">
        <g id="phone_icon_engage">
            <g id="🎨-Color/Castlight/Pale-Blue">
                <mask id="mask-2" fill="white">
                    <use xlink:href="#path-1"></use>
                </mask>
                <use id="Mask" fill="#BBC2CD" xlink:href="#path-1"></use>
                <g id="↳🎨-Color/Castlight/Pale-Blue" mask="url(#mask-2)" fill="#127BBF">
                    <rect id="Rectangle" x="0" y="0" width="44" height="44"></rect>
                </g>
            </g>
            <g id="💎-Right-icon" transform="translate(11.000000, 11.000000)">
                <mask id="mask-4" fill="white">
                    <use xlink:href="#path-3"></use>
                </mask>
                <g id=""></g>
                <g id="🎨-Color/White" mask="url(#mask-4)" fill="#FFFFFF">
                    <g transform="translate(-7.000000, -7.000000)" id="Rectangle">
                        <rect x="0" y="0" width="36" height="36"></rect>
                    </g>
                </g>
            </g>
        </g>
    </g>
</svg>