<?xml version="1.0" encoding="UTF-8"?>
<svg width="16px" height="16px" viewBox="0 0 16 16" version="1.1" xmlns="http://www.w3.org/2000/svg" xmlns:xlink="http://www.w3.org/1999/xlink">
    <!-- Generator: Sketch 50 (54983) - http://www.bohemiancoding.com/sketch -->
    <title>💎 Left icon</title>
    <desc>Created with Sketch.</desc>
    <defs>
        <path d="M11.488,9.6 C11.552,9.072 11.6,8.544 11.6,8 C11.6,7.456 11.552,6.928 11.488,6.4 L14.192,6.4 C14.32,6.912 14.4,7.448 14.4,8 C14.4,8.552 14.32,9.088 14.192,9.6 L11.488,9.6 Z M10.072,14.048 C10.552,13.16 10.92,12.2 11.176,11.2 L13.536,11.2 C12.768,12.52 11.544,13.544 10.072,14.048 L10.072,14.048 Z M9.872,9.6 L6.128,9.6 C6.048,9.072 6,8.544 6,8 C6,7.456 6.048,6.92 6.128,6.4 L9.872,6.4 C9.944,6.92 10,7.456 10,8 C10,8.544 9.944,9.072 9.872,9.6 L9.872,9.6 Z M8,14.368 C7.336,13.408 6.8,12.344 6.472,11.2 L9.528,11.2 C9.2,12.344 8.664,13.408 8,14.368 L8,14.368 Z M4.8,4.8 L2.464,4.8 C3.224,3.472 4.456,2.448 5.92,1.952 C5.44,2.84 5.08,3.8 4.8,4.8 L4.8,4.8 Z M2.464,11.2 L4.8,11.2 C5.08,12.2 5.44,13.16 5.92,14.048 C4.456,13.544 3.224,12.52 2.464,11.2 L2.464,11.2 Z M1.808,9.6 C1.68,9.088 1.6,8.552 1.6,8 C1.6,7.448 1.68,6.912 1.808,6.4 L4.512,6.4 C4.448,6.928 4.4,7.456 4.4,8 C4.4,8.544 4.448,9.072 4.512,9.6 L1.808,9.6 Z M8,1.624 C8.664,2.584 9.2,3.656 9.528,4.8 L6.472,4.8 C6.8,3.656 7.336,2.584 8,1.624 L8,1.624 Z M13.536,4.8 L11.176,4.8 C10.92,3.8 10.552,2.84 10.072,1.952 C11.544,2.456 12.768,3.472 13.536,4.8 L13.536,4.8 Z M8,3.55271368e-16 C3.576,3.55271368e-16 0,3.6 0,8 C-1.77635684e-16,10.1217319 0.842854723,12.1565632 2.34314575,13.6568542 C3.84343678,15.1571453 5.87826808,16 8,16 C12.418278,16 16,12.418278 16,8 C16,5.87826808 15.1571453,3.84343678 13.6568542,2.34314575 C12.1565632,0.842854723 10.1217319,1.77635684e-16 8,0 L8,3.55271368e-16 Z" id="path-1"></path>
    </defs>
    <g id="Flow" stroke="none" stroke-width="1" fill="none" fill-rule="evenodd">
        <g id="Specs/Individual-pages/Programs-template" transform="translate(-1229.000000, -1814.000000)">
            <g id="Program-details-initial---expanded" transform="translate(1117.000000, 322.000000)">
                <g id="Group" transform="translate(93.000000, 1320.000000)">
                    <g id="Component/List/Small-icon+Text+Subtext+link" transform="translate(0.000000, 149.000000)">
                        <g id="💎-Left-icon" transform="translate(19.000000, 23.000000)">
                            <mask id="mask-2" fill="white">
                                <use xlink:href="#path-1"></use>
                            </mask>
                            <g id="Shape"></g>
                            <g id="🎨-Color/White" mask="url(#mask-2)" fill="#006DFF">
                                <g transform="translate(-4.000000, -4.000000)" id="Rectangle">
                                    <rect x="0" y="0" width="24" height="24"></rect>
                                </g>
                            </g>
                        </g>
                    </g>
                </g>
            </g>
        </g>
    </g>
</svg>