<?xml version="1.0" encoding="UTF-8" standalone="no"?>
<svg width="118px" height="57px" viewBox="0 0 118 57" version="1.1" xmlns="http://www.w3.org/2000/svg" xmlns:xlink="http://www.w3.org/1999/xlink">
    <!-- Generator: Sketch 48 (47235) - http://www.bohemiancoding.com/sketch -->
    <title>Artboard</title>
    <desc>Created with Sketch.</desc>
    <defs>
        <polygon id="path-1" points="3 50.8020557 11 50.8020557 115 50.8020557 115 -4 3 -4"></polygon>
    </defs>
    <g id="Symbols" stroke="none" stroke-width="1" fill="none" fill-rule="evenodd">
        <g id="Artboard">
            <path d="M38.4204545,160 C87.3164828,160 126.954545,128.212217 126.954545,89 C126.954545,49.7877828 87.3164828,18 38.4204545,18 C-10.4755737,18 -50.1136364,49.7877828 -50.1136364,89 C-50.1136364,128.212217 -10.4755737,160 38.4204545,160 Z" id="Oval-3" fill="#D5F5E3"></path>
            <mask id="mask-2" fill="white">
                <use xlink:href="#path-1"></use>
            </mask>
            <g id="Mask"></g>
            <path d="M30.3165231,34.442769 L26.9826769,34.442769 L23.6488308,34.442769 L18.1549846,36.8011725 C16.4768308,37.6415377 15.0199077,39.3934856 15.0199077,41.3131899 L15.0199077,45.639409 L15.0199077,51.3890264 L38.9454462,51.3890264 L38.9454462,45.639409 L38.9454462,41.3131899 C38.9454462,39.3934856 37.4882154,37.6415377 35.8100615,36.8011725 L30.3165231,34.442769 Z" id="Fill-46" fill="#FFFFFF"></path>
            <path d="M30.3165231,34.442769 L26.9826769,34.442769 L23.6488308,34.442769 L18.1549846,36.8011725 C16.4768308,37.6415377 15.0199077,39.3934856 15.0199077,41.3131899 L15.0199077,45.639409 L15.0199077,51.3890264 L38.9454462,51.3890264 L38.9454462,45.639409 L38.9454462,41.3131899 C38.9454462,39.3934856 37.4882154,37.6415377 35.8100615,36.8011725 L30.3165231,34.442769 L30.3165231,34.442769 Z" id="Stroke-50" stroke="#3F5F8B" stroke-linejoin="round"></path>
            <path d="M36.5320615,15.6038699 L36.5231385,15.5851951 C36.3425231,15.2116995 36.2305231,14.8071847 36.1929846,14.3915917 L36.1911385,14.368169 C36.1157538,13.5312856 35.7397538,12.7535917 35.1366769,12.1863847 L35.1197538,12.1705586 C34.8203692,11.8888543 34.5739077,11.5523917 34.3936,11.178263 L34.3788308,11.1475603 C34.3132923,11.012089 34.2369846,10.8842143 34.1551385,10.7598212 C33.9588308,10.6234003 33.7492923,10.5059708 33.5256,10.415129 L33.5009846,10.4050003 C33.1200615,10.2502212 32.7705231,10.0235917 32.4705231,9.73650643 L32.4622154,9.72859339 C31.8545231,9.14745948 31.0557538,8.82429078 30.2262154,8.82429078 C29.8203692,8.82429078 29.4182154,8.74705948 29.0400615,8.59639513 L29.0225231,8.58911513 C28.2594462,8.28525426 27.4132923,8.28525426 26.6502154,8.58911513 L26.6326769,8.59639513 C26.2545231,8.74705948 25.8523692,8.82429078 25.4468308,8.82429078 C24.6169846,8.82429078 23.8182154,9.14745948 23.2108308,9.72859339 L23.1945231,9.74410296 C22.8997538,10.0261238 22.5566769,10.2502212 22.1831385,10.4046838 L22.1305231,10.4265238 C21.3843692,10.734816 20.7745231,11.3143673 20.4160615,12.0547117 L20.3969846,12.0939603 C20.2163692,12.467456 19.9696,12.8032856 19.6699077,13.0846734 L19.6560615,13.0976508 C19.0511385,13.6648577 18.6742154,14.4438177 18.5985231,15.2819673 L18.5969846,15.3012751 C18.5594462,15.7168682 18.4474462,16.1216995 18.2668308,16.4951951 L18.2582154,16.5126038 C17.8936,17.2659256 17.8154462,18.1325621 18.0394462,18.9422247 L18.0446769,18.9608995 C18.1554462,19.362249 18.1932923,19.7813238 18.1560615,20.1969169 L18.1542154,20.2162247 C18.0785231,21.0543743 18.3102154,21.8915743 18.8034462,22.5632334 L18.8148308,22.578743 C19.0591385,22.9117238 19.2416,23.2883847 19.3526769,23.6897343 L19.3576,23.708409 C19.4536,24.0550003 19.6046769,24.3784856 19.7972923,24.6722177 C19.8332923,24.6969064 19.8674462,24.7241273 19.9043692,24.7475499 L19.9206769,24.7579951 C20.2652923,24.9776612 20.5677538,25.2609482 20.8123692,25.593929 L20.8234462,25.6094386 C20.8652923,25.666729 20.9111385,25.7199047 20.9560615,25.7737134 C21.1806769,25.935456 21.3840615,26.124736 21.5628308,26.3383882 C21.9428308,26.6121795 22.3763692,26.8049412 22.8403692,26.8942003 L22.8588308,26.8976821 C23.2576,26.9742803 23.6391385,27.1265273 23.9840615,27.3461934 L24.0000615,27.3563221 C24.6957538,27.7994525 25.5274462,27.959296 26.3317538,27.8048334 L26.3502154,27.8010351 C26.7489846,27.7244369 27.1582154,27.7244369 27.5569846,27.8010351 L27.5754462,27.8045169 C28.3797538,27.959296 29.2114462,27.7994525 29.9071385,27.3563221 L29.9231385,27.3461934 C30.2680615,27.1265273 30.6496,26.9742803 31.0483692,26.8976821 L31.0668308,26.8942003 C31.8714462,26.7394212 32.5905231,26.2814143 33.0837538,25.6094386 L33.0951385,25.593929 C33.3394462,25.2609482 33.6419077,24.9776612 33.9868308,24.7579951 L34.0028308,24.7475499 C34.6985231,24.3044195 35.2083692,23.6099708 35.4323692,22.8003082 L35.4376,22.7816334 C35.5483692,22.3802838 35.7308308,22.003623 35.9751385,21.6706421 L35.9868308,21.654816 C36.4797538,20.9831569 36.7111385,20.1459569 36.6357538,19.3078073 L36.6342154,19.288183 C36.5966769,18.8729064 36.6342154,18.4538317 36.7452923,18.0524821 L36.7508308,18.0328577 C36.9745231,17.2235117 36.8966769,16.3571917 36.5320615,15.6038699 L36.5320615,15.6038699 Z" id="Fill-1" fill="#77CBFF"></path>
            <path d="M28.1396615,7.68117252 L28.1572,7.688136 C28.5356615,7.83880035 28.9375077,7.91634817 29.3433538,7.91634817 L29.3433538,7.91634817 C30.1728923,7.91634817 30.9716615,8.23920035 31.5793538,8.82065078 L31.5876615,8.82856383 C31.8876615,9.11564904 32.2372,9.34227861 32.6181231,9.49705774 L32.6430462,9.50686991 C33.3990462,9.813896 34.0175077,10.3985117 34.3787385,11.1477186 L34.3935077,11.1784212 C34.5738154,11.5525499 34.8202769,11.8890125 35.1199692,12.1707169 L35.1365846,12.186543 C35.7396615,12.7534334 36.1156615,13.5314438 36.1910462,14.3683273 L36.1932,14.3917499 C36.2304308,14.8070264 36.3424308,15.2118577 36.5230462,15.5853534 L36.5319692,15.6040282 C36.8965846,16.3573499 36.9744308,17.2233534 36.7507385,18.033016 L36.7452,18.0526403 C36.6344308,18.4536734 36.5965846,18.8727482 36.6341231,19.2883412 L36.6359692,19.3079656 C36.7113538,20.1461151 36.4799692,20.9829986 35.9867385,21.6549743 L35.9753538,21.6704838 C35.7307385,22.0034647 35.5485846,22.3801256 35.4375077,22.7814751 L35.4322769,22.8004664 C35.2082769,23.610129 34.6984308,24.3045777 34.0027385,24.7477082 L33.9867385,24.7578369 C33.6418154,24.977503 33.3396615,25.2611064 33.0950462,25.5940873 L33.0836615,25.6095969 C32.5904308,26.281256 31.8713538,26.7395795 31.0667385,26.8940421 L31.0482769,26.8978403 C30.6495077,26.9744386 30.2679692,27.126369 29.9233538,27.3460351 L29.9070462,27.3564803 C29.2113538,27.7996108 28.3799692,27.9594543 27.5753538,27.8046751 L27.5568923,27.8011934 C27.1581231,27.7245951 26.7492,27.7245951 26.3504308,27.8011934 L26.3316615,27.8046751 C25.5273538,27.9594543 24.6956615,27.7996108 23.9999692,27.3564803 L23.9839692,27.3460351 C23.6390462,27.126369 23.2575077,26.9744386 22.8587385,26.8978403 L22.8402769,26.8940421 C22.0359692,26.7395795 21.3165846,26.281256 20.8236615,25.6095969 L20.8122769,25.5940873 C20.5676615,25.2611064 20.2655077,24.977503 19.9205846,24.7578369 L19.9045846,24.7477082 C19.2085846,24.3045777 18.6987385,23.610129 18.4750462,22.8004664 L18.4698154,22.7817917 C18.3587385,22.3804421 18.1762769,22.0034647 17.9319692,21.6704838 L17.9205846,21.6549743 C17.4273538,20.9833151 17.1959692,20.1464317 17.2713538,19.3079656 L17.2732,19.2886577 C17.3104308,18.8733812 17.2728923,18.4543064 17.1618154,18.0529569 L17.1565846,18.0342821 C16.9325846,17.2246195 17.0107385,16.357983 17.3756615,15.6043447 L17.3839692,15.586936 C17.5648923,15.2134403 17.6765846,14.808609 17.7141231,14.3933325 L17.7159692,14.3740247 C17.7913538,13.5355586 18.1685846,12.7565986 18.7732,12.1893917 L18.7870462,12.1764143 C19.0870462,11.895343 19.3335077,11.5595134 19.5144308,11.1860177 L19.5332,11.146769 C19.8916615,10.4061082 20.5018154,9.82687339 21.2476615,9.5182647 L21.3002769,9.49674122 C21.6741231,9.34196209 22.0168923,9.11818122 22.3116615,8.83616035 L22.3279692,8.82065078 C22.9353538,8.23920035 23.7344308,7.91634817 24.5639692,7.91634817 L24.5639692,7.91634817 C24.9695077,7.91634817 25.3716615,7.83880035 25.7498154,7.688136 L25.7676615,7.68117252 C26.5307385,7.37699513 27.3765846,7.37699513 28.1396615,7.68117252 L28.1396615,7.68117252 Z" id="Stroke-3" stroke="#3F5F8B"></path>
            <path d="M59.9143692,31.551343 L56.0143692,31.551343 L52.1146769,31.551343 L45.6882154,34.3101464 C43.7251385,35.293263 42.0208308,37.3424247 42.0208308,39.588463 L42.0208308,44.648696 L42.0208308,51.3744664 L70.0082154,51.3744664 L70.0082154,44.648696 L70.0082154,39.588463 C70.0082154,37.3424247 68.3036,35.293263 66.3408308,34.3101464 L59.9143692,31.551343 Z" id="Fill-5" fill="#FFFFFF"></path>
            <path d="M64.0920615,33.4927923 C64.0920615,37.8728202 60.5511385,41.3456967 56.2511385,41.3456967 C51.9511385,41.3456967 48.4379077,37.9114358 48.4379077,33.531408 L52.1145231,31.8611228 L59.7840615,31.8611228 L64.0920615,33.4927923 Z" id="Fill-9" fill="#FFFFFF"></path>
            <path d="M59.9143692,31.551343 L56.0143692,31.551343 L52.1146769,31.551343 L45.6882154,34.3101464 C43.7251385,35.293263 42.0208308,37.3424247 42.0208308,39.588463 L42.0208308,44.648696 L42.0208308,51.3744664 L70.0082154,51.3744664 L70.0082154,44.648696 L70.0082154,39.588463 C70.0082154,37.3424247 68.3036,35.293263 66.3408308,34.3101464 L59.9143692,31.551343 Z" id="Fill-11" fill="#FFFFFF"></path>
            <path d="M59.9143692,31.551343 L56.0143692,31.551343 L52.1146769,31.551343 L45.6882154,34.3101464 C43.7251385,35.293263 42.0208308,37.3424247 42.0208308,39.588463 L42.0208308,44.648696 L42.0208308,51.3744664 L70.0082154,51.3744664 L70.0082154,44.648696 L70.0082154,39.588463 C70.0082154,37.3424247 68.3036,35.293263 66.3408308,34.3101464 L59.9143692,31.551343 L59.9143692,31.551343 Z" id="Stroke-13" stroke="#3F5F8B" stroke-linejoin="round"></path>
            <path d="M62.5930154,32.985408 C62.5930154,36.7111854 59.5810154,39.6988341 55.9231692,39.6988341 C52.2656308,39.6988341 49.2770154,36.727328 49.2770154,33.0015506" id="Stroke-15" stroke="#3F5F8B" stroke-linejoin="round"></path>
            <path d="M59.6691385,31.551343 L59.6691385,51.3890264 L52.1306769,51.3744664 L52.1306769,31.551343 L45.6882154,34.3101464 C43.7251385,35.293263 42.0208308,37.3424247 42.0208308,39.588463 L42.0208308,44.648696 L42.0208308,51.3744664 L70.0082154,51.3744664 L70.0082154,44.648696 L70.0082154,39.588463 C70.0082154,37.3424247 68.3036,35.293263 66.3408308,34.3101464 L59.6691385,31.551343 Z" id="Fill-25" fill="#FFFFFF"></path>
            <path d="M65.4615385,51.4855339 L65.4615385,46.4211861" id="Fill-21" fill="#FFFFFF"></path>
            <path d="M52.2307692,51.4855339 L52.2307692,32.9933843 L46.7227692,35.3283652 C44.7596923,36.3114817 43,38.3606435 43,40.6063652 L43,45.6669148 L43,51.4855339 L52.2307692,51.4855339 Z" id="Fill-37" fill="#77CBFF"></path>
            <polygon id="Fill-39" fill="#4E8BF9" points="53.1538462 51.5100482 52.1307692 51.5100482 53.1538462 51.3763339"></polygon>
            <path d="M59.9144,31.5997708 L59.5337846,51.4855656 L70.0768615,51.4855656 L70.0768615,44.648696 L70.0768615,39.588463 C70.0768615,38.3765012 69.5100923,37.223729 68.7445538,36.2630856 C68.3051692,35.8930717 67.7399385,35.1033499 67.2445538,34.8551969 L59.9144,31.5997708 Z" id="Fill-42" fill="#77CBFF"></path>
            <path d="M59.6691385,31.551343 L59.6691385,51.3890264 L52.1306769,51.3744664 L52.1306769,31.551343 L45.6882154,34.3101464 C43.7251385,35.293263 42.0208308,37.3424247 42.0208308,39.588463 L42.0208308,44.648696 L42.0208308,51.3744664 L70.0082154,51.3744664 L70.0082154,44.648696 L70.0082154,39.588463 C70.0082154,37.3424247 68.3036,35.293263 66.3408308,34.3101464 L59.6691385,31.551343 L59.6691385,31.551343 Z" id="Stroke-27" stroke="#3F5F8B"></path>
            <polyline id="Stroke-29" stroke="#3F5F8B" stroke-linejoin="round" points="52.1307077 34.8551969 52.1307077 26.8323203 59.6691692 26.8323203 59.6691692 34.8551969"></polyline>
            <polyline id="Fill-31" fill="#FFFFFF" points="52.1307077 34.8551969 52.1307077 26.8323203 59.6691692 26.8323203 59.6691692 34.8551969"></polyline>
            <polyline id="Stroke-33" stroke="#3F5F8B" stroke-linejoin="round" points="52.1307077 34.8551969 52.1307077 26.8323203 59.6691692 26.8323203 59.6691692 34.8551969"></polyline>
            <path d="M23.6624923,35.3779958 L23.6624923,30.4086045 L30.1068,30.4086045 L30.1068,35.3779958 C30.1068,36.8669141 28.9335692,38.074128 27.4858769,38.074128 L26.2834154,38.074128 C24.8360308,38.074128 23.6624923,36.8669141 23.6624923,35.3779958" id="Fill-52" fill="#FFFFFF"></path>
            <path d="M19.9157538,27.2012581 C19.6480615,27.5431016 19.2945231,27.7782772 18.8831385,27.8523433 C17.7923692,28.0489033 16.7089846,27.0385659 16.4631385,25.5952268 C16.2176,24.1518877 16.9022154,22.8228129 17.9929846,22.6262529 C18.7225231,22.4945798 19.4486769,22.9035259 19.9234462,23.6204477" id="Stroke-56" stroke="#3F5F8B" fill="#FFFFFF" stroke-linejoin="round"></path>
            <path d="M26.8846769,35.1946031 L26.8846769,35.1946031 C24.8985231,35.1946031 23.2883692,33.5382449 23.2883692,31.495097 L23.2883692,27.658537 L30.4809846,27.658537 L30.4809846,31.495097 C30.4809846,33.5382449 28.8708308,35.1946031 26.8846769,35.1946031" id="Fill-58" fill="#3F5F8B" opacity="0.2"></path>
            <path d="M34.3449538,27.2012581 C34.6126462,27.5431016 34.9664923,27.7782772 35.3775692,27.8523433 C36.4683385,28.0489033 37.5517231,27.0385659 37.7975692,25.5952268 C38.0431077,24.1518877 37.3584923,22.8228129 36.2677231,22.6262529 C35.5381846,22.4945798 34.8120308,22.9035259 34.3372615,23.6204477" id="Stroke-62" stroke="#3F5F8B" fill="#FFFFFF" stroke-linejoin="round"></path>
            <path d="M23.6624923,35.3779958 L23.6624923,30.4086045 L30.1068,30.4086045 L30.1068,35.3779958 C30.1068,36.8669141 28.9335692,38.074128 27.4858769,38.074128 L26.2834154,38.074128 C24.8360308,38.074128 23.6624923,36.8669141 23.6624923,35.3779958 L23.6624923,35.3779958 Z" id="Stroke-60" stroke="#3F5F8B" fill="#FFFFFF" stroke-linejoin="round"></path>
            <path d="M32.5178462,16.0830838 C25.5446154,19.5686212 22.3009231,15.1743499 21.504,16.0830838 C20.0563077,17.7337447 19.1273846,19.8145586 18.9461538,22.0295777 C18.9298462,22.2308856 18.9206154,22.4220647 18.9206154,22.5977343 C18.9206154,28.425216 22.5529231,33.834256 27.0338462,33.834256 C31.5147692,33.834256 35.1470769,28.425216 35.1470769,22.5977343 C35.1470769,22.3859812 35.1421538,22.1754943 35.1326154,21.9669064 C35.0895385,21.0309517 33.0793846,15.802329 32.5178462,16.0830838" id="Fill-64" fill="#FFFFFF"></path>
            <path d="M35.1471692,22.5977659 C35.1471692,28.4249311 31.5148615,33.8339711 27.0339385,33.8339711 C22.5530154,33.8339711 18.9204,28.4249311 18.9204,22.5977659 L21.2779385,27.0996546 C21.6585538,27.8263885 22.5213231,28.1258181 23.2520923,27.7842911 L25.7573231,26.6137937 L27.9631692,26.6137937 L30.5813231,27.818159 C31.2899385,28.1444929 32.1234769,27.8710181 32.5179385,27.1828998 L35.1471692,22.5977659 Z" id="Fill-68" fill="#77CBFF"></path>
            <path d="M32.5178462,16.0830838 C25.5446154,19.5686212 22.3009231,15.1743499 21.504,16.0830838 C20.0563077,17.7337447 19.1273846,19.8145586 18.9461538,22.0295777 C18.9298462,22.2308856 18.9206154,22.4220647 18.9206154,22.5977343 C18.9206154,28.425216 22.5529231,33.834256 27.0338462,33.834256 C31.5147692,33.834256 35.1470769,28.425216 35.1470769,22.5977343 C35.1470769,22.3859812 35.1421538,22.1754943 35.1326154,21.9669064 C35.0895385,21.0309517 33.0793846,15.802329 32.5178462,16.0830838 L32.5178462,16.0830838 Z" id="Stroke-66" stroke="#3F5F8B" stroke-linejoin="round"></path>
            <path d="M24.9835385,28.4601283 C26.2229231,29.3865875 27.9013846,29.3865875 29.1410769,28.4601283" id="Stroke-70" stroke="#3F5F8B" stroke-linecap="round" stroke-linejoin="round"></path>
            <path d="M24.1657538,23.1229704 C24.1657538,23.472727 23.8900615,23.756647 23.5497538,23.756647 C23.2097538,23.756647 22.9340615,23.472727 22.9340615,23.1229704 C22.9340615,22.7732139 23.2097538,22.4892939 23.5497538,22.4892939 C23.8900615,22.4892939 24.1657538,22.7732139 24.1657538,23.1229704" id="Fill-74" fill="#3F5F8B"></path>
            <path d="M28.6770769,20.8725325 C30.0007692,20.1888456 31.6389231,20.4471273 32.7216923,21.5774264" id="Stroke-76" stroke="#3F5F8B" stroke-linecap="round" stroke-linejoin="round"></path>
            <path d="M26,26 C26.4936919,26.6988088 27.5065037,26.6988088 28,26" id="Stroke-78" stroke="#3F5F8B" stroke-linecap="round" stroke-linejoin="round"></path>
            <path d="M31.0214769,23.1229704 C31.0214769,23.472727 30.7457846,23.756647 30.4054769,23.756647 C30.0654769,23.756647 29.7897846,23.472727 29.7897846,23.1229704 C29.7897846,22.7732139 30.0654769,22.4892939 30.4054769,22.4892939 C30.7457846,22.4892939 31.0214769,22.7732139 31.0214769,23.1229704" id="Fill-80" fill="#3F5F8B"></path>
            <path d="M25.4289538,20.8725325 C24.1052615,20.1888456 22.4671077,20.4471273 21.3843385,21.5774264" id="Stroke-82" stroke="#3F5F8B" stroke-linecap="round" stroke-linejoin="round"></path>
            <path d="M20.7950769,42.447129 L16.1649231,51.3888682 L20.632,51.3888682 L24.0670769,42.6667951 L23.9695385,41.7609099 C22.9086154,41.048736 21.4873846,41.3557621 20.7950769,42.447129" id="Fill-86" fill="#3F5F8B" opacity="0.2"></path>
            <path d="M19.6180308,42.447129 L14.9878769,51.3888682 L19.4549538,51.3888682 L22.8900308,42.6667951 L22.7924923,41.7609099 C21.7315692,41.048736 20.3103385,41.3557621 19.6180308,42.447129" id="Fill-88" fill="#FFFFFF"></path>
            <path d="M19.6180308,42.447129 L14.9878769,51.3888682 L19.4549538,51.3888682 L22.8900308,42.6667951 L22.7924923,41.7609099 C21.7315692,41.048736 20.3103385,41.3557621 19.6180308,42.447129 L19.6180308,42.447129 Z" id="Stroke-90" stroke="#3F5F8B" stroke-linejoin="round"></path>
            <path d="M29.6487077,50.0646045 L24.3514769,49.067561 C23.9914769,48.9998254 23.7530154,48.6443715 23.8188615,48.274041 L25.7139385,37.6205523 C25.7797846,37.2499054 26.1253231,37.004601 26.4853231,37.0723367 L31.7825538,38.0696967 C32.1425538,38.1374323 32.3810154,38.4925697 32.3151692,38.8629002 L30.4200923,49.5167054 C30.3542462,49.8870358 30.0087077,50.1323402 29.6487077,50.0646045" id="Fill-92" fill="#3F5F8B" opacity="0.2"></path>
            <path d="M28.4716615,48.8537823 L23.1744308,47.8567388 C22.8144308,47.7890031 22.5759692,47.4335492 22.6418154,47.0632188 L24.5368923,36.4097301 C24.6027385,36.0390831 24.9482769,35.7937788 25.3082769,35.8615144 L30.6055077,36.8588744 C30.9655077,36.9266101 31.2039692,37.2817475 31.1381231,37.6520779 L29.2430462,48.3058831 C29.1772,48.6762136 28.8316615,48.9215179 28.4716615,48.8537823" id="Fill-94" fill="#FFFFFF"></path>
            <path d="M28.4716615,48.8537823 L23.1744308,47.8567388 C22.8144308,47.7890031 22.5759692,47.4335492 22.6418154,47.0632188 L24.5368923,36.4097301 C24.6027385,36.0390831 24.9482769,35.7937788 25.3082769,35.8615144 L30.6055077,36.8588744 C30.9655077,36.9266101 31.2039692,37.2817475 31.1381231,37.6520779 L29.2430462,48.3058831 C29.1772,48.6762136 28.8316615,48.9215179 28.4716615,48.8537823 L28.4716615,48.8537823 Z" id="Stroke-96" stroke="#3F5F8B" stroke-linejoin="round"></path>
            <path d="M26.4636,38.371785 C26.4076,38.6867242 26.1140615,38.895312 25.8079077,38.837705 C25.5014462,38.7800981 25.2986769,38.4781363 25.3546769,38.1631972 C25.4109846,37.8482581 25.7045231,37.6393537 26.0106769,37.6972772 C26.3168308,37.7548842 26.5196,38.0568459 26.4636,38.371785" id="Fill-98" fill="#3F5F8B"></path>
            <path d="M18.6703692,44.26868 L20.1051385,41.57508 C20.2220615,41.2139287 20.5506769,40.970207 20.9208308,40.970207 L25.2291385,40.970207 C25.8159077,40.970207 26.2303692,41.5617861 26.0448308,42.1343739 L25.0876,45.0878383 C24.9706769,45.4489896 24.6420615,45.6927113 24.2719077,45.6927113 L21.2309846,45.6927113" id="Fill-100" fill="#FFFFFF"></path>
            <path d="M18.6703692,44.26868 L20.1051385,41.57508 C20.2220615,41.2139287 20.5506769,40.970207 20.9208308,40.970207 L25.2291385,40.970207 C25.8159077,40.970207 26.2303692,41.5617861 26.0448308,42.1343739 L25.0876,45.0878383 C24.9706769,45.4489896 24.6420615,45.6927113 24.2719077,45.6927113 L21.2309846,45.6927113" id="Stroke-102" stroke="#3F5F8B" stroke-linecap="round" stroke-linejoin="round"></path>
            <path d="M61.3027077,31.1808543 L49.0910154,29.1475186 C44.3633231,28.360329 41.3953231,23.5583777 42.8100923,18.9859047 L45.7036308,9.63395339 C47.4534769,3.97929252 53.0894769,0.505782957 58.9362462,1.47940383 L60.4448615,1.73072209 C66.2916308,2.70402643 70.5750154,7.82914643 70.5011692,13.7629795 L70.3790154,23.5764195 C70.3193231,28.3745725 66.0304,31.9680438 61.3027077,31.1808543" id="Fill-109" fill="#FFFFFF"></path>
            <path d="M49.0910154,29.1475186 C44.3633231,28.360329 41.3953231,23.5583777 42.8100923,18.9859047 L45.7036308,9.63395339 C47.4534769,3.97929252 53.0894769,0.505782957 58.9362462,1.47940383 L60.4448615,1.73072209 C66.2916308,2.70402643 70.5750154,7.82914643 70.5011692,13.7629795 L70.3790154,23.5764195 C70.3193231,28.3745725 66.0304,31.9680438 61.3027077,31.1808543 L49.0910154,29.1475186 Z" id="Stroke-110" stroke="#3F5F8B" stroke-linejoin="round"></path>
            <path d="M70.2224923,12.174705 C70.2224923,12.174705 70.2381846,16.126479 70.5058769,18.8387537 C70.5058769,18.8387537 70.4963385,21.8188059 70.5197231,21.5716024 L70.1554154,25.430952 C69.4788,28.8107711 64.6951077,32.5523746 59.6692615,30.4829555 L66.5046462,19.1885103 C68.1329538,19.4597694 69.0169538,18.4253763 69.6415692,16.9301277 C69.7480308,16.6753277 69.8151077,16.404385 69.8415692,16.1286946 L70.2224923,12.174705 Z" id="Fill-111" fill="#77CBFF"></path>
            <path d="M49.0910154,29.1475186 C44.3633231,28.360329 41.3953231,23.5583777 42.8100923,18.9859047 L45.7036308,9.63395339 C47.4534769,3.97929252 53.0894769,0.505782957 58.9362462,1.47940383 L60.4448615,1.73072209 C66.2916308,2.70402643 70.5750154,7.82914643 70.5011692,13.7629795 L70.3790154,23.5764195 C70.3193231,28.3745725 66.0304,31.9680438 61.3027077,31.1808543 L49.0910154,29.1475186 Z" id="Stroke-112" stroke="#3F5F8B" stroke-linejoin="round"></path>
            <path d="M48.1575692,21.3858675 C47.7861846,21.728977 47.3351077,21.932817 46.8468,21.9391475 C45.5517231,21.9565562 44.4843385,20.5812692 44.4628,18.8676205 C44.4409538,17.1536553 45.4735692,15.7505144 46.7686462,15.7331057 C47.6348,15.721711 48.3991077,16.333231 48.8169538,17.2524101" id="Fill-113" fill="#FFFFFF"></path>
            <path d="M48.1575692,21.3858675 C47.7861846,21.728977 47.3351077,21.932817 46.8468,21.9391475 C45.5517231,21.9565562 44.4843385,20.5812692 44.4628,18.8676205 C44.4409538,17.1536553 45.4735692,15.7505144 46.7686462,15.7331057 C47.6348,15.721711 48.3991077,16.333231 48.8169538,17.2524101" id="Stroke-114" stroke="#3F5F8B" stroke-linejoin="round"></path>
            <path d="M64.8195692,24.1603071 C65.0666462,24.6066028 65.4321846,24.9462306 65.8937231,25.1108219 C67.1174154,25.5476219 68.5521846,24.5888776 69.0980308,22.9695523 C69.6441846,21.3502271 69.0949538,19.6837402 67.8712615,19.2469402 C67.0528,18.9547906 66.1395692,19.2871384 65.4614154,20.024001" id="Fill-116" fill="#FFFFFF"></path>
            <path d="M64.8195692,24.1603071 C65.0666462,24.6066028 65.4321846,24.9462306 65.8937231,25.1108219 C67.1174154,25.5476219 68.5521846,24.5888776 69.0980308,22.9695523 C69.6441846,21.3502271 69.0949538,19.6837402 67.8712615,19.2469402 C67.0528,18.9547906 66.1395692,19.2871384 65.4614154,20.024001" id="Stroke-117" stroke="#3F5F8B" stroke-linejoin="round"></path>
            <path d="M50.1851692,28.127559 C51.1457846,29.2610233 52.2513231,30.167225 53.4430154,30.7600703 C54.6344,31.3529155 55.9122462,31.6324042 57.2171692,31.5121259 C58.5224,31.3921642 59.7316308,30.8838303 60.8020923,30.0827137 C61.8722462,29.2815972 62.8039385,28.1880146 63.5537846,26.897239 L63.5537846,26.897239 C59.4990154,29.2360181 56.6811692,31.6070824 50.2676308,28.1563624 L50.1851692,28.127559 Z" id="Fill-119" fill="#B3B3B3" opacity="0.2"></path>
            <path d="M64.3812923,13.3815075 C55.5197538,13.2447701 54.0120615,8.02501009 54.0120615,8.02501009 C54.0120615,8.02501009 52.9834462,8.87487096 51.8979077,9.77126052 C49.9265231,11.3988153 48.4757538,13.6230136 47.8640615,16.1460083 C47.8083692,16.3751701 47.7628308,16.5942031 47.7311385,16.7970936 C46.6723692,23.5263457 49.8840615,30.4708327 55.0582154,31.3324049 C60.2323692,32.193977 65.4099077,26.6463005 66.4686769,19.9173649 C66.5071385,19.6726936 66.5397538,19.4289718 66.5665231,19.1861997 C66.6868308,18.0967318 65.1117538,13.3929023 64.3812923,13.3815075" id="Fill-120" fill="#FFFFFF"></path>
            <path d="M54.0120615,8.02501009 C54.0120615,8.02501009 52.9834462,8.87487096 51.8979077,9.77126052 C49.9265231,11.3988153 48.4757538,13.6230136 47.8640615,16.1460083 C47.8083692,16.3751701 47.7628308,16.5942031 47.7311385,16.7970936 C46.6723692,23.5263457 49.8840615,30.4708327 55.0582154,31.3324049 C60.2323692,32.193977 65.4099077,26.6463005 66.4686769,19.9173649 C66.5071385,19.6726936 66.5397538,19.4289718 66.5665231,19.1861997 C66.6868308,18.0967318 65.1117538,13.3929023 64.3812923,13.3815075 C55.5197538,13.2447701 54.0120615,8.02501009 54.0120615,8.02501009 Z" id="Stroke-121" stroke="#3F5F8B" stroke-linejoin="round"></path>
            <path d="M53.8449231,24.405561 C55.108,25.7137454 57.0464615,26.0365976 58.6458462,25.205095" id="Stroke-125" stroke="#3F5F8B" stroke-linecap="round" stroke-linejoin="round"></path>
            <path d="M51.0664923,14.1765151 C52.2144923,13.264616 54.0206462,13.1316769 55.4775692,14.2417186" id="Stroke-127" stroke="#3F5F8B" stroke-linecap="round" stroke-linejoin="round"></path>
            <path d="M64.0997846,16.3467148 C63.2899385,15.1091148 61.6170154,14.3966243 59.8939385,14.9771252" id="Stroke-128" stroke="#3F5F8B" stroke-linecap="round" stroke-linejoin="round"></path>
            <path d="M55.5106769,21.4027064 C55.9436,22.2842195 57.0863692,22.474449 57.7679077,21.7784177" id="Fill-129" fill="#3F5F8B"></path>
            <path d="M51.7097231,20.989519 L51.7097231,20.989519 C49.7441846,20.6622355 48.4084923,18.7577242 48.7266462,16.7357833 L48.8368,16.0372198 C48.9078769,15.5842772 49.3226462,15.2766181 49.7629538,15.3500511 L55.2863385,16.2695468 C55.7269538,16.3429798 56.0260308,16.7696511 55.9546462,17.2225937 L55.8448,17.9208407 C55.5266462,19.9430981 53.6752615,21.3168024 51.7097231,20.989519 L51.7097231,20.989519 Z" id="Stroke-130" stroke="#3F5F8B" stroke-linecap="round" stroke-linejoin="round"></path>
            <path d="M61.1948,22.5688991 L61.1948,22.5688991 C59.2292615,22.2416157 57.8935692,20.3371043 58.2117231,18.3151635 L58.3218769,17.6166 C58.3929538,17.1636574 58.8077231,16.8559983 59.2480308,16.9294313 L64.7714154,17.848927 C65.2120308,17.92236 65.5111077,18.3490313 65.4397231,18.8019739 L65.3298769,19.5002209 C65.0117231,21.5224783 63.1603385,22.8961826 61.1948,22.5688991 L61.1948,22.5688991 Z" id="Stroke-131" stroke="#3F5F8B" stroke-linecap="round" stroke-linejoin="round"></path>
            <path d="M56.3191692,17.9779729 L57.9474769,18.4236129" id="Stroke-132" stroke="#3F5F8B" stroke-linecap="round" stroke-linejoin="round"></path>
            <path d="M51.3903385,18.0528303 C52.0091077,17.182712 53.3263385,17.4020616 53.6466462,18.4285416" id="Stroke-133" stroke="#3F5F8B" stroke-linecap="round" stroke-linejoin="round"></path>
            <path d="M60.4485846,19.5611197 C61.0676615,18.6910014 62.3845846,18.910351 62.7052,19.936831" id="Stroke-134" stroke="#3F5F8B" stroke-linecap="round" stroke-linejoin="round"></path>
            <path d="M78.5084615,24.5468751 L75.9435385,22.0435047 C75.9435385,22.0435047 74.5623077,24.4791395 75.5487692,27.7266525" id="Fill-137" fill="#3F5F8B"></path>
            <path d="M78.5084615,24.5468751 L75.9435385,22.0435047 C75.9435385,22.0435047 74.5623077,24.4791395 75.5487692,27.7266525" id="Stroke-144" stroke="#3F5F8B" fill="#77CBFF" stroke-linejoin="round"></path>
            <path d="M77.6169231,25.2312584 L76.3547692,23.9993558 C76.3547692,23.9993558 75.6750769,25.1980237 76.1606154,26.7961419" id="Fill-145" fill="#3F5F8B"></path>
            <path d="M88.6612615,24.7098838 L91.2261846,22.2065134 C91.2261846,22.2065134 92.6074154,24.6421482 91.6209538,27.8896612" id="Stroke-146" stroke="#3F5F8B" fill="#77CBFF" stroke-linejoin="round"></path>
            <path d="M89.4535077,25.2312584 L90.7156615,23.9993558 C90.7156615,23.9993558 91.3953538,25.1980237 90.9098154,26.7961419" id="Fill-148" fill="#3F5F8B"></path>
            <path d="M73.1729538,51.2025318 L75.1021846,29.9829144 C75.1021846,29.9829144 75.1886462,27.7951162 76.7083385,25.9311197 C78.1080308,24.2143057 79.1412615,23.3837527 81.3406462,22.9428379 L83.9231077,21.6669388 L83.9231077,22.5763057 L85.7692615,22.2205353 L85.7692615,23.0653318 C85.7692615,23.0653318 91.1295692,24.7128275 91.7757231,29.198257 C92.4215692,33.6840031 93.9320308,51.5158883 93.9320308,51.5158883" id="Fill-138" fill="#77CBFF"></path>
            <path d="M93.9244308,51.1994932 C93.9244308,51.1994932 92.4216615,33.6841297 91.7758154,29.1983837 C91.1296615,24.7126376 85.7693538,23.0654584 85.7693538,23.0654584 L85.7693538,22.2206619 L83.9232,22.5764323 L83.9232,21.6667489 L81.3407385,22.9429645 C79.1410462,23.3835628 78.1158154,24.2141158 76.7161231,25.9309297 C75.1964308,27.7949263 75.1059692,29.983041 75.1059692,29.983041 L73.1748923,51.2026584 L93.9244308,51.1994932 L93.9244308,51.1994932 Z" id="Stroke-140" stroke="#3F5F8B" stroke-linejoin="round"></path>
            <path d="M83.5904308,28.0862845 C83.5904308,28.0862845 87.4242769,25.5867123 88.6350462,26.9325628 C89.8458154,28.2784132 91.6618154,33.662448 91.6618154,33.662448 C91.6618154,33.662448 89.4421231,37.7003158 90.0473538,39.0464828 C90.6528923,40.3923332 91.8636615,42.1230741 91.8636615,42.1230741 C91.8636615,42.1230741 87.0205846,46.5455158 87.4242769,48.0838115 C87.4242769,48.0838115 83.9941231,46.9300897 84.8012,50.3909384 C84.8012,50.3909384 80.3618154,50.0063645 80.3618154,47.3146637 L79.7565846,48.0838115 C79.7565846,48.0838115 75.3172,43.8534984 75.3172,41.7385002 C75.3172,41.7385002 77.5368923,39.6231854 77.5368923,38.4694637 C77.5368923,37.3157419 76.1245846,34.2394671 76.1245846,33.4703193 C76.1245846,32.7011715 77.1335077,26.5479889 78.5458154,26.5479889 C79.9584308,26.5479889 83.5904308,28.0862845 83.5904308,28.0862845" id="Fill-139" fill="#FFFFFF"></path>
            <path d="M81.6564615,33.5003261 C81.6564615,33.5003261 81.3924615,35.9107969 83.5487692,35.9107969 C85.7050769,35.9107969 85.4410769,33.4648817 85.4410769,33.4648817" id="Stroke-141" stroke="#3F5F8B" stroke-linecap="round" stroke-linejoin="round"></path>
            <path d="M81.7782769,34.39336 C81.9721231,35.3429252 82.4404308,35.9968591 83.5487385,35.9968591 C84.6462769,35.9968591 85.1161231,35.3429252 85.3136615,34.39336 L81.7782769,34.39336 Z" id="Fill-142" fill="#3F5F8B"></path>
            <path d="M78.664,36.046743 C78.664,36.046743 78.84,38.5817656 81.2163077,38.3554525 C83.5926154,38.1291395 83.6806154,36.0920056 83.6806154,36.0920056 C83.6806154,36.0920056 83.8129231,38.2196647 86.0572308,38.2649273 C88.3015385,38.3101899 88.3895385,36.4541064 88.4335385,35.8204299" id="Stroke-143" stroke="#3F5F8B" stroke-linecap="round" stroke-linejoin="round"></path>
            <path d="M80.6304738,30.8388492 C80.6304738,31.3022052 80.265455,31.6776984 79.8150244,31.6776984 C79.3650188,31.6776984 79,31.3022052 79,30.8388492 C79,30.3754932 79.3650188,30 79.8150244,30 C80.265455,30 80.6304738,30.3754932 80.6304738,30.8388492" id="Fill-149" fill="#3F5F8B"></path>
            <path d="M87.6304738,30.8388492 C87.6304738,31.3022052 87.265455,31.6776984 86.8150244,31.6776984 C86.3650188,31.6776984 86,31.3022052 86,30.8388492 C86,30.3754932 86.3650188,30 86.8150244,30 C87.265455,30 87.6304738,30.3754932 87.6304738,30.8388492" id="Fill-149-Copy" fill="#3F5F8B"></path>
            <path d="M4,51 L105.193543,51" id="Stroke-151" stroke="#3F5F8B" stroke-linecap="round" stroke-linejoin="round"></path>
        </g>
    </g>
</svg>