<?xml version="1.0" encoding="UTF-8" standalone="no"?>
<svg width="100%" height="100%" viewBox="0 0 376 93" version="1.1" xmlns="http://www.w3.org/2000/svg" xmlns:xlink="http://www.w3.org/1999/xlink">
    <!-- Generator: Sketch 47.1 (45422) - http://www.bohemiancoding.com/sketch -->
    <title>Onboarding Welcome Copy@2x</title>
    <desc>Created with Sketch.</desc>
    <defs></defs>
    <g id="Onboarding" stroke="none" stroke-width="1" fill="none" fill-rule="evenodd">
        <g id="Onboarding-Welcome-Copy">
            <path d="M0.982055814,63.455072 C46.4501194,63.455072 81.159943,63.1230885 128.888779,63.455072 C248.524018,64.2872088 294.627237,66.2897424 267.198434,69.4626729 C167.819591,69.9050856 79.0807984,68.9551234 0.982055814,66.6127861 C0.982055814,66.6127861 0.983401939,63.5087743 0.982055814,63.455072 Z" id="Rectangle-21-Copy" fill="#C0D4EB"></path>
            <path d="M0.986776491,63.561312 C15.9387785,63.3408337 28.7902261,63.6076853 44.6652699,64.6660859 C95.0062069,68.0223526 167.488419,70.0496031 225.180009,64.6660859 C254.105454,61.9668948 304.378784,64.6591633 376,72.7428914 L376,93.0954089 L1.21821175,93.0954089 C1.21821175,73.4290366 1.14106667,63.5843376 0.986776491,63.561312 Z" id="Rectangle-21" fill="#D9E5BD"></path>
            <ellipse id="Oval-10-Copy-5" fill="#A9D1A2" transform="translate(19.263287, 84.722973) rotate(4.000000) translate(-19.263287, -84.722973) " cx="19.2632869" cy="84.6974231" rx="11.3889645" ry="1"></ellipse>
            <g id="person" transform="translate(33.000000, 28.500000)">
                <path d="M17.9256761,21.9614713 L14.1091624,20.8736334 C15.0990706,23.2384983 16.2917312,25.8043767 17.7109972,28.5475017 C17.0908138,30.5104578 16.8165018,32.5560659 16.8761349,34.6844443 L19.5596211,34.6726199 C21.467878,29.5170963 20.9192541,25.2841064 17.9256761,21.9614713" id="Fill-1" fill="#003366"></path>
                <path d="M26.9064459,24.2198699 C26.7991064,24.2553429 26.7155009,24.3262889 26.6321339,24.4090591 L17.4844275,34.7080456 L15.564244,24.2316943 L26.9064459,24.2198699 Z M12.0816752,28.6539916 L12.4871798,27.9327078 L14.2165376,24.8229105 L16.1009413,35.0391267 L15.6238771,34.9445321 L13.7275468,34.6016267 L8.92112477,33.7266267 L11.4972716,29.5881132 L12.0697486,28.6658159 C12.0697486,28.6776402 12.0697486,28.6658159 12.0816752,28.6539916 L12.0816752,28.6539916 Z M27.9677945,27.0458834 L28.6358037,28.8195321 L30.7468128,34.4479105 C30.8183725,34.6252753 30.9376385,34.7671672 31.1165376,34.8499375 C31.2954367,34.9327078 31.4743358,34.9327078 31.6650422,34.8617618 C31.8439413,34.7908159 31.9871798,34.6725726 32.0587394,34.4952078 C32.1421064,34.3178429 32.1421064,34.140478 32.0824734,33.9512889 L29.9953174,28.4056807 L29.3275468,26.6083834 L26.3458954,18.6742618 C26.3101156,18.5678429 26.2504826,18.4732483 26.1550697,18.390478 C26.1073633,18.3431807 26.0358037,18.3077078 25.9761706,18.2722348 C25.7972716,18.1894645 25.6183725,18.1776402 25.4275468,18.2485861 C25.2486477,18.3195321 25.1054092,18.4377753 25.0220422,18.6269645 C24.938556,18.8043294 24.9265101,18.9816943 24.998189,19.1708834 L26.3697486,22.8127753 L15.0633266,22.836424 L14.7532349,20.5188564 C14.7293817,20.3296672 14.6339688,20.175951 14.4789229,20.0458834 C14.3238771,19.9276402 14.144978,19.8803429 13.9541523,19.9039916 C13.7633266,19.9276402 13.6082807,20.0222348 13.4890147,20.175951 C13.3697486,20.3296672 13.3220422,20.5070321 13.3458954,20.6962213 L13.6559872,22.9310186 L13.5605743,23.0492618 C13.5247945,23.0965591 13.4890147,23.1438564 13.4532349,23.202978 L11.2348862,27.1995997 L10.2569046,28.8550051 L7.14406055,33.8803429 C7.06057431,34.0222348 7.0247945,34.1641267 7.0367211,34.3178429 C7.04864771,34.4715591 7.12020734,34.613451 7.22754679,34.7316943 C7.33488624,34.8499375 7.4660789,34.9208834 7.63305138,34.9563564 L13.4770881,36.0205456 L14.4550697,36.1979105 L14.4669963,36.1979105 L15.3734183,36.3516267 L16.864244,36.6235861 C17.0192899,36.6472348 17.1743358,36.6354105 17.317455,36.5526402 C17.4367211,36.4935186 17.5202073,36.4107483 17.591767,36.3043294 L17.6991064,36.3043294 C17.9018587,36.2925051 18.0569046,36.2215591 18.2000239,36.0678429 L27.4550697,25.6387889 L27.9677945,27.0458834 L27.9677945,27.0458834 Z" id="Fill-3" fill="#CCCCCC"></path>
                <path d="M2.2898844,28.7604578 L2.2898844,28.7604578 C0.763278899,30.2856774 -2.3853211e-05,32.1067416 -2.3853211e-05,34.246826 C-2.3853211e-05,36.387147 0.763278899,38.2079747 2.2898844,39.7214882 C3.81648991,41.2351199 5.66511376,42.003701 7.81190275,41.9917584 C9.97061835,41.9917584 11.8192422,41.2351199 13.3339211,39.7214882 L13.3219945,39.7214882 C14.3238294,38.7400693 15.0036459,37.6167584 15.3495174,36.3515557 L14.4430954,36.1978395 L14.4311688,36.1978395 L13.4531872,36.0204747 C13.1788752,36.8955929 12.6898844,37.6878226 11.9742881,38.3853395 L11.9623615,38.3853395 C10.8174073,39.5324172 9.4219945,40.0998666 7.79997615,40.0998666 C6.16603119,40.0998666 4.78254495,39.5205929 3.62566422,38.3853395 C2.46878349,37.2383801 1.89630642,35.8668767 1.89630642,34.246826 C1.89630642,32.6268936 2.46878349,31.2553902 3.62566422,30.1083125 C4.78254495,28.961353 6.1779578,28.3937855 7.79997615,28.3937855 C8.5632789,28.3937855 9.37428807,28.5594443 10.2568569,28.8667584 L11.2348385,27.211353 C10.0063982,26.726674 8.86144404,26.4901875 7.79997615,26.5018936 C5.66511376,26.4901875 3.82841651,27.246826 2.2898844,28.7604578 M31.0926367,26.4191233 C30.4843798,26.4191233 29.8999761,26.4782449 29.3394257,26.5964882 L30.0073156,28.3937855 C30.3531872,28.3346639 30.7109853,28.2993091 31.0807101,28.2993091 C32.7027284,28.2993091 34.0981413,28.8667584 35.255022,30.0020118 C36.412022,31.148853 36.9843798,32.532299 36.9963064,34.1523497 C36.9963064,35.7722821 36.412022,37.1437855 35.255022,38.2908632 C34.1100679,39.4378226 32.7147743,40.0053902 31.0807101,40.0170963 C29.4467651,40.0170963 28.0513523,39.4378226 26.8944716,38.2908632 C25.7495174,37.1437855 25.1770404,35.7722821 25.1651138,34.1523497 C25.1651138,32.532299 25.7377101,31.148853 26.882545,30.0020118 L26.8944716,30.0020118 C27.4311688,29.4817416 28.0037651,29.0915389 28.6238294,28.8076368 L27.9559394,27.0339882 C27.0852972,27.4124848 26.2744073,27.9562855 25.5467651,28.6776875 C24.0320862,30.2029071 23.2687835,32.0239713 23.2687835,34.1640557 C23.2687835,36.3043767 24.0320862,38.1252044 25.5467651,39.6388361 C27.0852972,41.1523497 28.9219945,41.9209307 31.0807101,41.9089882 C33.2394257,41.9089882 35.0761229,41.1523497 36.6027284,39.6388361 C38.1293339,38.1252044 38.9045633,36.3043767 38.8926367,34.1640557 C38.8926367,32.0239713 38.1293339,30.2029071 36.6027284,28.6776875 C35.0880495,27.1759983 33.2514716,26.4191233 31.0926367,26.4191233 M11.4852972,29.5999848 C11.6403431,29.7418767 11.8073156,29.907299 11.9862147,30.0966064 C13.1430954,31.2435659 13.7274991,32.6268936 13.7274991,34.2351199 C13.7274991,34.3650693 13.7274991,34.4833125 13.7155725,34.6015557 L15.6119028,34.9445794 C15.635756,34.7080929 15.635756,34.4716064 15.635756,34.2351199 C15.635756,32.094799 14.8724532,30.2739713 13.3339211,28.7485152 C12.9880495,28.405728 12.701811,28.1336503 12.4752055,27.9208125 L12.0697009,28.6422145 C12.0577743,28.6540389 12.0577743,28.6657449 12.0577743,28.6657449 L11.4852972,29.5999848" id="Fill-5" fill="#000066"></path>
                <path d="M19.3903868,34.3477683 C19.3604168,34.3154015 19.3294619,34.2833872 19.297522,34.2517213 C18.7980358,33.7565186 18.2059991,33.518022 17.4844394,33.518022 C16.7628798,33.518022 16.1523569,33.7565186 15.6342651,34.2517213 C15.1532651,34.7653699 14.8942193,35.3706571 14.8942193,36.0860287 C14.8942193,36.8012821 15.1347789,37.4066875 15.6342651,37.9018902 C16.1523569,38.4154206 16.7813661,38.6539172 17.4844394,38.6539172 C18.2059991,38.6539172 18.7980358,38.3972111 19.297522,37.9018902 C19.8156138,37.4066875 20.0746596,36.8012821 20.0746596,36.0860287 C20.0746334,35.9288657 20.0621158,35.777016 20.0371028,35.630284 L23.1734064,33.5374139 C23.3403789,33.4311132 23.4357917,33.2772787 23.4715716,33.0880895 C23.5073514,32.8990186 23.4715716,32.7216537 23.3642321,32.5559949 C23.2568927,32.3904544 23.1018468,32.2958598 22.8990945,32.2603868 C22.7082688,32.2249139 22.5293697,32.2603868 22.3623972,32.366924 L19.3903884,34.3477672 Z M7.86377156,35.4623311 C7.49380826,35.4623311 7.16069817,35.3155912 6.9202578,35.0770946 C6.66121193,34.8387162 6.53168899,34.5269088 6.53168899,34.16 C6.53168899,33.7932095 6.66121193,33.4629561 6.9202578,33.20625 C7.17930367,32.9677534 7.49380826,32.8393412 7.86377156,32.8393412 C8.23385413,32.8393412 8.52975321,32.9494257 8.78879908,33.20625 C9.06633119,33.4812838 9.19585413,33.7932095 9.19585413,34.16 C9.19585413,34.5269088 9.04784495,34.8202703 8.78879908,35.0770946 C8.54835872,35.3339189 8.23385413,35.4623311 7.86377156,35.4623311 Z M30.3982339,35.0954696 C30.1391881,34.8386453 30.0281514,34.5268378 30.0281514,34.1600473 C30.0281514,33.7931385 30.1391881,33.4813311 30.3982339,33.2245068 C30.6757661,32.9860101 30.9902706,32.857598 31.3602339,32.857598 C31.7303165,32.857598 32.0263349,32.9678007 32.2853807,33.2245068 C32.5627936,33.4813311 32.6923165,33.7931385 32.6923165,34.1600473 C32.6923165,34.5268378 32.5444266,34.8386453 32.2853807,35.0954696 C32.0449404,35.3522939 31.7303165,35.4807061 31.3602339,35.4807061 C30.9902706,35.4807061 30.6572798,35.3522939 30.3982339,35.0954696 Z M26.2743596,18.2013007 C26.4532587,18.2958953 26.5725248,18.4377872 26.6440844,18.615152 C26.7037174,18.8043412 26.6917908,18.9817061 26.5962587,19.1590709 C26.5008459,19.3246115 26.3577266,19.4428547 26.1670202,19.5019764 L24.1751578,20.1168412 C23.9844514,20.1759628 23.8055523,20.1641385 23.6266532,20.0695439 C23.4595615,19.9749493 23.3402954,19.8448818 23.2806624,19.6556926 C23.2210294,19.4665034 23.2330752,19.2891385 23.3284881,19.1117736 C23.4239009,18.9462331 23.5549743,18.8279899 23.7459193,18.7688682 L25.7376624,18.1540034 C25.9165615,18.0948818 26.1073872,18.1067061 26.2743596,18.2013007 Z" id="Combined-Shape" fill="#CCCCCC"></path>
                <path d="M21.6109853,29.1860861 C21.6109853,29.2097348 21.5990587,29.2215591 21.5990587,29.2452078 C21.5155725,29.4935186 21.408233,29.7773024 21.288967,30.1083834 C21.0862147,30.6050051 20.8596092,31.0543294 20.5852972,31.4681807 C20.442178,31.8347348 20.7045633,32.0712213 21.3605266,32.1776402 L26.3100679,33.8212213 C26.6559394,33.6675051 26.6440128,33.4664916 26.2981413,33.2418294 L25.0817468,32.4850726 L23.2449303,30.4276402 L23.2331229,30.4158159 L23.5073156,29.765478 C22.7560587,29.8955456 22.1238294,29.7063564 21.6109853,29.1860861" id="Fill-20" fill="#666666"></path>
                <path d="M26.1788514,3.36177365 C26.3219706,3.19623311 26.5008697,3.12528716 26.703622,3.17258446 C26.5008697,3.12528716 26.3340165,3.18440878 26.1788514,3.36177365 M26.3936495,3.89386824 C26.3577505,3.85839527 26.3340165,3.81109797 26.3340165,3.75197635 C26.3340165,3.69285473 26.3577505,3.64555743 26.3936495,3.61008446 C26.4294294,3.57461149 26.4770165,3.55096284 26.5366495,3.55096284 C26.5962826,3.55096284 26.643989,3.57461149 26.6797688,3.61008446 C26.7155486,3.64555743 26.7394018,3.69285473 26.7394018,3.75197635 C26.7394018,3.81109797 26.7155486,3.85839527 26.6797688,3.89386824 C26.643989,3.92934122 26.5962826,3.95298986 26.5366495,3.95298986 C26.4770165,3.95298986 26.4294294,3.92934122 26.3936495,3.89386824 M20.084356,6.48339527 C20.0962826,6.48339527 20.0962826,6.47157095 20.1083284,6.47157095 C20.1083284,6.48339527 20.0962826,6.48339527 20.084356,6.48339527 L20.1201358,6.54251689 L20.3586679,6.98001689 C20.7283927,7.54758446 21.1458239,8.150625 21.6228881,8.80096284 C22.1715119,9.54589527 22.4936495,9.77055743 22.6008697,9.47494932 C22.3982367,8.25704392 22.4936495,7.41751689 22.8871083,6.96819257 C23.3999523,6.54251689 24.0083284,6.42427365 24.7239248,6.61346284 C25.4395211,6.80265203 25.9641725,6.82630068 26.2861908,6.70805743 C26.8944477,6.17596284 27.156833,5.77393581 27.0853927,5.50197635 C27.1806862,5.43103041 27.2285119,5.20636824 27.2403193,4.82798986 L27.610044,4.59150338 C27.6817229,4.57967905 27.6696771,4.43778716 27.5624569,4.17765203 L27.0257596,2.06109797 C26.3697963,1.99015203 25.9283927,2.20298986 25.6780532,2.72326014 C25.594567,3.62190878 25.3798881,4.07123311 25.0220899,4.08305743 C25.0458239,4.17765203 25.0458239,4.28407095 25.0458239,4.39048986 C25.0458239,4.75704392 24.9146312,5.06447635 24.6522459,5.31278716 C24.3898606,5.5729223 24.0797688,5.70298986 23.7219706,5.70298986 C23.3523651,5.70298986 23.0421541,5.5729223 22.7797688,5.31278716 C22.7082092,5.24184122 22.6367688,5.15907095 22.5889431,5.07630068 C22.6129156,5.37190878 22.4219706,5.60839527 21.9926128,5.76211149 L20.084356,6.45974662 L20.084356,6.48339527 M17.1266771,14.7249493 C17.0430716,15.2925169 17.0788514,15.5999493 17.2338972,15.6354223 L19.6549982,16.6168412 L23.4953651,18.0594088 C24.0320624,18.2249493 24.3898606,18.5205574 24.5687596,18.9344088 L24.6880257,19.5492736 C24.6880257,19.7266385 24.9624569,19.6438682 25.4991541,19.3246115 C25.6780532,19.0408277 25.7734661,18.6979223 25.7852734,18.3195439 C25.8927321,17.9648142 25.7734661,17.740152 25.4395211,17.6692061 L20.3228881,15.2806926 L19.5476587,14.7958953 C19.2734661,14.6658277 19.1779339,14.4766385 19.2614202,14.2283277 L20.4421541,10.3263007 L20.5137138,9.75873311 C20.4183009,8.25704392 19.7146312,7.87866554 18.4146312,8.6354223 C18.1880257,8.89555743 18.056833,9.26211149 17.9972,9.74690878 L17.1266771,14.7249493" id="Fill-22" fill="#F8B14E"></path>
                <path d="M13.5605266,16.616853 C13.5486,16.6405017 13.5366734,16.652326 13.5247468,16.687799 C13.3219945,16.9242855 13.1430954,17.1844206 13.0238294,17.4682044 C12.2366734,19.0526639 12.5109853,20.2469206 13.8467651,21.0390321 C16.6375908,22.8364476 19.595389,23.723272 22.7201596,23.7114476 C22.982545,23.6995051 23.1138569,23.7942179 23.101811,23.9951132 C22.3982606,24.7045726 21.9926367,25.9461267 21.8972239,27.7435422 C21.9091505,28.0864476 21.8852972,28.3584071 21.8256642,28.5594206 C21.7660312,28.7367855 21.6944716,28.9496233 21.6109853,29.1742855 C22.1238294,29.6945557 22.7678661,29.8955693 23.5192422,29.7536774 L25.9762422,23.652326 C26.4651138,22.9546909 26.2744073,22.2805861 25.3799119,21.6540152 C23.4238294,20.4006368 21.3128202,19.3245051 19.0467651,18.4141503 C17.3293339,17.7283395 15.4926367,17.125299 13.5605266,16.616853" id="Fill-24" fill="#003366"></path>
                <path d="M25.8210532,0.488427365 C25.0458239,0.204643581 24.2944477,0.169170608 23.5549982,0.358359797 L23.9127963,3.08977872 C24.2109615,3.12525169 24.4615394,3.24349493 24.6760991,3.46815709 C24.8669248,3.65734628 24.9861908,3.8583598 25.0458239,4.09484628 C25.403622,4.08302196 25.6184202,3.63369764 25.7017872,2.73504899 C25.9523651,2.21477872 26.3936495,1.99011655 27.0496128,2.07288682 C27.3835578,2.09653547 27.5384844,1.90734628 27.5146312,1.49349493 C27.5146312,1.49349493 27.4788514,1.30430574 27.407411,0.937751689 C27.3357321,0.571197635 27.156833,0.382008446 26.8707138,0.370184122 L25.8806862,0.512076014 C25.8569523,0.500251689 25.8449064,0.500251689 25.8210532,0.488427365 M19.1421541,7.11004899 C19.6908972,6.68437331 20.0008697,6.47153547 20.0724294,6.45971115 L22.0165853,5.77390034 C22.4340165,5.62018412 22.6367688,5.38369764 22.6129156,5.08808953 C22.5293101,4.95802196 22.4696771,4.80430574 22.4340165,4.65058953 C22.4219706,4.56781926 22.410044,4.48504899 22.410044,4.39045439 C22.410044,4.02390034 22.5412367,3.71646791 22.7918147,3.45633277 C22.9467413,3.31444088 23.113833,3.20802196 23.2927321,3.13707601 L22.9586679,0.547548986 C22.1000716,0.914103041 21.2650899,1.59991385 20.4421541,2.59315709 C18.784356,3.8583598 17.4485761,5.30092736 16.4348147,6.90903547 C15.8265578,7.52390034 15.3494936,7.85498142 15.003622,7.91410304 C14.1091266,8.25700845 13.6201358,9.13200845 13.5247229,10.539103 C12.2964018,11.7688328 13.1312642,12.2063328 16.0412367,11.8634274 C16.2559156,9.95971115 17.2935303,8.37525169 19.1421541,7.11004899 M26.3340165,3.74011655 C26.3340165,3.79923818 26.3577505,3.84653547 26.3936495,3.88200845 C26.4294294,3.91748142 26.4770165,3.94113007 26.5366495,3.94113007 C26.5962826,3.94113007 26.643989,3.91748142 26.6797688,3.88200845 C26.7155486,3.84653547 26.7394018,3.79923818 26.7394018,3.74011655 C26.7394018,3.68099493 26.7155486,3.63369764 26.6797688,3.59822466 C26.643989,3.56275169 26.5962826,3.53910304 26.5366495,3.53910304 C26.4770165,3.53910304 26.4294294,3.56275169 26.3936495,3.59822466 C26.3458239,3.64552196 26.3340165,3.69281926 26.3340165,3.74011655" id="Fill-26" fill="#000066"></path>
                <path d="M20.0844037,6.45971115 C20.012844,6.47153547 19.7027523,6.69619764 19.1541284,7.11004899 C17.293578,8.36342736 16.2678899,9.94788682 16.0651376,11.8752517 C16.0174312,12.2418057 16.0174312,12.6201841 16.0412844,13.0103868 C16.1009174,13.5424814 15.6,14.3347111 14.5385321,15.3989003 C14.0733945,15.8482247 13.7513761,16.262076 13.5844037,16.6168057 C15.5165138,17.1134274 17.353211,17.7164679 19.0706422,18.414103 C19.2376147,17.8228868 19.440367,17.2316706 19.6788991,16.6168057 L17.2577982,15.6353868 C17.1027523,15.5999139 17.0669725,15.2924814 17.1504587,14.7249139 L18.0330275,9.73504899 C18.0926606,9.25025169 18.2238532,8.88369764 18.4504587,8.6235625 C19.7504587,7.86680574 20.4541284,8.24518412 20.5495413,9.74687331 L20.4422018,10.3262652 L19.2614679,14.2282922 C19.1779817,14.476603 19.2733945,14.6657922 19.5477064,14.7958598 L20.3229358,15.2806571 C20.7045872,14.8313328 21.2293578,14.3820084 21.9211009,13.9563328 C23.3045872,13.1286301 23.8770642,12.4309949 23.6266055,11.851603 L22.612844,9.47491385 C22.5055046,9.77052196 22.1715596,9.5458598 21.6348624,8.80092736 C21.1577982,8.16241385 20.740367,7.54754899 20.3706422,6.97998142 L20.1321101,6.54248142 L20.0963303,6.4833598 C20.0844037,6.47153547 20.0844037,6.47153547 20.0844037,6.45971115" id="Fill-28" fill="#CCCCCC"></path>
                <path d="M22.9349101,0.263777027 L22.9824972,0.559385135 L23.3164422,3.14891216 C23.1375431,3.20803378 22.9706899,3.3144527 22.815644,3.46816892 C22.5532587,3.72830405 22.4339927,4.03573649 22.4339927,4.40229054 C22.4339927,4.48506081 22.4458,4.56783108 22.4578459,4.66242568 C22.4815798,4.81614189 22.5412128,4.96985811 22.636745,5.09992568 C22.6843321,5.18269595 22.756011,5.26546622 22.8275706,5.33641216 C23.089956,5.5965473 23.3999284,5.72661486 23.7697725,5.72661486 C24.1394972,5.72661486 24.4494697,5.5965473 24.7000477,5.33641216 C24.962433,5.07627703 25.0936257,4.76884459 25.0936257,4.41411486 C25.0936257,4.30769595 25.0816991,4.20127703 25.0696532,4.10668243 C25.0100202,3.87019595 24.8907541,3.66918243 24.7000477,3.47999324 C24.4853688,3.26715541 24.2229835,3.13708784 23.9366257,3.10161486 L23.5788275,0.370195946 L23.543167,0.110060811 C23.2568092,0.0272905405 23.0661028,0.0745878378 22.9349101,0.263777027" id="Fill-30" fill="#CC3300"></path>
            </g>
            <g id="pet" transform="translate(8.000000, 65.500000)">
                <path d="M4.1871875,11.1993014 L4.19834821,11.1763284 C3.94544643,11.5133419 3.61799107,11.7545581 3.21620536,11.899977 C3.05995536,11.9535041 2.89633929,11.9918689 2.72513393,12.0148419 C2.7028125,12.022423 2.68049107,12.0263284 2.65816964,12.0263284 C1.85459821,12.1565851 1.08450893,12.6045581 0.347901786,13.3702473 C-0.150535714,13.8986257 -0.113482143,14.4118419 0.459508929,14.9094365 L0.582276786,14.9668689 C0.723571429,14.6530581 0.932053571,14.3121392 1.20727679,13.9445716 C1.65370536,13.3856392 2.3903125,12.8648419 3.41709821,12.3824095 C3.75928571,12.2445716 4.01241071,11.8655176 4.17602679,11.2452473 C4.18339286,11.2298554 4.1871875,11.2146932 4.1871875,11.1993014 M19.0644196,1.10267973 C19.0662054,1.07373378 19.0550446,1.04685541 19.0309375,1.02227432 C19.0133036,0.999760811 18.9874107,0.988274324 18.9528125,0.987814865 C18.5148661,0.971504054 18.2173214,1.16700405 18.0599554,1.57362568 C18.0537054,1.60647703 18.0575,1.63703108 18.0711161,1.66551757 C18.0836161,1.69538243 18.1021429,1.71445 18.1269196,1.72295 C18.1588393,1.73719324 18.1885268,1.73719324 18.2162054,1.72295 C18.2452232,1.71008514 18.26375,1.68711216 18.2720089,1.65403108 C18.3898661,1.34872027 18.6130804,1.20307162 18.9416518,1.21754459 C18.9773661,1.21938243 19.0072768,1.20789595 19.0309375,1.18308514 C19.0528125,1.16516622 19.0639732,1.13828784 19.0644196,1.10267973 M15.3702232,0.229706757 L15.0354018,0.275652703 C15.1099554,0.681585135 15.329375,1.02227432 15.6938839,1.29795 C16.0213393,1.37445 16.3039286,1.48173378 16.5420982,1.61957162 L16.5755804,1.65403108 L16.7541518,1.40132838 C16.8508036,1.30943649 16.9550446,1.22512568 17.0666518,1.14862568 C16.5829464,0.666193243 16.0175446,0.359963514 15.3702232,0.229706757 M17.9818304,11.3256527 L17.9483482,11.3141662 L19.9349554,13.4276797 L20.0354018,14.7601122 C20.0874107,15.2041797 20.4445536,15.4148419 21.1068304,15.3918689 L20.8166518,13.4506527 C20.7869643,13.2746797 20.7162054,13.1329365 20.6045982,13.0256527 L19.5889732,11.3715986 L19.5554911,11.3256527 L19.4438839,11.3945716 C18.9008036,11.4940446 18.4581696,11.4903689 18.1157589,11.3830851 C18.0784821,11.3676932 18.0414286,11.3525311 18.0041518,11.3371392 L17.9818304,11.3256527" id="Fill-1" fill="#4A4A4A"></path>
                <path d="M18.539933,1.95267973 C18.5209598,1.98277432 18.5133705,2.01332838 18.5176116,2.04457162 C18.524308,2.07397703 18.5392634,2.09695 18.5622545,2.11349054 C18.5914955,2.13301757 18.621183,2.14059865 18.6515402,2.13646351 C18.929442,2.08339595 19.1377009,1.93016622 19.2765402,1.67700405 C19.2955134,1.64989595 19.299308,1.61911216 19.2877009,1.58511216 C19.2839063,1.55869324 19.2691741,1.53572027 19.243058,1.51619324 C19.2167188,1.5042473 19.186808,1.50034189 19.1537723,1.50470676 C19.1281027,1.51619324 19.1057812,1.53526081 19.086808,1.56213919 C18.9801116,1.75304459 18.820067,1.86790946 18.6068973,1.90673378 C18.5781027,1.91385541 18.5557813,1.92901757 18.539933,1.95267973 M21.6760938,0.792544595 L22.1113616,1.28646351 C22.3048884,1.46266622 22.5392634,1.53158514 22.8144866,1.49322027 C22.8964063,1.11807162 22.8629241,0.819422973 22.7140402,0.597274324 L21.6760938,0.792544595" id="Fill-4" fill="#000000"></path>
                <path d="M10.4929911,9.23515811 C10.5079464,9.18921216 10.4891964,9.16623919 10.4371875,9.16623919 L10.3255804,9.16623919 C10.3032589,9.16623919 10.2809375,9.17382027 10.2586161,9.18921216 C10.2436607,9.21218514 10.2362946,9.23515811 10.2362946,9.25813108 C10.2362946,9.28110405 10.2436607,9.30017162 10.2586161,9.31556351 C10.2809375,9.33095541 10.3032589,9.33853649 10.3255804,9.33853649 C10.3479018,9.33853649 10.3775893,9.33463108 10.4148661,9.32705 C10.4521429,9.31165811 10.4782589,9.28110405 10.4929911,9.23515811 M14.0867411,5.2493473 L14.0644196,5.23786081 L13.7965625,5.61691486 C13.1938839,6.29852297 12.6693304,6.74259054 12.2229018,6.9493473 C12.0740179,7.01826622 11.9327232,7.06030676 11.7987946,7.07569865 C10.2139732,6.96083378 9.00861607,6.91879324 8.18272321,6.9493473 C8.03383929,7.33988784 8.36866071,7.73433378 9.1871875,8.13245541 C9.79723214,8.54596892 10.7088393,8.51909054 11.9215625,8.05205 C11.9735714,7.83771216 12.0628571,7.66541486 12.1894196,7.53515811 C12.2563839,7.46623919 12.3345089,7.40490135 12.4237946,7.35137432 C12.7586161,7.16759054 13.2458929,7.15219865 13.8858482,7.30542838 C14.391875,6.35595541 14.5554911,5.73177973 14.3769196,5.43313108 C14.3173214,5.33365811 14.2206696,5.27232027 14.0867411,5.2493473" id="Fill-6" fill="#666666"></path>
                <path d="M14.7006027,4.31896486 L14.3657812,4.8013973 C14.462433,4.93923514 14.5628795,5.06558649 14.6671205,5.18045135 C15.5526116,6.21423514 16.7764955,6.67369459 18.3389955,6.55882973 C18.3910045,6.60477568 18.4209152,6.62774865 18.4282812,6.62774865 L18.4729241,6.19126216 C16.8508259,6.0763973 15.5934598,5.45222162 14.7006027,4.31896486" id="Fill-8" fill="#CC0000"></path>
                <path d="M10.4371875,9.16617027 C10.4891964,9.16617027 10.5079464,9.18914324 10.4929911,9.23508919 C10.4782589,9.28103514 10.4521429,9.31158919 10.4148661,9.32698108 C10.3775893,9.33456216 10.3479018,9.33846757 10.3255804,9.33846757 C10.3032589,9.33846757 10.2809375,9.33088649 10.2586161,9.31549459 C10.2436607,9.3001027 10.2362946,9.28103514 10.2362946,9.25806216 C10.2362946,9.23508919 10.2436607,9.21211622 10.2586161,9.18914324 C10.2809375,9.17398108 10.3032589,9.16617027 10.3255804,9.16617027 L10.4371875,9.16617027 Z M1.89924107,8.36211622 C2.42,8.69912973 3.298125,8.8944 4.53316964,8.94792703 C4.41419643,9.26196757 4.32848214,9.6446973 4.27647321,10.0965757 L4.19834821,11.1763054 C4.1871875,11.2146703 4.18339286,11.2298324 4.17602679,11.2452243 C4.01241071,11.8654946 3.75928571,12.2445486 3.41709821,12.3823865 C2.3903125,12.8650486 1.65370536,13.3856162 1.20727679,13.9445486 C0.932053571,14.3121162 0.723571429,14.6530351 0.582276786,14.9668459 C0.240089286,15.6944 0.240089286,16.2838865 0.582276786,16.7357649 L1.09566964,16.9769811 C1.44901786,15.8283324 1.89544643,15.0394405 2.44611607,14.5880216 C2.98919643,14.1285622 3.48785714,13.8257784 3.94165179,13.6803595 L6.7653125,12.4398189 C7.43495536,12.0568595 7.89991071,11.5668459 8.16040179,10.9695486 C9.23919643,10.8700757 10.2066071,11.195373 11.0621875,11.9459 C11.5159821,12.3901973 12.2525893,12.6426703 13.2720089,12.7040081 C14.5889732,12.7118189 15.8128571,12.0263054 16.9438839,10.647927 L17.9818304,11.3256297 C18.0414286,11.3525081 18.0784821,11.3676703 18.1157589,11.3830622 C18.4581696,11.4903459 18.9008036,11.4940216 19.4438839,11.3945486 L19.5554911,11.3256297 L19.5889732,11.3715757 L22.1224554,10.8087378 L23.1938839,11.8310351 C24.0867411,12.4053595 24.6409821,12.2139946 24.8568304,11.2567108 C24.0235714,10.9656432 23.2235714,10.5176703 22.4572768,9.91279189 C22.26375,9.79034595 22.0554911,9.74830541 21.8322768,9.78644054 L19.6559375,9.78644054 C18.7929911,9.1431973 18.3240179,8.34304865 18.2496875,7.38576486 L18.4282589,6.62765676 C18.4208929,6.62765676 18.3909821,6.60468378 18.3389732,6.55873784 C16.7764732,6.6736027 15.5525893,6.21414324 14.6670982,5.18035946 C14.5628571,5.06549459 14.4624107,4.93914324 14.3657589,4.80130541 L14.0644196,5.23779189 C14.2206696,5.27225135 14.3173214,5.33358919 14.3769196,5.43306216 C14.5554911,5.73171081 14.391875,6.35588649 13.8858482,7.30535946 C13.2458929,7.15212973 12.7586161,7.16752162 12.4237946,7.35130541 C12.3345089,7.40483243 12.2563839,7.46617027 12.1894196,7.53508919 C12.0628571,7.66534595 11.9735714,7.83764324 11.9215625,8.05198108 C10.7088393,8.51925135 9.79723214,8.5459 9.1871875,8.13238649 C8.36866071,7.73426486 8.03383929,7.33981892 8.18272321,6.94927838 C7.79589286,6.95685946 7.49075893,6.98373784 7.26754464,7.02968378 C6.58294643,7.16752162 6.05839286,7.38576486 5.69388393,7.68441351 C5.329375,7.97548108 5.09120536,8.11331892 4.97959821,8.09792703 C3.454375,8.12848108 1.90303571,7.50453514 0.325580357,6.22562973 C0.169330357,6.53967027 0.396339286,7.02968378 1.00638393,7.6959 C1.08071429,7.80318378 1.37848214,8.02533243 1.89924107,8.36211622 Z M18.5175446,2.04454865 C18.5135268,2.01330541 18.5208929,1.98275135 18.5398661,1.95265676 C18.5559375,1.92922432 18.5782589,1.91383243 18.6068304,1.90671081 C18.82,1.86788649 18.9800446,1.75302162 19.0867411,1.56211622 C19.1057143,1.53523784 19.1282589,1.51617027 19.1537054,1.50468378 C19.1869643,1.50031892 19.2166518,1.50422432 19.2429911,1.51617027 C19.2691071,1.5356973 19.2840625,1.55867027 19.2876339,1.58508919 C19.2994643,1.61908919 19.2956696,1.64987297 19.2764732,1.67698108 C19.1376339,1.93014324 18.929375,2.08337297 18.6514732,2.13644054 C18.6213393,2.14057568 18.5914286,2.13299459 18.5621875,2.11346757 C18.5391964,2.09715676 18.5242411,2.07395405 18.5175446,2.04454865 L18.5175446,2.04454865 Z M19.0309375,1.02225135 C19.0550446,1.04683243 19.0662054,1.07371081 19.0644196,1.10265676 C19.0639732,1.13826486 19.0528125,1.16514324 19.0309375,1.18306216 C19.0072768,1.20787297 18.9773661,1.21935946 18.9416518,1.21752162 C18.6130804,1.20304865 18.3898661,1.3486973 18.2720089,1.65400811 C18.26375,1.68708919 18.2452232,1.71006216 18.2162054,1.72292703 C18.1885268,1.73717027 18.1588393,1.73717027 18.1269196,1.72292703 C18.1021429,1.71442703 18.0836161,1.69535946 18.0711161,1.66549459 C18.0575,1.63723784 18.0537054,1.60645405 18.0599554,1.5736027 C18.2173214,1.16698108 18.5148661,0.971710811 18.9528125,0.987791892 C18.9874107,0.988251351 19.0133036,0.999737838 19.0309375,1.02225135 L19.0309375,1.02225135 Z M19.3322768,0.631710811 L19.3211161,0.631710811 C18.4282589,0.555210811 17.6769196,0.727508108 17.0666518,1.1486027 C16.9550446,1.22533243 16.8508036,1.30941351 16.7541518,1.40130541 L16.5755804,1.65400811 L16.5420982,1.61954865 C16.3039286,1.48171081 16.0213393,1.37442703 15.6938839,1.29792703 C15.2548214,1.19087297 14.7340625,1.13711622 14.1313839,1.13711622 L14.7563839,2.01008919 C14.9275893,2.3471027 15.3070536,2.54995405 15.8947768,2.61887297 L14.7005804,4.31887297 C15.5934375,5.45212973 16.8508036,6.07630541 18.4729018,6.19117027 L18.6403125,5.5709 L20.5822768,5.3181973 C21.2072768,5.29522432 21.5124107,5.08088649 21.4974554,4.67495405 C20.1208929,4.62142703 19.2691071,4.26534595 18.9416518,3.60671081 L20.9617411,3.38846757 C21.4304911,3.32712973 21.8322768,3.20100811 22.1670982,3.00941351 C22.5092857,2.41211622 22.7251339,1.91061622 22.8144196,1.50468378 L22.8144196,1.4931973 C22.5391964,1.53156216 22.3048214,1.46264324 22.1112946,1.28644054 L21.6760268,0.792521622 L20.3590625,1.04522432 C20.1581696,0.830886486 19.8159821,0.693048649 19.3322768,0.631710811 L19.3322768,0.631710811 Z" id="Fill-10" fill="#CCCCCC"></path>
                <path d="M13.6626786,9.25815405 C13.8262946,9.19681622 13.9416964,9.06288378 14.0086607,8.85612703 C14.075625,8.64155946 13.9937054,8.53841081 13.763125,8.54599189 L13.2608929,8.54599189 C13.1566518,8.54599189 13.0635714,8.58412703 12.981875,8.66085676 C12.9075446,8.73735676 12.8702679,8.83315405 12.8702679,8.94801892 C12.8702679,9.0553027 12.9075446,9.14719459 12.981875,9.22369459 C13.0635714,9.30019459 13.1566518,9.33855946 13.2608929,9.33855946 C13.3651339,9.33855946 13.4990625,9.31168108 13.6626786,9.25815405" id="Fill-12" fill="#666666"></path>
                <path d="M15.7719866,7.68448243 C15.846317,7.76098243 15.9356027,7.7993473 16.0398438,7.7993473 C16.1514509,7.7993473 16.2891741,7.77246892 16.4527902,7.71894189 C16.6090402,7.65760405 16.7206473,7.52367162 16.7876116,7.31691486 C16.8545759,7.11015811 16.7764509,7.00677973 16.5532366,7.00677973 L16.0398438,7.00677973 C15.9356027,7.00677973 15.846317,7.04491486 15.7719866,7.12164459 C15.6976563,7.19814459 15.6603795,7.29394189 15.6603795,7.40880676 C15.6603795,7.51609054 15.6976563,7.60798243 15.7719866,7.68448243" id="Fill-14" fill="#666666"></path>
                <path d="M6.12919643,8.18981892 C6.2928125,8.13629189 6.40821429,8.00235946 6.47517857,7.78779189 C6.54214286,7.58103514 6.50129464,7.47765676 6.35241071,7.47765676 C6.21111607,7.47765676 6.12183036,7.45858919 6.08455357,7.42022432 C5.68276786,7.64995405 5.45955357,7.81834595 5.41491071,7.92562973 C5.36267857,8.03291351 5.3740625,8.1209 5.44839286,8.18981892 C5.52272321,8.25115676 5.61580357,8.28171081 5.72741071,8.28171081 C5.83165179,8.28171081 5.96558036,8.25115676 6.12919643,8.18981892" id="Fill-16" fill="#666666"></path>
            </g>
            <ellipse id="Oval-10-Copy" fill="#2D9E5D" cx="352.801916" cy="75.1144395" rx="11.3889645" ry="1"></ellipse>
            <ellipse id="Oval-10-Copy" fill="#2D9E5D" cx="308.384954" cy="77.3765952" rx="11.3889645" ry="1"></ellipse>
            <ellipse id="Oval-10-Copy-4" fill="#2D9E5D" cx="328.110008" cy="77.3765952" rx="11.3889645" ry="1"></ellipse>
            <polygon id="Fill-8" fill="#996600" points="299.289601 77.5370863 301.231314 77.5370863 301.231314 73.232368 299.289601 73.232368"></polygon>
            <ellipse id="Oval-10-Copy" fill="#2D9E5D" transform="translate(50.816004, 70.888122) rotate(2.000000) translate(-50.816004, -70.888122) " cx="50.8160038" cy="70.8468439" rx="21.2450008" ry="1"></ellipse>
            <path d="M343.738673,0.625820941 C349.464475,0.625820941 354.352239,2.65029824 358.40149,6.69925283 C362.466876,10.7633898 364.499806,15.6582884 364.499806,21.3829997 L364.499806,34.6675941 C364.499806,40.3927798 362.466876,45.2796128 358.40149,49.3280929 C354.352239,53.3927044 349.464475,55.4247728 343.738673,55.4247728 L343.714471,55.4247728 C337.988669,55.4247728 333.092838,53.3927044 329.027927,49.3280929 C324.978201,45.2796128 322.953338,40.3927798 322.953338,34.6675941 L322.953338,21.3829997 C322.953338,15.6582884 324.978201,10.7633898 329.027927,6.69925283 C333.092838,2.65029824 337.988669,0.625820941 343.714471,0.625820941 L343.738673,0.625820941 Z" id="Fill-1" fill="#93BC93"></path>
            <path d="M336.446515,38.2873467 C336.446515,34.5380718 335.115513,31.3325303 332.453198,28.6710329 C329.801448,26.0194781 326.600579,24.6940114 322.85059,24.6940114 L322.835052,24.6940114 C319.085373,24.6940114 315.879221,26.0194781 313.216906,28.6710329 C310.565157,31.3325303 309.239127,34.5380718 309.239127,38.2873467 L309.239127,46.9870813 C309.239127,50.7360455 310.565157,53.936305 313.216906,56.5875491 C315.879221,59.2493572 319.085373,60.5804166 322.835052,60.5804166 L322.85059,60.5804166 C326.600579,60.5804166 329.801448,59.2493572 332.453198,56.5875491 C335.115513,53.936305 336.446515,50.7360455 336.446515,46.9870813 L336.446515,38.2873467 Z" id="Fill-3" fill="#93BC93"></path>
            <polygon id="Fill-12" fill="#93BC93" points="363.126737 71.1432161 364.253692 71.1432161 367.44939 71.1432161 363.568623 58.7577172 359.651113 71.0998968 359.651113 71.1432161"></polygon>
            <polygon id="Fill-13" fill="#996600" points="362.862168 72.9781048 363.779612 72.9781048 363.779612 70.6844939 362.862168 70.6844939"></polygon>
            <ellipse id="Oval-10-Copy" fill="#93BC93" cx="367.908112" cy="73.2281048" rx="6.42211055" ry="1"></ellipse>
            <polygon id="Fill-5" fill="#D0BC93" points="342.21967 75.2717157 344.972003 75.2717157 344.972003 55.5466619 342.21967 55.5466619"></polygon>
            <polygon id="Fill-7" fill="#D0BC93" points="321.577172 77.5653266 323.41206 77.5653266 323.41206 60.5926059 321.577172 60.5926059"></polygon>
            <polygon id="Fill-9" fill="#93BC93" points="293.595118 73.3648005 293.595118 73.436827 299.540662 73.436827 301.466683 73.436827 306.898062 73.436827 300.294322 51.8768844"></polygon>
        </g>
    </g>
</svg>