<?xml version="1.0" encoding="UTF-8" standalone="no"?>
<svg width="100%" height="100%" viewBox="0 0 24 19" version="1.1" xmlns="http://www.w3.org/2000/svg" xmlns:xlink="http://www.w3.org/1999/xlink">
    <!-- Generator: Sketch 47 (45396) - http://www.bohemiancoding.com/sketch -->
    <title>Artboard 2</title>
    <desc>Created with Sketch.</desc>
    <defs></defs>
    <g id="Onboarding" stroke="none" stroke-width="1" fill="none" fill-rule="evenodd">
        <g id="Artboard-2">
            <g id="Group-4" transform="translate(1.000000, 1.000000)">
                <path d="M19.8502575,1.02908349 C19.5953362,0.776665224 19.1598183,0.757097917 18.8833819,0.985383173 L8.47789583,9.55912516 C8.20145936,9.78741042 7.73725472,9.80110753 7.4477788,9.59043285 L2.57688995,6.05070689 C2.28676205,5.84003221 1.85906788,5.89090721 1.62696556,6.16419728 L0.354966614,7.66109631 C0.122864294,7.93438638 0.137207696,8.36812837 0.387565254,8.62576458 L7.82201119,16.2713639 C8.07171677,16.5283479 8.48050373,16.5283479 8.73086128,16.2707117 L21.2715583,3.35107067 C21.5212638,3.0940867 21.517352,2.67730304 21.2624306,2.42488478 L19.8502575,1.02908349 Z" id="Fill-31" fill="#0AC392"></path>
                <path d="M19.8502575,1.02908349 C19.5953362,0.776665224 19.1598183,0.757097917 18.8833819,0.985383173 L8.47789583,9.55912516 C8.20145936,9.78741042 7.73725472,9.80110753 7.4477788,9.59043285 L2.57688995,6.05070689 C2.28676205,5.84003221 1.85906788,5.89090721 1.62696556,6.16419728 L0.354966614,7.66109631 C0.122864294,7.93438638 0.137207696,8.36812837 0.387565254,8.62576458 L7.82201119,16.2713639 C8.07171677,16.5283479 8.48050373,16.5283479 8.73086128,16.2707117 L21.2715583,3.35107067 C21.5212638,3.0940867 21.517352,2.67730304 21.2624306,2.42488478 L19.8502575,1.02908349 L19.8502575,1.02908349 Z" id="Stroke-33" stroke="#14517C" stroke-width="2"></path>
            </g>
        </g>
    </g>
</svg>