<?xml version="1.0" encoding="UTF-8" standalone="no"?>
<svg width="362px" height="423px" viewBox="0 0 362 423" version="1.1" xmlns="http://www.w3.org/2000/svg" xmlns:xlink="http://www.w3.org/1999/xlink">
    <!-- Generator: Sketch 47.1 (45422) - http://www.bohemiancoding.com/sketch -->
    <title>Onboarding Welcome Copy@2x</title>
    <desc>Created with Sketch.</desc>
    <defs></defs>
    <g id="Onboarding" stroke="none" stroke-width="1" fill="none" fill-rule="evenodd">
        <g id="Onboarding-Welcome-Copy" fill="#EDF8FF">
            <path d="M56.6347245,176 C55.0065248,174.409619 54,172.21578 54,169.793103 C54,164.936807 58.044306,161 63.0332103,161 C66.4832173,161 69.4814965,162.882668 71.0029506,165.650153 C72.2051856,165.073773 73.5582147,164.75 74.9889299,164.75 C78.5780303,164.75 81.6782442,166.787534 83.1354222,169.739131 C83.7648945,169.442301 84.4713356,169.275862 85.2177122,169.275862 C87.8588968,169.275862 90,171.360054 90,173.931034 C90,174.674228 89.8210861,175.376745 89.5028973,176 L56.6347245,176 Z" id="Combined-Shape-Copy-24"></path>
            <path d="M259.123734,221.999999 C254.103452,217.016806 251,210.142777 251,202.551723 C251,187.335327 263.469944,175 278.852399,175 C289.48992,175 298.734614,180.899025 303.425764,189.570479 C307.132656,187.764487 311.304495,186.75 315.715867,186.75 C326.78226,186.75 336.341253,193.134274 340.834218,202.382611 C342.775091,201.452544 344.953285,200.931034 347.254613,200.931034 C355.398265,200.931034 362,207.461501 362,215.51724 C362,217.845915 361.448348,220.047135 360.467266,222 L259.123734,221.999999 Z" id="Combined-Shape-Copy-20"></path>
            <path d="M0.902612519,335 C0.905566968,330.46746 0.922167234,317.736865 1.01543972,317.770304 C2.59182182,318.795673 3.89271753,320.214952 4.78138402,321.890194 C6.25078242,321.160112 7.90448465,320.75 9.65313653,320.75 C14.0398148,320.75 17.8289651,323.330877 19.6099605,327.069566 C20.3793155,326.693582 21.2427435,326.482759 22.1549815,326.482759 C25.3830961,326.482759 28,329.122735 28,332.37931 C28,333.320689 27.7813274,334.210544 27.39243,335 L0.902612519,335 Z" id="Combined-Shape-Copy-21"></path>
            <path d="M320.220219,423 C318.230197,420.985518 317,418.206655 317,415.137931 C317,408.986622 321.943041,404 328.04059,404 C332.257266,404 335.921829,406.384712 337.781384,409.890194 C339.250782,409.160112 340.904485,408.75 342.653137,408.75 C347.039815,408.75 350.828965,411.330877 352.60996,415.069566 C353.379316,414.693582 354.242743,414.482759 355.154982,414.482759 C358.383096,414.482759 361,417.122735 361,420.37931 C361,421.320689 360.781327,422.210544 360.39243,423 L320.220219,423 Z" id="Combined-Shape-Copy-22"></path>
            <path d="M22.123734,46.9999988 C17.1034516,42.0168059 14,35.1427772 14,27.5517234 C14,12.3353268 26.4699436,0 41.8523985,0 C52.4899199,0 61.7346141,5.89902508 66.4257642,14.5704792 C70.1326556,12.7644872 74.3044954,11.7499997 78.7158672,11.7499997 C89.78226,11.7499997 99.3412529,18.1342738 103.834218,27.3826109 C105.775091,26.4525439 107.953285,25.9310338 110.254613,25.9310338 C118.398265,25.9310338 125,32.4615009 125,40.5172404 C125,42.8459149 124.448348,45.0471352 123.467266,47 L22.123734,46.9999988 Z" id="Combined-Shape-Copy-23"></path>
        </g>
    </g>
</svg>