<?xml version="1.0" encoding="UTF-8"?>
<svg width="189px" height="185px" viewBox="0 0 189 185" version="1.1" xmlns="http://www.w3.org/2000/svg" xmlns:xlink="http://www.w3.org/1999/xlink">
    <!-- Generator: Sketch 49.2 (51160) - http://www.bohemiancoding.com/sketch -->
    <title>Artboard 6</title>
    <desc>Created with Sketch.</desc>
    <defs>
        <linearGradient x1="49.9999325%" y1="0%" x2="49.9999325%" y2="100.000153%" id="linearGradient-1">
            <stop stop-color="#FF58A7" offset="0%"></stop>
            <stop stop-color="#FF2010" offset="100%"></stop>
        </linearGradient>
        <circle id="path-2" cx="206" cy="110" r="12"></circle>
        <filter x="-20.8%" y="-8.3%" width="133.3%" height="133.3%" filterUnits="objectBoundingBox" id="filter-3">
            <feOffset dx="-1" dy="2" in="SourceAlpha" result="shadowOffsetOuter1"></feOffset>
            <feGaussianBlur stdDeviation="1" in="shadowOffsetOuter1" result="shadowBlurOuter1"></feGaussianBlur>
            <feColorMatrix values="0 0 0 0 0.369499362   0 0 0 0 0.369499362   0 0 0 0 0.369499362  0 0 0 0.5 0" type="matrix" in="shadowBlurOuter1"></feColorMatrix>
        </filter>
    </defs>
    <g id="Artboard-6" stroke="none" stroke-width="1" fill="none" fill-rule="evenodd">
        <g id="Group" transform="translate(-61.000000, -1.000000)">
            <rect id="Rectangle-7" opacity="0.388059701" x="0" y="0" width="326" height="249"></rect>
            <path d="M152.100028,186 C106.757595,186 70,149.287532 70,104 C70,58.7124683 106.757595,22 152.100028,22 C197.443226,22 234.200821,58.7124683 234.200821,104 C234.200821,149.287532 197.443226,186 152.100028,186 Z" id="Fill-1" fill="#006DFF" opacity="0.06"></path>
            <path d="M63.3942731,85.5 L241.607471,85.5" id="Line" stroke="#104163" stroke-linecap="square"></path>
            <path d="M63.3942731,135.5 L241.607471,135.5" id="Line" stroke="#104163" stroke-linecap="square"></path>
            <rect id="Rectangle-3" fill="#FFFFFF" opacity="0.7" x="61" y="86" width="182" height="49"></rect>
            <rect id="Rectangle-2" stroke="#D8D8D8" fill="#FFFFFF" x="85" y="91" width="39" height="39" rx="9"></rect>
            <path d="M109.037962,99.6507432 C108.770524,99.3976519 107.487289,98 104.784815,98 C101.55359,98 100,100.734213 100,102.808643 C100,108.898176 108.197054,113 108.962038,113 C109.727021,113 118,108.898176 118,102.808643 C118,100.734213 116.44641,98 113.215088,98 C110.512711,98 109.229476,99.3976519 109.037962,99.6507432" id="Fill-1" fill="url(#linearGradient-1)"></path>
            <path d="M215.746094,72 L214.111328,72 L214.111328,61.1630859 L210.833008,62.3671875 L210.833008,60.890625 L215.491211,59.1416016 L215.746094,59.1416016 L215.746094,72 Z M228.53418,66.5419922 C228.53418,68.4462986 228.208988,69.8613235 227.558594,70.7871094 C226.9082,71.7128953 225.891608,72.1757812 224.508789,72.1757812 C223.143548,72.1757812 222.132816,71.7231491 221.476562,70.8178711 C220.820309,69.9125931 220.480469,68.5605559 220.457031,66.7617188 L220.457031,64.5908203 C220.457031,62.7099515 220.782223,61.3125046 221.432617,60.3984375 C222.083011,59.4843704 223.102532,59.0273438 224.491211,59.0273438 C225.868171,59.0273438 226.881833,59.4682573 227.532227,60.3500977 C228.18262,61.231938 228.516601,62.5927642 228.53418,64.4326172 L228.53418,66.5419922 Z M226.908203,64.3183594 C226.908203,62.9413994 226.714846,61.9379914 226.328125,61.3081055 C225.941404,60.6782195 225.329106,60.3632812 224.491211,60.3632812 C223.659176,60.3632812 223.052736,60.6767547 222.671875,61.3037109 C222.291014,61.9306672 222.094727,62.8945247 222.083008,64.1953125 L222.083008,66.796875 C222.083008,68.1796944 222.283689,69.2006803 222.685059,69.8598633 C223.086428,70.5190463 223.694332,70.8486328 224.508789,70.8486328 C225.311527,70.8486328 225.907713,70.538089 226.297363,69.9169922 C226.687014,69.2958953 226.890625,68.3173895 226.908203,66.9814453 L226.908203,64.3183594 Z M238.641602,66.5419922 C238.641602,68.4462986 238.31641,69.8613235 237.666016,70.7871094 C237.015622,71.7128953 235.99903,72.1757812 234.616211,72.1757812 C233.25097,72.1757812 232.240238,71.7231491 231.583984,70.8178711 C230.927731,69.9125931 230.587891,68.5605559 230.564453,66.7617188 L230.564453,64.5908203 C230.564453,62.7099515 230.889645,61.3125046 231.540039,60.3984375 C232.190433,59.4843704 233.209954,59.0273438 234.598633,59.0273438 C235.975593,59.0273438 236.989255,59.4682573 237.639648,60.3500977 C238.290042,61.231938 238.624023,62.5927642 238.641602,64.4326172 L238.641602,66.5419922 Z M237.015625,64.3183594 C237.015625,62.9413994 236.822268,61.9379914 236.435547,61.3081055 C236.048826,60.6782195 235.436528,60.3632812 234.598633,60.3632812 C233.766597,60.3632812 233.160158,60.6767547 232.779297,61.3037109 C232.398436,61.9306672 232.202148,62.8945247 232.19043,64.1953125 L232.19043,66.796875 C232.19043,68.1796944 232.391111,69.2006803 232.79248,69.8598633 C233.19385,70.5190463 233.801754,70.8486328 234.616211,70.8486328 C235.418949,70.8486328 236.015135,70.538089 236.404785,69.9169922 C236.794436,69.2958953 236.998047,68.3173895 237.015625,66.9814453 L237.015625,64.3183594 Z" id="100-copy-2" fill="#1D1E20"></path>
            <path d="M237.675781,31.8076172 L238.558105,31.8076172 C239.11247,31.7991536 239.548338,31.653159 239.865723,31.3696289 C240.183107,31.0860988 240.341797,30.7031274 240.341797,30.2207031 C240.341797,29.1373644 239.802251,28.5957031 238.723145,28.5957031 C238.215329,28.5957031 237.810141,28.7406398 237.507568,29.0305176 C237.204995,29.3203953 237.053711,29.7044247 237.053711,30.1826172 L235.879395,30.1826172 C235.879395,29.4505172 236.147051,28.8422062 236.682373,28.357666 C237.217695,27.8731258 237.897945,27.6308594 238.723145,27.6308594 C239.594894,27.6308594 240.278318,27.8614886 240.773438,28.3227539 C241.268557,28.7840192 241.516113,29.4251261 241.516113,30.2460938 C241.516113,30.648114 241.385988,31.037433 241.125732,31.4140625 C240.865477,31.790692 240.51107,32.0721019 240.0625,32.2583008 C240.570315,32.4191089 240.962808,32.6857078 241.23999,33.0581055 C241.517173,33.4305032 241.655762,33.885414 241.655762,34.4228516 C241.655762,35.2522828 241.384931,35.9103166 240.843262,36.3969727 C240.301592,36.8836287 239.59701,37.1269531 238.729492,37.1269531 C237.861975,37.1269531 237.156334,36.8920922 236.612549,36.4223633 C236.068764,35.9526344 235.796875,35.3326861 235.796875,34.5625 L236.977539,34.5625 C236.977539,35.0491561 237.136229,35.4384751 237.453613,35.7304688 C237.770998,36.0224624 238.196286,36.168457 238.729492,36.168457 C239.296552,36.168457 239.730304,36.0203465 240.030762,35.7241211 C240.331219,35.4278957 240.481445,35.0026069 240.481445,34.4482422 C240.481445,33.9108046 240.316408,33.4982111 239.986328,33.2104492 C239.656248,32.9226874 239.180179,32.7745769 238.558105,32.7661133 L237.675781,32.7661133 L237.675781,31.8076172 Z M248.225586,33.8959961 L249.507812,33.8959961 L249.507812,34.8544922 L248.225586,34.8544922 L248.225586,37 L247.044922,37 L247.044922,34.8544922 L242.836426,34.8544922 L242.836426,34.1625977 L246.975098,27.7578125 L248.225586,27.7578125 L248.225586,33.8959961 Z M244.169434,33.8959961 L247.044922,33.8959961 L247.044922,29.3637695 L246.905273,29.6176758 L244.169434,33.8959961 Z" id="34" fill="#1D1E20" opacity="0.6"></path>
            <path d="M215.57666,18.7514648 L215.57666,19.7480469 L215.36084,19.7480469 C214.446773,19.764974 213.718915,20.0358047 213.177246,20.5605469 C212.635577,21.0852891 212.322429,21.8237257 212.237793,22.7758789 C212.724449,22.2172824 213.38883,21.9379883 214.230957,21.9379883 C215.034998,21.9379883 215.677162,22.2215141 216.157471,22.7885742 C216.637779,23.3556343 216.87793,24.0877234 216.87793,24.9848633 C216.87793,25.9370165 216.618736,26.6987276 216.100342,27.2700195 C215.581947,27.8413115 214.886886,28.1269531 214.015137,28.1269531 C213.130692,28.1269531 212.413414,27.7873569 211.863281,27.1081543 C211.313148,26.4289517 211.038086,25.5540418 211.038086,24.4833984 L211.038086,24.0327148 C211.038086,22.3315345 211.400957,21.0313359 212.126709,20.1320801 C212.852461,19.2328243 213.93261,18.7726238 215.367188,18.7514648 L215.57666,18.7514648 Z M214.03418,22.9155273 C213.632159,22.9155273 213.261883,23.0361316 212.92334,23.2773438 C212.584796,23.5185559 212.349936,23.8211245 212.21875,24.1850586 L212.21875,24.6166992 C212.21875,25.3784218 212.390135,25.9920224 212.73291,26.4575195 C213.075685,26.9230167 213.50309,27.1557617 214.015137,27.1557617 C214.544111,27.1557617 214.959878,26.9611022 215.262451,26.5717773 C215.565024,26.1824525 215.716309,25.6725292 215.716309,25.0419922 C215.716309,24.4072234 215.562908,23.8941263 215.256104,23.5026855 C214.949299,23.1112448 214.541995,22.9155273 214.03418,22.9155273 Z M224.234863,19.4179688 L220.407227,28 L219.175781,28 L222.990723,19.7226562 L217.98877,19.7226562 L217.98877,18.7578125 L224.234863,18.7578125 L224.234863,19.4179688 Z" id="67" fill="#1D1E20" opacity="0.6"></path>
            <path d="M238.444336,9 L237.536133,9 L237.536133,2.97949219 L235.714844,3.6484375 L235.714844,2.828125 L238.302734,1.85644531 L238.444336,1.85644531 L238.444336,9 Z M241.505859,5.43554688 L241.867188,1.890625 L245.509766,1.890625 L245.509766,2.72558594 L242.633789,2.72558594 L242.418945,4.6640625 C242.767254,4.45898335 243.162758,4.35644531 243.605469,4.35644531 C244.253258,4.35644531 244.767576,4.57047312 245.148438,4.99853516 C245.529299,5.42659719 245.719727,6.00520469 245.719727,6.734375 C245.719727,7.46680054 245.521975,8.04378044 245.126465,8.46533203 C244.730955,8.88688362 244.178389,9.09765625 243.46875,9.09765625 C242.840492,9.09765625 242.327801,8.92350435 241.930664,8.57519531 C241.533527,8.22688628 241.307292,7.74512026 241.251953,7.12988281 L242.106445,7.12988281 C242.161784,7.53678589 242.306639,7.84358621 242.541016,8.05029297 C242.775392,8.25699973 243.084633,8.36035156 243.46875,8.36035156 C243.888674,8.36035156 244.218261,8.21712383 244.45752,7.93066406 C244.696779,7.6442043 244.816406,7.24870044 244.816406,6.74414062 C244.816406,6.26887783 244.687013,5.88720847 244.428223,5.59912109 C244.169432,5.31103372 243.825197,5.16699219 243.395508,5.16699219 C243.001626,5.16699219 242.692384,5.25325435 242.467773,5.42578125 L242.228516,5.62109375 L241.505859,5.43554688 Z" id="15" fill="#1D1E20" opacity="0.3"></path>
            <path d="M216.698242,45.4355469 L217.05957,41.890625 L220.702148,41.890625 L220.702148,42.7255859 L217.826172,42.7255859 L217.611328,44.6640625 C217.959637,44.4589833 218.355141,44.3564453 218.797852,44.3564453 C219.445641,44.3564453 219.959959,44.5704731 220.34082,44.9985352 C220.721682,45.4265972 220.912109,46.0052047 220.912109,46.734375 C220.912109,47.4668005 220.714357,48.0437804 220.318848,48.465332 C219.923338,48.8868836 219.370772,49.0976562 218.661133,49.0976562 C218.032874,49.0976562 217.520184,48.9235043 217.123047,48.5751953 C216.725909,48.2268863 216.499675,47.7451203 216.444336,47.1298828 L217.298828,47.1298828 C217.354167,47.5367859 217.499022,47.8435862 217.733398,48.050293 C217.967775,48.2569997 218.277016,48.3603516 218.661133,48.3603516 C219.081057,48.3603516 219.410643,48.2171238 219.649902,47.9306641 C219.889161,47.6442043 220.008789,47.2487004 220.008789,46.7441406 C220.008789,46.2688778 219.879396,45.8872085 219.620605,45.5991211 C219.361815,45.3110337 219.01758,45.1669922 218.587891,45.1669922 C218.194008,45.1669922 217.884767,45.2532543 217.660156,45.4257812 L217.420898,45.6210938 L216.698242,45.4355469 Z" id="5-copy" fill="#1D1E20" opacity="0.3"></path>
            <path d="M189.444336,80 L188.536133,80 L188.536133,73.9794922 L186.714844,74.6484375 L186.714844,73.828125 L189.302734,72.8564453 L189.444336,72.8564453 L189.444336,80 Z M196.548828,76.9677734 C196.548828,78.0257214 196.368166,78.8118464 196.006836,79.3261719 C195.645506,79.8404974 195.080733,80.0976562 194.3125,80.0976562 C193.554033,80.0976562 192.992515,79.8461939 192.62793,79.3432617 C192.263345,78.8403295 192.074544,78.0891977 192.061523,77.0898438 L192.061523,75.8837891 C192.061523,74.838862 192.242186,74.0625025 192.603516,73.5546875 C192.964846,73.0468725 193.531246,72.7929688 194.302734,72.7929688 C195.067712,72.7929688 195.630858,73.0379207 195.992188,73.527832 C196.353517,74.0177433 196.539062,74.7737579 196.548828,75.7958984 L196.548828,76.9677734 Z M195.645508,75.7324219 C195.645508,74.9674441 195.538087,74.4099952 195.323242,74.0600586 C195.108397,73.7101219 194.768231,73.5351562 194.302734,73.5351562 C193.840492,73.5351562 193.503582,73.7093082 193.291992,74.0576172 C193.080403,74.4059262 192.971354,74.9414026 192.964844,75.6640625 L192.964844,77.109375 C192.964844,77.877608 193.076334,78.4448224 193.299316,78.8110352 C193.522299,79.1772479 193.860024,79.3603516 194.3125,79.3603516 C194.758466,79.3603516 195.08968,79.1878272 195.306152,78.8427734 C195.522625,78.4977196 195.635742,77.9541053 195.645508,77.2119141 L195.645508,75.7324219 Z" id="10" fill="#1D1E20" opacity="0.3"></path>
            <path d="M189.216797,37.5429688 C189.216797,38.1816438 189.048342,38.7499975 188.711426,39.2480469 C188.37451,39.7460962 187.918948,40.1357408 187.344727,40.4169922 C188.012699,40.704103 188.541502,41.1230441 188.931152,41.6738281 C189.320803,42.2246121 189.515625,42.8486293 189.515625,43.5458984 C189.515625,44.6533258 189.142094,45.535153 188.39502,46.1914062 C187.647945,46.8476595 186.665045,47.1757812 185.446289,47.1757812 C184.215814,47.1757812 183.229984,46.8461947 182.48877,46.1870117 C181.747555,45.5278287 181.376953,44.6474664 181.376953,43.5458984 C181.376953,42.8544887 181.565916,42.2304715 181.943848,41.6738281 C182.321779,41.1171847 182.844723,40.6953139 183.512695,40.4082031 C182.944333,40.1269517 182.496095,39.7373072 182.167969,39.2392578 C181.839842,38.7412084 181.675781,38.1757844 181.675781,37.5429688 C181.675781,36.4648384 182.021481,35.6093782 182.712891,34.9765625 C183.4043,34.3437468 184.315424,34.0273438 185.446289,34.0273438 C186.571295,34.0273438 187.480954,34.3437468 188.175293,34.9765625 C188.869632,35.6093782 189.216797,36.4648384 189.216797,37.5429688 Z M187.889648,43.5107422 C187.889648,42.7958949 187.6626,42.2128929 187.208496,41.7617188 C186.754392,41.3105446 186.161136,41.0849609 185.428711,41.0849609 C184.696285,41.0849609 184.108889,41.307615 183.666504,41.7529297 C183.224119,42.1982444 183.00293,42.7841761 183.00293,43.5107422 C183.00293,44.2373083 183.21826,44.8085917 183.648926,45.2246094 C184.079592,45.6406271 184.678707,45.8486328 185.446289,45.8486328 C186.208012,45.8486328 186.805662,45.6391623 187.239258,45.2202148 C187.672854,44.8012674 187.889648,44.2314489 187.889648,43.5107422 Z M185.446289,35.3632812 C184.807614,35.3632812 184.290529,35.5610332 183.89502,35.956543 C183.49951,36.3520528 183.301758,36.889645 183.301758,37.5693359 C183.301758,38.2197298 183.49658,38.7456035 183.88623,39.1469727 C184.275881,39.5483419 184.795895,39.7490234 185.446289,39.7490234 C186.096683,39.7490234 186.616697,39.5483419 187.006348,39.1469727 C187.395998,38.7456035 187.59082,38.2197298 187.59082,37.5693359 C187.59082,36.9189421 187.388674,36.3886739 186.984375,35.9785156 C186.580076,35.5683573 186.067386,35.3632812 185.446289,35.3632812 Z M199.587891,41.5419922 C199.587891,43.4462986 199.262699,44.8613235 198.612305,45.7871094 C197.961911,46.7128953 196.945319,47.1757812 195.5625,47.1757812 C194.197259,47.1757812 193.186527,46.7231491 192.530273,45.8178711 C191.87402,44.9125931 191.53418,43.5605559 191.510742,41.7617188 L191.510742,39.5908203 C191.510742,37.7099515 191.835934,36.3125046 192.486328,35.3984375 C193.136722,34.4843704 194.156243,34.0273438 195.544922,34.0273438 C196.921882,34.0273438 197.935544,34.4682573 198.585938,35.3500977 C199.236331,36.231938 199.570312,37.5927642 199.587891,39.4326172 L199.587891,41.5419922 Z M197.961914,39.3183594 C197.961914,37.9413994 197.768557,36.9379914 197.381836,36.3081055 C196.995115,35.6782195 196.382817,35.3632812 195.544922,35.3632812 C194.712886,35.3632812 194.106447,35.6767547 193.725586,36.3037109 C193.344725,36.9306672 193.148438,37.8945247 193.136719,39.1953125 L193.136719,41.796875 C193.136719,43.1796944 193.3374,44.2006803 193.73877,44.8598633 C194.140139,45.5190463 194.748043,45.8486328 195.5625,45.8486328 C196.365238,45.8486328 196.961424,45.538089 197.351074,44.9169922 C197.740725,44.2958953 197.944336,43.3173895 197.961914,41.9814453 L197.961914,39.3183594 Z" id="80" fill="#1D1E20"></path>
            <rect id="Rectangle" fill="#4DD963" x="176" y="96" width="45" height="28" rx="14"></rect>
            <g id="Oval-1">
                <use fill="black" fill-opacity="1" filter="url(#filter-3)" xlink:href="#path-2"></use>
                <use fill="#FFFFFF" fill-rule="evenodd" xlink:href="#path-2"></use>
            </g>
            <polygon id="Path-2" fill="#FFFFFF" points="199.532227 122.109863 205.206055 131.240234 206.206055 131.240234 206.950684 108.52832 206.950684 106.811035 209.292969 106.305664 211.292969 106.305664 212.042969 114.180664 212.042969 122.930664 213.831055 118.772949 216.542969 119.675781 216.542969 122.109863 218.667969 118.772949 220.667969 118.772949 222.042969 119.675781 223.282227 121.529297 226.532227 121.529297 227.119141 122.930664 227.119141 126.062012 227.119141 138.687012 225.831055 142.350098 224.657227 144.187012 224.657227 150.882324 224.657227 154.094238 208.086426 154.094238 208.086426 148.040039 208.086426 145.453125 203.374512 141.366211 197.124512 128.018555 195.874512 124.393555 197.124512 121.529297"></polygon>
            <rect id="Rectangle-8" fill="#77CBFF" x="208" y="156" width="22" height="14"></rect>
            <path d="M211.0589,158.3516 C211.0589,157.8846 210.8919,157.4856 210.5589,157.1516 C210.2589,156.8516 209.8749,156.7016 209.4089,156.7016 C209.2419,156.7016 209.0919,156.7176 208.9589,156.7516 C208.6919,156.8186 208.4419,156.9516 208.2089,157.1516 C207.9089,157.4856 207.7589,157.8846 207.7589,158.3516 C207.7589,158.8186 207.9089,159.2016 208.2089,159.5016 C208.4419,159.7356 208.6919,159.8846 208.9589,159.9516 C209.0919,159.9856 209.2419,160.0016 209.4089,160.0016 C209.8749,160.0016 210.2589,159.8346 210.5589,159.5016 C210.8919,159.2016 211.0589,158.8186 211.0589,158.3516 M209.1589,107.0016 C210.0669,107.0966 210.5329,107.4966 210.5589,108.2016 L210.5589,123.5016 C210.5609,123.7756 210.6609,124.0086 210.8589,124.2016 C211.0519,124.3996 211.2849,124.4986 211.5589,124.5016 C211.8319,124.4986 212.0659,124.3996 212.2589,124.2016 C212.4559,124.0086 212.5569,123.7756 212.5589,123.5016 L212.5589,120.5016 C213.1809,119.8876 213.7799,119.5546 214.3589,119.5016 C214.8429,119.5506 215.3269,119.8006 215.8089,120.2516 L215.6589,125.5516 C215.6519,125.8296 215.7349,126.0626 215.9089,126.2516 C216.1159,126.4726 216.3489,126.5886 216.6089,126.6016 C216.8949,126.6096 217.1279,126.5086 217.3089,126.3016 C217.5299,126.1356 217.6469,125.9196 217.6589,125.6516 L217.7589,120.7016 C218.3169,120.0386 218.9509,119.7056 219.6589,119.7016 C219.6999,119.7026 219.7329,119.7026 219.7589,119.7016 C220.6899,119.6636 221.2559,119.9796 221.4579,120.6516 L221.4579,126.0016 C221.4609,126.2756 221.5609,126.5086 221.7589,126.7016 C221.9519,126.8996 222.1849,126.9986 222.4579,127.0016 C222.7329,126.9986 222.9659,126.8996 223.1589,126.7016 C223.3569,126.5086 223.4559,126.2756 223.4579,126.0016 L223.4579,122.7016 C224.0969,122.1426 224.6639,121.8756 225.1589,121.9016 C225.6629,122.0536 226.1299,122.5376 226.5589,123.3516 L226.0589,139.1016 C225.7899,141.0326 224.9909,142.2656 223.6589,142.8016 C223.4619,142.8856 223.2949,143.0026 223.1589,143.1516 C223.0569,143.3416 223.0069,143.5416 223.0089,143.7516 L223.0089,152.9516 L223.0089,153.1016 L209.1589,153.1016 L208.9089,145.8516 C209.6089,145.7886 210.3259,145.4556 211.0589,144.8516 C211.2919,144.7026 211.4249,144.4856 211.4589,144.2016 C211.4859,143.9406 211.4029,143.6906 211.2089,143.4516 C211.0599,143.2506 210.8429,143.1346 210.5589,143.1016 C210.2979,143.0756 210.0479,143.1416 209.8089,143.3016 C209.2469,143.7756 208.7299,143.9426 208.2589,143.8016 C208.2259,143.7976 208.1759,143.7816 208.1089,143.7516 C206.2089,143.0006 204.7429,141.9516 203.7089,140.6016 L197.0089,124.9516 C196.9439,124.0566 197.0599,123.3726 197.3589,122.9016 C197.6679,122.6076 198.1339,122.4746 198.7589,122.5016 C199.1199,122.7396 199.5029,123.2556 199.9089,124.0516 L203.7589,131.2516 C203.6899,131.2506 203.6059,131.2506 203.5089,131.2516 C203.2349,131.2536 203.0019,131.3536 202.8089,131.5516 C202.6109,131.7446 202.5109,131.9776 202.5089,132.2516 C202.5109,132.5256 202.6109,132.7586 202.8089,132.9516 C203.0019,133.1496 203.2349,133.2486 203.5089,133.2516 C204.3419,133.2546 205.0419,133.1706 205.6089,133.0016 C205.6249,133.0136 205.6419,133.0136 205.6589,133.0016 C205.7529,132.9776 205.8359,132.9276 205.9089,132.8516 C206.6039,132.5176 207.0379,131.3506 207.2089,129.3516 C207.2099,129.3406 207.2099,129.3246 207.2089,129.3016 L207.2589,108.3016 C207.3699,107.4356 208.0029,107.0026 209.1589,107.0016 M209.3589,105.0016 C209.3329,104.9996 209.2999,104.9996 209.2589,105.0016 C206.6749,104.9536 205.3419,106.0026 205.2589,108.1516 C205.2579,108.1946 205.2579,108.2276 205.2589,108.2516 L205.2089,129.2016 C205.1969,129.3506 205.1809,129.4836 205.1589,129.6016 L201.6589,123.1016 L201.7089,123.1516 C200.9529,121.6896 200.1859,120.8236 199.4089,120.5516 C199.3289,120.5276 199.2289,120.5106 199.1089,120.5016 C197.5669,120.3936 196.4669,120.7926 195.8089,121.7016 C195.1239,122.4686 194.8739,123.6856 195.0589,125.3516 C195.0699,125.4556 195.0869,125.5546 195.1089,125.6516 L201.8589,141.5016 C201.9089,141.5716 201.9589,141.6386 202.0089,141.7016 C203.1629,143.2586 204.7959,144.4926 206.9089,145.4016 L207.1589,153.1016 L205.2589,153.1016 C204.9849,153.1036 204.7519,153.2046 204.5589,153.4016 C204.3609,153.5946 204.2609,153.8286 204.2589,154.1016 C204.2599,154.2096 204.2759,154.3106 204.3089,154.4016 L204.1589,168.0516 C204.1519,168.3476 204.2359,168.5976 204.4089,168.8016 C204.6179,168.9986 204.8509,169.0986 205.1089,169.1016 C205.4049,169.1086 205.6549,169.0076 205.8589,168.8016 C206.0559,168.6256 206.1559,168.3926 206.1589,168.1016 L206.3089,155.1016 L226.8089,155.1016 L226.8089,168.8516 C226.8109,169.1246 226.9119,169.3586 227.1089,169.5516 C227.3009,169.7486 227.5349,169.8496 227.8089,169.8516 C228.0819,169.8496 228.3159,169.7486 228.5089,169.5516 C228.7059,169.3586 228.8059,169.1246 228.8089,168.8516 L228.8089,154.1016 C228.8059,153.8286 228.7059,153.5946 228.5089,153.4016 C228.3159,153.2046 228.0819,153.1036 227.8089,153.1016 L225.0089,153.1016 C225.0079,153.0526 225.0079,153.0026 225.0089,152.9516 L225.0089,144.4016 C226.6869,143.5646 227.7039,141.8976 228.0589,139.4016 C228.0609,139.3586 228.0609,139.3086 228.0589,139.2516 L228.5589,123.1516 C228.5629,123.0106 228.5289,122.8616 228.4579,122.7016 C227.6439,121.0006 226.6609,120.0836 225.5089,119.9516 C224.8509,119.7926 224.1519,119.8926 223.4089,120.2516 C223.0869,118.4816 221.8539,117.6316 219.7079,117.7016 C219.7009,117.7006 219.6839,117.7006 219.6589,117.7016 C218.6769,117.6686 217.7939,117.9696 217.0089,118.6016 C216.1489,117.8526 215.2649,117.4866 214.3589,117.5016 C213.7619,117.4976 213.1629,117.6636 212.5589,118.0016 L212.5589,108.2516 C212.6429,106.3226 211.5769,105.2396 209.3589,105.0016" id="Fill-1" fill="#104163"></path>
        </g>
    </g>
</svg>