<?xml version="1.0" encoding="UTF-8" standalone="no"?>
<svg width="44px" height="44px" viewBox="0 0 44 44" version="1.1" xmlns="http://www.w3.org/2000/svg" xmlns:xlink="http://www.w3.org/1999/xlink">
    <!-- Generator: Sketch 47.1 (45422) - http://www.bohemiancoding.com/sketch -->
    <title>Artboard</title>
    <desc>Created with Sketch.</desc>
    <defs>
        <path d="M22,44 C34.1502645,44 44,34.1502645 44,22 C44,9.8497355 34.1502645,0 22,0 C9.8497355,0 0,9.8497355 0,22 C0,34.1502645 9.8497355,44 22,44 Z" id="path-1"></path>
    </defs>
    <g id="Rebecca" stroke="none" stroke-width="1" fill="none" fill-rule="evenodd">
        <g id="Artboard">
            <mask id="mask-2" fill="white">
                <use xlink:href="#path-1"></use>
            </mask>
            <use id="Mask" fill="#E5F0FF" xlink:href="#path-1"></use>
            <path d="M13.6366071,12.25 C14.5428617,12.25 15.3358225,12.5520803 16.0155134,13.15625 L27.5702009,13.15625 C28.2498918,12.5520803 29.0428526,12.25 29.9491071,12.25 C30.8553617,12.25 31.6672025,12.5520803 32.384654,13.15625 C33.1776267,13.8737015 33.5741071,14.7799424 33.5741071,15.875 C33.5741071,16.7057333 33.2720268,17.5175742 32.6678571,18.3105469 C32.4035329,18.6503923 31.8371323,19.1979129 30.9686384,19.953125 C30.3267081,20.5950553 29.8452676,21.1331358 29.5243025,21.5673828 C29.2033373,22.0016298 29.0428571,22.5208303 29.0428571,23.125 C29.0428571,23.313803 29.1561373,23.5592433 29.3827009,23.8613281 L29.7225446,24.2578125 L28.3631696,25.5605469 C28.1743666,25.3717438 27.9855664,25.1263036 27.7967634,24.8242188 C27.4946785,24.3333309 27.3058784,23.8424504 27.2303571,23.3515625 C27.0793147,23.8424504 26.9660346,24.1634107 26.8905134,24.3144531 C26.2108225,26.0892016 25.4933817,27.467443 24.7381696,28.4492188 C24.4738454,28.8268248 24.1717651,29.1666652 23.8319196,29.46875 C24.7759348,29.5442712 25.5783356,29.9313116 26.2391462,30.6298828 C26.8999568,31.328454 27.2303571,32.1497349 27.2303571,33.09375 L27.2303571,34 L16.3553571,34 L16.3553571,33.09375 C16.3553571,32.1497349 16.6857575,31.328454 17.3465681,30.6298828 C18.0073787,29.9313116 18.8097795,29.5442712 19.7537946,29.46875 C19.4139492,29.2044258 19.0929889,28.8645854 18.790904,28.4492188 C18.0356919,27.4296824 17.3182512,26.051441 16.6385603,24.3144531 C16.6385603,24.2766925 16.5441602,23.9934922 16.3553571,23.4648438 C16.2798359,23.917971 16.0910357,24.3710915 15.7889509,24.8242188 L15.2225446,25.5605469 L13.8631696,24.2578125 C13.9764515,24.1822913 14.0897316,24.0501312 14.2030134,23.8613281 C14.429577,23.5592433 14.5428571,23.313803 14.5428571,23.125 C14.5428571,22.5208303 14.382377,22.0016298 14.0614118,21.5673828 C13.7404467,21.1331358 13.2590062,20.5950553 12.6170759,19.953125 C11.748582,19.1979129 11.1821814,18.6503923 10.9178571,18.3105469 C10.3136875,17.5175742 10.0116071,16.7057333 10.0116071,15.875 C10.0116071,14.7799424 10.4080876,13.8737015 11.2010603,13.15625 C11.9185118,12.5520803 12.7303526,12.25 13.6366071,12.25 Z M13.6366071,14.0625 C13.1834799,14.0625 12.7681194,14.2135402 12.3905134,14.515625 C12.0129073,14.8932311 11.8241071,15.3463515 11.8241071,15.875 C11.8241071,16.3281273 11.9940273,16.7812477 12.3338728,17.234375 C12.5604364,17.5364598 13.0324369,18.0084603 13.7498884,18.6503906 C14.5428611,19.3300815 15.0903817,19.8776021 15.3924665,20.2929688 C14.863818,18.1028536 14.5806177,16.1015716 14.5428571,14.2890625 C14.2407723,14.1380201 13.938692,14.0625 13.6366071,14.0625 Z M29.9491071,14.0625 C29.6470223,14.0625 29.344942,14.1380201 29.0428571,14.2890625 C29.0050965,16.1015716 28.7030162,18.1406137 28.1366071,20.40625 C28.5142132,19.9153621 29.0806138,19.3300815 29.8358259,18.6503906 C30.5532774,18.0084603 31.0252779,17.5364598 31.2518415,17.234375 C31.591687,16.7812477 31.7616071,16.3281273 31.7616071,15.875 C31.7616071,15.3463515 31.5728069,14.8932311 31.1952009,14.515625 C30.8175948,14.2135402 30.4022344,14.0625 29.9491071,14.0625 Z M16.4686384,14.96875 C16.6196808,17.9518378 17.2427215,20.8593608 18.337779,23.6914062 C18.9419487,25.2018305 19.5838694,26.4101517 20.2635603,27.3164062 C20.86773,28.1471396 21.3774905,28.5625 21.7928571,28.5625 C22.1704632,28.5625 22.6613437,28.1471396 23.2655134,27.3164062 C23.9452043,26.4479123 24.587125,25.2395911 25.1912946,23.6914062 C26.3241128,20.8216002 26.9660335,17.9140772 27.1170759,14.96875 L16.4686384,14.96875 Z M20.8866071,17.6875 L22.6991071,17.6875 L22.6991071,22.21875 L20.8866071,22.21875 L20.8866071,17.6875 Z M19.9803571,31.28125 C19.4139481,31.28125 18.9419476,31.5833303 18.5643415,32.1875 L25.0213728,32.1875 C24.6437667,31.5833303 24.1717662,31.28125 23.6053571,31.28125 L19.9803571,31.28125 Z" id="ï‘" fill="#006BFF"></path>
        </g>
    </g>
</svg>