<?xml version="1.0" encoding="UTF-8"?>
<svg width="17px" height="16px" viewBox="0 0 17 16" version="1.1" xmlns="http://www.w3.org/2000/svg" xmlns:xlink="http://www.w3.org/1999/xlink">
    <!-- Generator: Sketch 48.1 (47250) - http://www.bohemiancoding.com/sketch -->
    <title>Icons/bubble-chat</title>
    <desc>Created with Sketch.</desc>
    <defs></defs>
    <g id="Icons/bubble-chat" stroke="none" stroke-width="1" fill="none" fill-rule="evenodd">
        <g>
            <g id="Filled_Icons_1_" fill="#717C8E" fill-rule="nonzero">
                <g id="Filled_Icons">
                    <path d="M8.66466667,0.602 C4.25333333,0.602 0.664666667,3.558 0.664666667,7.19066667 C0.664666667,8.906 1.44933333,10.514 2.88133333,11.7446667 L1.27466667,14.952 C1.13266667,15.2346667 1.432,15.5366667 1.71333333,15.4033333 L6.00466667,13.4066667 C6.85666667,13.6533333 7.75066667,13.7786667 8.66466667,13.7786667 C13.076,13.7786667 16.6646667,10.8233333 16.6646667,7.19066667 C16.6646667,3.558 13.0753333,0.602 8.66466667,0.602 Z M5.66666667,5.33333333 L10,5.33333333 C10.184,5.33333333 10.3333333,5.48266667 10.3333333,5.66666667 C10.3333333,5.85066667 10.184,6 10,6 L5.66666667,6 C5.48266667,6 5.33333333,5.85066667 5.33333333,5.66666667 C5.33333333,5.48266667 5.48266667,5.33333333 5.66666667,5.33333333 Z M12,10 L5.66666667,10 C5.48266667,10 5.33333333,9.85066667 5.33333333,9.66666667 C5.33333333,9.48266667 5.48266667,9.33333333 5.66666667,9.33333333 L12,9.33333333 C12.184,9.33333333 12.3333333,9.48266667 12.3333333,9.66666667 C12.3333333,9.85066667 12.184,10 12,10 Z M12,8 L5.66666667,8 C5.48266667,8 5.33333333,7.85066667 5.33333333,7.66666667 C5.33333333,7.48266667 5.48266667,7.33333333 5.66666667,7.33333333 L12,7.33333333 C12.184,7.33333333 12.3333333,7.48266667 12.3333333,7.66666667 C12.3333333,7.85066667 12.184,8 12,8 Z" id="Shape"></path>
                </g>
            </g>
            <g id="Invisible_Shape" transform="translate(0.666667, 0.000000)">
                <rect id="Rectangle-path" x="0" y="0" width="16" height="16"></rect>
            </g>
        </g>
    </g>
</svg>