<?xml version="1.0" encoding="UTF-8"?>
<svg width="21px" height="18px" viewBox="0 0 21 18" version="1.1" xmlns="http://www.w3.org/2000/svg" xmlns:xlink="http://www.w3.org/1999/xlink">
    <!-- Generator: Sketch 52.6 (67491) - http://www.bohemiancoding.com/sketch -->
    <title>Group</title>
    <desc>Created with Sketch.</desc>
    <g id="FEED" stroke="none" stroke-width="1" fill="none" fill-rule="evenodd">
        <g id="social_post_message-copy" transform="translate(-120.000000, -160.000000)" fill="#626B7A" fill-rule="nonzero">
            <g id="Group-6">
                <g id="feed/actions/photos" transform="translate(0.000000, 137.000000)">
                    <g id="Element/feed/comment" transform="translate(119.000000, 23.000000)">
                        <g id="Group" transform="translate(11.368421, 9.000000) scale(-1, 1) translate(-11.368421, -9.000000) translate(0.868421, 0.000000)">
                            <path d="M3.97894737,14.7552632 L3.12631579,16.5315789 C2.96052632,16.8631579 3.03157895,17.2657895 3.26842105,17.55 C3.45789474,17.7394737 3.69473684,17.8578947 3.95526316,17.8578947 C4.05,17.8578947 4.16842105,17.8342105 4.26315789,17.8105263 L8.36052632,16.3421053 C8.95263158,16.4368421 9.56842105,16.4842105 10.1842105,16.4842105 C15.7263158,16.4842105 20.25,12.8131579 20.25,8.31315789 C20.25,3.81315789 15.7263158,0.142105263 10.1842105,0.142105263 C4.64210526,0.142105263 0.118421053,3.81315789 0.118421053,8.31315789 C0.118421053,10.8236842 1.56315789,13.2157895 3.97894737,14.7552632 Z M10.1842105,1.56315789 C14.9447368,1.56315789 18.8289474,4.59473684 18.8289474,8.31315789 C18.8289474,12.0315789 14.9447368,15.0631579 10.1842105,15.0631579 C9.59210526,15.0631579 9.02368421,15.0157895 8.45526316,14.9210526 C8.31315789,14.8973684 8.14736842,14.9210526 8.00526316,14.9684211 L4.92631579,16.0578947 L5.44736842,14.9447368 C5.66052632,14.5184211 5.49473684,13.9736842 5.06842105,13.7368421 C2.84210526,12.4578947 1.53947368,10.4210526 1.53947368,8.28947368 C1.53947368,4.59473684 5.42368421,1.56315789 10.1842105,1.56315789 Z" id="Shape"></path>
                            <path d="M5.56578947,6.63157895 L14.8026316,6.63157895 C15.2052632,6.63157895 15.5131579,6.32368421 15.5131579,5.92105263 C15.5131579,5.51842105 15.2052632,5.21052632 14.8026316,5.21052632 L5.56578947,5.21052632 C5.16315789,5.21052632 4.85526316,5.51842105 4.85526316,5.92105263 C4.85526316,6.32368421 5.16315789,6.63157895 5.56578947,6.63157895 Z" id="Shape"></path>
                            <path d="M5.56578947,9.23684211 L12.4342105,9.23684211 C12.8368421,9.23684211 13.1447368,8.92894737 13.1447368,8.52631579 C13.1447368,8.12368421 12.8368421,7.81578947 12.4342105,7.81578947 L5.56578947,7.81578947 C5.16315789,7.81578947 4.85526316,8.12368421 4.85526316,8.52631579 C4.85526316,8.92894737 5.16315789,9.23684211 5.56578947,9.23684211 Z" id="Shape"></path>
                            <path d="M5.56578947,11.8421053 L10.0657895,11.8421053 C10.4684211,11.8421053 10.7763158,11.5342105 10.7763158,11.1315789 C10.7763158,10.7289474 10.4684211,10.4210526 10.0657895,10.4210526 L5.56578947,10.4210526 C5.16315789,10.4210526 4.85526316,10.7289474 4.85526316,11.1315789 C4.85526316,11.5342105 5.16315789,11.8421053 5.56578947,11.8421053 Z" id="Shape"></path>
                        </g>
                    </g>
                </g>
            </g>
        </g>
    </g>
</svg>