<?xml version="1.0" encoding="UTF-8"?>
<svg width="19px" height="19px" viewBox="0 0 19 19" version="1.1" xmlns="http://www.w3.org/2000/svg" xmlns:xlink="http://www.w3.org/1999/xlink">
    <!-- Generator: Sketch 52.6 (67491) - http://www.bohemiancoding.com/sketch -->
    <title>Element/feed/like</title>
    <desc>Created with Sketch.</desc>
    <g id="FEED" stroke="none" stroke-width="1" fill="none" fill-rule="evenodd">
        <g id="social_post_message-copy" transform="translate(-14.000000, -158.000000)" fill="#626B7A" fill-rule="nonzero">
            <g id="Group-6">
                <g id="feed/actions/photos" transform="translate(0.000000, 137.000000)">
                    <g id="Element/feed/like" transform="translate(14.000000, 21.000000)">
                        <g id="Group" transform="translate(0.000000, 0.500000)">
                            <path d="M7.62594999,1.88987651 C7.53843564,4.23850355 7.26507952,5.61423778 5.9232489,7.64521306 C5.69493321,7.41941113 5.38646616,7.27714992 5.04890479,7.27714992 L1.26222614,7.27714992 C0.573871151,7.27714992 0,7.86133532 0,8.56206441 L0,16.2715385 C0,16.9722654 0.573871151,17.5564508 1.26222614,17.5564508 L5.04890479,17.5564508 C5.40300132,17.5564508 5.72516353,17.4004411 5.95612989,17.1549157 C6.12068211,17.2876472 6.27402156,17.4096068 6.44917649,17.5162973 C6.82147011,17.7430415 7.25552867,17.8794564 7.81002465,17.9379199 C8.91901661,18.0548255 10.6658325,17.96743 14.7259725,17.9847549 C14.8709181,17.9847549 15.0152537,17.9315167 15.1269817,17.8375254 C15.9303046,17.1704632 16.3249186,16.4842771 16.5075627,15.7562458 C16.5777425,15.7173986 16.6405803,15.6648671 16.6916374,15.6023133 C17.3008088,14.8272756 17.5464799,13.9326768 17.4410629,13.1261801 C17.4748065,13.0982975 17.50571,13.0668386 17.5331213,13.0324886 C18.2395893,12.1336496 18.4634872,11.0702347 18.2102426,10.1749078 C18.6245473,9.62751373 18.8034889,8.98488623 18.7361702,8.38806372 C18.6535995,7.6561134 18.1935391,6.9965679 17.5002403,6.68823176 C17.4216878,6.65336781 17.336109,6.63503639 17.2504249,6.63469375 L12.0700381,6.63469375 C12.3472441,4.5274375 12.1356529,2.59548613 11.4060651,1.28759527 C10.992665,0.546586317 10.3617412,0.112136038 9.72966036,0.0160674246 C8.59439306,-0.125808314 7.73475389,0.686084967 7.62594999,1.88987651 Z M10.3081807,1.92334848 C10.8829985,2.95376252 11.1518738,4.98060467 10.742071,7.15668939 C10.6728379,7.52614452 10.9905823,7.91840684 11.3600359,7.9196061 L17.0663503,7.9196061 C17.3021131,8.05377236 17.4493726,8.2593155 17.4805285,8.5352954 C17.509686,8.79399109 17.3999144,9.10594639 17.1452394,9.41867264 L15.3520872,9.41867264 C15.0186386,9.41867264 14.7119912,9.72167639 14.7119912,10.0611288 C14.7119912,10.4005812 15.0186701,10.708382 15.3520872,10.703585 L17.0269057,10.703585 C17.0748703,11.0671081 16.9866617,11.524387 16.6982009,11.9884973 L14.9313451,11.9884973 C14.5978965,11.9884973 14.2912491,12.2915011 14.2912491,12.6309535 C14.2912491,12.9704059 14.597928,13.2782067 14.9313451,13.2734097 L16.1854215,13.2734097 C16.2333861,13.6369328 16.1451776,14.0942117 15.8567168,14.558322 L14.510603,14.558322 C14.1771544,14.558322 13.8705071,14.8613258 13.8705071,15.2007782 C13.8705071,15.5402306 14.177186,15.8480314 14.510603,15.8432344 L15.1532781,15.8432344 C15.0240051,16.1266004 14.8187882,16.3775438 14.4564451,16.6998426 C10.6259462,16.6878501 8.80022008,16.7509179 7.93494297,16.6596891 C7.48918778,16.6127041 7.31329656,16.5459958 7.09345883,16.4120865 C6.91045706,16.3006203 6.65780145,16.0874748 6.31113101,15.8030809 L6.31113101,9.29153056 C8.28537904,6.60475529 8.78332729,4.72557099 8.88817621,1.95011749 C9.08544113,0.843829373 10.0273354,1.3027144 10.3081807,1.92334848 Z M1.26222614,8.56206441 L5.04890479,8.56206441 C5.03459956,11.1145 5.04890479,13.6990369 5.04890479,16.2715385 L1.26222614,16.2715385 L1.26222614,8.56206441 Z" id="Shape"></path>
                        </g>
                    </g>
                </g>
            </g>
        </g>
    </g>
</svg>