<?xml version="1.0" encoding="UTF-8"?>
<svg width="30px" height="30px" viewBox="0 0 30 30" version="1.1" xmlns="http://www.w3.org/2000/svg" xmlns:xlink="http://www.w3.org/1999/xlink">
    <!-- Generator: Sketch 52.2 (67145) - http://www.bohemiancoding.com/sketch -->
    <title>exit_icon</title>
    <desc>Created with Sketch.</desc>
    <g id="Search" stroke="none" stroke-width="1" fill="none" fill-rule="evenodd">
        <g id="exit_icon" fill="#000000">
            <path d="M18.1463265,15 L28.6757143,4.285 C29.6259184,3.310625 29.6259184,1.7375 28.6757143,0.76375 C28.2159184,0.290625 27.5908163,0.025 26.937551,0.025 C26.2842857,0.025 25.6579592,0.290625 25.1987755,0.76375 L14.6938776,11.45375 L4.18897959,0.73875 C3.72918367,0.26625 3.10346939,0 2.45020408,0 C1.79693878,0 1.17183673,0.26625 0.712040816,0.73875 C-0.23755102,1.713125 -0.23755102,3.28625 0.712040816,4.26 L11.2414286,15 L0.712040816,25.74 C-0.23755102,26.715 -0.23755102,28.2875 0.712040816,29.261875 C1.17183673,29.73375 1.79755102,30 2.45020408,30 C3.10285714,30 3.72918367,29.73375 4.18897959,29.26125 L14.6938776,18.521875 L25.1987755,29.23625 C25.6579592,29.710625 26.2842857,29.97625 26.937551,29.97625 C27.5908163,29.97625 28.2159184,29.710625 28.6757143,29.23625 C29.6259184,28.261875 29.6259184,26.69 28.6757143,25.715625 L18.1463265,15 Z" id="Path"></path>
        </g>
    </g>
</svg>