<?xml version="1.0" encoding="UTF-8"?>
<svg width="20px" height="20px" viewBox="0 0 20 20" version="1.1" xmlns="http://www.w3.org/2000/svg" xmlns:xlink="http://www.w3.org/1999/xlink">
    <!-- Generator: Sketch 52.2 (67145) - http://www.bohemiancoding.com/sketch -->
    <title>info_icon</title>
    <desc>Created with Sketch.</desc>
    <g id="Search" stroke="none" stroke-width="1" fill="none" fill-rule="evenodd">
        <g id="info_icon" fill="#000000">
            <path d="M10,0 C4.48888889,0 0,4.48888889 0,10 C0,15.5111111 4.48888889,20 10,20 C15.5111111,20 20,15.5111111 20,10 C20,4.48888889 15.5111111,0 10,0 Z M10,18.2222222 C5.46666667,18.2222222 1.77777778,14.5333333 1.77777778,10 C1.77777778,5.46666667 5.46666667,1.77777778 10,1.77777778 C14.5333333,1.77777778 18.2222222,5.46666667 18.2222222,10 C18.2222222,14.5333333 14.5333333,18.2222222 10,18.2222222 Z" id="Shape" fill-rule="nonzero"></path>
            <circle id="Oval" cx="10" cy="4.62222222" r="1.11111111"></circle>
            <path d="M10,7.4 C9.51111111,7.4 9.11111111,7.8 9.11111111,8.28888889 L9.11111111,15.6222222 C9.11111111,16.1111111 9.51111111,16.5111111 10,16.5111111 C10.4888889,16.5111111 10.8888889,16.1111111 10.8888889,15.6222222 L10.8888889,8.28888889 C10.8888889,7.77777778 10.4888889,7.4 10,7.4 Z" id="Path"></path>
        </g>
    </g>
</svg>