<?xml version="1.0" encoding="UTF-8" standalone="no"?>
<svg width="32px" height="17px" viewBox="0 0 32 17" version="1.1" xmlns="http://www.w3.org/2000/svg" xmlns:xlink="http://www.w3.org/1999/xlink">
    <!-- Generator: Sketch 48 (47235) - http://www.bohemiancoding.com/sketch -->
    <title>Artboard 4 Copy 3</title>
    <desc>Created with Sketch.</desc>
    <defs></defs>
    <g id="Rebecca" stroke="none" stroke-width="1" fill="none" fill-rule="evenodd">
        <g id="Artboard-4-Copy-3" fill="#000000">
            <path d="M10.6666667,6.53846154 L6.66666667,6.53846154 L6.66666667,2.61538462 L4,2.61538462 L4,6.53846154 L0,6.53846154 L0,9.15384615 L4,9.15384615 L4,13.0769231 L6.66666667,13.0769231 L6.66666667,9.15384615 L10.6666667,9.15384615 L10.6666667,6.53846154 L10.6666667,6.53846154 Z M24,7.84615385 C26.2133333,7.84615385 27.9866667,6.09384615 27.9866667,3.92307692 C27.9866667,1.75230769 26.2133333,0 24,0 C23.5733333,0 23.16,0.0653846154 22.7866667,0.183076923 C23.5466667,1.24230769 23.9866667,2.52384615 23.9866667,3.92307692 C23.9866667,5.32230769 23.5333333,6.59076923 22.7866667,7.66307692 C23.16,7.78076923 23.5733333,7.84615385 24,7.84615385 L24,7.84615385 Z M17.3333333,7.84615385 C19.5466667,7.84615385 21.32,6.09384615 21.32,3.92307692 C21.32,1.75230769 19.5466667,0 17.3333333,0 C15.12,0 13.3333333,1.75230769 13.3333333,3.92307692 C13.3333333,6.09384615 15.12,7.84615385 17.3333333,7.84615385 L17.3333333,7.84615385 Z M26.16,10.6707692 C27.2666667,11.6253846 28,12.8415385 28,14.3846154 L28,17 L32,17 L32,14.3846154 C32,12.3707692 28.84,11.1284615 26.16,10.6707692 L26.16,10.6707692 Z M17.3333333,10.4615385 C14.6666667,10.4615385 9.33333333,11.7692308 9.33333333,14.3846154 L9.33333333,17 L25.3333333,17 L25.3333333,14.3846154 C25.3333333,11.7692308 20,10.4615385 17.3333333,10.4615385 L17.3333333,10.4615385 Z" id="Shape"></path>
        </g>
    </g>
</svg>