<?xml version="1.0" encoding="UTF-8" standalone="no"?>
<svg width="32px" height="32px" viewBox="0 0 32 32" version="1.1" xmlns="http://www.w3.org/2000/svg" xmlns:xlink="http://www.w3.org/1999/xlink">
    <!-- Generator: Sketch 48 (47235) - http://www.bohemiancoding.com/sketch -->
    <title>Artboard 4 Copy 2</title>
    <desc>Created with Sketch.</desc>
    <defs></defs>
    <g id="Rebecca" stroke="none" stroke-width="1" fill="none" fill-rule="evenodd">
        <g id="Artboard-4-Copy-2" fill="#000000">
            <path d="M31.531883,14.8717179 L17.1282821,0.468117029 C16.504126,-0.15603901 15.495874,-0.15603901 14.8717179,0.468117029 L0.468117029,14.8717179 C-0.15603901,15.495874 -0.15603901,16.504126 0.468117029,17.1282821 L14.8717179,31.531883 C15.495874,32.156039 16.504126,32.156039 17.1282821,31.531883 L31.531883,17.1282821 C32.156039,16.52013 32.156039,15.511878 31.531883,14.8717179 L31.531883,14.8717179 Z M19.1927982,20.0090023 L19.1927982,16.008002 L12.7911978,16.008002 L12.7911978,20.8092023 L9.5903976,20.8092023 L9.5903976,14.4076019 C9.5903976,13.5273818 10.3105776,12.8072018 11.1907977,12.8072018 L19.1927982,12.8072018 L19.1927982,8.80620155 L24.7941985,14.4076019 L19.1927982,20.0090023 L19.1927982,20.0090023 Z" id="Shape"></path>
        </g>
    </g>
</svg>