<?xml version="1.0" encoding="UTF-8" standalone="no"?>
<svg width="33px" height="33px" viewBox="0 0 33 33" version="1.1" xmlns="http://www.w3.org/2000/svg" xmlns:xlink="http://www.w3.org/1999/xlink">
    <!-- Generator: Sketch 48 (47235) - http://www.bohemiancoding.com/sketch -->
    <title>Artboard 4 Copy</title>
    <desc>Created with Sketch.</desc>
    <defs></defs>
    <g id="Rebecca" stroke="none" stroke-width="1" fill="none" fill-rule="evenodd">
        <g id="Artboard-4-Copy" fill="#000000">
            <path d="M18.1965657,25.609899 L22.1076768,21.6987879 C22.5876768,21.2187879 23.2987879,21.0587879 23.9210101,21.2721212 C25.9121212,21.929899 28.0632323,22.2854545 30.2676768,22.2854545 C31.2454545,22.2854545 32.0454545,23.0854545 32.0454545,24.0632323 L32.0454545,30.2676768 C32.0454545,31.2454545 31.2454545,32.0454545 30.2676768,32.0454545 C13.5743434,32.0454545 0.0454545455,18.5165657 0.0454545455,1.82323232 C0.0454545455,0.845454545 0.845454545,0.0454545455 1.82323232,0.0454545455 L8.04545455,0.0454545455 C9.02323232,0.0454545455 9.82323232,0.845454545 9.82323232,1.82323232 C9.82323232,4.04545455 10.1787879,6.17878788 10.8365657,8.16989899 C11.0321212,8.79212121 10.889899,9.48545455 10.3921212,9.98323232 L6.4810101,13.8943434 C9.0410101,18.9254545 13.1654545,23.0321212 18.1965657,25.609899 Z" id="Shape"></path>
        </g>
    </g>
</svg>