<?xml version="1.0" encoding="UTF-8" standalone="no"?>
<svg width="78px" height="78px" viewBox="0 0 78 78" version="1.1" xmlns="http://www.w3.org/2000/svg" xmlns:xlink="http://www.w3.org/1999/xlink">
    <!-- Generator: Sketch 48 (47235) - http://www.bohemiancoding.com/sketch -->
    <title>Artboard 4</title>
    <desc>Created with Sketch.</desc>
    <defs></defs>
    <g id="Rebecca" stroke="none" stroke-width="1" fill="none" fill-rule="evenodd">
        <g id="Artboard-4">
            <circle id="Oval" fill="#FF0059" cx="39" cy="39" r="39"></circle>
            <path d="M29.4627273,36.855 C32.0154545,41.8718182 36.1281818,45.9668182 41.145,48.5372727 L45.045,44.6372727 C45.5236364,44.1586364 46.2327273,43.9990909 46.8531818,44.2118182 C48.8386364,44.8677273 50.9836364,45.2222727 53.1818182,45.2222727 C54.1568182,45.2222727 54.9545455,46.02 54.9545455,46.995 L54.9545455,53.1818182 C54.9545455,54.1568182 54.1568182,54.9545455 53.1818182,54.9545455 C36.5359091,54.9545455 23.0454545,41.4640909 23.0454545,24.8181818 C23.0454545,23.8431818 23.8431818,23.0454545 24.8181818,23.0454545 L31.0227273,23.0454545 C31.9977273,23.0454545 32.7954545,23.8431818 32.7954545,24.8181818 C32.7954545,27.0340909 33.15,29.1613636 33.8059091,31.1468182 C34.0009091,31.7672727 33.8590909,32.4586364 33.3627273,32.955 L29.4627273,36.855 L29.4627273,36.855 Z" id="Shape" fill="#FFFFFF"></path>
        </g>
    </g>
</svg>