<?xml version="1.0" encoding="UTF-8"?>
<svg width="48px" height="48px" viewBox="0 0 48 48" version="1.1" xmlns="http://www.w3.org/2000/svg" xmlns:xlink="http://www.w3.org/1999/xlink">
    <!-- Generator: Sketch 51.1 (57501) - http://www.bohemiancoding.com/sketch -->
    <title>Group</title>
    <desc>Created with Sketch.</desc>
    <defs>
        <circle id="path-1" cx="24" cy="24" r="24"></circle>
    </defs>
    <g id="Symbols" stroke="none" stroke-width="1" fill="none" fill-rule="evenodd">
        <g id="Group">
            <mask id="mask-2" fill="white">
                <use xlink:href="#path-1"></use>
            </mask>
            <use id="Mask" fill="#D7F5FB" xlink:href="#path-1"></use>
            <path d="M33.7364701,31.6607973 C34.255736,31.6607973 34.6796186,32.0867679 34.666364,32.6006164 C34.666364,33.1202986 34.2462272,33.5404355 33.7265449,33.5404355 L27.8522425,33.5404355 C27.4246473,35.3569726 25.7927199,36.6767895 23.8907007,36.6767895 C21.993367,36.6767895 20.361758,35.3569351 19.9296603,33.5404355 L14.0598191,33.5404355 C13.5401369,33.5404355 13.12,33.1202986 13.12,32.6006164 C13.12,32.0809342 13.5401369,31.6607973 14.0598191,31.6607973 L14.3291479,31.6607973 C15.4868417,30.1448563 16.1174016,28.296346 16.1174016,26.3973847 L16.1174016,22.0005341 C16.1174016,18.5795817 18.3585987,15.5954715 21.5627316,14.587335 C21.4160226,14.2614934 21.3380413,13.9078953 21.3380413,13.5442886 C21.3380413,12.1346688 22.4843478,10.9866667 23.8956633,10.9866667 C25.3069788,10.9866667 26.4532853,12.1346688 26.4532853,13.5442886 C26.4532853,13.9078953 26.375304,14.2614934 26.228595,14.587335 C29.432728,15.5954715 31.6739251,18.5795817 31.6739251,22.0005341 L31.6739251,26.3973847 C31.6739251,28.2932593 32.3055779,30.1460901 33.4621833,31.6607973 L33.7364701,31.6607973 Z M23.2176796,13.5442886 C23.2176796,13.9178718 23.5220802,14.2222723 23.8956633,14.2222723 C24.2692464,14.2222723 24.573647,13.9178718 24.573647,13.5442886 C24.573647,13.1707055 24.2692464,12.8663049 23.8956633,12.8663049 C23.5220802,12.8663049 23.2176796,13.1707055 23.2176796,13.5442886 Z M23.8956633,34.7971512 C24.7568616,34.7971512 25.5206874,34.2940019 25.8787772,33.5404355 L21.9125495,33.5404355 C22.2706392,34.2940019 23.0344651,34.7971512 23.8956633,34.7971512 Z M31.2026271,31.6607973 C30.2861162,30.0655444 29.7992494,28.2482269 29.7992494,26.3973847 L29.7992494,22.0005341 C29.7992494,18.7486515 27.1525085,16.1019106 23.9006259,16.1019106 C20.6487433,16.1019106 18.0020024,18.7486515 18.0020024,22.0005341 L18.0020024,26.3973847 C18.0020024,28.2447787 17.5126032,30.0625536 16.5937384,31.6607973 L31.2026271,31.6607973 Z" id="Mask" fill="#415C8A" fill-rule="nonzero"></path>
        </g>
    </g>
</svg>