<?xml version="1.0" encoding="UTF-8" standalone="no"?>
<svg width="119px" height="215px" viewBox="0 0 119 215" version="1.1" xmlns="http://www.w3.org/2000/svg" xmlns:xlink="http://www.w3.org/1999/xlink">
    <!-- Generator: Sketch 48.2 (47327) - http://www.bohemiancoding.com/sketch -->
    <title>Artboard 4</title>
    <desc>Created with Sketch.</desc>
    <defs>
        <linearGradient x1="50%" y1="2.94762436%" x2="50%" y2="100%" id="linearGradient-1">
            <stop stop-color="#0000BC" offset="0%"></stop>
            <stop stop-color="#D500FF" offset="100%"></stop>
        </linearGradient>
        <rect id="path-2" x="0" y="0" width="119" height="215"></rect>
    </defs>
    <g id="Home-and-Social" stroke="none" stroke-width="1" fill="none" fill-rule="evenodd">
        <g id="Artboard-4">
            <g id="Combined-Shape">
                <mask id="mask-3" fill="white">
                    <use xlink:href="#path-2"></use>
                </mask>
                <use id="Mask" fill="url(#linearGradient-1)" xlink:href="#path-2"></use>
                <path d="M79.2892406,116.760651 C78.8111153,116.760651 78.4235182,116.371698 78.4235182,115.891901 C78.4235182,115.412104 78.8111153,115.023152 79.2892406,115.023152 C79.7673659,115.023152 80.154963,115.412104 80.154963,115.891901 C80.154963,116.371698 79.7673659,116.760651 79.2892406,116.760651 Z M27.9951884,17.5036997 C27.7561258,17.5036997 27.5623272,17.3092235 27.5623272,17.069325 C27.5623272,16.8294265 27.7561258,16.6349503 27.9951884,16.6349503 C28.2342511,16.6349503 28.4280496,16.8294265 28.4280496,17.069325 C28.4280496,17.3092235 28.2342511,17.5036997 27.9951884,17.5036997 Z M52.1518518,139.261152 C51.6737266,139.261152 51.2861294,138.872199 51.2861294,138.392402 C51.2861294,137.912605 51.6737266,137.523653 52.1518518,137.523653 C52.6299771,137.523653 53.0175742,137.912605 53.0175742,138.392402 C53.0175742,138.872199 52.6299771,139.261152 52.1518518,139.261152 Z M-0.00792275298,64.1587028 C-0.246985392,64.1587028 -0.440783953,63.9642266 -0.440783953,63.7243281 C-0.440783953,63.4844296 -0.246985392,63.2899534 -0.00792275298,63.2899534 C0.231139886,63.2899534 0.424938447,63.4844296 0.424938447,63.7243281 C0.424938447,63.9642266 0.231139886,64.1587028 -0.00792275298,64.1587028 Z M85.8306212,16.2313042 C85.4720272,16.2313042 85.1813294,15.9395899 85.1813294,15.5797421 C85.1813294,15.2198944 85.4720272,14.9281801 85.8306212,14.9281801 C86.1892151,14.9281801 86.479913,15.2198944 86.479913,15.5797421 C86.479913,15.9395899 86.1892151,16.2313042 85.8306212,16.2313042 Z M22.4328612,234.060498 C22.1937986,234.060498 22,233.866022 22,233.626124 C22,233.386225 22.1937986,233.191749 22.4328612,233.191749 C22.6719238,233.191749 22.8657224,233.386225 22.8657224,233.626124 C22.8657224,233.866022 22.6719238,234.060498 22.4328612,234.060498 Z M110.589525,143.133733 C110.111399,143.133733 109.723802,142.744781 109.723802,142.264984 C109.723802,141.785186 110.111399,141.396234 110.589525,141.396234 C111.06765,141.396234 111.455247,141.785186 111.455247,142.264984 C111.455247,142.744781 111.06765,143.133733 110.589525,143.133733 Z M2.26829393,101.981995 C1.90969997,101.981995 1.61900213,101.690281 1.61900213,101.330433 C1.61900213,100.970585 1.90969997,100.678871 2.26829393,100.678871 C2.62688789,100.678871 2.91758573,100.970585 2.91758573,101.330433 C2.91758573,101.690281 2.62688789,101.981995 2.26829393,101.981995 Z M103.311907,197.266889 C103.072844,197.266889 102.879045,197.072412 102.879045,196.832514 C102.879045,196.592615 103.072844,196.398139 103.311907,196.398139 C103.550969,196.398139 103.744768,196.592615 103.744768,196.832514 C103.744768,197.072412 103.550969,197.266889 103.311907,197.266889 Z M112.551987,127.757229 C112.312924,127.757229 112.119126,127.562752 112.119126,127.322854 C112.119126,127.082955 112.312924,126.888479 112.551987,126.888479 C112.79105,126.888479 112.984848,127.082955 112.984848,127.322854 C112.984848,127.562752 112.79105,127.757229 112.551987,127.757229 Z M112.584395,191.131192 C112.345332,191.131192 112.151533,190.936716 112.151533,190.696817 C112.151533,190.456919 112.345332,190.262443 112.584395,190.262443 C112.823457,190.262443 113.017256,190.456919 113.017256,190.696817 C113.017256,190.936716 112.823457,191.131192 112.584395,191.131192 Z M11.4025049,55.7347344 C10.9243796,55.7347344 10.5367825,55.345782 10.5367825,54.865985 C10.5367825,54.386188 10.9243796,53.9972357 11.4025049,53.9972357 C11.8806301,53.9972357 12.2682273,54.386188 12.2682273,54.865985 C12.2682273,55.345782 11.8806301,55.7347344 11.4025049,55.7347344 Z M5.07734143,204.66064 C4.59921615,204.66064 4.21161903,204.271688 4.21161903,203.791891 C4.21161903,203.312094 4.59921615,202.923142 5.07734143,202.923142 C5.55546671,202.923142 5.94306383,203.312094 5.94306383,203.791891 C5.94306383,204.271688 5.55546671,204.66064 5.07734143,204.66064 Z M11.6025296,193.155938 C11.363467,193.155938 11.1696684,192.961462 11.1696684,192.721564 C11.1696684,192.481665 11.363467,192.287189 11.6025296,192.287189 C11.8415923,192.287189 12.0353908,192.481665 12.0353908,192.721564 C12.0353908,192.961462 11.8415923,193.155938 11.6025296,193.155938 Z M112.204266,51.1222591 C111.965203,51.1222591 111.771405,50.9277829 111.771405,50.6878844 C111.771405,50.4479859 111.965203,50.2535098 112.204266,50.2535098 C112.443329,50.2535098 112.637127,50.4479859 112.637127,50.6878844 C112.637127,50.9277829 112.443329,51.1222591 112.204266,51.1222591 Z M104.00199,213.620018 C103.762927,213.620018 103.569129,213.425541 103.569129,213.185643 C103.569129,212.945744 103.762927,212.751268 104.00199,212.751268 C104.241053,212.751268 104.434851,212.945744 104.434851,213.185643 C104.434851,213.425541 104.241053,213.620018 104.00199,213.620018 Z M115.984995,156.833742 C115.745932,156.833742 115.552134,156.639266 115.552134,156.399367 C115.552134,156.159469 115.745932,155.964993 115.984995,155.964993 C116.224058,155.964993 116.417856,156.159469 116.417856,156.399367 C116.417856,156.639266 116.224058,156.833742 115.984995,156.833742 Z M105.703685,9.16142629 C105.225559,9.16142629 104.837962,8.77247395 104.837962,8.29267692 C104.837962,7.8128799 105.225559,7.42392755 105.703685,7.42392755 C106.18181,7.42392755 106.569407,7.8128799 106.569407,8.29267692 C106.569407,8.77247395 106.18181,9.16142629 105.703685,9.16142629 Z M180.702841,253.520008 C180.523544,253.520008 180.378195,253.37415 180.378195,253.194227 C180.378195,253.014303 180.523544,252.868446 180.702841,252.868446 C180.882138,252.868446 181.027487,253.014303 181.027487,253.194227 C181.027487,253.37415 180.882138,253.520008 180.702841,253.520008 Z M129.625219,257.646567 C129.445923,257.646567 129.300574,257.50071 129.300574,257.320786 C129.300574,257.140862 129.445923,256.995005 129.625219,256.995005 C129.804516,256.995005 129.949865,257.140862 129.949865,257.320786 C129.949865,257.50071 129.804516,257.646567 129.625219,257.646567 Z M169.109607,171.17331 C168.93031,171.17331 168.784961,171.027453 168.784961,170.847529 C168.784961,170.667605 168.93031,170.521748 169.109607,170.521748 C169.288904,170.521748 169.434253,170.667605 169.434253,170.847529 C169.434253,171.027453 169.288904,171.17331 169.109607,171.17331 Z M165.336268,227.457526 C165.03744,227.457526 164.795192,227.214431 164.795192,226.914558 C164.795192,226.614685 165.03744,226.37159 165.336268,226.37159 C165.635097,226.37159 165.877345,226.614685 165.877345,226.914558 C165.877345,227.214431 165.635097,227.457526 165.336268,227.457526 Z M142.362129,188.718778 C141.884003,188.718778 141.496406,188.329825 141.496406,187.850028 C141.496406,187.370231 141.884003,186.981279 142.362129,186.981279 C142.840254,186.981279 143.227851,187.370231 143.227851,187.850028 C143.227851,188.329825 142.840254,188.718778 142.362129,188.718778 Z M11.9951884,37.6311185 C11.7561258,37.6311185 11.5623272,37.4366423 11.5623272,37.1967438 C11.5623272,36.9568453 11.7561258,36.7623691 11.9951884,36.7623691 C12.2342511,36.7623691 12.4280496,36.9568453 12.4280496,37.1967438 C12.4280496,37.4366423 12.2342511,37.6311185 11.9951884,37.6311185 Z M161.299491,-39.8603911 C160.821365,-39.8603911 160.433768,-40.2493435 160.433768,-40.7291405 C160.433768,-41.2089375 160.821365,-41.5978899 161.299491,-41.5978899 C161.777616,-41.5978899 162.165213,-41.2089375 162.165213,-40.7291405 C162.165213,-40.2493435 161.777616,-39.8603911 161.299491,-39.8603911 Z M106.714179,58.263916 C106.236054,58.263916 105.848457,57.8749637 105.848457,57.3951667 C105.848457,56.9153696 106.236054,56.5264173 106.714179,56.5264173 C107.192304,56.5264173 107.579901,56.9153696 107.579901,57.3951667 C107.579901,57.8749637 107.192304,58.263916 106.714179,58.263916 Z M54.5544045,-16.8385328 C54.3153418,-16.8385328 54.1215433,-17.033009 54.1215433,-17.2729075 C54.1215433,-17.512806 54.3153418,-17.7072822 54.5544045,-17.7072822 C54.7934671,-17.7072822 54.9872657,-17.512806 54.9872657,-17.2729075 C54.9872657,-17.033009 54.7934671,-16.8385328 54.5544045,-16.8385328 Z M75.3929484,47.2340685 C75.0343544,47.2340685 74.7436566,46.9423543 74.7436566,46.5825065 C74.7436566,46.2226587 75.0343544,45.9309445 75.3929484,45.9309445 C75.7515423,45.9309445 76.0422402,46.2226587 76.0422402,46.5825065 C76.0422402,46.9423543 75.7515423,47.2340685 75.3929484,47.2340685 Z M210.177471,96.6336799 C209.938408,96.6336799 209.74461,96.4392037 209.74461,96.1993052 C209.74461,95.9594067 209.938408,95.7649305 210.177471,95.7649305 C210.416533,95.7649305 210.610332,95.9594067 210.610332,96.1993052 C210.610332,96.4392037 210.416533,96.6336799 210.177471,96.6336799 Z M196.732903,45.961304 C196.49384,45.961304 196.300042,45.7668278 196.300042,45.5269293 C196.300042,45.2870308 196.49384,45.0925546 196.732903,45.0925546 C196.971965,45.0925546 197.165764,45.2870308 197.165764,45.5269293 C197.165764,45.7668278 196.971965,45.961304 196.732903,45.961304 Z M114.695764,25.0811026 C114.217639,25.0811026 113.830041,24.6921502 113.830041,24.2123532 C113.830041,23.7325562 114.217639,23.3436038 114.695764,23.3436038 C115.173889,23.3436038 115.561486,23.7325562 115.561486,24.2123532 C115.561486,24.6921502 115.173889,25.0811026 114.695764,25.0811026 Z" fill="#FFFFFF" mask="url(#mask-3)"></path>
            </g>
        </g>
    </g>
</svg>