<?xml version="1.0" encoding="UTF-8"?>
<svg width="44px" height="44px" viewBox="0 0 44 44" version="1.1" xmlns="http://www.w3.org/2000/svg" xmlns:xlink="http://www.w3.org/1999/xlink">
    <!-- Generator: Sketch 48.2 (47327) - http://www.bohemiancoding.com/sketch -->
    <title>Group 18</title>
    <desc>Created with Sketch.</desc>
    <defs></defs>
    <g id="Mobile-Icons" stroke="none" stroke-width="1" fill="none" fill-rule="evenodd" transform="translate(-199.000000, -942.000000)">
        <g id="Group-18" transform="translate(199.000000, 942.000000)">
            <path d="M22,44 C34.1502645,44 44,34.1502645 44,22 C44,9.8497355 34.1502645,0 22,0 C9.8497355,0 0,9.8497355 0,22 C0,34.1502645 9.8497355,44 22,44 Z" id="Mask" fill="#0079C2" fill-rule="nonzero"></path>
            <path d="M27.2796875,12.937297 C26.4968438,12.937297 25.7441094,13.0619032 25.0406449,13.2923174 C24.3371804,13.5227315 23.6824384,13.8584165 23.0961267,14.2800368 C22.7534273,14.5265638 22.351604,14.6500958 21.9497807,14.6500958 C21.5479574,14.6500958 21.1466816,14.5265638 20.8034347,14.2800368 C20.2171231,13.8584165 19.562381,13.5227315 18.8589165,13.2923174 C18.155452,13.0619032 17.4027177,12.937297 16.6198739,12.937297 C14.6572901,12.937297 12.880837,13.7176973 11.594893,14.9793356 C10.3089489,16.2409739 9.513514,17.9843872 9.513514,19.9093389 C9.513514,20.9432485 9.62573985,22.301027 10.3927077,23.6523603 C12.2419708,26.9082356 15.4269952,29.6071425 18.6481509,31.5831183 C19.5508847,32.1363271 20.3895677,32.6202505 20.8844563,32.8318663 C21.5660231,33.1240465 22.3340858,33.1240465 23.0151052,32.8318663 C23.5099938,32.6202505 24.3486767,32.1363271 25.2514105,31.5831183 C28.4731137,29.6071425 31.6575906,26.9082356 33.5068537,23.6523603 C34.274369,22.301027 34.3860474,20.9432485 34.3860474,19.9093389 C34.3860474,17.9843872 33.5906125,16.2409739 32.3046685,14.9793356 C31.0187244,13.7176973 29.2422713,12.937297 27.2796875,12.937297" id="Fill-1" stroke="#FFFFFF" stroke-width="2"></path>
            <polyline id="Line" stroke="#FFFFFF" stroke-width="2" stroke-linecap="round" stroke-linejoin="round" points="10.1081086 22.1891891 14.2702708 22.1891891 15.45946 23.3783783 16.6486491 22.1891891 17.8378383 22.1891891 19.0270275 20.9999999 20.2162167 22.1891891 21.4054059 22.1891891 22.5945951 24.5675675 23.7837843 22.1891891 26.1621626 22.1891891 28.540541 17.4324323 30.3243248 22.1891891"></polyline>
        </g>
    </g>
</svg>