<?xml version="1.0" encoding="UTF-8"?>
<svg width="33px" height="43px" viewBox="0 0 33 43" version="1.1" xmlns="http://www.w3.org/2000/svg" xmlns:xlink="http://www.w3.org/1999/xlink">
    <!-- Generator: Sketch 54.1 (76490) - https://sketchapp.com -->
    <title>noun_Fingerprint_2556377</title>
    <desc>Created with Sketch.</desc>
    <g id="V-1" stroke="none" stroke-width="1" fill="none" fill-rule="evenodd">
        <g id="noun_Fingerprint_2556377" fill="#006DFF" fill-rule="nonzero">
            <g id="Group">
                <path d="M19.5106316,21.1318947 C18.8288421,18.7626316 16.3432632,17.3883158 13.974,18.0683158 C11.6029474,18.7518947 10.2286316,21.2338947 10.9104211,23.6049474 C12.5209474,29.2042105 18.4118947,34.2290526 23.8071579,38.4987368 C23.9717895,38.6293684 24.1686316,38.692 24.3618947,38.692 C24.6267368,38.692 24.888,38.5756842 25.0633684,38.3502105 C25.3693684,37.9636842 25.3049474,37.4 24.9166316,37.094 C19.7396842,32.9961053 14.0938947,28.1985263 12.6301053,23.1092632 C12.2221053,21.6884211 13.0470526,20.1977895 14.4678947,19.788 C15.8923158,19.38 17.3811579,20.2031579 17.7909474,21.6257895 C18.7697895,25.0275789 23.6282105,29.2274737 28.2504211,32.8851579 C28.6405263,33.1947368 29.2024211,33.1267368 29.5066316,32.7384211 C29.8126316,32.3518947 29.7482105,31.7882105 29.3598947,31.4822105 C26.9262105,29.5567368 20.4626316,24.4406316 19.5106316,21.1318947 Z" id="Path"></path>
                <path d="M26.2891579,18.8270526 C24.3905263,12.8931579 18.02,9.47347368 12.0002105,11.1895789 C9.01178947,12.0485263 6.53873684,14.0187368 5.03378947,16.7387368 C3.52884211,19.4551579 3.17452632,22.5974737 4.03168421,25.5841053 C5.49905263,30.6858947 2.34957895,32.1013684 1.34926316,32.4145263 C0.876842105,32.5612632 0.613789474,33.0623158 0.762315789,33.5347368 C0.880421053,33.9176842 1.23473684,34.1628421 1.61589474,34.1628421 C1.70536842,34.1628421 1.79484211,34.1485263 1.88252632,34.1252632 C4.62042105,33.2698947 7.276,30.3906316 5.75136842,25.092 C5.02663158,22.5652632 5.32726316,19.9061053 6.59957895,17.6066316 C7.87189474,15.3053684 9.96557895,13.6375789 12.4923158,12.9110526 C17.6316842,11.4454737 23.0752632,14.4070526 24.6267368,19.5106316 C24.6482105,19.5786316 24.6768421,19.6448421 24.7144211,19.7074737 C24.8074737,19.8613684 24.9989474,20.1852632 30.7521053,24.854 C31.1350526,25.1671579 31.7005263,25.1081053 32.0101053,24.7233684 C32.3214737,24.3404211 32.2624211,23.7767368 31.8794737,23.4653684 C29.7893684,21.7689474 26.7347368,19.2457895 26.2891579,18.8270526 Z" id="Path"></path>
                <path d="M22.9482105,20.1423158 C21.7224211,15.8797895 17.2505263,13.4067368 12.9844211,14.6289474 C8.85431579,15.8171579 6.47789474,20.0761053 7.45673684,24.5390526 C9.26410526,32.7670526 7.91484211,34.6710526 4.20705263,35.8306316 C3.73463158,35.9773684 3.47157895,36.4802105 3.62010526,36.9508421 C3.74,37.3337895 4.09252632,37.5789474 4.47368421,37.5789474 C4.56136842,37.5789474 4.65263158,37.5664211 4.73852632,37.5413684 C9.91905263,35.9236842 11.0446316,32.5469474 9.20326316,24.1578947 C8.42842105,20.6308421 10.2662105,17.2755789 13.4765263,16.3522105 C16.8013684,15.402 20.2747368,17.3256842 21.2285263,20.6397895 C21.5774737,21.8566316 22.5330526,23.5333684 29.8645263,29.3348421 C30.2528421,29.6426316 30.8147368,29.5764211 31.1207368,29.1881053 C31.4267368,28.7997895 31.3623158,28.2361053 30.974,27.9301053 C24.3332632,22.6726316 23.1969474,21.0066316 22.9482105,20.1423158 Z" id="Path"></path>
                <path d="M25.4105263,32.5952632 C22.3827368,30.2975789 17.3149474,26.4537895 16.0694737,22.1196842 C15.9334737,21.6472632 15.4413684,21.3716842 14.9617895,21.5076842 C14.4875789,21.6454737 14.2137895,22.1393684 14.3497895,22.6153684 C15.7598947,27.5221053 21.1247368,31.5913684 24.3296842,34.0232632 C25.1617895,34.6549474 25.8811579,35.2007368 26.2086316,35.5282105 C26.384,35.7017895 26.6130526,35.7894737 26.8421053,35.7894737 C27.0711579,35.7894737 27.3002105,35.7017895 27.4737895,35.5264211 C27.8227368,35.1774737 27.8227368,34.6102105 27.4737895,34.2612632 C27.0604211,33.8478947 26.3321053,33.2949474 25.4105263,32.5952632 Z" id="Path"></path>
                <path d="M20.57,38.8226316 C19.6806316,37.6147368 18.3367368,35.7894737 16.1052632,35.7894737 C13.0703158,35.7894737 12.5925263,40.9610526 12.5263158,41.9971579 C12.4958947,42.4910526 12.8716842,42.9151579 13.3637895,42.9455789 C13.3834737,42.9473684 13.4013684,42.9473684 13.4210526,42.9473684 C13.8898947,42.9473684 14.2835789,42.5823158 14.314,42.1081053 C14.4285263,40.2577895 15.1353684,37.5789474 16.1052632,37.5789474 C17.4330526,37.5789474 18.3743158,38.8566316 19.1276842,39.8855789 C19.4283158,40.2917895 19.6985263,40.6496842 19.9454737,40.8966316 C20.2944211,41.2455789 20.8616842,41.2455789 21.2106316,40.8966316 C21.5595789,40.5476842 21.5595789,39.9804211 21.2106316,39.6314737 C21.0155789,39.4346316 20.808,39.1447368 20.57,38.8226316 Z" id="Path"></path>
                <path d="M12.4815789,31.0437895 C12.3330526,30.5731579 11.8302105,30.3101053 11.3577895,30.464 C10.8871579,30.6143158 10.6276842,31.1171579 10.778,31.5877895 C11.5421053,33.9803158 10.0371579,38.6758947 7.77526316,39.4113684 C7.30642105,39.5652632 7.04873684,40.0681053 7.20084211,40.5387368 C7.32431579,40.9181053 7.67505263,41.1578947 8.05263158,41.1578947 C8.14389474,41.1578947 8.23694737,41.1435789 8.32642105,41.1149474 C11.7711579,39.9965263 13.4317895,34.0161053 12.4815789,31.0437895 Z" id="Path"></path>
                <path d="M0.894736842,23.2631579 C1.38863158,23.2631579 1.78947368,22.8623158 1.78947368,22.3666316 C1.78947368,14.9653684 7.80926316,8.94557895 15.2105263,8.94557895 C22.4704211,8.94557895 25.0132632,13.0524211 27.0568421,16.3504211 C28.2593684,18.292 29.2972632,19.9687368 31.0402105,20.5342105 C31.5126316,20.6881053 32.0172632,20.4286316 32.1675789,19.9597895 C32.3214737,19.4891579 32.0637895,18.9845263 31.5931579,18.8324211 C30.4747368,18.4691579 29.5961053,17.0501053 28.5778947,15.4091579 C26.4215789,11.9268421 23.4671579,7.15789474 15.2105263,7.15789474 C6.82326316,7.15789474 0,13.9811579 0,22.3684211 C0,22.8623158 0.400842105,23.2631579 0.894736842,23.2631579 Z" id="Path"></path>
                <path d="M1.78947368,29.5263158 C1.92547368,29.5263158 2.06147368,29.4958947 2.18852632,29.4314737 C2.63052632,29.2095789 2.81126316,28.6727368 2.58936842,28.2307368 C2.26726316,27.5865263 1.78947368,26.4144211 1.78947368,25.9473684 C1.78947368,25.4534737 1.38863158,25.0526316 0.894736842,25.0526316 C0.400842105,25.0526316 0,25.4534737 0,25.9473684 C0,26.9995789 0.823157895,28.7013684 0.987789474,29.0324211 C1.14526316,29.3455789 1.46021053,29.5263158 1.78947368,29.5263158 Z" id="Path"></path>
                <path d="M1.32421053,10.6062105 C1.74652632,10.8638947 2.29768421,10.7278947 2.55357895,10.3055789 C3.332,9.02431579 7.16147368,5.36842105 14.3157895,5.36842105 C21.1945263,5.36842105 26.0905263,8.85252632 26.9709474,10.3055789 C27.1391579,10.5847368 27.4344211,10.7368421 27.7368421,10.7368421 C27.8961053,10.7368421 28.0553684,10.6956842 28.2003158,10.608 C28.6226316,10.3503158 28.7586316,9.80094737 28.5009474,9.37863158 C27.2733684,7.35473684 21.8530526,3.57894737 14.3157895,3.57894737 C6.30073684,3.57894737 2.00421053,7.76452632 1.02357895,9.37684211 C0.765894737,9.79915789 0.901894737,10.3503158 1.32421053,10.6062105 Z" id="Path"></path>
                <path d="M6.63,3.50021053 C7.038,3.31768421 7.38694737,3.14052632 7.71621053,2.97052632 C9.05294737,2.28515789 10.0192632,1.78947368 14.3157895,1.78947368 C19.1545263,1.78947368 20.9350526,2.45157895 22.8193684,3.15305263 C23.1611579,3.27831579 23.5047368,3.40715789 23.8662105,3.53063158 C23.9628421,3.56284211 24.0612632,3.57894737 24.1578947,3.57894737 C24.5301053,3.57894737 24.8754737,3.34631579 25.0043158,2.97589474 C25.1653684,2.50884211 24.9166316,2.00063158 24.4495789,1.83957895 C24.1024211,1.71968421 23.7731579,1.59621053 23.4438947,1.47452632 C21.4933684,0.749789474 19.4766316,0 14.3157895,0 C9.58442105,0 8.39978947,0.608421053 6.89842105,1.37789474 C6.59421053,1.53357895 6.27389474,1.69821053 5.89631579,1.86821053 C5.44715789,2.07042105 5.24494737,2.60010526 5.44715789,3.05105263 C5.64936842,3.50021053 6.17726316,3.70421053 6.63,3.50021053 Z" id="Path"></path>
                <path d="M30.464,15.4825263 C30.5856842,15.8636842 30.9364211,16.1052632 31.3157895,16.1052632 C31.4052632,16.1052632 31.4983158,16.0909474 31.5877895,16.0623158 C32.0584211,15.912 32.3178947,15.4091579 32.1675789,14.9385263 C31.6933684,13.4532632 30.3458947,11.2557895 30.2886316,11.1627368 C30.0291579,10.7422105 29.478,10.6097895 29.0574737,10.8692632 C28.6369474,11.1287368 28.5045263,11.6798947 28.764,12.1004211 C28.7783158,12.1201053 30.0542105,14.2066316 30.464,15.4825263 Z" id="Path"></path>
            </g>
        </g>
    </g>
</svg>