<?xml version="1.0" encoding="UTF-8"?>
<svg width="30px" height="30px" viewBox="0 0 30 30" version="1.1" xmlns="http://www.w3.org/2000/svg" xmlns:xlink="http://www.w3.org/1999/xlink">
    <!-- Generator: Sketch 52.6 (67491) - http://www.bohemiancoding.com/sketch -->
    <title>noun_Exit_223430</title>
    <desc>Created with Sketch.</desc>
    <g id="Flows" stroke="none" stroke-width="1" fill="none" fill-rule="evenodd">
        <g id="Dollars-and-Points" transform="translate(-1534.000000, -1596.000000)" fill="#006DFF">
            <g id="noun_Exit_223430" transform="translate(1534.000000, 1596.000000)">
                <path d="M0.978888889,29.4837736 C1.26055556,29.7713208 1.63055556,29.9150943 2,29.9150943 C2.36944444,29.9150943 2.73944444,29.7713208 3.02111111,29.4837736 L15,17.279434 L26.9788889,29.4843396 C27.2605556,29.7718868 27.6305556,29.9156604 28,29.9156604 C28.3694444,29.9156604 28.7394444,29.7718868 29.0211111,29.4843396 C29.5855556,28.9098113 29.5855556,27.9775472 29.0211111,27.4030189 L17.0427778,15.1981132 L29.0216667,2.99320755 C29.5861111,2.41867925 29.5861111,1.48641509 29.0216667,0.911886792 C28.4583333,0.336792453 27.5427778,0.336792453 26.9788889,0.911886792 L15,13.1167925 L3.02111111,0.91245283 C2.45777778,0.337358491 1.54222222,0.337358491 0.978333333,0.91245283 C0.413888889,1.48698113 0.413888889,2.41924528 0.978333333,2.99377358 L12.9577778,15.1981132 L0.978888889,27.4030189 C0.414444444,27.9775472 0.414444444,28.9092453 0.978888889,29.4837736 Z" id="Path"></path>
            </g>
        </g>
    </g>
</svg>