<?xml version="1.0" encoding="UTF-8"?>
<svg width="50px" height="50px" viewBox="0 0 50 50" version="1.1" xmlns="http://www.w3.org/2000/svg" xmlns:xlink="http://www.w3.org/1999/xlink">
    <!-- Generator: Sketch 55.2 (78181) - https://sketchapp.com -->
    <title>Design element/fab  Copy</title>
    <desc>Created with Sketch.</desc>
    <defs>
        <path d="M28.876494,15.760396 C27.7609562,10.770297 23.2988048,7 17.9442231,7 C12.5896414,7 8.12749004,10.770297 7.01195219,15.760396 C5.33864542,16.0930693 4,17.6455446 4,19.6415842 C4,21.8594059 5.67330677,23.5227723 7.56972112,23.5227723 L8.01593625,23.5227723 C9.9123506,26.960396 13.5936255,29.4 17.9442231,29.4 C22.2948207,29.4 25.8645418,27.0712871 27.87251,23.5227723 L28.4302789,23.5227723 C30.438247,23.5227723 32,21.7485149 32,19.6415842 C31.8884462,17.6455446 30.6613546,16.0930693 28.876494,15.760396 Z M17.9442231,8.66336634 C22.9641434,8.66336634 27.0916335,12.5445545 27.5378486,17.4237624 C17.6095618,16.3148515 14.7091633,12.4336634 14.7091633,12.4336634 L13.1474104,12.8772277 C13.1474104,13.0990099 12.5896414,18.3108911 8.46215139,18.8653465 C8.46215139,18.6435644 8.46215139,18.4217822 8.46215139,18.2 C8.35059761,12.9881188 12.5896414,8.66336634 17.9442231,8.66336634 Z M5.56175299,19.6415842 C5.56175299,18.7544554 6.00796813,17.9782178 6.67729084,17.6455446 C6.67729084,17.8673267 6.67729084,17.9782178 6.67729084,18.2 C6.67729084,19.5306931 6.90039841,20.750495 7.34661355,21.8594059 C6.34262948,21.6376238 5.56175299,20.750495 5.56175299,19.6415842 Z M8.57370518,20.4178218 C12.0318725,19.8633663 13.7051793,16.980198 14.374502,14.5405941 C16.1593625,15.9821782 19.9521912,18.2 27.314741,19.0871287 C26.8685259,22.3029703 24.8605578,23.9663366 21.4023904,24.0772277 C21.1792829,23.0792079 20.2868526,22.4138614 19.1713147,22.4138614 L16.940239,22.4138614 C15.7131474,22.4138614 14.5976096,23.4118812 14.5976096,24.7425743 C14.5976096,26.0732673 15.6015936,27.0712871 16.940239,27.0712871 L19.1713147,27.0712871 C20.063745,27.0712871 20.8446215,26.5168317 21.1792829,25.8514851 C22.2948207,25.8514851 23.2988048,25.629703 24.1912351,25.4079208 C22.5179283,26.960396 20.2868526,27.8475248 17.7211155,27.8475248 C13.3705179,27.7366337 9.57768924,24.6316832 8.57370518,20.4178218 Z M19.9521912,24.6316832 C19.9521912,24.9643564 19.6175299,25.2970297 19.2828685,25.2970297 L17.0517928,25.2970297 C16.7171315,25.2970297 16.3824701,24.9643564 16.3824701,24.6316832 C16.3824701,24.2990099 16.7171315,23.9663366 17.0517928,23.9663366 L19.2828685,23.9663366 C19.6175299,23.9663366 19.9521912,24.2990099 19.9521912,24.6316832 Z M28.5418327,21.8594059 C28.9880478,20.750495 29.2111554,19.5306931 29.2111554,18.2 C29.2111554,17.9782178 29.2111554,17.7564356 29.2111554,17.6455446 C29.8804781,17.9782178 30.3266932,18.7544554 30.3266932,19.6415842 C30.2151394,20.750495 29.5458167,21.7485149 28.5418327,21.8594059 Z" id="path-1"></path>
    </defs>
    <g id="Mobile-High-Touch-FAB-+-Modal" stroke="none" stroke-width="1" fill="none" fill-rule="evenodd">
        <g id="FAB-Interaction-PI16" transform="translate(-40.000000, -186.000000)">
            <g id="Design-element/fab--Copy" transform="translate(40.000000, 186.000000)">
                <path d="M25,0 C38.8071187,-2.53632657e-15 50,11.1928813 50,25 C50,38.8071187 38.8071187,50 25,50 C11.1928813,50 1.69088438e-15,38.8071187 0,25 C-1.69088438e-15,11.1928813 11.1928813,2.53632657e-15 25,0 Z" id="icon-BG" fill="#006DFF"></path>
                <g id="Program/Care-Guide" transform="translate(7.000000, 7.000000)">
                    <mask id="mask-2" fill="white">
                        <use xlink:href="#path-1"></use>
                    </mask>
                    <use id="Shape" fill="#2A27D8" fill-rule="nonzero" xlink:href="#path-1"></use>
                    <g id="Color/White" mask="url(#mask-2)" fill="#FFFFFF" fill-rule="evenodd">
                        <rect id="Rectangle" x="0" y="0" width="36" height="36"></rect>
                    </g>
                </g>
            </g>
        </g>
    </g>
</svg>