<?xml version="1.0" encoding="UTF-8"?>
<svg width="15px" height="16px" viewBox="0 0 15 16" version="1.1" xmlns="http://www.w3.org/2000/svg" xmlns:xlink="http://www.w3.org/1999/xlink">
    <!-- Generator: Sketch 50 (54983) - http://www.bohemiancoding.com/sketch -->
    <title>Artboard</title>
    <desc>Created with Sketch.</desc>
    <defs>
        <path d="M1.14285714,14.8571429 L3.71428571,14.8571429 L3.71428571,12.2857143 L1.14285714,12.2857143 L1.14285714,14.8571429 Z M4.28571429,14.8571429 L7.14285714,14.8571429 L7.14285714,12.2857143 L4.28571429,12.2857143 L4.28571429,14.8571429 Z M1.14285714,11.7142857 L3.71428571,11.7142857 L3.71428571,8.85714286 L1.14285714,8.85714286 L1.14285714,11.7142857 Z M4.28571429,11.7142857 L7.14285714,11.7142857 L7.14285714,8.85714286 L4.28571429,8.85714286 L4.28571429,11.7142857 Z M1.14285714,8.28571429 L3.71428571,8.28571429 L3.71428571,5.71428571 L1.14285714,5.71428571 L1.14285714,8.28571429 Z M7.71428571,14.8571429 L10.5714286,14.8571429 L10.5714286,12.2857143 L7.71428571,12.2857143 L7.71428571,14.8571429 Z M4.28571429,8.28571429 L7.14285714,8.28571429 L7.14285714,5.71428571 L4.28571429,5.71428571 L4.28571429,8.28571429 Z M11.1428571,14.8571429 L13.7142857,14.8571429 L13.7142857,12.2857143 L11.1428571,12.2857143 L11.1428571,14.8571429 Z M7.71428571,11.7142857 L10.5714286,11.7142857 L10.5714286,8.85714286 L7.71428571,8.85714286 L7.71428571,11.7142857 Z M4.57142857,4 L4.57142857,1.42857143 C4.57142857,1.35119009 4.54315504,1.28422647 4.48660714,1.22767857 C4.43005924,1.17113067 4.36309562,1.14285714 4.28571429,1.14285714 L3.71428571,1.14285714 C3.63690438,1.14285714 3.56994076,1.17113067 3.51339286,1.22767857 C3.45684496,1.28422647 3.42857143,1.35119009 3.42857143,1.42857143 L3.42857143,4 C3.42857143,4.07738134 3.45684496,4.14434496 3.51339286,4.20089286 C3.56994076,4.25744076 3.63690438,4.28571429 3.71428571,4.28571429 L4.28571429,4.28571429 C4.36309562,4.28571429 4.43005924,4.25744076 4.48660714,4.20089286 C4.54315504,4.14434496 4.57142857,4.07738134 4.57142857,4 Z M11.1428571,11.7142857 L13.7142857,11.7142857 L13.7142857,8.85714286 L11.1428571,8.85714286 L11.1428571,11.7142857 Z M7.71428571,8.28571429 L10.5714286,8.28571429 L10.5714286,5.71428571 L7.71428571,5.71428571 L7.71428571,8.28571429 Z M11.1428571,8.28571429 L13.7142857,8.28571429 L13.7142857,5.71428571 L11.1428571,5.71428571 L11.1428571,8.28571429 Z M11.4285714,4 L11.4285714,1.42857143 C11.4285714,1.35119009 11.4002979,1.28422647 11.34375,1.22767857 C11.2872021,1.17113067 11.2202385,1.14285714 11.1428571,1.14285714 L10.5714286,1.14285714 C10.4940472,1.14285714 10.4270836,1.17113067 10.3705357,1.22767857 C10.3139878,1.28422647 10.2857143,1.35119009 10.2857143,1.42857143 L10.2857143,4 C10.2857143,4.07738134 10.3139878,4.14434496 10.3705357,4.20089286 C10.4270836,4.25744076 10.4940472,4.28571429 10.5714286,4.28571429 L11.1428571,4.28571429 C11.2202385,4.28571429 11.2872021,4.25744076 11.34375,4.20089286 C11.4002979,4.14434496 11.4285714,4.07738134 11.4285714,4 Z M14.8571429,3.42857143 L14.8571429,14.8571429 C14.8571429,15.1666682 14.7440488,15.4345227 14.5178571,15.6607143 C14.2916655,15.8869059 14.0238111,16 13.7142857,16 L1.14285714,16 C0.833331786,16 0.565477321,15.8869059 0.339285714,15.6607143 C0.113094107,15.4345227 0,15.1666682 0,14.8571429 L0,3.42857143 C0,3.11904607 0.113094107,2.85119161 0.339285714,2.625 C0.565477321,2.39880839 0.833331786,2.28571429 1.14285714,2.28571429 L2.28571429,2.28571429 L2.28571429,1.42857143 C2.28571429,1.03571232 2.42559384,0.699406161 2.70535714,0.419642857 C2.98512045,0.139879554 3.32142661,-1.77635684e-15 3.71428571,0 L4.28571429,0 C4.67857339,-1.77635684e-15 5.01487955,0.139879554 5.29464286,0.419642857 C5.57440616,0.699406161 5.71428571,1.03571232 5.71428571,1.42857143 L5.71428571,2.28571429 L9.14285714,2.28571429 L9.14285714,1.42857143 C9.14285714,1.03571232 9.2827367,0.699406161 9.5625,0.419642857 C9.8422633,0.139879554 10.1785695,-1.77635684e-15 10.5714286,0 L11.1428571,0 C11.5357163,-1.77635684e-15 11.8720224,0.139879554 12.1517857,0.419642857 C12.431549,0.699406161 12.5714286,1.03571232 12.5714286,1.42857143 L12.5714286,2.28571429 L13.7142857,2.28571429 C14.0238111,2.28571429 14.2916655,2.39880839 14.5178571,2.625 C14.7440488,2.85119161 14.8571429,3.11904607 14.8571429,3.42857143 Z" id="path-1"></path>
    </defs>
    <g id="Artboard" stroke="none" stroke-width="1" fill="none" fill-rule="evenodd">
        <mask id="mask-2" fill="white">
            <use xlink:href="#path-1"></use>
        </mask>
        <use id="ï³" fill="#006DFF" xlink:href="#path-1"></use>
    </g>
</svg>