<?xml version="1.0" encoding="UTF-8" standalone="no"?>
<svg width="126px" height="128px" viewBox="0 0 126 128" version="1.1" xmlns="http://www.w3.org/2000/svg" xmlns:xlink="http://www.w3.org/1999/xlink">
    <!-- Generator: Sketch 47 (45396) - http://www.bohemiancoding.com/sketch -->
    <title>Artboard 2</title>
    <desc>Created with Sketch.</desc>
    <defs></defs>
    <g id="Onboarding" stroke="none" stroke-width="1" fill="none" fill-rule="evenodd">
        <g id="Artboard-2" fill-rule="nonzero">
            <path d="M17.5779143,115.677777 C17.4772128,115.589172 17.3249058,115.589172 17.2242044,115.677777 C15.8891017,116.837031 14.1586764,117.458301 12.378379,117.417561 C10.3315493,117.432946 8.37162567,116.604765 6.97379892,115.133814 C5.57597217,113.662863 4.8678841,111.68346 5.02121334,109.67552 C5.02121334,105.273866 7.74477946,101.898684 12.343008,101.898684 C14.2609279,101.845881 16.1183881,102.561711 17.4894868,103.882038 C17.5926402,103.981504 17.7577288,103.981504 17.8608822,103.882038 L20.6198193,100.993996 C20.7209298,100.892521 20.7209298,100.730117 20.6198193,100.628641 C18.3810663,98.5339783 15.3774036,97.4172989 12.2899515,97.5318251 C8.98937993,97.4432464 5.79852321,98.701407 3.4738689,101.008022 C1.1492146,103.314638 -0.102233198,106.46431 0.0162184644,109.710316 C-0.158807215,112.990012 1.08919031,116.18871 3.44987485,118.510998 C5.8105594,120.833287 9.06214348,122.060986 12.3960645,121.888807 C15.2976098,121.910728 18.0919306,120.811179 20.1776819,118.826787 C20.2787924,118.725311 20.2787924,118.562907 20.1776819,118.461432 L17.5779143,115.677777 Z" id="Shape" fill="#2A27D8"></path>
            <path d="M34.688363,119.770069 C33.2871606,121.238456 31.3247093,122.013481 29.3142845,121.892435 C26.81622,122.022324 24.3822067,121.064305 22.6234195,119.258935 C20.8646323,117.453565 19.9481311,114.972328 20.1040472,112.438258 C19.9910836,109.919063 20.9227303,107.466992 22.67288,105.677155 C24.4230296,103.887317 26.8316887,102.923334 29.3142845,103.01916 C31.2989485,102.91644 33.2392678,103.638393 34.688363,105.018745 L34.688363,103.580447 C34.688363,103.510668 34.7156715,103.443747 34.7642809,103.394405 C34.8128903,103.345064 34.8788188,103.317344 34.9475629,103.317344 L38.6973218,103.317344 C38.840474,103.317344 38.9565217,103.435139 38.9565217,103.580447 L38.9565217,121.313608 C38.9565217,121.458916 38.840474,121.576711 38.6973218,121.576711 L34.9475629,121.576711 C34.8044107,121.576711 34.688363,121.458916 34.688363,121.313608 L34.688363,119.770069 Z M29.5043645,117.823105 C30.8854781,117.84303 32.2104819,117.269165 33.1519973,116.243298 C34.0935128,115.21743 34.5637206,113.835248 34.446443,112.438258 C34.5372214,111.049448 34.05747,109.684467 33.1211662,108.667602 C32.1848625,107.650736 30.875577,107.072747 29.5043645,107.070951 C28.1254619,107.047387 26.8004277,107.613841 25.8536032,108.631654 C24.9067786,109.649468 24.4255549,111.024698 24.5277259,112.420717 C24.4210888,113.822796 24.8991175,115.205932 25.8453292,116.233092 C26.791541,117.260251 28.1190449,117.837111 29.5043645,117.823105 L29.5043645,117.823105 Z" id="Shape" fill="#006FBA"></path>
            <path d="M34.688363,119.770069 C33.2871606,121.238456 31.3247093,122.013481 29.3142845,121.892435 C26.81622,122.022324 24.3822067,121.064305 22.6234195,119.258935 C20.8646323,117.453565 19.9481311,114.972328 20.1040472,112.438258 C19.9910836,109.919063 20.9227303,107.466992 22.67288,105.677155 C24.4230296,103.887317 26.8316887,102.923334 29.3142845,103.01916 C31.2989485,102.91644 33.2392678,103.638393 34.688363,105.018745 L34.688363,103.580447 C34.688363,103.510668 34.7156715,103.443747 34.7642809,103.394405 C34.8128903,103.345064 34.8788188,103.317344 34.9475629,103.317344 L38.6973218,103.317344 C38.840474,103.317344 38.9565217,103.435139 38.9565217,103.580447 L38.9565217,121.313608 C38.9565217,121.458916 38.840474,121.576711 38.6973218,121.576711 L34.9475629,121.576711 C34.8044107,121.576711 34.688363,121.458916 34.688363,121.313608 L34.688363,119.770069 Z M29.5043645,117.823105 C30.8854781,117.84303 32.2104819,117.269165 33.1519973,116.243298 C34.0935128,115.21743 34.5637206,113.835248 34.446443,112.438258 C34.5372214,111.049448 34.05747,109.684467 33.1211662,108.667602 C32.1848625,107.650736 30.875577,107.072747 29.5043645,107.070951 C28.1254619,107.047387 26.8004277,107.613841 25.8536032,108.631654 C24.9067786,109.649468 24.4255549,111.024698 24.5277259,112.420717 C24.4210888,113.822796 24.8991175,115.205932 25.8453292,116.233092 C26.791541,117.260251 28.1190449,117.837111 29.5043645,117.823105 L29.5043645,117.823105 Z" id="Shape" fill="#2A27D8"></path>
            <path d="M47.5187865,110.212207 C48.3187634,110.452582 49.0336363,110.57277 49.9357379,110.847485 C52.7782088,111.723139 54.173913,113.113883 54.173913,116.358954 C54.173913,119.998927 51.1952759,121.904762 47.723036,121.904762 C42.9572165,121.904762 41.3913043,119.157612 41.3913043,116.152918 C41.3913043,116.084612 41.4182032,116.019105 41.4660834,115.970805 C41.5139637,115.922506 41.5789032,115.895372 41.6466161,115.895372 L45.3911886,115.895372 C45.5258052,115.89507 45.6375262,116.000255 45.6465003,116.135748 C45.5872719,116.725812 45.7941145,117.31148 46.2098491,117.730851 C46.6255837,118.150223 47.2061725,118.358875 47.7911191,118.299128 C48.9485324,118.299128 49.8676547,117.732529 49.8676547,116.702347 C49.8676547,115.672166 49.3400104,115.208585 48.1655763,114.865191 C47.2384503,114.639076 46.323741,114.363981 45.4252301,114.041046 C43.1268019,113.369968 41.5985694,111.178895 41.7487408,108.769953 C41.7487408,105.765258 44.2678168,103.619048 47.8081399,103.619048 C51.3484629,103.619048 53.6632895,105.456204 53.7994558,108.890141 C53.8041738,108.961369 53.7793726,109.031377 53.7309715,109.083457 C53.6825704,109.135536 53.6149118,109.165015 53.544144,109.164856 L49.9697794,109.164856 C49.8351628,109.165158 49.7234418,109.059973 49.7144677,108.92448 C49.7364449,108.389614 49.5282034,107.871264 49.143296,107.502733 C48.7583886,107.134201 48.2343754,106.951449 47.7060152,107.001476 C46.6507266,107.001476 46.0039368,107.602414 46.0039368,108.495238 C46.0039368,109.388062 46.4464772,109.903152 47.5187865,110.212207 Z" id="Shape" fill="#2A27D8"></path>
            <path d="M61.6784122,103.612324 L64.2391725,103.612324 C64.3854762,103.612324 64.5040787,103.729208 64.5040787,103.873392 L64.5040787,107.180252 C64.5040787,107.324435 64.3854762,107.44132 64.2391725,107.44132 L61.6784122,107.44132 L61.6784122,115.865109 C61.6784122,117.222662 62.1199226,117.797011 63.4444538,117.797011 L64.2568329,117.797011 C64.4031366,117.797011 64.5217391,117.913895 64.5217391,118.058079 L64.5217391,121.451961 C64.5160734,121.571435 64.4287516,121.671834 64.3098141,121.695625 C63.5534141,121.839848 62.784368,121.909808 62.0139601,121.904479 C58.481877,121.904479 57.1043646,120.164027 57.1043646,117.170448 L57.1043646,107.493533 L55.6562106,107.493533 C55.5859531,107.493533 55.5185731,107.466028 55.4688936,107.417068 C55.419214,107.368108 55.3913043,107.301705 55.3913043,107.232465 L55.3913043,103.925606 C55.3913043,103.781422 55.5099069,103.664538 55.6562106,103.664538 L57.1043646,103.664538 L57.1043646,102.098131 C57.1084044,102.012769 57.154579,101.934759 57.2279876,101.889276 L61.3075435,99.3830249 C61.3862115,99.3417332 61.4806762,99.3421968 61.558923,99.3842585 C61.6371699,99.4263202 61.6887087,99.5043409 61.6960727,99.5918792 L61.6784122,103.612324 Z" id="Shape" fill="#2A27D8"></path>
            <path d="M123.158334,103.654577 L125.717587,103.654577 C125.863804,103.654577 125.982337,103.771191 125.982337,103.915042 L125.982337,107.214263 C125.982337,107.358114 125.863804,107.474728 125.717587,107.474728 L123.158334,107.474728 L123.158334,115.87906 C123.158334,117.233477 123.599584,117.8065 124.923336,117.8065 L125.735237,117.8065 C125.881454,117.8065 125.999987,117.923114 125.999987,118.066964 L125.999987,121.453007 C126.001256,121.574798 125.910719,121.678715 125.788187,121.696108 C125.032232,121.839998 124.263639,121.909796 123.493684,121.90448 C119.963681,121.90448 118.58698,120.168047 118.58698,117.181384 L118.58698,107.526821 L117.139678,107.526821 C117.069462,107.526821 117.002122,107.499379 116.952471,107.450533 C116.902821,107.401686 116.874928,107.335436 116.874928,107.266356 L116.874928,103.967135 C116.858821,103.88959 116.879428,103.809046 116.930931,103.748243 C116.982434,103.68744 117.059245,103.652975 117.139678,103.654577 L118.58698,103.654577 L118.58698,102.091788 C118.591017,102.006624 118.637164,101.928794 118.71053,101.883416 L122.787684,99.3829541 C122.866305,99.3417578 122.960714,99.3422203 123.038915,99.3841849 C123.117116,99.4261494 123.168624,99.5039899 123.175984,99.591326 L123.158334,103.654577 Z" id="Shape" fill="#2A27D8"></path>
            <path d="M69.7551224,121.904761 L65.984008,121.904761 C65.9190624,121.904761 65.8567769,121.876851 65.8108534,121.82717 C65.76493,121.77749 65.7391304,121.710108 65.7391304,121.639849 L65.7391304,98.3982452 C65.7391304,98.3279862 65.76493,98.2606049 65.8108534,98.2109242 C65.8567769,98.1612436 65.9190624,98.1333333 65.984008,98.1333333 L69.7551224,98.1333333 C69.820068,98.1333333 69.8823536,98.1612436 69.928277,98.2109242 C69.9742005,98.2606049 70,98.3279862 70,98.3982452 L70,121.65751 C69.9913926,121.796878 69.8842375,121.905072 69.7551224,121.904761 L69.7551224,121.904761 Z" id="Shape" fill="#2A27D8"></path>
            <path d="M73.0522882,99.2521582 C72.9698064,98.2282018 73.4714154,97.2448395 74.35023,96.7076523 C75.2290445,96.1704651 76.3361729,96.1704651 77.2149874,96.7076523 C78.093802,97.2448395 78.595411,98.2282018 78.5129292,99.2521582 C78.3987062,100.670161 77.2103988,101.762904 75.7826087,101.762904 C74.3548186,101.762904 73.1665112,100.670161 73.0522882,99.2521582 L73.0522882,99.2521582 Z M77.810596,121.294654 L73.7721798,121.294654 C73.7023284,121.294654 73.6353379,121.267007 73.5859455,121.217795 C73.5365531,121.168584 73.5088048,121.101839 73.5088048,121.032243 L73.5088048,103.345764 C73.5088048,103.200839 73.6267218,103.083354 73.7721798,103.083354 L77.8281543,103.083354 C77.9736123,103.083354 78.0915293,103.200839 78.0915293,103.345764 L78.0915293,121.032243 C78.0916917,121.104978 78.0615463,121.174518 78.0082879,121.224265 C77.9550296,121.274012 77.8834365,121.299503 77.810596,121.294654 L77.810596,121.294654 Z" id="Shape" fill="#2A27D8"></path>
            <path d="M94.6121419,103.270923 L98.3491792,103.270923 C98.4925062,103.270923 98.6086957,103.389797 98.6086957,103.536436 L98.6086957,118.599924 C98.6086957,125.520986 94.5775397,127.999115 88.9892848,127.999115 C86.7317917,128.024664 84.5011562,127.496605 82.4840718,126.459135 C82.3711815,126.390129 82.3265839,126.24564 82.3802652,126.122817 L83.6259443,122.954351 C83.652601,122.887877 83.7044518,122.835295 83.7696571,122.80861 C83.8348624,122.781925 83.9078545,122.783416 83.9719663,122.812744 C85.5383581,123.601921 87.2605739,124.013663 89.0065859,124.016407 C91.826665,124.016407 94.0931089,122.848146 94.1969155,120.157605 L94.1969155,119.909792 C92.8939752,121.380671 91.0133376,122.173711 89.0757903,122.069305 C86.5729084,122.218462 84.1261814,121.271231 82.3467865,119.464225 C80.5673917,117.657219 79.6233576,115.161073 79.7504982,112.59931 C79.6551273,110.067913 80.5817442,107.607841 82.3128352,105.796568 C84.0439262,103.985296 86.427045,102.982331 88.9027794,103.02311 C90.9186896,102.899053 92.8957318,103.628773 94.3699265,105.041015 L94.3699265,103.571838 C94.360162,103.498508 94.3807547,103.424336 94.426739,103.367208 C94.4727234,103.310079 94.5399259,103.275179 94.6121419,103.270923 Z M89.3180057,117.962691 C91.4942946,118.100733 93.5319675,116.863937 94.4567439,114.843658 C95.3815202,112.823378 95.0055139,110.430072 93.5085063,108.808062 C92.0114987,107.186051 89.6976357,106.664879 87.6732537,107.493734 C85.6488717,108.322589 84.3252628,110.333074 84.3352893,112.563908 C84.2489875,113.968637 84.7361766,115.347041 85.6806741,116.370406 C86.6251716,117.393771 87.9423177,117.970367 89.3180057,117.962691 L89.3180057,117.962691 Z" id="Shape" fill="#2A27D8"></path>
            <path d="M111.118675,110.327882 C111.118675,108.563114 110.337037,107.416014 108.686913,107.416014 C107.036789,107.416014 106.185673,108.580761 106.185673,110.327882 L106.185673,121.640047 C106.185673,121.786245 106.069022,121.904762 105.925127,121.904762 L101.91272,121.904762 C101.768824,121.904762 101.652174,121.786245 101.652174,121.640047 L101.652174,98.3980486 C101.652174,98.3278417 101.679624,98.2605104 101.728486,98.2108666 C101.777348,98.1612229 101.843619,98.1333333 101.91272,98.1333333 L105.925127,98.1333333 C105.994228,98.1333333 106.060499,98.1612229 106.109361,98.2108666 C106.158222,98.2605104 106.185673,98.3278417 106.185673,98.3980486 L106.185673,104.892396 C107.161577,103.810773 108.565404,103.233774 110.007013,103.321752 C114.227856,103.321752 115.652174,106.23362 115.652174,109.780804 L115.652174,121.640047 C115.652174,121.786245 115.535524,121.904762 115.391628,121.904762 L111.379221,121.904762 C111.235326,121.904762 111.118675,121.786245 111.118675,121.640047 L111.118675,110.327882 Z" id="Shape" fill="#2A27D8"></path>
            <path d="M66.318036,21.1880127 L69.3886134,0.689216951 C69.3988007,0.618869808 69.3798116,0.547448159 69.3359137,0.491003695 C69.2920158,0.434559231 69.2268917,0.397826969 69.1551777,0.389062319 L66.1384701,0.000626913117 C66.0669963,-0.00421517184 65.9965056,0.0191406521 65.9425886,0.0655286903 C65.8886716,0.111916729 65.8557714,0.177514349 65.8511646,0.24781308 L64.5223767,20.9231704 C64.5174522,20.9934483 64.5412055,21.0627596 64.5883829,21.1157745 C64.6355602,21.1687894 64.7022741,21.2011392 64.773769,21.2056688 L66.0307305,21.3292619 C66.1476981,21.3496226 66.2644212,21.2922375 66.318036,21.1880127 Z" id="Shape" fill="#2A27D8"></path>
            <path d="M61.4776233,20.9241424 L60.1488354,0.247824594 C60.1442286,0.177522596 60.1113284,0.111921928 60.0574114,0.0655317347 C60.0034944,0.0191415413 59.9330037,-0.00421536767 59.8615299,0.000626942243 L56.8448223,0.318452494 C56.7731083,0.327217552 56.7079842,0.36395152 56.6640863,0.420398606 C56.6201884,0.476845692 56.6011993,0.548270659 56.6113866,0.618621071 L59.6640074,21.1183692 C59.691301,21.2581988 59.8261375,21.3517894 59.9692695,21.3302529 L61.226231,21.206654 C61.2977259,21.2021241 61.3644398,21.1697729 61.4116171,21.1167555 C61.4587945,21.0637382 61.4825478,20.9944236 61.4776233,20.9241424 Z" id="Shape" fill="#2A27D8"></path>
            <path d="M57.2015925,21.6983733 L51.9248467,2.15061805 C51.893542,2.03443118 51.8175339,1.93661993 51.7145771,1.88003205 C51.6116203,1.82344418 51.4907319,1.81303573 51.3801504,1.85123802 L48.9971039,2.66132517 C48.8837724,2.69707046 48.7899759,2.7800803 48.7382858,2.89037913 C48.6865957,3.00067797 48.6816924,3.12827843 48.7247558,3.24247465 L55.5334599,22.2619122 C55.6134423,22.4904037 55.8572407,22.6086375 56.0781563,22.5260711 L56.8952008,22.2443016 C57.006687,22.2154229 57.1021428,22.1411183 57.1598519,22.0382922 C57.2175611,21.9354661 57.2326163,21.8128623 57.2015925,21.6983733 Z" id="Shape" fill="#2A27D8"></path>
            <path d="M52.9038233,22.6762318 L43.7885502,5.10904838 C43.7344367,5.00362089 43.6395124,4.92536202 43.5262004,4.89275831 C43.4128885,4.8601546 43.2912383,4.87609756 43.1899863,4.93682109 L41.0009526,6.21130302 C40.8991639,6.26881714 40.8251479,6.36573878 40.7960809,6.4795762 C40.7670139,6.59341362 40.7854231,6.71426973 40.8470362,6.81409853 L51.3988626,23.5718137 C51.5234047,23.7690894 51.7815012,23.8302473 51.9803247,23.7095955 L52.732805,23.2618045 C52.8327941,23.2071926 52.907052,23.1147059 52.9391478,23.0048087 C52.9712436,22.8949116 52.9585311,22.7766645 52.9038233,22.6762318 Z" id="Shape" fill="#2A27D8"></path>
            <path d="M49.1583446,25.4319355 L36.1924537,9.88646542 C36.1092162,9.80078488 35.9944323,9.75238095 35.8744891,9.75238095 C35.7545458,9.75238095 35.639762,9.80078488 35.5565245,9.88646542 L33.6134073,11.6390551 C33.5270482,11.7216385 33.4782609,11.8355204 33.4782609,11.9545212 C33.4782609,12.073522 33.5270482,12.1874039 33.6134073,12.2699873 L47.8511567,26.6938 C48.0228768,26.8607968 48.2977011,26.8607968 48.4694212,26.6938 L49.1406799,26.0979196 C49.2410471,26.0172675 49.300797,25.8970649 49.3041947,25.7689661 C49.3075924,25.6408674 49.2542974,25.5177133 49.1583446,25.4319355 Z" id="Shape" fill="#2A27D8"></path>
            <path d="M45.511158,29.0668605 L30.1752076,16.5904565 C30.094914,16.5052685 29.9841897,16.4571429 29.8684886,16.4571429 C29.7527874,16.4571429 29.6420631,16.5052685 29.5617695,16.5904565 L28.0792943,18.6814739 C28.0132686,18.7760455 27.9869272,18.8936725 28.0061268,19.008202 C28.0253264,19.1227316 28.0884756,19.2246706 28.181534,19.291354 L44.5228412,30.4085967 C44.7165889,30.5340163 44.9726569,30.4801046 45.1021994,30.2866207 L45.6133977,29.5721897 C45.6910411,29.3990068 45.6496282,29.1943196 45.511158,29.0668605 Z" id="Shape" fill="#2A27D8"></path>
            <path d="M43.5145968,32.4295504 L25.4335266,23.2099287 C25.3266218,23.1548671 25.2024145,23.146793 25.089566,23.1875696 C24.9767176,23.2283461 24.8849772,23.3144504 24.8355145,23.4260136 L23.7801991,25.8569685 C23.7283554,25.9710002 23.7254732,26.102037 23.7722506,26.2183423 C23.8190281,26.3346476 23.9111988,26.4256137 24.0264394,26.469209 L42.863819,34.1042083 C43.0871684,34.1905355 43.3369967,34.0786351 43.4266538,33.8521092 L43.7960142,33.0237839 C43.8405116,32.9070166 43.835445,32.7765434 43.7820336,32.6637613 C43.7286222,32.5509792 43.6317023,32.4661005 43.5145968,32.4295504 Z" id="Shape" fill="#2A27D8"></path>
            <path d="M42.8845436,37.1348539 L23.0276741,31.7114819 C22.9093988,31.6778607 22.7831565,31.696914 22.6786854,31.7641533 C22.5742143,31.8313927 22.5007507,31.9408735 22.4755997,32.0668063 L21.9235253,34.7784923 C21.89739,34.9027387 21.9206075,35.0328042 21.9878202,35.1386755 C22.055033,35.2445469 22.1604343,35.3170775 22.2797024,35.3395307 L42.5105577,39.0049821 C42.7450366,39.0393639 42.9641296,38.8750267 43.0092055,38.6309565 C43.0092055,38.3192684 43.0745046,38.0075804 43.2051029,37.6958923 C43.2614166,37.4484393 43.1189657,37.1991238 42.8845436,37.1348539 Z" id="Shape" fill="#2A27D8"></path>
            <path d="M42.3430548,40.9945593 L21.5876981,40.2290829 C21.5142311,40.2248392 21.4420222,40.2471469 21.3883058,40.2906818 C21.3345894,40.3342167 21.3041847,40.395073 21.3043485,40.4587258 L21.3043485,43.0460361 C21.3041847,43.1096889 21.3345894,43.1705452 21.3883058,43.2140801 C21.4420222,43.257615 21.5142311,43.2799227 21.5876981,43.275679 L42.3607641,42.5255121 C42.5005153,42.5174403 42.6090066,42.4169516 42.608695,42.2958692 L42.608695,41.2088927 C42.5993578,41.0880793 42.4831172,40.9942899 42.3430548,40.9945593 Z" id="Shape" fill="#2A27D8"></path>
            <path d="M42.5892607,45.7304398 L22.1322185,49.4312925 C22.0609245,49.4446225 21.9979195,49.4876825 21.9577422,49.5505361 C21.9175649,49.6133897 21.9036864,49.6906068 21.9193091,49.7643693 L22.5402948,52.8175728 C22.5752994,52.9652175 22.7177125,53.0559846 22.8596589,53.0211197 L43.0150795,47.5808662 C43.1566457,47.5443586 43.2436759,47.3958306 43.2102464,47.2477894 C43.11562,46.8283594 43.0269078,46.4027614 42.9441097,45.9709952 C42.9378723,45.8846638 42.8933674,45.8063121 42.8237667,45.7591291 C42.754166,45.7119461 42.6674416,45.7013363 42.5892607,45.7304398 Z" id="Shape" fill="#2A27D8"></path>
            <path d="M42.960891,49.9980539 L23.9018565,57.6941104 C23.836192,57.7215588 23.7842495,57.7749496 23.7578896,57.8420915 C23.7315297,57.9092334 23.7330032,57.9843934 23.7619736,58.0504093 L24.9509776,60.7939109 C24.9809374,60.862421 25.0377767,60.9149495 25.107614,60.9386674 C25.1774512,60.9623853 25.2538567,60.955109 25.31817,60.9186156 L43.6777905,51.6370289 C43.8080288,51.5729578 43.8627841,51.4135653 43.800188,51.2807299 C43.6253345,50.9066161 43.4504809,50.5325022 43.2931127,50.1405734 C43.2370341,50.0107763 43.0912056,49.9482174 42.960891,49.9980539 L42.960891,49.9980539 Z" id="Shape" fill="#2A27D8"></path>
            <path d="M45.0716415,53.7124306 L28.0746727,64.8676798 C27.9751091,64.9679336 27.9751091,65.1283818 28.0746727,65.2286355 L29.8161654,67.5834416 C29.9177406,67.6817099 30.0803037,67.6817099 30.1818789,67.5834416 L46.1861968,55.0703115 C46.2857605,54.9700578 46.2857605,54.8096096 46.1861968,54.7093558 C45.9423879,54.3827769 45.681164,54.0733863 45.4547699,53.729619 C45.4078051,53.6747026 45.3397492,53.6416247 45.2670127,53.6383615 C45.1942762,53.6350983 45.1234604,53.661946 45.0716415,53.7124306 Z" id="Shape" fill="#2A27D8"></path>
            <path d="M47.9391217,57.3503247 L33.5534847,71.9522723 C33.4531863,72.0539048 33.4531863,72.2165596 33.5534847,72.3181922 L35.7639607,74.2871899 C35.8662856,74.3868097 36.0300484,74.3868097 36.1323733,74.2871899 L49.2373378,58.6049073 C49.3266845,58.5056905 49.3266845,58.3556289 49.2373378,58.2564121 C48.9215555,57.9950407 48.6233167,57.7162446 48.3250779,57.4200237 C48.2859454,57.3566111 48.2214664,57.3127606 48.1477912,57.2994557 C48.0741159,57.2861508 47.998223,57.3046519 47.9391217,57.3503247 L47.9391217,57.3503247 Z" id="Shape" fill="#2A27D8"></path>
            <path d="M51.4550171,60.465288 L40.8226829,77.9553015 C40.7855242,78.0158701 40.7735525,78.0895968 40.7895157,78.1595579 C40.805479,78.2295189 40.8480061,78.2897054 40.9073352,78.3263018 L43.3791836,79.810303 C43.4393261,79.8476762 43.5115849,79.8574886 43.5788908,79.8374221 C43.6461967,79.8173556 43.7025807,79.7691899 43.7347234,79.7043029 L52.9279678,61.348622 C52.9911181,61.2215458 52.946142,61.0651063 52.826385,60.9952884 L51.7936264,60.3769546 C51.6761754,60.3079771 51.527543,60.346751 51.4550171,60.465288 L51.4550171,60.465288 Z" id="Shape" fill="#2A27D8"></path>
            <path d="M54.9850217,61.7498832 L48.1009838,81.0285774 C48.0558294,81.1640172 48.1232183,81.3121546 48.2524663,81.361573 L50.9623199,82.2729295 C51.027041,82.294751 51.0974806,82.2884522 51.1576811,82.2554599 C51.2178816,82.2224677 51.262748,82.1655744 51.2821162,82.0976686 L56.600835,62.2931918 C56.6338516,62.1582105 56.5600279,62.0198431 56.4325211,61.9777223 L55.3721436,61.6096745 C55.3056751,61.5610581 55.2208022,61.5487113 55.1440828,61.5764978 C55.0673633,61.6042842 55.0081687,61.6688096 54.9850217,61.7498832 Z" id="Shape" fill="#2A27D8"></path>
            <path d="M59.6710724,62.9147155 L56.611377,83.4910125 C56.6012258,83.5616864 56.6201477,83.6334399 56.66389,83.6901466 C56.7076323,83.7468533 56.7725256,83.7837563 56.8439854,83.7925616 L59.8500019,84.111849 C59.9241275,84.1218602 59.9991041,84.1007472 60.0568523,84.0536012 C60.1146006,84.0064551 60.1498796,83.9375548 60.1541822,83.8635144 L61.4782609,63.0920973 C61.4406622,62.9866559 61.3405658,62.915777 61.2277595,62.9147155 L59.9752526,62.7905482 C59.8571569,62.7582698 59.7320005,62.8093591 59.6710724,62.9147155 Z" id="Shape" fill="#2A27D8"></path>
            <path d="M64.522339,63.188098 L65.8511372,83.8664369 C65.855744,83.9367458 65.8886445,84.0023528 65.9425619,84.0487476 C65.9964793,84.0951423 66.0669706,84.1185015 66.1384449,84.1136587 L69.1551759,83.7958021 C69.2268904,83.7870362 69.292015,83.7502986 69.3359133,83.693846 C69.3798115,83.6373934 69.3988008,83.5659615 69.3886134,83.4956042 L66.335969,62.9938523 C66.3090432,62.8615761 66.1853288,62.7703303 66.0486612,62.7819479 L64.79169,62.9055588 C64.7170308,62.9053955 64.6456518,62.9357132 64.5945892,62.989276 C64.5435265,63.0428388 64.5173615,63.1148411 64.522339,63.188098 Z" id="Shape" fill="#2A27D8"></path>
            <path d="M68.7904814,62.2774892 L74.1005249,82.0976858 C74.1199229,82.1655853 74.1648583,82.2224735 74.2251515,82.2554627 C74.2854446,82.2884519 74.3559925,82.2947502 74.4208133,82.2729307 L77.1179782,81.3616573 C77.1874003,81.3419879 77.2454738,81.2925034 77.2776527,81.2255983 C77.3098316,81.1586932 77.3130679,81.0807049 77.286551,81.0111675 L70.4087804,61.7342301 C70.3612478,61.5996598 70.2187634,61.5294959 70.0884921,61.5765097 L68.9590542,61.9620484 C68.8313514,62.0041654 68.757414,62.1425202 68.7904814,62.2774892 Z" id="Shape" fill="#2A27D8"></path>
            <path d="M74.2047585,60.3769237 L73.1734342,61.0123486 C73.0538436,61.0821034 73.0089299,61.2384013 73.0719925,61.3653625 L82.2693764,79.7044326 C82.3014746,79.7692609 82.3577802,79.817383 82.4249926,79.8374313 C82.4922051,79.8574797 82.5643635,79.8476762 82.6244225,79.8103367 L85.092838,78.3100278 C85.1520847,78.2734646 85.1945528,78.2133325 85.2104938,78.1434348 C85.2264349,78.073537 85.2144798,77.9998771 85.1773728,77.9393633 L74.5428977,60.4651772 C74.4704724,60.3467475 74.3220464,60.3080087 74.2047585,60.3769237 L74.2047585,60.3769237 Z" id="Shape" fill="#2A27D8"></path>
            <path d="M77.0662265,56.8104999 C76.7679877,57.089296 76.4697489,57.3680922 76.1539666,57.6468883 C76.0646198,57.7461051 76.0646198,57.8961667 76.1539666,57.9953835 L89.258931,73.6776661 C89.3612559,73.7772859 89.5250188,73.7772859 89.6273437,73.6776661 L91.8378196,71.7086684 C91.9381181,71.6070358 91.9381181,71.444381 91.8378196,71.3427484 L77.4521826,56.7408009 C77.3930813,56.695128 77.3171884,56.676627 77.2435132,56.6899319 C77.1698379,56.7032368 77.1053589,56.7470873 77.0662265,56.8104999 Z" id="Shape" fill="#2A27D8"></path>
            <path d="M80.5452301,53.729619 C80.318836,54.056198 80.0576121,54.3827769 79.8138032,54.7093558 C79.7142395,54.8096096 79.7142395,54.9700578 79.8138032,55.0703115 L95.8181211,67.5834416 C95.9196963,67.6817099 96.0822594,67.6817099 96.1838346,67.5834416 L97.9253273,65.2286355 C98.0248909,65.1283818 98.0248909,64.9679336 97.9253273,64.8676798 L80.9283585,53.7124306 C80.8765396,53.661946 80.8057238,53.6350983 80.7329873,53.6383615 C80.6602508,53.6416247 80.5921949,53.6747026 80.5452301,53.729619 Z" id="Shape" fill="#2A27D8"></path>
            <path d="M80.9440336,30.3996348 L97.9164948,19.2532251 C97.9697388,19.2044733 98,19.1360104 98,19.0643029 C98,18.9925953 97.9697388,18.9241324 97.9164948,18.8753807 L96.1775131,16.5396153 C96.1281509,16.4870298 96.0588306,16.4571429 95.9862251,16.4571429 C95.9136196,16.4571429 95.8442994,16.4870298 95.7949371,16.5396153 L79.8136955,29.0428299 C79.7142754,29.1430043 79.7142754,29.3033253 79.8136955,29.4034996 C80.0571529,29.712645 80.3006104,30.0389652 80.5440678,30.3652853 C80.5882646,30.4282868 80.65857,30.468581 80.7358835,30.4752208 C80.813197,30.4818606 80.8894894,30.4541564 80.9440336,30.3996348 Z" id="Shape" fill="#2A27D8"></path>
            <path d="M77.47489,26.748286 L91.8289852,12.1674713 C91.8825819,12.1180814 91.9130435,12.0487224 91.9130435,11.9760763 C91.9130435,11.9034302 91.8825819,11.8340712 91.8289852,11.7846814 L89.6233559,9.83593287 C89.5736667,9.78265906 89.5038874,9.75238095 89.430801,9.75238095 C89.3577146,9.75238095 89.2879352,9.78265906 89.238246,9.83593287 L76.1620154,25.4955191 C76.0619369,25.5970046 76.0619369,25.759424 76.1620154,25.8609095 C76.4771053,26.1219026 76.7746902,26.4002952 77.0722751,26.6960874 C77.1138661,26.7624262 77.1831811,26.8067436 77.2611599,26.8168535 C77.3391387,26.8269634 77.4175711,26.8018012 77.47489,26.748286 L77.47489,26.748286 Z" id="Shape" fill="#2A27D8"></path>
            <path d="M74.5449829,24.258743 L85.1773171,6.78272096 C85.2144758,6.72226186 85.2264475,6.64866849 85.2104843,6.57883396 C85.194521,6.50899942 85.1519939,6.44892174 85.0926648,6.41239154 L82.6208164,4.91343909 C82.5606739,4.87613339 82.4884151,4.86633878 82.4211092,4.88636898 C82.3538033,4.90639918 82.2974193,4.95447777 82.2652766,5.0192475 L73.0720322,23.3593715 C73.0088819,23.4862179 73.053858,23.6423745 73.173615,23.7120662 L74.2063736,24.3469166 C74.3238246,24.4157693 74.472457,24.3770655 74.5449829,24.258743 L74.5449829,24.258743 Z" id="Shape" fill="#2A27D8"></path>
            <path d="M70.4062826,22.3799098 L77.2903205,3.08665761 C77.3354749,2.95111549 77.268086,2.80286632 77.138838,2.75341052 L74.4289845,1.84136587 C74.3642633,1.81952789 74.2938237,1.82583148 74.2336232,1.85884862 C74.1734227,1.89186576 74.1285563,1.94880204 74.1091881,2.01675908 L68.7904693,21.8361909 C68.7574527,21.9712741 68.8312765,22.109746 68.9587832,22.1518986 L70.0864863,22.5377637 C70.2165575,22.5848173 70.358823,22.514594 70.4062826,22.3799098 Z" id="Shape" fill="#2A27D8"></path>
        </g>
    </g>
</svg>