<svg id="Layer_1" data-name="Layer 1" xmlns="http://www.w3.org/2000/svg" viewBox="0 0 168.02 72"><defs><style>.cls-1{fill:#2a27d8;}</style></defs><title>Castlight_logo-horz-RGB-blue</title><path class="cls-1" d="M75.57,39.17a.19.19,0,0,0-.26,0,5.22,5.22,0,0,1-3.56,1.28c-3.25,0-5.4-2.47-5.4-5.78s2-5.8,5.37-5.8a5.21,5.21,0,0,1,3.77,1.48.19.19,0,0,0,.27,0l2-2.15a.2.2,0,0,0,0-.27,8.41,8.41,0,0,0-6.11-2.31,8.77,8.77,0,0,0-9,9.08,8.63,8.63,0,0,0,9.08,9,8.11,8.11,0,0,0,5.73-2.23.2.2,0,0,0,0-.28Z"/><path class="cls-1" d="M88.6,42a5.17,5.17,0,0,1-4,1.56,6.59,6.59,0,0,1-6.91-7,6.66,6.66,0,0,1,6.91-7,5.49,5.49,0,0,1,4,1.49V30.09a.19.19,0,0,1,.19-.19h2.81a.19.19,0,0,1,.19.19V43.19a.19.19,0,0,1-.19.19H88.79a.19.19,0,0,1-.19-.19Zm-3.83-1.44a3.67,3.67,0,0,0,3.71-4,3.72,3.72,0,0,0-3.71-4,3.68,3.68,0,0,0-3.73,4A3.71,3.71,0,0,0,84.77,40.61Z"/><path class="cls-1" d="M88.6,42a5.17,5.17,0,0,1-4,1.56,6.59,6.59,0,0,1-6.91-7,6.66,6.66,0,0,1,6.91-7,5.49,5.49,0,0,1,4,1.49V30.09a.19.19,0,0,1,.19-.19h2.81a.19.19,0,0,1,.19.19V43.19a.19.19,0,0,1-.19.19H88.79a.19.19,0,0,1-.19-.19Zm-3.83-1.44a3.67,3.67,0,0,0,3.71-4,3.72,3.72,0,0,0-3.71-4,3.68,3.68,0,0,0-3.73,4A3.71,3.71,0,0,0,84.77,40.61Z"/><path class="cls-1" d="M97.86,34.73c.61.18,1.16.28,1.84.48,2.17.66,3.23,1.71,3.23,4.16,0,2.75-2.27,4.19-4.92,4.19-3.63,0-4.83-2.08-4.82-4.35a.19.19,0,0,1,.19-.19h2.85a.19.19,0,0,1,.19.18,1.49,1.49,0,0,0,1.64,1.63c.88,0,1.59-.43,1.59-1.21s-.4-1.13-1.34-1.39a20.77,20.77,0,0,1-2-.6,3.86,3.86,0,0,1-2.8-4c0-2.27,1.92-3.93,4.62-3.93s4.46,1.37,4.56,4.06a.2.2,0,0,1-.2.2H99.73a.19.19,0,0,1-.19-.18A1.4,1.4,0,0,0,98,32.34c-.81,0-1.34.45-1.34,1.13S97.06,34.51,97.86,34.73Z"/><path class="cls-1" d="M108.06,29.89h1.88a.19.19,0,0,1,.19.19v2.47a.19.19,0,0,1-.19.19h-1.88V39c0,1,.33,1.44,1.29,1.44h.59a.19.19,0,0,1,.19.19v2.53a.19.19,0,0,1-.15.19,8.56,8.56,0,0,1-1.69.15c-2.55,0-3.61-1.29-3.61-3.53V32.74h-1.07a.19.19,0,0,1-.19-.19V30.09a.19.19,0,0,1,.19-.19h1.07V28.72a.19.19,0,0,1,.09-.16l3-1.87a.19.19,0,0,1,.29.16Z"/><path class="cls-1" d="M154,29.89h1.88a.19.19,0,0,1,.19.19v2.47a.19.19,0,0,1-.19.19H154V39c0,1,.33,1.44,1.29,1.44h.59a.19.19,0,0,1,.19.19v2.53a.19.19,0,0,1-.15.18,8.56,8.56,0,0,1-1.69.15c-2.55,0-3.61-1.29-3.61-3.53V32.74h-1.07a.19.19,0,0,1-.19-.19V30.08a.19.19,0,0,1,.19-.19h1.07V28.72a.19.19,0,0,1,.09-.16l3-1.87a.19.19,0,0,1,.29.16Z"/><path class="cls-1" d="M114.86,43.38h-3a.19.19,0,0,1-.19-.19V26.12a.19.19,0,0,1,.19-.19h3a.19.19,0,0,1,.19.19V43.2A.19.19,0,0,1,114.86,43.38Z"/><path class="cls-1" d="M116.69,27a2,2,0,1,1,4,0,2,2,0,0,1-4,0Zm3.51,16.34h-3a.19.19,0,0,1-.19-.19V30.09a.19.19,0,0,1,.19-.19h3a.19.19,0,0,1,.19.19V43.19A.19.19,0,0,1,120.2,43.38Z"/><path class="cls-1" d="M132.95,29.89h2.8a.19.19,0,0,1,.19.19v11c0,5.07-3,6.89-7.21,6.89a10.59,10.59,0,0,1-4.87-1.13.19.19,0,0,1-.08-.24l.94-2.31a.19.19,0,0,1,.26-.1,8.57,8.57,0,0,0,3.77.88c2.12,0,3.81-.86,3.83-2.82V42.1a4.84,4.84,0,0,1-3.73,1.51,6.62,6.62,0,0,1-7-6.94,6.76,6.76,0,0,1,6.86-7,5.51,5.51,0,0,1,4,1.49V30.08A.19.19,0,0,1,132.95,29.89Zm-4,10.72a3.67,3.67,0,0,0,3.71-4,3.73,3.73,0,1,0-7.44,0A3.72,3.72,0,0,0,129,40.61Z"/><path class="cls-1" d="M144.95,34.89c0-1.31-.58-2.14-1.82-2.14s-1.87.86-1.87,2.14v8.31a.19.19,0,0,1-.19.19h-3a.19.19,0,0,1-.19-.19V26.13a.19.19,0,0,1,.19-.19h3a.19.19,0,0,1,.19.19V30.9a3.58,3.58,0,0,1,2.85-1.16c3.15,0,4.21,2.14,4.21,4.74v8.71a.19.19,0,0,1-.19.19h-3a.19.19,0,0,1-.19-.19Z"/><path class="cls-1" d="M24.32,32.95,13.16,30.09a.25.25,0,0,0-.31.19l-.31,1.45a.25.25,0,0,0,.2.3l11.37,1.93a.25.25,0,0,0,.28-.2q0-.25.11-.5A.25.25,0,0,0,24.32,32.95Z"/><path class="cls-1" d="M24.06,35.48,12.33,35a.15.15,0,0,0-.16.15v1.69a.15.15,0,0,0,.16.15l11.73-.49a.15.15,0,0,0,.14-.15v-.71A.15.15,0,0,0,24.06,35.48Z"/><path class="cls-1" d="M24.21,38,12.64,40a.15.15,0,0,0-.12.18l.35,1.65a.15.15,0,0,0,.18.11L24.42,39a.15.15,0,0,0,.11-.18q-.08-.34-.15-.69A.15.15,0,0,0,24.21,38Z"/><path class="cls-1" d="M37.77,24l1.71-11.61a.15.15,0,0,0-.13-.17L37.67,12a.15.15,0,0,0-.16.14l-.74,11.71a.15.15,0,0,0,.14.16l.7.07A.15.15,0,0,0,37.77,24Z"/><path class="cls-1" d="M35.24,23.89,34.5,12.18a.15.15,0,0,0-.16-.14l-1.68.18a.15.15,0,0,0-.13.17L34.23,24a.15.15,0,0,0,.17.12l.7-.07A.15.15,0,0,0,35.24,23.89Z"/><path class="cls-1" d="M32.71,24.21l-3.1-11.1a.25.25,0,0,0-.32-.17l-1.4.46a.25.25,0,0,0-.16.33l4,10.8a.25.25,0,0,0,.32.15l.48-.16A.25.25,0,0,0,32.71,24.21Z"/><path class="cls-1" d="M30.33,25.15,25,14.95a.25.25,0,0,0-.35-.1l-1.28.74a.25.25,0,0,0-.09.35l6.17,9.73a.25.25,0,0,0,.34.08l.44-.26A.25.25,0,0,0,30.33,25.15Z"/><path class="cls-1" d="M28.19,26.57l-7.35-8.87a.25.25,0,0,0-.36,0l-1.1,1a.25.25,0,0,0,0,.36l8.06,8.23a.25.25,0,0,0,.35,0l.38-.34A.25.25,0,0,0,28.19,26.57Z"/><path class="cls-1" d="M26.41,28.4l-9-7.16a.25.25,0,0,0-.36,0l-.87,1.2a.25.25,0,0,0,.06.35l9.59,6.38a.25.25,0,0,0,.34-.07l.3-.41A.25.25,0,0,0,26.41,28.4Z"/><path class="cls-1" d="M25,30.56,14.72,25.44a.25.25,0,0,0-.34.12l-.6,1.35a.25.25,0,0,0,.14.34l10.71,4.24a.25.25,0,0,0,.32-.14l.21-.46A.25.25,0,0,0,25,30.56Z"/><path class="cls-1" d="M24.71,40.47l-10.9,4.32a.15.15,0,0,0-.08.2l.68,1.54a.15.15,0,0,0,.21.07l10.5-5.21a.15.15,0,0,0,.07-.2c-.1-.21-.2-.42-.29-.64A.15.15,0,0,0,24.71,40.47Z"/><path class="cls-1" d="M25.89,42.72l-9.76,6.49a.15.15,0,0,0,0,.21l1,1.37a.15.15,0,0,0,.21,0l9.19-7.28a.15.15,0,0,0,0-.21c-.14-.19-.29-.37-.42-.57A.15.15,0,0,0,25.89,42.72Z"/><path class="cls-1" d="M27.51,44.68l-8.2,8.38a.15.15,0,0,0,0,.21l1.26,1.13a.15.15,0,0,0,.21,0l7.47-9a.15.15,0,0,0,0-.2c-.18-.15-.35-.31-.52-.48A.15.15,0,0,0,27.51,44.68Z"/><path class="cls-1" d="M29.5,46.25l-6.28,9.9a.15.15,0,0,0,.05.21l1.46.84a.15.15,0,0,0,.21-.06l5.43-10.39a.15.15,0,0,0-.06-.2l-.61-.35A.15.15,0,0,0,29.5,46.25Z"/><path class="cls-1" d="M31.77,47.37l-4.09,11a.15.15,0,0,0,.09.19l1.61.52a.15.15,0,0,0,.19-.1l3.16-11.3a.15.15,0,0,0-.1-.18L32,47.29A.15.15,0,0,0,31.77,47.37Z"/><path class="cls-1" d="M34.23,48l-1.71,11.6a.15.15,0,0,0,.13.17l1.68.18a.15.15,0,0,0,.17-.14l.74-11.71A.15.15,0,0,0,35.1,48l-.7-.07A.15.15,0,0,0,34.23,48Z"/><path class="cls-1" d="M36.76,48.11l.74,11.71a.15.15,0,0,0,.16.14l1.68-.18a.15.15,0,0,0,.13-.17L37.77,48a.15.15,0,0,0-.16-.12l-.7.07A.15.15,0,0,0,36.76,48.11Z"/><path class="cls-1" d="M39.27,47.69,42.42,59a.15.15,0,0,0,.19.1l1.6-.52a.15.15,0,0,0,.1-.2l-4.08-11a.15.15,0,0,0-.19-.09l-.67.22A.15.15,0,0,0,39.27,47.69Z"/><path class="cls-1" d="M42.3,46.2l-.61.36a.15.15,0,0,0-.06.2l5.44,10.39a.15.15,0,0,0,.21.06l1.46-.85a.15.15,0,0,0,.05-.21L42.5,46.25A.15.15,0,0,0,42.3,46.2Z"/><path class="cls-1" d="M44.29,44.67c-.17.16-.34.32-.52.48a.15.15,0,0,0,0,.2l7.47,9a.15.15,0,0,0,.21,0l1.26-1.13a.15.15,0,0,0,0-.21l-8.2-8.38A.15.15,0,0,0,44.29,44.67Z"/><path class="cls-1" d="M45.91,42.76c-.13.19-.28.38-.42.57a.15.15,0,0,0,0,.21l9.19,7.28a.15.15,0,0,0,.21,0l1-1.37a.15.15,0,0,0,0-.21l-9.76-6.49A.15.15,0,0,0,45.91,42.76Z"/><path class="cls-1" d="M46.11,29.28l9.76-6.49a.15.15,0,0,0,0-.22l-1-1.36a.15.15,0,0,0-.22,0l-9.19,7.28a.15.15,0,0,0,0,.21c.14.18.28.37.42.56A.15.15,0,0,0,46.11,29.28Z"/><path class="cls-1" d="M44.49,27.32l8.2-8.38a.15.15,0,0,0,0-.22L51.43,17.6a.15.15,0,0,0-.22,0l-7.47,9a.15.15,0,0,0,0,.21c.18.15.35.31.52.48A.15.15,0,0,0,44.49,27.32Z"/><path class="cls-1" d="M42.5,25.75l6.28-9.91a.15.15,0,0,0-.05-.21l-1.46-.85a.15.15,0,0,0-.21.06L41.63,25.24a.15.15,0,0,0,.06.2l.61.36A.15.15,0,0,0,42.5,25.75Z"/><path class="cls-1" d="M40.23,24.62l4.09-11a.15.15,0,0,0-.09-.19l-1.61-.52a.15.15,0,0,0-.19.1l-3.16,11.3a.15.15,0,0,0,.1.18l.67.22A.15.15,0,0,0,40.23,24.62Z"/></svg>