<?xml version="1.0" encoding="UTF-8"?>
<svg width="40px" height="40px" viewBox="0 0 40 40" version="1.1" xmlns="http://www.w3.org/2000/svg" xmlns:xlink="http://www.w3.org/1999/xlink">
    <!-- Generator: Sketch 48.1 (47250) - http://www.bohemiancoding.com/sketch -->
    <title>noun_423449_cc</title>
    <desc>Created with Sketch.</desc>
    <defs></defs>
    <g id="Artboard-2" stroke="none" stroke-width="1" fill="none" fill-rule="evenodd" transform="translate(-854.000000, -7661.000000)">
        <g id="noun_423449_cc" transform="translate(854.000000, 7661.000000)" fill="#000000" fill-rule="nonzero">
            <path d="M35.9555556,7.53246753 L22.6666667,7.53246753 L22.6666667,3.84415584 C22.6666667,1.81818182 21.2888889,0.207792208 19.5555556,0.207792208 L3.11111111,0.207792208 C1.37777778,0.207792208 0,1.81818182 0,3.84415584 L0,21.7662338 C0,22.2337662 0.222222222,22.6493506 0.533333333,22.9090909 C0.711111111,23.012987 0.888888889,23.0649351 1.11111111,23.0649351 C1.28888889,23.0649351 1.51111111,23.012987 1.64444444,22.9090909 L4.97777778,20.6753247 L7.91111111,20.6753247 L7.91111111,31.5324675 C7.91111111,34.1298701 9.73333333,36.2597403 11.9555556,36.2597403 L33.3777778,36.2597403 L38.3555556,39.5844156 C38.5333333,39.6883117 38.7111111,39.7402597 38.8888889,39.7402597 C39.0666667,39.7402597 39.2888889,39.6883117 39.4666667,39.5844156 C39.8222222,39.3766234 40,38.9090909 40,38.4415584 L40,12.2077922 C40,9.66233766 38.1777778,7.53246753 35.9555556,7.53246753 Z M7.91111111,12.2077922 L7.91111111,18.0779221 L4.71111111,18.0779221 C4.53333333,18.0779221 4.31111111,18.1298701 4.17777778,18.2337662 L2.22222222,19.5324675 L2.22222222,3.84415584 C2.22222222,3.27272727 2.62222222,2.80519481 3.11111111,2.80519481 L19.5555556,2.80519481 C20.0444444,2.80519481 20.4444444,3.27272727 20.4444444,3.84415584 L20.4444444,7.53246753 L11.9111111,7.53246753 C9.68888889,7.53246753 7.91111111,9.66233766 7.91111111,12.2077922 Z M37.7777778,36.2077922 L34.2222222,33.8181818 C34.0444444,33.7142857 33.8666667,33.6623377 33.6888889,33.6623377 L11.9111111,33.6623377 C10.9333333,33.6623377 10.0888889,32.7272727 10.0888889,31.5324675 L10.0888889,12.2077922 C10.0888889,11.0649351 10.8888889,10.0779221 11.9111111,10.0779221 L35.9555556,10.0779221 C36.9333333,10.0779221 37.7777778,11.012987 37.7777778,12.2077922 L37.7777778,36.2077922 Z" id="Shape"></path>
            <path d="M31.4222222,16.8311688 L16.4888889,16.8311688 C15.8666667,16.8311688 15.3777778,17.4025974 15.3777778,18.1298701 C15.3777778,18.8571429 15.8666667,19.4285714 16.4888889,19.4285714 L31.4222222,19.4285714 C32.0444444,19.4285714 32.5333333,18.8571429 32.5333333,18.1298701 C32.5333333,17.4025974 32.0444444,16.8311688 31.4222222,16.8311688 Z" id="Shape"></path>
            <path d="M31.4222222,24.8831169 L16.4888889,24.8831169 C15.8666667,24.8831169 15.3777778,25.4545455 15.3777778,26.1818182 C15.3777778,26.9090909 15.8666667,27.4805195 16.4888889,27.4805195 L31.4222222,27.4805195 C32.0444444,27.4805195 32.5333333,26.9090909 32.5333333,26.1818182 C32.5333333,25.4545455 32.0444444,24.8831169 31.4222222,24.8831169 Z" id="Shape"></path>
        </g>
    </g>
</svg>