<?xml version="1.0" encoding="UTF-8"?>
<svg width="14px" height="12px" viewBox="0 0 14 12" version="1.1" xmlns="http://www.w3.org/2000/svg" xmlns:xlink="http://www.w3.org/1999/xlink">
    <!-- Generator: Sketch 55.2 (78181) - https://sketchapp.com -->
    <title>Artboard</title>
    <desc>Created with Sketch.</desc>
    <defs>
        <path d="M5.33333333,6 L18.3333333,6 L18.3333333,16 L13.5520833,16 L12.2083333,17.375 L11.8333333,17.6875 L11.4583333,17.375 L10.1145833,16 L5.33333333,16 L5.33333333,6 Z M6.33333333,7 L6.33333333,15 L10.5208333,15 L10.7083333,15.125 L11.8333333,16.28125 L12.9583333,15.125 L13.1458333,15 L17.3333333,15 L17.3333333,7 L6.33333333,7 Z M8.33333333,8.5 L15.3333333,8.5 L15.3333333,9.5 L8.33333333,9.5 L8.33333333,8.5 Z M8.33333333,10.5 L15.3333333,10.5 L15.3333333,11.5 L8.33333333,11.5 L8.33333333,10.5 Z M8.33333333,12.5 L13.3333333,12.5 L13.3333333,13.5 L8.33333333,13.5 L8.33333333,12.5 Z" id="path-1"></path>
    </defs>
    <g id="Artboard" stroke="none" stroke-width="1" fill="none" fill-rule="evenodd">
        <g id="SVG/chat" transform="translate(-5.000000, -6.000000)">
            <mask id="mask-2" fill="white">
                <use xlink:href="#path-1"></use>
            </mask>
            <g id=""></g>
            <g id="Color/Castlight/blue50" mask="url(#mask-2)" fill="#FFFFFF" fill-rule="evenodd">
                <rect id="Rectangle" x="0" y="0" width="24" height="24"></rect>
            </g>
        </g>
    </g>
</svg>