<?xml version="1.0" encoding="UTF-8"?>
<svg width="24px" height="24px" viewBox="0 0 24 24" version="1.1" xmlns="http://www.w3.org/2000/svg" xmlns:xlink="http://www.w3.org/1999/xlink">
    <!-- Generator: Sketch 55.2 (78181) - https://sketchapp.com -->
    <title>claim_chat_icon</title>
    <desc>Created with Sketch.</desc>
    <g id="claim_chat_icon" stroke="none" stroke-width="1" fill="none" fill-rule="evenodd">
        <path d="M6,10 L18,10 L18,11.5 L6,11.5 L6,10 Z M6,13 L14,13 L14,14.5 L6,14.5 L6,13 Z M0.148313679,11.9020057 C0.148313679,5.33777214 5.49677638,0 12.0741568,0 C18.6515373,0 24,5.33777214 24,11.9020057 C24,18.4662392 18.6515373,23.8040114 12.0741568,23.8040114 C10.0854129,23.8040114 8.1302072,23.3078873 6.39032825,22.3650703 L0,24 L1.52355132,17.4482908 C0.622506177,15.7433937 0.148313679,13.8354395 0.148313679,11.9020057 Z M3.1745553,17.2155691 L2.09415876,21.8615852 L6.61749437,20.7043151 L6.78813292,20.8054586 C8.38421612,21.7515034 10.2122169,22.2515758 12.0741568,22.2515758 C17.7924337,22.2515758 22.4444552,17.6088527 22.4444552,11.9020057 C22.4444552,6.19515861 17.7924337,1.55243552 12.0741568,1.55243552 C6.35588003,1.55243552 1.70385844,6.19515861 1.70385844,11.9020057 C1.70385844,13.7061239 2.17900666,15.4853091 3.0774516,17.0466829 L3.1745553,17.2155691 Z" id="Combined-Shape" fill="#216FC1"></path>
    </g>
</svg>