<?xml version="1.0" encoding="UTF-8"?>
<svg width="231px" height="231px" viewBox="0 0 231 231" version="1.1" xmlns="http://www.w3.org/2000/svg" xmlns:xlink="http://www.w3.org/1999/xlink">
    <!-- Generator: Sketch 55.2 (78181) - https://sketchapp.com -->
    <title>Artboard</title>
    <desc>Created with Sketch.</desc>
    <g id="Artboard" stroke="none" stroke-width="1" fill="none" fill-rule="evenodd">
        <circle id="Oval" fill="#F3F3F3" cx="115.5" cy="115.5" r="115.5"></circle>
        <g id="Group" transform="translate(31.000000, 73.000000)" fill-rule="nonzero" stroke="#4A4A4A" stroke-width="8">
            <path d="M0,96 C0.39968652,81.8851064 11.8573668,69.4851064 28.9106583,65 C32.9075235,67.2425532 37.5705329,68.4297872 42.5,68.4297872 C47.4294671,68.4297872 52.0924765,67.1106383 56.0893417,65 C73.1426332,69.4851064 84.6003135,81.8851064 85,96" id="Path"></path>
            <path d="M43,51 C29.3031915,51 18,39.8 18,25.9333333 C18,12.0666667 29.3031915,1 43,1 C56.6968085,1 68,12.2 68,25.9333333 C68,39.6666667 56.6968085,51 43,51 Z" id="Path"></path>
            <path d="M85,95 C85.3996865,80.8851064 96.8573668,68.4851064 113.910658,64 C117.907524,66.2425532 122.570533,67.4297872 127.5,67.4297872 C132.429467,67.4297872 137.092476,66.1106383 141.089342,64 C158.142633,68.4851064 169.600313,80.8851064 170,95" id="Path"></path>
            <path d="M128,50 C114.303191,50 103,38.8 103,24.9333333 C103,11.0666667 114.303191,0 128,0 C141.696809,0 153,11.2 153,24.9333333 C153,38.6666667 141.696809,50 128,50 Z" id="Path"></path>
        </g>
        <circle id="Oval" fill="#FF7878" cx="186.5" cy="32.5" r="27.5"></circle>
    </g>
</svg>