<?xml version="1.0" encoding="UTF-8"?>
<svg width="36px" height="36px" viewBox="0 0 36 36" version="1.1" xmlns="http://www.w3.org/2000/svg" xmlns:xlink="http://www.w3.org/1999/xlink">            
        <path fill="#FFFFFF" d="M18.3739388,24.9369879 L18.3739388,20.1622684 C19.0087396,20.4938808 20.2229894,21.0733298 20.2229894,22.6740451 C20.2229894,24.1914834 19.1747951,24.7165778 18.3739388,24.9369879 L18.3739388,24.9369879 Z M17.049484,16.300605 C16.4416111,16.0233471 15.1740041,15.4443968 15.1740041,13.9538865 C15.1740041,12.3267418 16.4984589,11.9402763 17.049484,11.802146 L17.049484,16.300605 Z M18.5669222,16.9069819 L18.5669222,11.802146 C19.7537455,11.802146 21.5479429,12.9056922 21.7125024,12.9056922 C21.8237048,12.9056922 21.9059845,12.8234124 21.961835,12.6852821 L22.8170459,10.8088049 C22.8723977,10.6976026 22.8993256,10.6153228 22.8993256,10.5046191 C22.8993256,9.56712854 19.3682772,8.96025297 18.5669222,8.90440246 L18.5669222,7.55252106 C18.5669222,7.08227976 18.4836452,7 17.9879719,7 L17.4359495,7 C16.9397776,7 16.8569992,7.08227976 16.8569992,7.55252106 L16.8569992,8.90440246 C15.5868989,8.96025297 12,10.1186523 12,14.1747951 C12,17.8175446 15.1740041,18.7834591 16.8569992,19.5279662 L16.8569992,24.9369879 C15.1740041,24.7435058 13.3244548,23.6668875 13.158898,23.6668875 C13.0481943,23.6668875 12.9374906,23.8329431 12.910064,23.8887936 L12.1107037,26.2060908 C12.0553518,26.3716477 12.0553518,26.3716477 12.0553518,26.4549248 C12.0553518,27.2817117 15.9180126,27.9170112 16.8569992,27.9170112 L16.8569992,29.1576903 C16.8569992,29.6279316 16.9397776,29.7102113 17.4359495,29.7102113 L17.9879719,29.7102113 C18.4836452,29.7102113 18.5669222,29.6279316 18.5669222,29.1576903 L18.5669222,27.9170112 C20.3890449,27.6133241 23.3954975,26.3432238 23.3954975,22.5084882 C23.3954975,18.9769412 20.3616184,17.790118 18.5669222,16.9069819 L18.5669222,16.9069819 Z" id="path-1"></path>
</svg>