<?xml version="1.0" encoding="UTF-8"?>
<svg width="393px" height="504px" viewBox="0 0 393 504" version="1.1" xmlns="http://www.w3.org/2000/svg" xmlns:xlink="http://www.w3.org/1999/xlink">
    <!-- Generator: Sketch 48.2 (47327) - http://www.bohemiancoding.com/sketch -->
    <title>Artboard Copy 3</title>
    <desc>Created with Sketch.</desc>
    <defs>
        <polygon id="path-1" points="0 0.469760571 0 72.4440389 39.4457243 72.4440389 39.4457243 0.469760571 7.13665855e-20 0.469760571"></polygon>
    </defs>
    <g id="Various-flows-" stroke="none" stroke-width="1" fill="none" fill-rule="evenodd">
        <g id="Artboard-Copy-3">
            <g id="drawable-land-xxxhdpi-screen">
                <g id="Engage-Splash-Screen-Logo">
                    <g id="Engage-Logo---Splash-Screen-Copy" transform="translate(10.757532, 429.618406)">
                        <g id="Group-16" transform="translate(0.000000, 0.729899)">
                            <mask id="mask-2" fill="white">
                                <use xlink:href="#path-1"></use>
                            </mask>
                            <g id="Clip-15"></g>
                            <polygon id="Fill-14" fill="#102110" mask="url(#mask-2)" points="39.4457243 72.4440389 -0.00131648114 72.4440389 -0.00131648114 0.469760571 39.4457243 0.469760571 39.4457243 7.90420138 8.22669063 7.90420138 8.22669063 31.091301 37.5578904 31.091301 37.5578904 38.4748577 8.22669063 38.4748577 8.22669063 64.9613921 39.4457243 64.9613921"></polygon>
                        </g>
                        <path d="M111.776358,73.1739381 L102.387214,73.1739381 L63.7142642,12.7691066 L63.3272188,12.7691066 C63.8432794,19.8580708 64.1039426,26.3578503 64.1039426,32.2630888 L64.1039426,73.1739381 L56.5052135,73.1739381 L56.5052135,1.19965976 L65.7969374,1.19965976 L104.372468,61.358105 L104.759513,61.358105 C104.693689,60.4716497 104.548876,57.6248159 104.322441,52.8176036 C104.096007,48.0103914 104.017018,44.5716947 104.080209,42.5041917 L104.080209,1.19965976 L111.776358,1.19965976 L111.776358,73.1739381 Z" id="Fill-17" fill="#102110"></path>
                        <path d="M160.977207,35.4639691 L185.031951,35.4639691 L185.031951,70.4669018 C181.287878,71.6800869 177.480615,72.5986795 173.61016,73.2226798 C169.737073,73.84668 165.253138,74.1573411 160.155723,74.1573411 C149.442199,74.1573411 141.100975,70.9168248 135.132049,64.4357921 C129.163124,57.9547594 126.177345,48.8706011 126.177345,37.1859955 C126.177345,29.7033487 127.654437,23.1473288 130.605987,17.5206141 C133.557538,11.8912212 137.809772,7.59285036 143.360057,4.62282339 C148.910341,1.65011831 155.411125,0.166443884 162.865041,0.166443884 C170.416377,0.166443884 177.449019,1.57780927 183.968234,4.40054004 L180.771818,11.7840967 C174.384251,9.02831875 168.236284,7.64909072 162.333183,7.64909072 C153.71813,7.64909072 146.990912,10.2575725 142.148894,15.4772141 C137.309509,20.6941776 134.889817,27.9331162 134.889817,37.1859955 C134.889817,46.9021883 137.219989,54.2696763 141.882965,59.2911376 C146.545941,64.3125989 153.394276,66.8219905 162.427969,66.8219905 C167.333178,66.8219905 172.125169,66.2488744 176.803943,65.099964 L176.803943,42.9466159 L160.977207,42.9466159 L160.977207,35.4639691 Z" id="Fill-19" fill="#102110"></path>
                        <path d="M239.255702,42.7500424 L231.027695,20.4493981 C229.963978,17.6266673 228.866033,14.1638676 227.736492,10.060999 C227.025592,13.2131376 226.009269,16.6759373 224.687522,20.4493981 L216.362095,42.7500424 L239.255702,42.7500424 Z M250.630099,73.1734025 L241.820207,50.2808953 L213.457938,50.2808953 L204.745466,73.1734025 L196.422672,73.1734025 L224.397896,0.904531739 L231.317321,0.904531739 L259.147732,73.1734025 L250.630099,73.1734025 Z" id="Fill-21" fill="#102110"></path>
                        <path d="M297.2438,35.4639691 L321.298543,35.4639691 L321.298543,70.4669018 C317.554471,71.6800869 313.747208,72.5986795 309.876753,73.2226798 C306.003666,73.84668 301.519731,74.1573411 296.422316,74.1573411 C285.708792,74.1573411 277.367568,70.9168248 271.398642,64.4357921 C265.429717,57.9547594 262.443938,48.8706011 262.443938,37.1859955 C262.443938,29.7033487 263.92103,23.1473288 266.87258,17.5206141 C269.824131,11.8912212 274.076365,7.59285036 279.62665,4.62282339 C285.176934,1.65011831 291.677718,0.166443884 299.131634,0.166443884 C306.68297,0.166443884 313.715612,1.57780927 320.234827,4.40054004 L317.03841,11.7840967 C310.650844,9.02831875 304.502877,7.64909072 298.599776,7.64909072 C289.984723,7.64909072 283.257504,10.2575725 278.415487,15.4772141 C273.576102,20.6941776 271.15641,27.9331162 271.15641,37.1859955 C271.15641,46.9021883 273.486581,54.2696763 278.149558,59.2911376 C282.812534,64.3125989 289.660869,66.8219905 298.694562,66.8219905 C303.599771,66.8219905 308.391762,66.2488744 313.070536,65.099964 L313.070536,42.9466159 L297.2438,42.9466159 L297.2438,35.4639691 Z" id="Fill-23" fill="#102110"></path>
                        <polygon id="Fill-25" fill="#102110" points="376.355628 73.1739381 336.91122 73.1739381 336.91122 1.19965976 376.355628 1.19965976 376.355628 8.63410057 345.136594 8.63410057 345.136594 31.8212002 374.467794 31.8212002 374.467794 39.2047569 345.136594 39.2047569 345.136594 65.6912913 376.355628 65.6912913"></polygon>
                    </g>
                    <g id="Page-1">
                        <path d="M389.37782,167.796897 C389.37782,170.226879 387.412365,172.196218 384.988818,172.196218 C382.564536,172.196218 380.59908,170.226879 380.59908,167.796897 C380.59908,165.366916 382.564536,163.397577 384.988818,163.397577 C387.412365,163.397577 389.37782,165.366916 389.37782,167.796897" id="Fill-1" fill="#FFFFFF"></path>
                        <path d="M179.766817,329.622245 C179.766817,329.622245 268.978492,302.69124 297.670612,258.229284 C286.13597,262.663245 285.980086,262.732525 276.683695,265.457318 C197.250767,320.093209 179.766817,329.622245 179.766817,329.622245" id="Fill-3" fill="#002E58"></path>
                        <path d="M392.402989,140.662177 C392.402989,142.160555 391.191216,143.37444 389.697087,143.37444 C388.202224,143.37444 386.99045,142.160555 386.99045,140.662177 C386.99045,139.163799 388.202224,137.949913 389.697087,137.949913 C391.191216,137.949913 392.402989,139.163799 392.402989,140.662177" id="Fill-5" fill="#2697D3"></path>
                        <path d="M389.37782,167.796897 C389.37782,170.226879 387.412365,172.196218 384.988818,172.196218 C382.564536,172.196218 380.59908,170.226879 380.59908,167.796897 C380.59908,165.366916 382.564536,163.397577 384.988818,163.397577 C387.412365,163.397577 389.37782,165.366916 389.37782,167.796897" id="Fill-8" fill="#2697D3"></path>
                        <path d="M390.838787,189.605632 C390.838787,192.035613 388.873331,194.004952 386.449784,194.004952 C384.025502,194.004952 382.060047,192.035613 382.060047,189.605632 C382.060047,187.17565 384.025502,185.206311 386.449784,185.206311 C388.873331,185.206311 390.838787,187.17565 390.838787,189.605632" id="Fill-10" fill="#0079C2"></path>
                        <path d="M372.58064,172.163715 C372.58064,173.378337 371.59828,174.363744 370.385771,174.363744 C369.173997,174.363744 368.191637,173.378337 368.191637,172.163715 C368.191637,170.949093 369.173997,169.963686 370.385771,169.963686 C371.59828,169.963686 372.58064,170.949093 372.58064,172.163715" id="Fill-12" fill="#2697D3"></path>
                        <path d="M382.517256,154.650675 C382.517256,155.768746 381.613573,156.674554 380.498124,156.674554 C379.382674,156.674554 378.478991,155.768746 378.478991,154.650675 C378.478991,153.532603 379.382674,152.626796 380.498124,152.626796 C381.613573,152.626796 382.517256,153.532603 382.517256,154.650675" id="Fill-14" fill="#0079C2"></path>
                        <path d="M199.192399,0.138119061 C212.252787,53.822507 242.092709,100.951767 240.516227,130.688639 C238.939745,160.425511 202.429187,200.07541 169.905422,222.023369 C148.807475,236.262015 65.0355446,281.699796 27.4933609,305.381245 C12.4873699,315.055475 -0.000220589833,326.931209 -0.000220589833,345.132854 C-0.000220589833,368.572558 18.9572697,387.574616 42.3419979,387.574616 C53.4891374,387.574616 129.164686,357.828899 179.012105,330.011249 C228.860261,302.194335 273.812792,277.137592 304.251983,234.205706 C327.875684,201.029125 339.216207,176.063036 340.956661,137.568796 C343.10447,27.0131108 243.355954,-2.30439198 199.192399,0.138119061" id="Fill-16" fill="#50B648"></path>
                        <path d="M199.244973,0.147553021 C199.244973,0.147553021 240.814391,56.0791396 240.652625,130.850638 C240.480565,131.162401 235.970239,114.937465 215.944358,107.915798 C221.938519,81.9090255 199.244973,0.147553021 199.244973,0.147553021" id="Fill-19" fill="#002E58"></path>
                        <path d="M176.17782,217.709028 C176.17782,217.709028 201.610357,263.717269 276.33884,265.534043 C253.687205,290.392526 179.676375,329.605367 179.676375,329.605367 C179.676375,329.605367 123.403173,317.300684 87.0823219,270.362314 C135.205465,243.267688 176.17782,217.709028 176.17782,217.709028" id="Fill-21" fill="#319041"></path>
                        <path d="M216.070168,107.969749 C222.064329,81.962976 199.269311,0.1233785 199.269311,0.1233785 C199.269311,0.1233785 172.90662,-1.3204595 142.251251,10.8014413 C79.4765315,39.6759902 57.7374035,99.9228761 55.2307677,107.519425 C52.6616314,115.133662 50.7880885,122.950581 49.4358728,130.782242 C35.2497406,220.440233 87.0332039,270.362093 87.0332039,270.362093 C87.0332039,270.362093 168.220557,225.440968 176.242674,217.578353 C172.408087,209.736374 152.14397,186.646759 156.680032,143.257179 C159.19255,119.225641 180.161084,107.473729 199.310488,106.360816 C207.584812,105.74982 215.794431,107.924053 216.070168,107.969749" id="Fill-23" fill="#0079C2"></path>
                        <path d="M377.784942,188.780013 C373.491529,188.780013 371.163571,191.128184 368.911349,195.744191 C363.947342,205.117714 347.921491,224.163994 333.844183,236.798866 C329.135325,240.995504 315.894053,250.411774 297.654215,258.255227 C268.943713,302.701705 179.766596,329.622393 179.766596,329.622393 C179.766596,329.622393 180.263659,329.351166 181.466608,328.641408 C180.85631,328.981915 180.247482,329.322422 179.636448,329.662929 C193.224782,333.121802 208.218273,335.349838 224.765452,335.865021 C268.807682,335.06903 324.325731,301.357366 354.39139,261.217343 C370.176799,239.873747 381.368792,213.831597 384.289401,205.427266 C384.682786,204.295191 386.662948,200.050646 386.937214,197.953801 C387.594572,192.930218 382.839391,188.780013 377.784942,188.780013" id="Fill-25" fill="#0079C2"></path>
                    </g>
                </g>
            </g>
        </g>
    </g>
</svg>