<?xml version="1.0" encoding="UTF-8"?>
<svg width="23px" height="24px" viewBox="0 0 23 24" version="1.1" xmlns="http://www.w3.org/2000/svg" xmlns:xlink="http://www.w3.org/1999/xlink">
    <!-- Generator: Sketch 49.3 (51167) - http://www.bohemiancoding.com/sketch -->
    <title>clear - Jiff-Icon-Font</title>
    <desc>Created with Sketch.</desc>
    <defs></defs>
    <g id="Programs-and-Benefits" stroke="none" stroke-width="1" fill="none" fill-rule="evenodd">
        <path d="M17.3398438,17.2158203 C17.4296879,17.1110021 17.4783528,16.9912116 17.4858398,16.8564453 C17.4933269,16.721679 17.444662,16.6018885 17.3398438,16.4970703 L12.9599609,11.9599609 L17.3623047,7.35546875 C17.4521489,7.26562455 17.4933269,7.14957753 17.4858398,7.00732422 C17.4783528,6.8650709 17.4296879,6.74902389 17.3398438,6.65917969 L16.53125,5.89550781 C16.4414058,5.80566361 16.3291022,5.76074219 16.1943359,5.76074219 C16.0595696,5.76074219 15.9397792,5.81315052 15.8349609,5.91796875 L11.5,10.4550781 L7.16503906,5.91796875 C7.06022083,5.81315052 6.94043036,5.76074219 6.80566406,5.76074219 C6.67089776,5.76074219 6.5585942,5.80566361 6.46875,5.89550781 L5.66015625,6.65917969 C5.57031205,6.74902389 5.52164717,6.8650709 5.51416016,7.00732422 C5.50667314,7.14957753 5.54785111,7.26562455 5.63769531,7.35546875 L10.0400391,11.9599609 L5.66015625,16.4970703 C5.55533802,16.6018885 5.50667314,16.721679 5.51416016,16.8564453 C5.52164717,16.9912116 5.57031205,17.1110021 5.66015625,17.2158203 L6.44628906,17.9794922 C6.55110729,18.0693364 6.67089776,18.1142578 6.80566406,18.1142578 C6.94043036,18.1142578 7.06022083,18.0618495 7.16503906,17.9570312 L11.5,13.4648438 L15.8349609,17.9570312 C15.9397792,18.0618495 16.0595696,18.1142578 16.1943359,18.1142578 C16.3291022,18.1142578 16.4488927,18.0693364 16.5537109,17.9794922 L17.3398438,17.2158203 Z M11.5,0.4375 C13.0872475,0.4375 14.5808849,0.736976172 15.980957,1.3359375 C17.3810291,1.93489883 18.6013945,2.75471485 19.6420898,3.79541016 C20.6827852,4.83610546 21.5026012,6.05647086 22.1015625,7.45654297 C22.7005238,8.85661507 23,10.3502525 23,11.9375 C23,13.5247475 22.7005238,15.0183849 22.1015625,16.418457 C21.5026012,17.8185291 20.6827852,19.0388945 19.6420898,20.0795898 C18.6013945,21.1202852 17.3810291,21.9401012 15.980957,22.5390625 C14.5808849,23.1380238 13.0872475,23.4375 11.5,23.4375 C9.91275248,23.4375 8.41911507,23.1380238 7.01904297,22.5390625 C5.61897086,21.9401012 4.39860546,21.1202852 3.35791016,20.0795898 C2.31721485,19.0388945 1.49739883,17.8185291 0.8984375,16.418457 C0.299476172,15.0183849 0,13.5247475 0,11.9375 C0,10.3502525 0.299476172,8.85661507 0.8984375,7.45654297 C1.49739883,6.05647086 2.31721485,4.83610546 3.35791016,3.79541016 C4.39860546,2.75471485 5.61897086,1.93489883 7.01904297,1.3359375 C8.41911507,0.736976172 9.91275248,0.4375 11.5,0.4375 Z" id="clear---Jiff-Icon-Font" fill="#1D1E20"></path>
    </g>
</svg>