<?xml version="1.0" encoding="UTF-8"?>
<svg width="50px" height="50px" viewBox="0 0 50 50" version="1.1" xmlns="http://www.w3.org/2000/svg" xmlns:xlink="http://www.w3.org/1999/xlink">
    <!-- Generator: Sketch 53.2 (72643) - https://sketchapp.com -->
    <title>faq_icon</title>
    <desc>Created with Sketch.</desc>
    <g id="v1" stroke="none" stroke-width="1" fill="none" fill-rule="evenodd">
        <g id="faq_icon" fill="#000000" fill-rule="nonzero">
            <path d="M0.515,25 C0.515,38.502 11.499,49.487 25.001,49.487 C38.503,49.487 49.487,38.503 49.487,25 C49.487,11.498 38.503,0.514 25.001,0.514 C11.499,0.514 0.515,11.499 0.515,25 Z M46.487,25 C46.487,36.849 36.848,46.487 25.001,46.487 C13.154,46.487 3.515,36.849 3.515,25 C3.515,13.152 13.154,3.514 25.001,3.514 C36.848,3.514 46.487,13.153 46.487,25 Z" id="Shape"></path>
            <path d="M22.143,31.33 C22.156,29.482 22.369,28.161 22.783,27.366 C23.196,26.571 24.114,25.573 25.536,24.371 C26.544,23.389 27.345,22.449 27.939,21.55 C28.533,20.652 28.831,19.66 28.831,18.574 C28.831,17.321 28.492,16.348 27.813,15.657 C27.134,14.966 26.168,14.62 24.915,14.62 C23.843,14.62 22.932,14.914 22.182,15.502 C21.433,16.09 21.058,16.96 21.058,18.109 L16.522,18.109 L16.463,17.993 C16.425,15.693 17.196,13.899 18.779,12.613 C20.362,11.327 22.408,10.684 24.915,10.684 C27.629,10.684 29.745,11.375 31.264,12.758 C32.783,14.141 33.542,16.06 33.542,18.516 C33.542,20.157 33.066,21.679 32.117,23.081 C31.167,24.483 29.968,25.766 28.52,26.929 C27.784,27.575 27.322,28.19 27.134,28.771 C26.946,29.353 26.853,30.206 26.853,31.33 L22.143,31.33 L22.143,31.33 Z M26.931,39.317 L22.123,39.317 L22.123,34.8 L26.931,34.8 L26.931,39.317 Z" id="Shape"></path>
        </g>
    </g>
</svg>