<?xml version="1.0" encoding="UTF-8"?>
<svg width="38px" height="45px" viewBox="0 0 38 45" version="1.1" xmlns="http://www.w3.org/2000/svg" xmlns:xlink="http://www.w3.org/1999/xlink">
    <!-- Generator: Sketch 55.2 (78181) - https://sketchapp.com -->
    <title>Artboard</title>
    <desc>Created with Sketch.</desc>
    <defs>
        <linearGradient x1="50.0001583%" y1="100.00015%" x2="50.0001583%" y2="0.0041204196%" id="linearGradient-1">
            <stop stop-color="#808080" stop-opacity="0.25" offset="0%"></stop>
            <stop stop-color="#808080" stop-opacity="0.12" offset="54%"></stop>
            <stop stop-color="#808080" stop-opacity="0.1" offset="100%"></stop>
        </linearGradient>
        <linearGradient x1="50%" y1="100%" x2="50%" y2="0%" id="linearGradient-2">
            <stop stop-color="#808080" stop-opacity="0.25" offset="0%"></stop>
            <stop stop-color="#808080" stop-opacity="0.12" offset="54%"></stop>
            <stop stop-color="#808080" stop-opacity="0.1" offset="100%"></stop>
        </linearGradient>
    </defs>
    <g id="Artboard" stroke="none" stroke-width="1" fill="none" fill-rule="evenodd">
        <g id="illustration/giftbox" transform="translate(0.000000, -1.000000)">
            <path d="M8.22307345,8.16919333 C3.61671784,10.5542149 -2.24711773,15.7039895 -1.00369915,24.9009573 C0.0661566202,33.0863165 1.91497532,39.017234 7.58799398,40.7267755 C17.6749108,43.7664277 34.6093424,44.4155189 37.9574645,28.2918496 C38.7348203,24.5483098 37.763445,11.0641036 25.8259098,6.91117638 C20.6949797,5.12618521 11.9601983,6.56467712 8.22307345,8.16919333 Z" id="Fill-1" fill="#E5F0FF" transform="translate(18.492841, 24.263286) rotate(-87.000000) translate(-18.492841, -24.263286) "></path>
            <path d="M37.082929,11.1534001 C36.876515,10.6554666 33.3738372,9.90537036 32.4062355,11.8069777 C31.4386338,13.7085851 33.2125221,14.4813727 34.7178409,13.7680303 C36.2228707,13.0550074 37.6741287,12.5797654 37.082929,11.1534001" id="Fill-3" fill="#559CFF"></path>
            <path d="M6.66785846,12.1098206 C6.68282356,11.9453868 7.05524619,9.03902829 4.34315321,10.5579988 C1.63087079,12.0767918 1.77180794,13.7277 2.58200712,14.156897 C3.39201687,14.5862717 4.73054094,15.411637 5.36456868,14.6193005 C5.99859642,13.8267864 6.56215559,13.2654741 6.66785846,12.1098206" id="Fill-5" fill="#559CFF"></path>
            <path d="M24.4528589,3.68 C24.4528589,3.68 23.0529806,2.33207559 24.370487,1.4474294 C25.6879935,0.562783218 26.7174199,1.86879737 26.2231889,2.54275957 C25.7291794,3.21672178 24.4528589,3.68 24.4528589,3.68" id="Fill-7" fill="#559CFF"></path>
            <path d="M30.75625,44.275 C30.75625,45.1007279 25.5795521,45.77 19.1938243,45.77 C12.8079479,45.77 7.63125,45.1007279 7.63125,44.275 C7.63125,43.4492721 12.8079479,42.78 19.1938243,42.78 C25.5795521,42.78 30.75625,43.4492721 30.75625,44.275" id="Fill-1" fill="#CFD3E0"></path>
            <g id="gift" stroke-width="1" transform="translate(7.631250, 15.410000)">
                <g id="Group" opacity="0.5" transform="translate(6.706250, 0.000000)" fill="url(#linearGradient-1)" fill-rule="nonzero">
                    <path d="M10.2515446,0.652205542 C9.73805184,0.185158519 8.98930775,-0.000721865569 8.14184567,0.128853004 C7.35011148,0.25012642 6.55797924,0.638851029 5.91272981,1.22356214 C5.72552859,1.39434711 5.5682058,1.59006558 5.44620771,1.80394206 C5.32737052,1.58295668 5.17132209,1.38009035 4.98366617,1.20262804 L4.98366617,1.20262804 C4.34677592,0.608171742 3.56379898,0.207175418 2.77445313,0.0732693553 C1.93097161,-0.0711037586 1.17904307,0.104309575 0.656793065,0.563416077 C0.134543064,1.02252258 -0.0816015626,1.69854968 0.0497570504,2.46589278 C0.172358422,3.18775835 0.587929307,3.90962392 1.22481955,4.50480209 C2.56149295,5.75507325 5.22886891,5.26673119 5.34191693,5.24507523 L5.37535367,5.23893937 L5.47805222,5.2602344 C5.59070218,5.2833341 8.24812673,5.81318343 9.6078874,4.5842073 C10.2547291,3.99985712 10.6858241,3.28268368 10.8223575,2.5651493 C10.9676481,1.798889 10.7650374,1.11925257 10.2515446,0.652205542 Z M4.89012291,4.52320966 C4.24566959,4.601893 2.63911395,4.70872911 1.84140892,3.96268104 C1.32871227,3.48300137 0.993150725,2.90911824 0.897617189,2.34750683 C0.81004478,1.83498228 0.937422829,1.39933641 1.25347961,1.12033536 C1.37746218,1.01235372 1.52574867,0.929980363 1.6881572,0.878871331 C1.95405888,0.793330261 2.27051372,0.777449218 2.61642474,0.836281262 C3.23261605,0.940590837 3.85438015,1.26254288 4.36787291,1.74222255 C5.16557794,2.49007528 4.99680203,3.94282974 4.89012291,4.52320966 Z M9.97648763,2.43232604 C9.87020657,2.99249372 9.5238975,3.56060192 9.00204555,4.03234107 C8.19001049,4.76611742 6.58584319,4.63401602 5.94338015,4.54522656 C5.84744856,3.96195918 5.70693465,2.50703912 6.51857165,1.77326277 C7.0404236,1.30152362 7.66815855,0.989677695 8.28634014,0.894752373 C8.63344532,0.841695254 8.94950211,0.862268422 9.21381156,0.951779753 C9.37519074,1.00546304 9.52184712,1.09017552 9.64371247,1.20010151 C9.95539064,1.48487748 10.0736134,1.92232801 9.97648763,2.4330479 L9.97648763,2.43232604 Z" id="Shape"></path>
                </g>
                <path d="M11.8153922,5.12874391 L11.5731171,5.17926532 C11.4702072,5.20059659 9.03530491,5.6848537 7.81367661,4.44464653 C7.23343166,3.8548558 6.85255097,3.13670325 6.74052723,2.42378996 C6.62090867,1.66110372 6.81647553,0.990104489 7.29419029,0.534663294 C7.77190505,0.0792220998 8.45771814,-0.0932991745 9.22745409,0.0481607858 C9.94896287,0.181013394 10.6643958,0.578822753 11.244261,1.16861349 L11.244261,1.16861349 C12.4639906,2.40919488 11.8966568,4.79230871 11.8715939,4.89297731 L11.8153922,5.12874391 Z M8.23784783,0.847896064 C8.08958636,0.898582957 7.95421146,0.980289255 7.841018,1.08740499 C7.551655,1.36358872 7.4362136,1.79582749 7.51595931,2.30440973 C7.60329984,2.86164222 7.90937146,3.43085015 8.37759269,3.90687415 C9.10555708,4.64710642 10.5721186,4.54306973 11.1603381,4.46298394 C11.2579317,3.88629135 11.4113473,2.44474699 10.6833829,1.70451471 L10.6833829,1.70451471 C10.2151616,1.22849072 9.64744815,0.909270226 9.08505104,0.806356234 C8.76986562,0.747227467 8.48088237,0.763319474 8.23784783,0.847896064 Z" id="Shape" fill="#FFB84B"></path>
                <path d="M11.7466548,5.1029889 L11.6918736,4.86373072 C11.6688277,4.76178265 11.1459499,2.35678645 12.3809841,1.13115253 L12.3809841,1.13115253 C12.9680882,0.548054748 13.6878007,0.160576867 14.4067576,0.0401953893 C15.1748288,-0.0892146991 15.8548721,0.0962480147 16.3214574,0.561973856 C16.7880426,1.0276997 16.9716543,1.70559789 16.8394237,2.47002027 C16.7155047,3.1847853 16.3237242,3.89955032 15.7366201,4.48377668 C14.5023415,5.70752964 12.0889433,5.18086067 11.986559,5.15753676 L11.7466548,5.1029889 Z M15.3799752,0.861422781 C15.1396932,0.771889057 14.8510526,0.751198491 14.5378549,0.804241579 C13.9764413,0.898665801 13.4044493,1.20977668 12.932197,1.68039302 L12.932197,1.68039302 C12.1951056,2.41208669 12.3224249,3.8623073 12.4096971,4.44502889 C12.9934009,4.53343404 14.449827,4.66547747 15.187674,3.93340761 C15.6618153,3.46279127 15.9761465,2.89624594 16.0728637,2.33760065 C16.1612694,1.82786033 16.0539736,1.39147747 15.7706223,1.10895719 C15.6597605,0.999298457 15.5263606,0.914850958 15.3795974,0.861422781 L15.3799752,0.861422781 Z" id="Shape" fill="#FFB84B"></path>
                <g id="Group" opacity="0.5" transform="translate(0.000000, 4.830000)" fill="url(#linearGradient-2)">
                    <polygon id="Path" points="22.983906 0.0078127878 0.00776146181 0.0078127878 0.00776146181 4.63558743 1.20154821 4.63558743 1.20154821 18.02931 21.7901192 18.02931 21.7901192 4.63558743 22.983906 4.63558743"></polygon>
                </g>
                <rect id="Rectangle" fill="#D63480" x="1.3875" y="5.98" width="20.35" height="16.79"></rect>
                <rect id="Rectangle" fill="#A9207B" x="1.3875" y="5.98" width="20.35" height="5.06"></rect>
                <rect id="Rectangle" fill="#FFB84B" x="9.48125" y="8.51" width="4.1625" height="14.26"></rect>
                <rect id="Rectangle" fill="#FF595D" x="9.48125" y="9.2" width="4.1625" height="1.84"></rect>
                <rect id="Rectangle" fill="#000000" opacity="0.1" x="1.3875" y="5.29" width="20.35" height="4.14"></rect>
                <rect id="Rectangle" fill="#D63480" x="0.23125" y="5.29" width="22.43125" height="4.14"></rect>
                <rect id="Rectangle" fill="#FFB84B" transform="translate(11.446875, 7.360000) scale(1, -1) translate(-11.446875, -7.360000) " x="8.7875" y="5.29" width="5.31875" height="4.14"></rect>
            </g>
            <g id="Group-2" stroke-width="1" transform="translate(13.181250, 3.450000)">
                <path d="M5.34585782,0.181492538 L6.02876797,0.860711288" id="Stroke-12" fill="#0053B9"></path>
                <path d="M7.39458829,2.44555504 L8.07749844,3.12477379" id="Stroke-13" fill="#0053B9"></path>
                <path d="M8.07749844,0.181492538 L7.39458829,0.860711288" id="Stroke-14" fill="#0053B9"></path>
                <path d="M6.02876797,2.44555504 L5.34585782,3.12477379" id="Stroke-15" fill="#0053B9"></path>
                <path d="M7.84986172,7.76610191 C7.84986172,8.32849504 7.3909461,8.78493004 6.82549649,8.78493004 C6.26004688,8.78493004 5.80113125,8.32849504 5.80113125,7.76610191 C5.80113125,7.20370879 6.26004688,6.74727379 6.82549649,6.74727379 C7.3909461,6.74727379 7.84986172,7.20370879 7.84986172,7.76610191" id="Fill-16" fill="#B2D3FF"></path>
                <path d="M1.16483687,6.54601563 C1.16483687,6.85845625 0.909883749,7.11203125 0.595745077,7.11203125 C0.281606405,7.11203125 0.0266532805,6.85845625 0.0266532805,6.54601563 C0.0266532805,6.233575 0.281606405,5.98 0.595745077,5.98 C0.909883749,5.98 1.16483687,6.233575 1.16483687,6.54601563" id="Fill-17" fill="#B2D3FF"></path>
            </g>
            <g id="Group-2" stroke-width="1" transform="translate(7.168750, 3.450000)" fill="#0053B9">
                <path d="M3.73083437,1.26902347 C3.41170138,1.00734929 2.80864425,0.470184993 2.50697485,0.215142478 C2.20558712,-0.0404526752 2.20586879,-0.0142023621 2.20953051,0.0247586288 C2.21291056,0.0639959388 2.220234,0.116220246 2.21995233,0.468527079 C2.21938899,0.820833911 2.2115022,1.47349959 2.19094024,1.81309574 C2.17065994,2.1526919 2.13742279,2.17894221 2.10756569,2.19248185 C2.07799026,2.20546884 2.05123153,2.20574516 1.70618483,2.31295697 C1.36113813,2.42016877 0.697521785,2.63431606 0.359235183,2.74815953 C0.0209485816,2.86172667 0.00742838433,2.87498999 0.00151329804,2.89460864 C-0.00524680058,2.9142273 -0.0049651298,2.94020129 0.358953512,3.09079519 C0.722590484,3.24111277 1.4501461,3.51605026 1.81406474,3.67603901 C2.17798338,3.8365804 2.17826505,3.88217305 2.18192677,3.93771318 C2.18615183,3.992977 2.19291193,4.05818831 2.19939036,4.42375845 C2.20586879,4.78905228 2.21093886,5.45470496 2.21741729,5.80701179 C2.22361405,6.15931862 2.23093749,6.19855593 2.24755606,6.2082271 C2.26417464,6.21789827 2.29093336,6.1980033 2.58077259,5.88907856 C2.87061182,5.5798775 3.42493991,4.98164669 3.71477913,4.68239312 C4.0051817,4.38313955 4.03165876,4.38286323 4.06517758,4.3795474 C4.09841473,4.37595525 4.13813031,4.36904728 4.51444247,4.44420607 C4.89103629,4.51964118 5.6042267,4.67714305 5.98758062,4.74594651 C6.37037121,4.81447364 6.42360698,4.79457867 6.45656247,4.77468369 C6.48979962,4.75478872 6.50303814,4.73517006 6.27094142,4.42679796 C6.0388447,4.1189785 5.56141274,3.52212928 5.33269607,3.22066516 C5.10426107,2.91892472 5.12369635,2.91201674 5.1338365,2.90897723 C5.14397665,2.9056614 5.14397665,2.9056614 5.31861253,2.60309201 C5.49324841,2.30052261 5.84252017,1.69593645 6.02870456,1.3679457 C6.21488894,1.03995495 6.23770427,0.989388553 6.20531213,0.965901431 C6.17263832,0.942414308 6.0841937,0.946559095 5.73379525,1.03746807 C5.38367848,1.12837705 4.77132621,1.30632654 4.45867165,1.39861712 C4.14601709,1.49063137 4.13277857,1.49753935 4.10855488,1.50748684 C4.08489453,1.51743432 4.04968569,1.53069764 3.73083437,1.26902347" id="Fill-112"></path>
            </g>
            <g id="Group-2-Copy" stroke-width="1" transform="translate(26.939628, 7.474008) rotate(-315.000000) translate(-26.939628, -7.474008) translate(24.511503, 5.174008)" fill="#0053B9">
                <path d="M1.91453854,0.274569357 C1.69926159,0.094706101 1.69946278,0.113178544 1.70207829,0.140595537 C1.70449261,0.168206978 1.70972364,0.204957416 1.70952245,0.452877039 C1.70912006,0.700796662 1.70348665,1.16007992 1.68879953,1.39905499 C1.6743136,1.63803006 1.65057278,1.6565025 1.62924628,1.66603039 C1.60812097,1.67516939 1.5890076,1.67536384 1.34254567,1.75080918 C1.09608374,1.82625453 0.622072062,1.97695077 0.380438775,2.05706284 C0.138805488,2.13698045 0.129148205,2.1463139 0.124923143,2.16011962 C0.120094501,2.17392534 0.120295694,2.19220334 0.380237582,2.29817682 C0.639978276,2.40395586 1.15966086,2.59743039 1.41960274,2.71001507 C1.67954463,2.82298864 1.67974582,2.85507235 1.68236134,2.89415615 C1.68537924,2.9330455 1.69020788,2.97893494 1.69483533,3.23618801 C1.69946278,3.49324663 1.70308426,3.96166888 1.70771171,4.2095885 C1.71213796,4.45750813 1.71736899,4.48511957 1.7292394,4.4919252 C1.74110982,4.49873084 1.76022319,4.48473067 1.96725121,4.26733919 C2.17427923,4.04975326 2.57022786,3.62877602 2.77725588,3.41819018 C2.98468629,3.20760433 3.00359847,3.20740989 3.02754049,3.20507652 C3.05128131,3.20254872 3.07964958,3.19768755 3.34844398,3.25057707 C3.61743957,3.30366103 4.12686129,3.41449569 4.40068552,3.46291293 C4.67410736,3.51113573 4.71213292,3.49713556 4.73567255,3.4831354 C4.75941337,3.46913523 4.76886946,3.45532951 4.60308609,3.23832692 C4.43730272,3.02171323 4.09627989,2.60170822 3.93291084,2.3895668 C3.76974298,2.17723093 3.78362533,2.17236977 3.79086829,2.17023085 C3.79811125,2.16789749 3.79811125,2.16789749 3.92285117,1.95497828 C4.04759108,1.74205908 4.29707091,1.31660956 4.43005976,1.08580125 C4.5630486,0.854992945 4.57934527,0.819409187 4.55620803,0.802881213 C4.53286959,0.786353238 4.46969486,0.789269939 4.21941025,0.853242924 C3.96932684,0.917215909 3.53193237,1.04243962 3.30860768,1.10738484 C3.085283,1.17213562 3.07582691,1.17699678 3.05852427,1.18399687 C3.04162403,1.19099695 3.01647485,1.2003304 2.78872391,1.01618931 C2.56077177,0.832048227 2.13001668,0.454043719 1.91453854,0.274569357 Z" id="Fill-112"></path>
            </g>
        </g>
    </g>
</svg>