<?xml version="1.0" encoding="UTF-8"?>
<svg width="136px" height="137px" viewBox="0 0 136 137" version="1.1" xmlns="http://www.w3.org/2000/svg" xmlns:xlink="http://www.w3.org/1999/xlink">
    <!-- Generator: Sketch 48.2 (47327) - http://www.bohemiancoding.com/sketch -->
    <title>Artboard</title>
    <desc>Created with Sketch.</desc>
    <defs></defs>
    <g id="Page-1" stroke="none" stroke-width="1" fill="none" fill-rule="evenodd">
        <g id="Artboard">
            <g id="Group" transform="translate(-1.000000, 0.000000)">
                <ellipse id="Oval" fill="#FFFFFF" cx="70.5" cy="70.5" rx="52.5" ry="49.5"></ellipse>
                <path d="M105.390625,53.2265625 C106.630215,51.986973 107.25,50.5039149 107.25,48.7773438 C107.25,47.0507726 106.630215,45.5234441 105.390625,44.1953125 L104.859375,43.6640625 C104.23958,43.0442677 103.553389,42.5794286 102.800781,42.2695312 C102.048173,41.9596339 101.229171,41.8046875 100.34375,41.8046875 C99.4583289,41.8046875 98.6393267,41.9596339 97.8867188,42.2695312 C97.1341108,42.5794286 96.4479198,43.0442677 95.828125,43.6640625 L55.1875,83.5078125 L42.171875,70.359375 C41.6406223,69.7395802 40.9765665,69.2747411 40.1796875,68.9648438 C39.3828085,68.6549464 38.5416711,68.5 37.65625,68.5 C36.859371,68.5 36.062504,68.6549464 35.265625,68.9648438 C34.468746,69.2747411 33.7604198,69.7395802 33.140625,70.359375 L32.609375,70.890625 C31.9895802,71.4218777 31.5247411,72.0859335 31.2148437,72.8828125 C30.9049464,73.6796915 30.75,74.4765585 30.75,75.2734375 C30.75,76.1588586 30.9049464,76.999996 31.2148437,77.796875 C31.5247411,78.593754 31.9895802,79.2578098 32.609375,79.7890625 L50.671875,98.1171875 C51.2031277,98.7369823 51.8671835,99.2018214 52.6640625,99.5117188 C53.4609415,99.8216161 54.3020789,99.9765625 55.1875,99.9765625 C55.984379,99.9765625 56.781246,99.8216161 57.578125,99.5117188 C58.375004,99.2018214 59.0390598,98.7812527 59.5703125,98.25 L105.390625,53.2265625 Z M64.6171875,0.6328125 C74.8880722,0.0130177344 84.5390173,1.49607582 93.5703125,5.08203125 C102.601608,8.66798668 110.437467,13.7812168 117.078125,20.421875 C123.718783,27.0625332 128.832013,34.8983923 132.417969,43.9296875 C136.003924,52.9609827 137.486982,62.6119278 136.867188,72.8828125 C136.335935,81.382855 134.321632,89.3515253 130.824219,96.7890625 C127.326805,104.2266 122.722685,110.800753 117.011719,116.511719 C111.300753,122.222685 104.7266,126.826805 97.2890625,130.324219 C89.8515253,133.821632 81.882855,135.835935 73.3828125,136.367188 C63.1119278,136.986982 53.4609827,135.503924 44.4296875,131.917969 C35.3983923,128.332013 27.5625332,123.218783 20.921875,116.578125 C14.2812168,109.937467 9.16798668,102.101608 5.58203125,93.0703125 C1.99607582,84.0390173 0.513017734,74.3880722 1.1328125,64.1171875 C1.66406516,55.617145 3.67836793,47.6484747 7.17578125,40.2109375 C10.6731946,32.7734003 15.2773152,26.1992473 20.9882812,20.4882812 C26.6992473,14.7773152 33.2734003,10.1731946 40.7109375,6.67578125 C48.1484747,3.17836793 56.117145,1.16406516 64.6171875,0.6328125 Z" id="" fill="#00C388"></path>
            </g>
        </g>
    </g>
</svg>