<?xml version="1.0" encoding="UTF-8"?>
<svg width="227px" height="227px" viewBox="0 0 227 227" version="1.1" xmlns="http://www.w3.org/2000/svg" xmlns:xlink="http://www.w3.org/1999/xlink">
    <!-- Generator: Sketch 55.2 (78181) - https://sketchapp.com -->
    <title>Artboard Copy</title>
    <desc>Created with Sketch.</desc>
    <g id="Artboard-Copy" stroke="none" stroke-width="1" fill="none" fill-rule="evenodd">
        <g id="noun_Fingerprint_1375598" fill="#0EE9DF" fill-rule="nonzero">
            <path d="M6.7676362,133 L7.50054388,133 C9.12571315,132.810683 10.6071659,131.975608 11.6129081,130.681915 C12.6186504,129.388222 13.0645821,127.744089 12.8507699,126.117969 C8.0274085,85.1957382 28.2619305,45.3887052 64.1232629,25.25046 C99.9845953,5.11221472 144.414412,8.60642224 176.704497,34.1044735 C197.938124,50.7810459 211.634938,75.2798842 214.742405,102.141069 C214.999884,104.328536 216.401899,106.212133 218.420325,107.082327 C220.438751,107.952521 222.766942,107.677109 224.527889,106.359836 C226.288837,105.042563 227.215012,102.883554 226.957533,100.696087 C219.536681,38.0904196 162.895294,-6.630702 100.445453,0.808666534 C37.9956118,8.24803506 -6.61419805,65.0307562 0.806653747,127.636424 C1.18354507,130.663231 3.72533473,132.950284 6.7676362,133 Z" id="Path"></path>
            <path d="M91.5597577,224.36127 C94.6672785,225.856613 98.4403624,224.637049 99.9928025,221.63548 C117.418997,187.858639 124.22769,149.885921 119.577605,112.409203 C119.167472,109.048908 116.01738,106.64629 112.541677,107.042805 C109.065974,107.43932 106.580838,110.484815 106.990971,113.84511 C111.350188,148.966744 104.970302,184.553578 88.6396587,216.208239 C87.9038829,217.663055 87.7983522,219.34143 88.3464354,220.871699 C88.8945185,222.401969 90.0509896,223.657861 91.5597577,224.36127 Z" id="Path"></path>
            <path d="M189.984926,195.885348 C191.514611,196.200478 193.100811,195.859829 194.389711,194.939385 C195.678612,194.01894 196.562994,192.59527 196.84559,190.985934 C202.339676,162.291302 203.450329,132.861834 200.135909,103.800858 C198.419466,88.8294519 193.032359,74.5816271 184.501062,62.4498021 C183.250511,60.6994099 181.205407,59.7823481 179.13612,60.0440651 C177.066833,60.305782 175.287738,61.7065167 174.469002,63.7186258 C173.650265,65.730735 173.916274,68.0485314 175.166825,69.7989235 C182.528316,80.2596082 187.168718,92.5520027 188.631462,105.466659 C191.793815,133.22978 190.730435,161.344194 185.481157,188.756701 C184.890984,192.022191 186.889695,195.185788 189.984926,195.885348 L189.984926,195.885348 Z" id="Path"></path>
            <path d="M24.8473071,182.546656 C26.3410067,183.159188 28.0158979,183.150699 29.503363,182.523059 C30.9908281,181.895419 32.1689628,180.700065 32.7784778,179.200076 C40.0358969,161.333479 42.6560688,141.909132 40.3933748,122.7479 C37.1361337,95.1678819 49.387163,68.0503533 72.2000755,52.3440919 C95.0129879,36.6378306 124.621032,34.9361743 149.069876,47.9261717 C150.990769,48.9472471 153.30828,48.8618115 155.149425,47.7020478 C156.990571,46.5422842 158.075636,44.484388 157.995889,42.303549 C157.916141,40.12271 156.683695,38.1502494 154.762802,37.129174 C126.311109,21.979599 91.8352213,23.9417827 65.2708387,42.2225795 C38.7064561,60.5033762 24.4458299,92.0801732 28.2533314,124.189128 C30.2690933,141.295337 27.9251498,158.635348 21.4412829,174.58326 C20.8352947,176.092277 20.8541084,177.781712 21.4935501,179.276747 C22.1329917,180.771783 23.3401862,181.948796 24.8473071,182.546656 Z" id="Path"></path>
            <path d="M121.836966,226.504316 C124.95125,227.826385 128.561794,226.413183 129.913365,223.343136 C145.369679,187.761837 151.068035,148.789036 146.435511,110.34312 C145.140015,98.581269 137.549437,88.412057 126.555875,83.7100729 C115.562314,79.0080887 102.85886,80.4974729 93.2856786,87.6107525 C83.7124973,94.7240322 78.7439296,106.365709 80.2730582,118.100168 C81.1985148,125.853932 81.5359709,133.665151 81.2826081,141.468582 C81.1738161,144.826026 83.8416647,147.634869 87.2414148,147.742307 C90.6411649,147.849746 93.4854002,145.215095 93.5941922,141.85765 C93.8700641,133.445326 93.5079126,125.024409 92.5107728,116.665479 C91.4964238,109.240299 94.6157211,101.852024 100.670863,97.3377324 C106.726004,92.8234411 114.775706,91.8848892 121.728903,94.8824783 C128.682101,97.8800673 133.457905,104.347816 134.22242,111.802126 C138.582901,148.098042 133.199078,184.88815 118.611331,218.479783 C117.95431,219.965526 117.925449,221.648894 118.531163,223.155751 C119.136877,224.662608 120.32698,225.868105 121.836966,226.504316 L121.836966,226.504316 Z" id="Path"></path>
            <path d="M66.2409756,217.267301 C69.2140042,218.860367 72.9241832,217.770065 74.5459901,214.826726 C80.693034,203.360282 85.4756116,191.22218 88.7971984,178.657396 C89.6589071,175.395495 87.6952583,172.057349 84.4112662,171.201437 C81.127274,170.345525 77.7665194,172.295964 76.9048107,175.557865 C73.822996,187.207215 69.3867477,198.460748 63.6855865,209.091373 C62.146592,212.052532 63.2842465,215.69244 66.2409756,217.267301 L66.2409756,217.267301 Z" id="Path"></path>
            <path d="M160.945239,108.795122 C161.399279,111.788634 163.939016,113.998848 166.926119,114 L167.725184,114 C171.020769,113.566225 173.355282,110.519776 172.955427,107.174736 C170.831665,89.185953 160.849339,73.116371 145.765416,63.4041626 C130.681493,53.6919542 112.092102,51.364833 95.1313497,57.0655141 C93.0767704,57.7672211 91.5474751,59.5269952 91.1195347,61.6819466 C90.6915942,63.836898 91.4300228,66.0596382 93.0566617,67.5128825 C94.6833005,68.9661269 96.9510244,69.4290929 99.0056037,68.7273859 C112.527458,64.177697 127.350632,66.0379388 139.370425,73.7929901 C151.390219,81.5480414 159.330922,94.3748266 160.993668,108.721469 L160.945239,108.795122 Z" id="Path"></path>
            <path d="M154.342686,218.720787 C157.591483,219.712566 161.055432,217.979911 162.12554,214.827829 C169.925703,192.047167 174.262294,168.274817 174.997184,144.267969 C175.064024,142.094813 173.937162,140.051953 172.041076,138.908915 C170.14499,137.765876 167.76774,137.696314 165.804814,138.726432 C163.841888,139.75655 162.591501,141.729848 162.524661,143.903004 C161.838712,166.750053 157.720518,189.3754 150.301589,211.056526 C149.792225,212.595519 149.932148,214.269004 150.690437,215.70716 C151.448727,217.145315 152.762953,218.22974 154.342686,218.720787 L154.342686,218.720787 Z" id="Path"></path>
            <path d="M43.2896126,203.321461 C44.7143633,204.06384 46.3728916,204.203279 47.8995163,203.709032 C49.426141,203.214786 50.6954952,202.127442 51.4277048,200.686744 C64.1675061,175.795802 69.2151893,147.613734 65.9168897,119.791175 C64.6110948,108.729196 67.1737327,97.5540486 73.1614822,88.1989677 C74.8050863,85.3852271 73.9619236,81.7628256 71.2493127,79.9838914 C68.5367018,78.2049571 64.9182533,78.9014276 63.0432014,81.5633843 C55.5035376,93.292986 52.2576693,107.315251 53.8667176,121.206116 C56.8939198,146.60764 52.3005015,172.342198 40.6815593,195.075772 C39.9390174,196.5175 39.7967899,198.198996 40.286441,199.747089 C40.7760921,201.295183 41.857119,202.58182 43.2896126,203.321461 Z" id="Path"></path>
        </g>
    </g>
</svg>