<?xml version="1.0" encoding="UTF-8"?>
<svg width="750px" height="1334px" viewBox="0 0 750 1334" version="1.1" xmlns="http://www.w3.org/2000/svg" xmlns:xlink="http://www.w3.org/1999/xlink">
    <!-- Generator: Sketch 55.2 (78181) - https://sketchapp.com -->
    <title>Artboard</title>
    <desc>Created with Sketch.</desc>
    <g id="Artboard" stroke="none" stroke-width="1" fill="none" fill-rule="evenodd">
        <path d="M90.7385152,20.4361414 C346.014466,-97.4586541 754.222984,365.752592 863.162266,645.482412 C920.732486,793.34145 817.817697,556.887755 533.534794,626.783171 C331.794886,676.384095 252.66,462.299194 -69.7583729,599.901615 C-286.421843,692.383543 -448.915798,476.671186 -418.925814,262.354685 C-401.808775,140.031709 -900.022348,246.814318 -671.836454,77.8818123 C-534.908157,-23.4776911 -194.384425,152.115255 90.7385152,20.4361414 Z" id="Path" fill="#3FA5DF" fill-rule="nonzero" transform="translate(73.384256, 348.360387) rotate(-45.000000) translate(-73.384256, -348.360387) "></path>
        <path d="M32.2836691,569.140683 L22.8736691,573.270683 C21.1201391,574.039894 19.0749548,573.243302 18.3036691,571.490683 L14.1736691,562.080683 C13.8051274,561.237201 13.1165492,560.574711 12.2594686,560.239005 C11.4023881,559.9033 10.4470411,559.921889 9.60366912,560.290683 L1.93366912,563.660683 C1.09018693,564.029225 0.427696534,564.717803 0.0919910302,565.574884 C-0.243714473,566.431964 -0.225124775,567.387311 0.143669123,568.230683 L4.27366912,577.640683 C4.6452336,578.483734 4.66522937,579.440158 4.32922512,580.298002 C3.99322086,581.155845 3.32896638,581.844259 2.48366912,582.210683 L-6.92633088,586.340683 C-8.68024224,587.116133 -9.47627321,589.164347 -8.70633088,590.920683 L-5.34633088,598.590683 C-4.57088131,600.344595 -2.52266682,601.140626 -0.766330877,600.370683 L8.64366912,596.250683 C10.3971991,595.481472 12.4423834,596.278065 13.2136691,598.030683 L17.3436691,607.440683 C17.7122109,608.284166 18.4007891,608.946656 19.2578696,609.282361 C20.1149501,609.618067 21.0702972,609.599477 21.9136691,609.230683 L29.5936691,605.860683 C31.3462876,605.089398 32.1428801,603.044213 31.3736691,601.290683 L27.2436691,591.880683 C26.4749603,590.121622 27.2758892,588.072318 29.0336691,587.300683 L38.4436691,583.180683 C40.1975805,582.405234 40.9936115,580.357019 40.2236691,578.600683 L36.8636691,570.930683 C36.0920346,569.172903 34.0427305,568.371975 32.2836691,569.140683 L32.2836691,569.140683 Z" id="Path" fill="#9FD1FC" fill-rule="nonzero"></path>
        <path d="M146.283669,500.140683 L136.873669,504.270683 C135.120139,505.039894 133.074955,504.243302 132.303669,502.490683 L128.173669,493.080683 C127.805127,492.237201 127.116549,491.574711 126.259469,491.239005 C125.402388,490.9033 124.447041,490.921889 123.603669,491.290683 L115.933669,494.660683 C115.090187,495.029225 114.427697,495.717803 114.091991,496.574884 C113.756286,497.431964 113.774875,498.387311 114.143669,499.230683 L118.273669,508.640683 C118.645234,509.483734 118.665229,510.440158 118.329225,511.298002 C117.993221,512.155845 117.328966,512.844259 116.483669,513.210683 L107.073669,517.340683 C105.319758,518.116133 104.523727,520.164347 105.293669,521.920683 L108.653669,529.590683 C109.429119,531.344595 111.477333,532.140626 113.233669,531.370683 L122.643669,527.250683 C124.397199,526.481472 126.442383,527.278065 127.213669,529.030683 L131.343669,538.440683 C131.712211,539.284166 132.400789,539.946656 133.25787,540.282361 C134.11495,540.618067 135.070297,540.599477 135.913669,540.230683 L143.593669,536.860683 C145.346288,536.089398 146.14288,534.044213 145.373669,532.290683 L141.243669,522.880683 C140.47496,521.121622 141.275889,519.072318 143.033669,518.300683 L152.443669,514.180683 C154.19758,513.405234 154.993611,511.357019 154.223669,509.600683 L150.863669,501.930683 C150.092035,500.172903 148.04273,499.371975 146.283669,500.140683 L146.283669,500.140683 Z" id="Path" fill="#9FD1FC" fill-rule="nonzero"></path>
        <path d="M87.2836691,27.1406833 L77.8736691,31.2706833 C76.1201391,32.0398943 74.0749548,31.2433017 73.3036691,29.4906833 L69.1736691,20.0806833 C68.8051274,19.2372011 68.1165492,18.5747107 67.2594686,18.2390052 C66.4023881,17.9032997 65.4470411,17.9218894 64.6036691,18.2906833 L56.9336691,21.6606833 C56.0901869,22.029225 55.4276965,22.7178033 55.091991,23.5748838 C54.7562855,24.4319643 54.7748752,25.3873113 55.1436691,26.2306833 L59.2736691,35.6406833 C59.6452336,36.4837336 59.6652294,37.4401585 59.3292251,38.2980017 C58.9932209,39.155845 58.3289664,39.8442594 57.4836691,40.2106833 L48.0736691,44.3406833 C46.3197578,45.1161329 45.5237268,47.1643474 46.2936691,48.9206833 L49.6536691,56.5906833 C50.4291187,58.3445947 52.4773332,59.1406256 54.2336691,58.3706833 L63.6436691,54.2506833 C65.3971991,53.4814723 67.4423834,54.2780649 68.2136691,56.0306833 L72.3436691,65.4406833 C72.7122109,66.2841655 73.4007891,66.9466559 74.2578696,67.2823614 C75.1149501,67.6180669 76.0702972,67.5994772 76.9136691,67.2306833 L84.5936691,63.8606833 C86.3462876,63.0893976 87.1428801,61.0442133 86.3736691,59.2906833 L82.2436691,49.8806833 C81.4749603,48.121622 82.2758892,46.0723179 84.0336691,45.3006833 L93.4436691,41.1806833 C95.1975805,40.4052337 95.9936115,38.3570193 95.2236691,36.6006833 L91.8636691,28.9306833 C91.0920346,27.1729034 89.0427305,26.3719745 87.2836691,27.1406833 L87.2836691,27.1406833 Z" id="Path" fill="#9FD1FC" fill-rule="nonzero"></path>
        <path d="M111.283669,27.1406833 L101.873669,31.2706833 C100.120139,32.0398943 98.0749548,31.2433017 97.3036691,29.4906833 L93.1736691,20.0806833 C92.8051274,19.2372011 92.1165492,18.5747107 91.2594686,18.2390052 C90.4023881,17.9032997 89.4470411,17.9218894 88.6036691,18.2906833 L80.9336691,21.6606833 C80.0901869,22.029225 79.4276965,22.7178033 79.091991,23.5748838 C78.7562855,24.4319643 78.7748752,25.3873113 79.1436691,26.2306833 L83.2736691,35.6406833 C83.6452336,36.4837336 83.6652294,37.4401585 83.3292251,38.2980017 C82.9932209,39.155845 82.3289664,39.8442594 81.4836691,40.2106833 L72.0736691,44.3406833 C70.3197578,45.1161329 69.5237268,47.1643474 70.2936691,48.9206833 L73.6536691,56.5906833 C74.4291187,58.3445947 76.4773332,59.1406256 78.2336691,58.3706833 L87.6436691,54.2506833 C89.3971991,53.4814723 91.4423834,54.2780649 92.2136691,56.0306833 L96.3436691,65.4406833 C96.7122109,66.2841655 97.4007891,66.9466559 98.2578696,67.2823614 C99.1149501,67.6180669 100.070297,67.5994772 100.913669,67.2306833 L108.593669,63.8606833 C110.346288,63.0893976 111.14288,61.0442133 110.373669,59.2906833 L106.243669,49.8806833 C105.47496,48.121622 106.275889,46.0723179 108.033669,45.3006833 L117.443669,41.1806833 C119.19758,40.4052337 119.993611,38.3570193 119.223669,36.6006833 L115.863669,28.9306833 C115.092035,27.1729034 113.04273,26.3719745 111.283669,27.1406833 L111.283669,27.1406833 Z" id="Path" stroke="#FFFFFF" stroke-width="2" fill-rule="nonzero"></path>
        <path d="M591.283669,95.1406833 L581.873669,99.2706833 C580.120139,100.039894 578.074955,99.2433017 577.303669,97.4906833 L573.173669,88.0806833 C572.805127,87.2372011 572.116549,86.5747107 571.259469,86.2390052 C570.402388,85.9032997 569.447041,85.9218894 568.603669,86.2906833 L560.933669,89.6606833 C560.090187,90.029225 559.427697,90.7178033 559.091991,91.5748838 C558.756286,92.4319643 558.774875,93.3873113 559.143669,94.2306833 L563.273669,103.640683 C563.645234,104.483734 563.665229,105.440158 563.329225,106.298002 C562.993221,107.155845 562.328966,107.844259 561.483669,108.210683 L552.073669,112.340683 C550.319758,113.116133 549.523727,115.164347 550.293669,116.920683 L553.653669,124.590683 C554.429119,126.344595 556.477333,127.140626 558.233669,126.370683 L567.643669,122.250683 C569.397199,121.481472 571.442383,122.278065 572.213669,124.030683 L576.343669,133.440683 C576.712211,134.284166 577.400789,134.946656 578.25787,135.282361 C579.11495,135.618067 580.070297,135.599477 580.913669,135.230683 L588.593669,131.860683 C590.346288,131.089398 591.14288,129.044213 590.373669,127.290683 L586.243669,117.880683 C585.47496,116.121622 586.275889,114.072318 588.033669,113.300683 L597.443669,109.180683 C599.19758,108.405234 599.993611,106.357019 599.223669,104.600683 L595.863669,96.9306833 C595.092035,95.1729034 593.04273,94.3719745 591.283669,95.1406833 L591.283669,95.1406833 Z" id="Path" fill="#9FD1FC" fill-rule="nonzero"></path>
        <path d="M681.283669,-22.8593167 L671.873669,-18.7293167 C670.120139,-17.9601057 668.074955,-18.7566983 667.303669,-20.5093167 L663.173669,-29.9193167 C662.805127,-30.7627989 662.116549,-31.4252893 661.259469,-31.7609948 C660.402388,-32.0967003 659.447041,-32.0781106 658.603669,-31.7093167 L650.933669,-28.3393167 C650.090187,-27.970775 649.427697,-27.2821967 649.091991,-26.4251162 C648.756286,-25.5680357 648.774875,-24.6126887 649.143669,-23.7693167 L653.273669,-14.3593167 C653.645234,-13.5162664 653.665229,-12.5598415 653.329225,-11.7019983 C652.993221,-10.844155 652.328966,-10.1557406 651.483669,-9.78931668 L642.073669,-5.65931668 C640.319758,-4.88386712 639.523727,-2.83565262 640.293669,-1.07931668 L643.653669,6.59068332 C644.429119,8.34459468 646.477333,9.14062564 648.233669,8.37068332 L657.643669,4.25068332 C659.397199,3.48147231 661.442383,4.27806488 662.213669,6.03068332 L666.343669,15.4406833 C666.712211,16.2841655 667.400789,16.9466559 668.25787,17.2823614 C669.11495,17.6180669 670.070297,17.5994772 670.913669,17.2306833 L678.593669,13.8606833 C680.346288,13.0893976 681.14288,11.0442133 680.373669,9.29068332 L676.243669,-0.119316684 C675.47496,-1.87837804 676.275889,-3.92768213 678.033669,-4.69931668 L687.443669,-8.81931668 C689.19758,-9.59476625 689.993611,-11.6429807 689.223669,-13.3993167 L685.863669,-21.0693167 C685.092035,-22.8270966 683.04273,-23.6280255 681.283669,-22.8593167 L681.283669,-22.8593167 Z" id="Path" fill="#9FD1FC" fill-rule="nonzero"></path>
        <path d="M543.436368,14.2432797 C543.407234,14.546063 543.576974,14.8330055 543.856368,14.9532797 L549.996368,17.6732797 C550.616368,17.9432797 543.296368,20.4032797 543.296368,20.4032797 C543.000474,20.4663885 542.778612,20.7124541 542.746368,21.0132797 L542.056368,27.7032797 C542.024433,28.0038585 541.803169,28.2499879 541.507675,28.3136328 C541.21218,28.3772776 540.90921,28.2440603 540.756368,27.9832797 L537.386368,22.1732797 C537.238807,21.9068387 536.934008,21.7686629 536.636368,21.8332797 L530.066368,23.2532797 C529.406368,23.3932797 533.886368,17.0932797 533.886368,17.0932797 C534.089523,16.8708128 534.122078,16.5411903 533.966368,16.2832797 L530.596368,10.4732797 C530.436464,10.2104115 530.466957,9.87394738 530.671513,9.64410909 C530.876069,9.41427081 531.206724,9.34495099 531.486368,9.47327974 L537.626368,12.1932797 C537.901851,12.3144882 538.223977,12.2460365 538.426368,12.0232797 L542.916368,7.02327974 C543.366368,6.52327974 543.436368,14.2432797 543.436368,14.2432797 Z" id="Path" fill="#9FD1FC" fill-rule="nonzero"></path>
        <path d="M678.436368,82.2432797 C678.407234,82.546063 678.576974,82.8330055 678.856368,82.9532797 L684.996368,85.6732797 C685.616368,85.9432797 678.296368,88.4032797 678.296368,88.4032797 C678.000474,88.4663885 677.778612,88.7124541 677.746368,89.0132797 L677.056368,95.7032797 C677.024433,96.0038585 676.803169,96.2499879 676.507675,96.3136328 C676.21218,96.3772776 675.90921,96.2440603 675.756368,95.9832797 L672.386368,90.1732797 C672.238807,89.9068387 671.934008,89.7686629 671.636368,89.8332797 L665.066368,91.2532797 C664.406368,91.3932797 668.886368,85.0932797 668.886368,85.0932797 C669.089523,84.8708128 669.122078,84.5411903 668.966368,84.2832797 L665.596368,78.4732797 C665.436464,78.2104115 665.466957,77.8739474 665.671513,77.6441091 C665.876069,77.4142708 666.206724,77.344951 666.486368,77.4732797 L672.626368,80.1932797 C672.901851,80.3144882 673.223977,80.2460365 673.426368,80.0232797 L677.916368,75.0232797 C678.366368,74.5232797 678.436368,82.2432797 678.436368,82.2432797 Z" id="Path" fill="#9FD1FC" fill-rule="nonzero"></path>
        <path d="M143.436368,25.2432797 C143.407234,25.546063 143.576974,25.8330055 143.856368,25.9532797 L149.996368,28.6732797 C150.616368,28.9432797 143.296368,31.4032797 143.296368,31.4032797 C143.000474,31.4663885 142.778612,31.7124541 142.746368,32.0132797 L142.056368,38.7032797 C142.024433,39.0038585 141.803169,39.2499879 141.507675,39.3136328 C141.21218,39.3772776 140.90921,39.2440603 140.756368,38.9832797 L137.386368,33.1732797 C137.238807,32.9068387 136.934008,32.7686629 136.636368,32.8332797 L130.066368,34.2532797 C129.406368,34.3932797 133.886368,28.0932797 133.886368,28.0932797 C134.089523,27.8708128 134.122078,27.5411903 133.966368,27.2832797 L130.596368,21.4732797 C130.436464,21.2104115 130.466957,20.8739474 130.671513,20.6441091 C130.876069,20.4142708 131.206724,20.344951 131.486368,20.4732797 L137.626368,23.1932797 C137.901851,23.3144882 138.223977,23.2460365 138.426368,23.0232797 L142.916368,18.0232797 C143.366368,17.5232797 143.436368,25.2432797 143.436368,25.2432797 Z" id="Path" fill="#9FD1FC" fill-rule="nonzero"></path>
        <path d="M148.436368,31.2432797 C148.407234,31.546063 148.576974,31.8330055 148.856368,31.9532797 L154.996368,34.6732797 C155.616368,34.9432797 148.296368,37.4032797 148.296368,37.4032797 C148.000474,37.4663885 147.778612,37.7124541 147.746368,38.0132797 L147.056368,44.7032797 C147.024433,45.0038585 146.803169,45.2499879 146.507675,45.3136328 C146.21218,45.3772776 145.90921,45.2440603 145.756368,44.9832797 L142.386368,39.1732797 C142.238807,38.9068387 141.934008,38.7686629 141.636368,38.8332797 L135.066368,40.2532797 C134.406368,40.3932797 138.886368,34.0932797 138.886368,34.0932797 C139.089523,33.8708128 139.122078,33.5411903 138.966368,33.2832797 L135.596368,27.4732797 C135.436464,27.2104115 135.466957,26.8739474 135.671513,26.6441091 C135.876069,26.4142708 136.206724,26.344951 136.486368,26.4732797 L142.626368,29.1932797 C142.901851,29.3144882 143.223977,29.2460365 143.426368,29.0232797 L147.916368,24.0232797 C148.366368,23.5232797 148.436368,31.2432797 148.436368,31.2432797 Z" id="Path" stroke="#FFFFFF" stroke-width="2" fill-rule="nonzero"></path>
        <path d="M688.436368,75.2432797 C688.407234,75.546063 688.576974,75.8330055 688.856368,75.9532797 L694.996368,78.6732797 C695.616368,78.9432797 688.296368,81.4032797 688.296368,81.4032797 C688.000474,81.4663885 687.778612,81.7124541 687.746368,82.0132797 L687.056368,88.7032797 C687.024433,89.0038585 686.803169,89.2499879 686.507675,89.3136328 C686.21218,89.3772776 685.90921,89.2440603 685.756368,88.9832797 L682.386368,83.1732797 C682.238807,82.9068387 681.934008,82.7686629 681.636368,82.8332797 L675.066368,84.2532797 C674.406368,84.3932797 678.886368,78.0932797 678.886368,78.0932797 C679.089523,77.8708128 679.122078,77.5411903 678.966368,77.2832797 L675.596368,71.4732797 C675.436464,71.2104115 675.466957,70.8739474 675.671513,70.6441091 C675.876069,70.4142708 676.206724,70.344951 676.486368,70.4732797 L682.626368,73.1932797 C682.901851,73.3144882 683.223977,73.2460365 683.426368,73.0232797 L687.916368,68.0232797 C688.366368,67.5232797 688.436368,75.2432797 688.436368,75.2432797 Z" id="Path" stroke="#FFFFFF" stroke-width="2" fill-rule="nonzero"></path>
        <path d="M533.436368,20.2432797 C533.407234,20.546063 533.576974,20.8330055 533.856368,20.9532797 L539.996368,23.6732797 C540.616368,23.9432797 533.296368,26.4032797 533.296368,26.4032797 C533.000474,26.4663885 532.778612,26.7124541 532.746368,27.0132797 L532.056368,33.7032797 C532.024433,34.0038585 531.803169,34.2499879 531.507675,34.3136328 C531.21218,34.3772776 530.90921,34.2440603 530.756368,33.9832797 L527.386368,28.1732797 C527.238807,27.9068387 526.934008,27.7686629 526.636368,27.8332797 L520.066368,29.2532797 C519.406368,29.3932797 523.886368,23.0932797 523.886368,23.0932797 C524.089523,22.8708128 524.122078,22.5411903 523.966368,22.2832797 L520.596368,16.4732797 C520.436464,16.2104115 520.466957,15.8739474 520.671513,15.6441091 C520.876069,15.4142708 521.206724,15.344951 521.486368,15.4732797 L527.626368,18.1932797 C527.901851,18.3144882 528.223977,18.2460365 528.426368,18.0232797 L532.916368,13.0232797 C533.366368,12.5232797 533.436368,20.2432797 533.436368,20.2432797 Z" id="Path" stroke="#FFFFFF" stroke-width="2" fill-rule="nonzero"></path>
        <path d="M88.4363677,556.24328 C88.4072338,556.546063 88.5769745,556.833005 88.8563677,556.95328 L94.9963677,559.67328 C95.6163677,559.94328 88.2963677,562.40328 88.2963677,562.40328 C88.0004741,562.466389 87.7786117,562.712454 87.7463677,563.01328 L87.0563677,569.70328 C87.0244332,570.003859 86.8031686,570.249988 86.5076745,570.313633 C86.2121804,570.377278 85.9092104,570.24406 85.7563677,569.98328 L82.3863677,564.17328 C82.2388073,563.906839 81.9340077,563.768663 81.6363677,563.83328 L75.0663677,565.25328 C74.4063677,565.39328 78.8863677,559.09328 78.8863677,559.09328 C79.0895229,558.870813 79.1220782,558.54119 78.9663677,558.28328 L75.5963677,552.47328 C75.4364642,552.210412 75.466957,551.873947 75.6715131,551.644109 C75.8760691,551.414271 76.2067241,551.344951 76.4863677,551.47328 L82.6263677,554.19328 C82.9018513,554.314488 83.2239767,554.246037 83.4263677,554.02328 L87.9163677,549.02328 C88.3663677,548.52328 88.4363677,556.24328 88.4363677,556.24328 Z" id="Path" fill="#9FD1FC" fill-rule="nonzero"></path>
        <path d="M33.4363677,674.24328 C33.4072338,674.546063 33.5769745,674.833005 33.8563677,674.95328 L39.9963677,677.67328 C40.6163677,677.94328 33.2963677,680.40328 33.2963677,680.40328 C33.0004741,680.466389 32.7786117,680.712454 32.7463677,681.01328 L32.0563677,687.70328 C32.0244332,688.003859 31.8031686,688.249988 31.5076745,688.313633 C31.2121804,688.377278 30.9092104,688.24406 30.7563677,687.98328 L27.3863677,682.17328 C27.2388073,681.906839 26.9340077,681.768663 26.6363677,681.83328 L20.0663677,683.25328 C19.4063677,683.39328 23.8863677,677.09328 23.8863677,677.09328 C24.0895229,676.870813 24.1220782,676.54119 23.9663677,676.28328 L20.5963677,670.47328 C20.4364642,670.210412 20.466957,669.873947 20.6715131,669.644109 C20.8760691,669.414271 21.2067241,669.344951 21.4863677,669.47328 L27.6263677,672.19328 C27.9018513,672.314488 28.2239767,672.246037 28.4263677,672.02328 L32.9163677,667.02328 C33.3663677,666.52328 33.4363677,674.24328 33.4363677,674.24328 Z" id="Path" fill="#9FD1FC" fill-rule="nonzero"></path>
        <path d="M23.4363677,80.2432797 C23.4072338,80.546063 23.5769745,80.8330055 23.8563677,80.9532797 L29.9963677,83.6732797 C30.6163677,83.9432797 23.2963677,86.4032797 23.2963677,86.4032797 C23.0004741,86.4663885 22.7786117,86.7124541 22.7463677,87.0132797 L22.0563677,93.7032797 C22.0244332,94.0038585 21.8031686,94.2499879 21.5076745,94.3136328 C21.2121804,94.3772776 20.9092104,94.2440603 20.7563677,93.9832797 L17.3863677,88.1732797 C17.2388073,87.9068387 16.9340077,87.7686629 16.6363677,87.8332797 L10.0663677,89.2532797 C9.40636771,89.3932797 13.8863677,83.0932797 13.8863677,83.0932797 C14.0895229,82.8708128 14.1220782,82.5411903 13.9663677,82.2832797 L10.5963677,76.4732797 C10.4364642,76.2104115 10.466957,75.8739474 10.6715131,75.6441091 C10.8760691,75.4142708 11.2067241,75.344951 11.4863677,75.4732797 L17.6263677,78.1932797 C17.9018513,78.3144882 18.2239767,78.2460365 18.4263677,78.0232797 L22.9163677,73.0232797 C23.3663677,72.5232797 23.4363677,80.2432797 23.4363677,80.2432797 Z" id="Path" fill="#9FD1FC" fill-rule="nonzero"></path>
        <path d="M77.8348136,610.072416 C75.3292852,610.455152 73.05729,611.760569 71.4648136,613.732416 C70.4700699,614.891237 68.7537038,615.095463 67.5148136,614.202416 C65.5032455,612.652857 62.9851967,611.910996 60.4548136,612.122416 C54.5786914,612.826313 50.3819751,618.154979 51.0748136,624.032416 C51.8148136,630.312416 57.3348136,637.432416 71.4748136,644.582416 C72.5372495,645.102569 73.806159,644.94983 74.7148136,644.192416 C86.7848136,633.942416 90.4848136,625.722416 89.7148136,619.452416 C89.0157404,613.586506 83.702878,609.391671 77.8348136,610.072416 L77.8348136,610.072416 Z" id="Path" fill="#9FD1FC" fill-rule="nonzero"></path>
        <path d="M91.8348136,94.0724156 C89.3292852,94.4551525 87.05729,95.7605689 85.4648136,97.7324156 C84.4700699,98.8912373 82.7537038,99.0954631 81.5148136,98.2024156 C79.5032455,96.6528574 76.9851967,95.9109961 74.4548136,96.1224156 C68.5786914,96.8263127 64.3819751,102.154979 65.0748136,108.032416 C65.8148136,114.312416 71.3348136,121.432416 85.4748136,128.582416 C86.5372495,129.102569 87.806159,128.94983 88.7148136,128.192416 C100.784814,117.942416 104.484814,109.722416 103.714814,103.452416 C103.01574,97.5865064 97.702878,93.3916706 91.8348136,94.0724156 L91.8348136,94.0724156 Z" id="Path" fill="#9FD1FC" fill-rule="nonzero"></path>
        <path d="M77.8348136,107.072416 C75.3292852,107.455152 73.05729,108.760569 71.4648136,110.732416 C70.4700699,111.891237 68.7537038,112.095463 67.5148136,111.202416 C65.5032455,109.652857 62.9851967,108.910996 60.4548136,109.122416 C54.5786914,109.826313 50.3819751,115.154979 51.0748136,121.032416 C51.8148136,127.312416 57.3348136,134.432416 71.4748136,141.582416 C72.5372495,142.102569 73.806159,141.94983 74.7148136,141.192416 C86.7848136,130.942416 90.4848136,122.722416 89.7148136,116.452416 C89.0157404,110.586506 83.702878,106.391671 77.8348136,107.072416 L77.8348136,107.072416 Z" id="Path" stroke="#FFFFFF" stroke-width="2" fill-rule="nonzero"></path>
        <path d="M83.8348136,617.072416 C81.3292852,617.455152 79.05729,618.760569 77.4648136,620.732416 C76.4700699,621.891237 74.7537038,622.095463 73.5148136,621.202416 C71.5032455,619.652857 68.9851967,618.910996 66.4548136,619.122416 C60.5786914,619.826313 56.3819751,625.154979 57.0748136,631.032416 C57.8148136,637.312416 63.3348136,644.432416 77.4748136,651.582416 C78.5372495,652.102569 79.806159,651.94983 80.7148136,651.192416 C92.7848136,640.942416 96.4848136,632.722416 95.7148136,626.452416 C95.0157404,620.586506 89.702878,616.391671 83.8348136,617.072416 L83.8348136,617.072416 Z" id="Path" stroke="#FFFFFF" stroke-width="2" fill-rule="nonzero"></path>
        <path d="M619.834814,28.0724156 C617.329285,28.4551525 615.05729,29.7605689 613.464814,31.7324156 C612.47007,32.8912373 610.753704,33.0954631 609.514814,32.2024156 C607.503245,30.6528574 604.985197,29.9109961 602.454814,30.1224156 C596.578691,30.8263127 592.381975,36.1549792 593.074814,42.0324156 C593.814814,48.3124156 599.334814,55.4324156 613.474814,62.5824156 C614.53725,63.1025686 615.806159,62.9498295 616.714814,62.1924156 C628.784814,51.9424156 632.484814,43.7224156 631.714814,37.4524156 C631.01574,31.5865064 625.702878,27.3916706 619.834814,28.0724156 L619.834814,28.0724156 Z" id="Path" fill="#9FD1FC" fill-rule="nonzero"></path>
        <path d="M571.283669,96.1406833 L561.873669,100.270683 C560.120139,101.039894 558.074955,100.243302 557.303669,98.4906833 L553.173669,89.0806833 C552.805127,88.2372011 552.116549,87.5747107 551.259469,87.2390052 C550.402388,86.9032997 549.447041,86.9218894 548.603669,87.2906833 L540.933669,90.6606833 C540.090187,91.029225 539.427697,91.7178033 539.091991,92.5748838 C538.756286,93.4319643 538.774875,94.3873113 539.143669,95.2306833 L543.273669,104.640683 C543.645234,105.483734 543.665229,106.440158 543.329225,107.298002 C542.993221,108.155845 542.328966,108.844259 541.483669,109.210683 L532.073669,113.340683 C530.319758,114.116133 529.523727,116.164347 530.293669,117.920683 L533.653669,125.590683 C534.429119,127.344595 536.477333,128.140626 538.233669,127.370683 L547.643669,123.250683 C549.397199,122.481472 551.442383,123.278065 552.213669,125.030683 L556.343669,134.440683 C556.712211,135.284166 557.400789,135.946656 558.25787,136.282361 C559.11495,136.618067 560.070297,136.599477 560.913669,136.230683 L568.593669,132.860683 C570.346288,132.089398 571.14288,130.044213 570.373669,128.290683 L566.243669,118.880683 C565.47496,117.121622 566.275889,115.072318 568.033669,114.300683 L577.443669,110.180683 C579.19758,109.405234 579.993611,107.357019 579.223669,105.600683 L575.863669,97.9306833 C575.092035,96.1729034 573.04273,95.3719745 571.283669,96.1406833 L571.283669,96.1406833 Z" id="Path" stroke="#FFFFFF" stroke-width="2" fill-rule="nonzero"></path>
        <path d="M161.283669,508.140683 L151.873669,512.270683 C150.120139,513.039894 148.074955,512.243302 147.303669,510.490683 L143.173669,501.080683 C142.805127,500.237201 142.116549,499.574711 141.259469,499.239005 C140.402388,498.9033 139.447041,498.921889 138.603669,499.290683 L130.933669,502.660683 C130.090187,503.029225 129.427697,503.717803 129.091991,504.574884 C128.756286,505.431964 128.774875,506.387311 129.143669,507.230683 L133.273669,516.640683 C133.645234,517.483734 133.665229,518.440158 133.329225,519.298002 C132.993221,520.155845 132.328966,520.844259 131.483669,521.210683 L122.073669,525.340683 C120.319758,526.116133 119.523727,528.164347 120.293669,529.920683 L123.653669,537.590683 C124.429119,539.344595 126.477333,540.140626 128.233669,539.370683 L137.643669,535.250683 C139.397199,534.481472 141.442383,535.278065 142.213669,537.030683 L146.343669,546.440683 C146.712211,547.284166 147.400789,547.946656 148.25787,548.282361 C149.11495,548.618067 150.070297,548.599477 150.913669,548.230683 L158.593669,544.860683 C160.346288,544.089398 161.14288,542.044213 160.373669,540.290683 L156.243669,530.880683 C155.47496,529.121622 156.275889,527.072318 158.033669,526.300683 L167.443669,522.180683 C169.19758,521.405234 169.993611,519.357019 169.223669,517.600683 L165.863669,509.930683 C165.092035,508.172903 163.04273,507.371975 161.283669,508.140683 L161.283669,508.140683 Z" id="Path" stroke="#FFFFFF" stroke-width="2" fill-rule="nonzero"></path>
        <path d="M22.2836691,550.140683 L12.8736691,554.270683 C11.1201391,555.039894 9.07495483,554.243302 8.30366912,552.490683 L4.17366912,543.080683 C3.80512739,542.237201 3.11654917,541.574711 2.25946864,541.239005 C1.40238811,540.9033 0.447041095,540.921889 -0.396330877,541.290683 L-8.06633088,544.660683 C-8.90981307,545.029225 -9.57230347,545.717803 -9.90800897,546.574884 C-10.2437145,547.431964 -10.2251248,548.387311 -9.85633088,549.230683 L-5.72633088,558.640683 C-5.3547664,559.483734 -5.33477063,560.440158 -5.67077488,561.298002 C-6.00677914,562.155845 -6.67103362,562.844259 -7.51633088,563.210683 L-16.9263309,567.340683 C-18.6802422,568.116133 -19.4762732,570.164347 -18.7063309,571.920683 L-15.3463309,579.590683 C-14.5708813,581.344595 -12.5226668,582.140626 -10.7663309,581.370683 L-1.35633088,577.250683 C0.39719912,576.481472 2.44238341,577.278065 3.21366912,579.030683 L7.34366912,588.440683 C7.71221085,589.284166 8.40078908,589.946656 9.25786961,590.282361 C10.1149501,590.618067 11.0702972,590.599477 11.9136691,590.230683 L19.5936691,586.860683 C21.3462876,586.089398 22.1428801,584.044213 21.3736691,582.290683 L17.2436691,572.880683 C16.4749603,571.121622 17.2758892,569.072318 19.0336691,568.300683 L28.4436691,564.180683 C30.1975805,563.405234 30.9936115,561.357019 30.2236691,559.600683 L26.8636691,551.930683 C26.0920346,550.172903 24.0427305,549.371975 22.2836691,550.140683 L22.2836691,550.140683 Z" id="Path" stroke="#FFFFFF" stroke-width="2" fill-rule="nonzero"></path>
        <path d="M39.4363677,674.24328 C39.4072338,674.546063 39.5769745,674.833005 39.8563677,674.95328 L45.9963677,677.67328 C46.6163677,677.94328 39.2963677,680.40328 39.2963677,680.40328 C39.0004741,680.466389 38.7786117,680.712454 38.7463677,681.01328 L38.0563677,687.70328 C38.0244332,688.003859 37.8031686,688.249988 37.5076745,688.313633 C37.2121804,688.377278 36.9092104,688.24406 36.7563677,687.98328 L33.3863677,682.17328 C33.2388073,681.906839 32.9340077,681.768663 32.6363677,681.83328 L26.0663677,683.25328 C25.4063677,683.39328 29.8863677,677.09328 29.8863677,677.09328 C30.0895229,676.870813 30.1220782,676.54119 29.9663677,676.28328 L26.5963677,670.47328 C26.4364642,670.210412 26.466957,669.873947 26.6715131,669.644109 C26.8760691,669.414271 27.2067241,669.344951 27.4863677,669.47328 L33.6263677,672.19328 C33.9018513,672.314488 34.2239767,672.246037 34.4263677,672.02328 L38.9163677,667.02328 C39.3663677,666.52328 39.4363677,674.24328 39.4363677,674.24328 Z" id="Path" stroke="#FFFFFF" stroke-width="2" fill-rule="nonzero"></path>
        <path d="M29.4363677,75.2432797 C29.4072338,75.546063 29.5769745,75.8330055 29.8563677,75.9532797 L35.9963677,78.6732797 C36.6163677,78.9432797 29.2963677,81.4032797 29.2963677,81.4032797 C29.0004741,81.4663885 28.7786117,81.7124541 28.7463677,82.0132797 L28.0563677,88.7032797 C28.0244332,89.0038585 27.8031686,89.2499879 27.5076745,89.3136328 C27.2121804,89.3772776 26.9092104,89.2440603 26.7563677,88.9832797 L23.3863677,83.1732797 C23.2388073,82.9068387 22.9340077,82.7686629 22.6363677,82.8332797 L16.0663677,84.2532797 C15.4063677,84.3932797 19.8863677,78.0932797 19.8863677,78.0932797 C20.0895229,77.8708128 20.1220782,77.5411903 19.9663677,77.2832797 L16.5963677,71.4732797 C16.4364642,71.2104115 16.466957,70.8739474 16.6715131,70.6441091 C16.8760691,70.4142708 17.2067241,70.344951 17.4863677,70.4732797 L23.6263677,73.1932797 C23.9018513,73.3144882 24.2239767,73.2460365 24.4263677,73.0232797 L28.9163677,68.0232797 C29.3663677,67.5232797 29.4363677,75.2432797 29.4363677,75.2432797 Z" id="Path" stroke="#FFFFFF" stroke-width="2" fill-rule="nonzero"></path>
        <path d="M93.4363677,562.24328 C93.4072338,562.546063 93.5769745,562.833005 93.8563677,562.95328 L99.9963677,565.67328 C100.616368,565.94328 93.2963677,568.40328 93.2963677,568.40328 C93.0004741,568.466389 92.7786117,568.712454 92.7463677,569.01328 L92.0563677,575.70328 C92.0244332,576.003859 91.8031686,576.249988 91.5076745,576.313633 C91.2121804,576.377278 90.9092104,576.24406 90.7563677,575.98328 L87.3863677,570.17328 C87.2388073,569.906839 86.9340077,569.768663 86.6363677,569.83328 L80.0663677,571.25328 C79.4063677,571.39328 83.8863677,565.09328 83.8863677,565.09328 C84.0895229,564.870813 84.1220782,564.54119 83.9663677,564.28328 L80.5963677,558.47328 C80.4364642,558.210412 80.466957,557.873947 80.6715131,557.644109 C80.8760691,557.414271 81.2067241,557.344951 81.4863677,557.47328 L87.6263677,560.19328 C87.9018513,560.314488 88.2239767,560.246037 88.4263677,560.02328 L92.9163677,555.02328 C93.3663677,554.52328 93.4363677,562.24328 93.4363677,562.24328 Z" id="Path" stroke="#FFFFFF" stroke-width="2" fill-rule="nonzero"></path>
        <path d="M606.834814,22.0724156 C604.329285,22.4551525 602.05729,23.7605689 600.464814,25.7324156 C599.47007,26.8912373 597.753704,27.0954631 596.514814,26.2024156 C594.503245,24.6528574 591.985197,23.9109961 589.454814,24.1224156 C583.578691,24.8263127 579.381975,30.1549792 580.074814,36.0324156 C580.814814,42.3124156 586.334814,49.4324156 600.474814,56.5824156 C601.53725,57.1025686 602.806159,56.9498295 603.714814,56.1924156 C615.784814,45.9424156 619.484814,37.7224156 618.714814,31.4524156 C618.01574,25.5865064 612.702878,21.3916706 606.834814,22.0724156 L606.834814,22.0724156 Z" id="Path" stroke="#FFFFFF" stroke-width="2" fill-rule="nonzero"></path>
    </g>
</svg>