<?xml version="1.0" encoding="UTF-8"?>
<svg width="2824px" height="2824px" viewBox="0 0 2824 2824" version="1.1" xmlns="http://www.w3.org/2000/svg" xmlns:xlink="http://www.w3.org/1999/xlink">
    <!-- Generator: Sketch 55.2 (78181) - https://sketchapp.com -->
    <title>Artboard</title>
    <desc>Created with Sketch.</desc>
    <g id="Artboard" stroke="none" stroke-width="1" fill="none" fill-rule="evenodd">
        <g id="healthybluechat" fill="#0EE9DF" fill-rule="nonzero">
            <circle id="Oval" cx="1412" cy="1412" r="1412"></circle>
        </g>
        <g id="noun_Speech-Bubble_761565" transform="translate(530.000000, 731.000000)"></g>
        <g id="chat" transform="translate(573.000000, 685.000000)" fill="#FFFFFF" fill-rule="nonzero">
            <path d="M1400.24725,1174 C1382.53461,1174 1365.15407,1167.02311 1352.091,1153.95529 L1106.21735,907.992265 L699.380038,907.992265 C623.104961,907.992265 561,845.86473 561,769.561928 L561,138.430337 C561,62.1275351 623.104961,0 699.380038,0 L1540.61996,0 C1616.89504,0 1679,62.1275351 1679,138.430337 L1679,769.561928 C1679,845.86473 1616.89504,907.992265 1540.61996,907.992265 L1468.66234,907.992265 L1468.66234,1105.67079 C1468.66234,1133.35685 1452.16744,1158.16357 1426.48411,1168.79502 C1417.9599,1172.22809 1409.10357,1174 1400.24725,1174 Z M699.380038,66.4465616 C659.747995,66.4465616 627.422418,98.7838883 627.422418,138.430337 L627.422418,769.561928 C627.422418,809.208377 659.747995,841.545703 699.380038,841.545703 L1133.78265,841.545703 L1399.14021,1106.99972 C1399.69373,1107.55344 1400.02584,1107.88567 1401.13288,1107.44269 C1402.23992,1106.99972 1402.23992,1106.446 1402.23992,1105.78153 L1402.23992,841.545703 L1540.61996,841.545703 C1580.25201,841.545703 1612.57758,809.208377 1612.57758,769.561928 L1612.57758,138.430337 C1612.57758,98.7838883 1580.25201,66.4465616 1540.61996,66.4465616 L699.380038,66.4465616 Z" id="Shape"></path>
            <path d="M313.821819,1454 C304.963052,1454 296.104285,1452.33884 287.577722,1448.79502 C261.998032,1438.16357 245.387844,1413.4676 245.387844,1385.67079 L245.387844,1187.99226 L138.418233,1187.99226 C62.1221032,1187.99226 0,1125.86473 0,1049.56193 L0,418.430337 C0,342.127535 62.1221032,280 138.418233,280 L524.106799,280 L524.106799,346.446562 L138.418233,346.446562 C98.7752514,346.446562 66.4407521,378.783888 66.4407521,418.430337 L66.4407521,1049.56193 C66.4407521,1089.20838 98.7752514,1121.5457 138.418233,1121.5457 L311.828596,1121.5457 L311.828596,1385.67079 C311.828596,1386.446 311.828596,1386.88897 312.935942,1387.33195 C314.043288,1387.77493 314.375492,1387.44269 314.929165,1386.88897 L580.359969,1121.43496 L874.581767,1121.43496 C914.224749,1121.43496 946.559248,1089.09763 946.559248,1049.45118 L946.559248,944.244128 L1013,944.244128 L1013,1049.45118 C1013,1125.75399 950.877897,1187.88152 874.581767,1187.88152 L607.932882,1187.88152 L361.991364,1433.84454 C348.924683,1447.02311 331.539353,1454 313.821819,1454 Z" id="Path"></path>
        </g>
    </g>
</svg>