<?xml version="1.0" encoding="UTF-8"?>
<svg width="100%" height="100%" viewBox="0 0 134 28" version="1.1" xmlns="http://www.w3.org/2000/svg" xmlns:xlink="http://www.w3.org/1999/xlink">
    <!-- Generator: Sketch 48.2 (47327) - http://www.bohemiancoding.com/sketch -->
    <title>Artboard 3</title>
    <desc>Created with Sketch.</desc>
    <defs></defs>
    <g id="Timeline-1" stroke="none" stroke-width="1" fill="none" fill-rule="evenodd">
        <g id="Artboard-3" fill="#FFFFFF">
            <path d="M5.74414062,7.13867188 L2.59472656,8.79394531 C2.10644287,9.03808716 1.77929771,9.16015625 1.61328125,9.16015625 C1.31054536,9.16015625 1.08837961,9.06494236 0.946777344,8.87451172 C0.805175073,8.68408108 0.734375,8.38867388 0.734375,7.98828125 C0.734375,7.52929458 0.832030273,6.99951472 1.02734375,6.39892578 C1.22265723,5.79833684 1.44726436,5.35644673 1.70117188,5.07324219 C1.96484507,4.78027197 2.58251467,4.37744397 3.55419922,3.86474609 C4.52588376,3.35204822 5.69530566,2.83691665 7.0625,2.31933594 C8.42969434,1.80175522 9.85546133,1.37207202 11.3398438,1.03027344 C12.8242262,0.688474854 14.1816345,0.517578125 15.4121094,0.517578125 C16.2714887,0.517578125 16.9062479,0.654295508 17.3164062,0.927734375 C17.7265646,1.20117324 17.9316406,1.92382227 17.9316406,3.09570312 C17.9316406,3.73047192 17.7143576,4.43603127 17.2797852,5.21240234 C16.8452127,5.98877341 16.322757,6.7431604 15.7124023,7.47558594 C15.1020477,8.20801147 13.9716879,9.50682661 12.3212891,11.3720703 C13.2001997,11.2353509 13.8447245,11.1474611 14.2548828,11.1083984 C14.6650411,11.0693357 15.431635,10.9863288 16.5546875,10.859375 C17.8535221,8.98436562 18.9033163,7.48779856 19.7041016,6.36962891 C20.5048868,5.25145925 21.183591,4.32373416 21.7402344,3.58642578 C22.2968778,2.84911741 22.6289057,2.42675835 22.7363281,2.31933594 C22.9316416,2.09472544 23.0952142,2.00927708 23.2270508,2.06298828 C23.3588874,2.11669949 23.4248047,2.31933418 23.4248047,2.67089844 C23.4248047,3.07129106 23.3833012,3.39843623 23.300293,3.65234375 C23.2172847,3.90625127 23.0878915,4.1577136 22.9121094,4.40673828 C22.7363272,4.65576296 22.6435547,4.79003896 22.6337891,4.80957031 C22.3798815,5.22949429 22.0136743,5.7788052 21.5351562,6.45751953 C21.0566382,7.13623386 20.5878929,7.80761387 20.1289062,8.47167969 C19.6699196,9.13574551 19.1474639,9.92187046 18.5615234,10.8300781 C19.6552789,10.8691408 20.7343697,11.010741 21.7988281,11.2548828 L19.1621094,14.8291016 C18.4394495,14.7314448 17.4775451,14.6826172 16.2763672,14.6826172 C15.983397,15.2685576 15.7563485,15.7275374 15.5952148,16.0595703 C15.4340812,16.3916032 15.2973638,16.7065415 15.1850586,17.0043945 C15.0727533,17.3022476 15.0166016,17.5781237 15.0166016,17.8320312 C15.0166016,17.988282 15.0629878,18.1957995 15.1557617,18.4545898 C15.2485356,18.7133802 15.2949219,18.8623045 15.2949219,18.9013672 C15.2949219,19.0966807 15.1508803,19.3041981 14.862793,19.5239258 C14.5747056,19.7436534 14.2377949,19.9365226 13.8520508,20.1025391 C13.4663067,20.2685555 13.1660167,20.3515625 12.9511719,20.3515625 C12.5898419,20.3515625 12.4091797,20.0781277 12.4091797,19.53125 C12.4091797,18.3984318 12.9902286,16.8212992 14.1523438,14.7998047 C12.6093673,14.9267584 10.8369241,15.1562483 8.83496094,15.4882812 C8.25878618,16.2500038 7.73633047,16.9726528 7.26757812,17.65625 C6.79882578,18.3398472 6.41552883,18.9160133 6.11767578,19.3847656 C5.81982273,19.853518 5.60009836,20.1660148 5.45849609,20.3222656 C5.31689382,20.4785164 5.16308677,20.5566406 4.99707031,20.5566406 C4.71386577,20.5566406 4.47461035,20.4345715 4.27929688,20.1904297 C4.19140581,20.0927729 4.13525403,19.9951177 4.11083984,19.8974609 C4.08642566,19.7998042 4.07421875,19.6923834 4.07421875,19.5751953 L4.07421875,19.2675781 C4.07421875,19.15039 4.13769468,18.9794933 4.26464844,18.7548828 C4.3916022,18.5302723 4.69433354,18.0834994 5.17285156,17.4145508 C5.65136958,16.7456021 6.00292856,16.2402361 6.22753906,15.8984375 C5.97363154,15.9277345 5.64648638,15.9423828 5.24609375,15.9423828 C4.73827871,15.9423828 4.32568518,15.8496103 4.00830078,15.6640625 C3.69091638,15.4785147 3.53222656,15.2490248 3.53222656,14.9755859 C3.53222656,14.6630844 3.61523354,14.3286151 3.78125,13.972168 C3.94726646,13.6157209 4.16210806,13.3178723 4.42578125,13.0786133 C4.68945444,12.8393543 4.95312368,12.7197266 5.21679688,12.7197266 C5.392579,12.7197266 5.60253784,12.773437 5.84667969,12.8808594 L9.62597656,11.9433594 C11.7353621,9.6581917 13.307612,7.85156914 14.3427734,6.5234375 C15.3779349,5.19530586 15.8955078,4.34082222 15.8955078,3.95996094 C15.8955078,3.74511611 15.8369146,3.56689524 15.7197266,3.42529297 C15.6025385,3.2836907 15.4389659,3.17382852 15.2290039,3.09570312 C15.0190419,3.01757773 14.7773451,2.97851562 14.5039062,2.97851562 C14.181639,2.97851562 13.6713902,3.06640537 12.9731445,3.2421875 C12.2748989,3.41796963 11.4423876,3.6767561 10.4755859,4.01855469 C9.50878423,4.36035327 8.3027416,4.83398135 6.85742187,5.43945312 C5.78319775,5.87890845 5.24609375,6.15722598 5.24609375,6.27441406 C5.24609375,6.4111335 5.31933521,6.49902324 5.46582031,6.53808594 C5.61230542,6.57714863 5.80029182,6.60644521 6.02978516,6.62597656 C6.25927849,6.64550791 6.37402344,6.67968726 6.37402344,6.72851562 C6.37402344,6.76757832 6.31787166,6.82128872 6.20556641,6.88964844 C6.09326116,6.95800815 5.9394541,7.04101514 5.74414062,7.13867188 Z M24.3476563,15.9130859 L24.3476563,16.2792969 C24.3476563,16.8554716 24.4892564,17.3046859 24.7724609,17.6269531 C25.0556655,17.9492204 25.4267555,18.1103516 25.8857422,18.1103516 C26.3642602,18.1103516 26.8598607,17.998048 27.3725586,17.7734375 C27.8852565,17.548827 28.3955053,17.2509784 28.9033203,16.8798828 C29.4111354,16.5087872 30.0312463,16.0107453 30.7636719,15.3857422 L30.7636719,16.2792969 C29.6601507,17.6074285 28.6250048,18.6254847 27.6582031,19.3334961 C26.6914014,20.0415074 25.7099659,20.3955078 24.7138672,20.3955078 C23.8447222,20.3955078 23.1562525,20.0585971 22.6484375,19.3847656 C22.1406225,18.7109341 21.8867188,17.7880918 21.8867188,16.6162109 C21.8867188,15.5908152 22.1259742,14.6606487 22.6044922,13.8256836 C23.0830102,12.9907185 23.8642524,12.1093796 24.9482422,11.1816406 C25.6904334,10.5468718 26.4277307,10.068361 27.1601563,9.74609375 C27.8925818,9.42382651 28.5468721,9.26269531 29.1230469,9.26269531 C29.5820335,9.26269531 29.9457994,9.36767473 30.2143555,9.57763672 C30.4829115,9.78759871 30.6171875,10.102537 30.6171875,10.5224609 C30.6171875,11.1376984 30.3876976,11.7504852 29.9287109,12.3608398 C29.4697243,12.9711945 28.7690477,13.5766572 27.8266602,14.1772461 C26.8842726,14.777835 25.7246163,15.3564425 24.3476563,15.9130859 Z M24.4941406,14.9609375 C25.3730513,14.6191389 26.1249969,14.1943385 26.75,13.6865234 C27.3750031,13.1787084 27.8364243,12.6928734 28.1342773,12.2290039 C28.4321304,11.7651344 28.5810547,11.4257823 28.5810547,11.2109375 C28.5810547,10.986327 28.4785167,10.8740234 28.2734375,10.8740234 C28.0976554,10.8740234 27.8120137,10.986327 27.4165039,11.2109375 C27.0209941,11.435548 26.6206075,11.7285138 26.215332,12.0898438 C25.8100566,12.4511737 25.4462907,12.8759741 25.1240234,13.3642578 C24.8017562,13.8525415 24.5917974,14.3847627 24.4941406,14.9609375 Z M32.4775391,12.7636719 C33.9619215,11.4160089 35.4023368,10.4150423 36.7988281,9.76074219 C38.1953195,9.10644204 39.2744103,8.77929688 40.0361328,8.77929688 C40.241212,8.77929688 40.4316397,8.86474524 40.6074219,9.03564453 C40.783204,9.20654382 40.9223628,9.40429575 41.0249023,9.62890625 C41.1274419,9.85351675 41.1787109,10.0195307 41.1787109,10.1269531 C41.1787109,10.3027353 41.1103522,10.4321285 40.9736328,10.5151367 C40.8369134,10.5981449 40.597658,10.6982416 40.2558594,10.8154297 C40.3242191,10.9716805 40.4121088,11.1718738 40.5195312,11.4160156 C40.6269537,11.6601575 40.7099606,11.8579094 40.7685547,12.0092773 C40.8271487,12.1606453 40.8564453,12.2949213 40.8564453,12.4121094 C40.8564453,12.6464855 40.6196313,13.0834929 40.1459961,13.7231445 C39.6723609,14.3627962 39.340333,14.8339829 39.1499023,15.1367188 C38.9594717,15.4394546 38.8642578,15.8105447 38.8642578,16.25 C38.8642578,16.9726599 39.1962857,17.3339844 39.8603516,17.3339844 C40.5439487,17.3339844 41.613274,16.6943423 43.0683594,15.4150391 L43.0683594,16.3085938 C40.5976439,19.0527481 38.8300834,20.4248047 37.765625,20.4248047 C37.3847637,20.4248047 37.1137703,20.3002942 36.9526367,20.0512695 C36.7915031,19.8022448 36.7109375,19.4335962 36.7109375,18.9453125 C36.7109375,18.1738243 36.989255,17.0556714 37.5458984,15.5908203 C36.1201101,17.1728595 35.0605503,18.2983365 34.3671875,18.9672852 C33.6738247,19.6362338 33.1025413,19.9707031 32.6533203,19.9707031 C32.4384755,19.9707031 32.1699235,19.7851581 31.8476562,19.4140625 C31.525389,19.0429669 31.2397473,18.5620147 30.9907227,17.9711914 C30.741698,17.3803681 30.6171875,16.7675813 30.6171875,16.1328125 C30.6171875,15.6738258 30.6611324,15.2905289 30.7490234,14.9829102 C30.8369145,14.6752914 31.0078112,14.3603532 31.2617188,14.0380859 C31.5156263,13.7158187 31.9208957,13.2910183 32.4775391,12.7636719 Z M39.4941406,11.1523438 C36.9550654,12.3144589 35.1460015,13.3007772 34.0668945,14.1113281 C32.9877876,14.9218791 32.4482422,15.7568316 32.4482422,16.6162109 C32.4482422,16.9287125 32.5019526,17.1850576 32.609375,17.3852539 C32.7167974,17.5854502 32.8632803,17.6855469 33.0488281,17.6855469 C33.1562505,17.6855469 33.3466783,17.6171882 33.6201172,17.4804688 C34.6455129,16.874997 35.5830036,16.0864306 36.4326172,15.1147461 C37.2822308,14.1430615 38.3027284,12.822274 39.4941406,11.1523438 Z M49.9384766,15.2246094 L49.9384766,16.3085938 C47.8974507,19.0136854 46.2373111,20.3662109 44.9580078,20.3662109 C44.264645,20.3662109 43.7202168,19.9877968 43.324707,19.230957 C42.9291972,18.4741173 42.7314453,17.4804749 42.7314453,16.25 C42.7314453,15.2539013 42.965818,14.0698311 43.4345703,12.6977539 C43.9033227,11.3256767 44.5307578,9.93408909 45.3168945,8.52294922 C46.1030313,7.11180935 46.9184528,5.88135291 47.7631836,4.83154297 C48.6079144,3.78173303 49.3915979,3.0468771 50.1142578,2.62695312 C50.407228,2.451171 50.6367179,2.36328125 50.8027344,2.36328125 C51.0078135,2.36328125 51.1445309,2.45361238 51.2128906,2.63427734 C51.2812503,2.81494231 51.3154297,3.1249978 51.3154297,3.56445312 C51.3154297,4.92188179 50.7636774,6.58934558 49.6601562,8.56689453 C48.5566351,10.5444435 47.0185646,12.5634663 45.0458984,14.6240234 C44.9482417,15.1318385 44.8994141,15.5224596 44.8994141,15.7958984 C44.8994141,16.4209016 45.0336901,16.928709 45.3022461,17.3193359 C45.5708021,17.7099629 45.9443335,17.9052734 46.4228516,17.9052734 C46.6669934,17.9052734 46.9306626,17.8100595 47.2138672,17.6196289 C47.4970717,17.4291983 47.7949203,17.1923842 48.1074219,16.9091797 C48.4199234,16.6259751 49.0302689,16.0644573 49.9384766,15.2246094 Z M45.5585938,12.5878906 C46.0664088,12.0898413 46.5571265,11.5234407 47.0307617,10.8886719 C47.5043969,10.2539031 47.9511698,9.57519893 48.3710938,8.85253906 C48.7910177,8.1298792 49.1206043,7.48047163 49.3598633,6.90429688 C49.5991223,6.32812212 49.71875,5.89355615 49.71875,5.60058594 C49.71875,5.37597544 49.6406258,5.26367188 49.484375,5.26367188 C49.425781,5.26367188 49.3134774,5.31738228 49.1474609,5.42480469 C48.5517548,5.91308838 47.8828162,6.86766868 47.140625,8.28857422 C46.3984338,9.70947976 45.8710953,11.1425709 45.5585938,12.5878906 Z M54.9482422,7.78320312 L55.578125,7.78320312 C56.0957057,6.85546411 56.564451,6.1987324 56.984375,5.81298828 C57.404299,5.42724417 57.8828098,5.234375 58.4199219,5.234375 C58.9570339,5.234375 59.2255859,5.35644409 59.2255859,5.60058594 C59.2255859,5.71777402 59.0156271,6.03515366 58.5957031,6.55273438 C58.1757792,7.07031509 57.8583995,7.50488105 57.6435547,7.85644531 C57.9755876,7.89550801 58.2709948,7.92968735 58.5297852,7.95898438 C58.7885755,7.9882814 58.9912102,8.01269521 59.1376953,8.03222656 C58.5810519,9.06738799 57.8828167,10.1269477 57.0429688,11.2109375 C56.7695299,11.1914062 56.54004,11.1743165 56.3544922,11.159668 C56.1689444,11.1450195 55.980958,11.1303712 55.7905273,11.1157227 C55.6000967,11.1010741 55.3681654,11.0839845 55.0947266,11.0644531 C54.5673802,11.9140667 54.1254901,12.6733365 53.769043,13.3422852 C53.4125959,14.0112338 53.1391611,14.6240207 52.9487305,15.1806641 C52.7582998,15.7373075 52.6630859,16.2646459 52.6630859,16.7626953 C52.6630859,17.4365268 52.9316379,17.7734375 53.46875,17.7734375 C53.8398456,17.7734375 54.3256806,17.5756856 54.9262695,17.1801758 C55.5268585,16.784666 56.3300731,16.1767619 57.3359375,15.3564453 L57.3359375,16.3378906 C54.6992056,19.1992331 52.7509829,20.6298828 51.4912109,20.6298828 C51.0517556,20.6298828 50.6977552,20.4589861 50.4291992,20.1171875 C50.1606432,19.7753889 50.0263672,19.3359402 50.0263672,18.7988281 C50.0263672,18.4374982 50.10205,18.007815 50.253418,17.5097656 C50.4047859,17.0117163 50.6757793,16.2597707 51.0664062,15.2539062 C50.9296868,15.3710943 50.8002936,15.4858393 50.6782227,15.5981445 C50.5561517,15.7104498 50.4438482,15.8129878 50.3413086,15.9057617 C50.238769,15.9985356 50.1289068,16.0961909 50.0117188,16.1987305 C49.8945307,16.30127 49.7773443,16.4062495 49.6601562,16.5136719 L49.6601562,15.5029297 C50.685552,14.6435504 51.925774,13.1347764 53.3808594,10.9765625 C53.2343743,10.9667968 53.0976569,10.9594727 52.9707031,10.9545898 C52.8437494,10.949707 52.6923837,10.9472656 52.5166016,10.9472656 C51.9404268,10.9472656 51.5107436,10.9863277 51.2275391,11.0644531 C51.110351,11.0937501 51.0004888,11.1254881 50.8979492,11.159668 C50.7954096,11.1938478 50.7246096,11.2109375 50.6855469,11.2109375 C50.6464842,11.2109375 50.6269531,11.1816409 50.6269531,11.1230469 C50.6269531,10.8007796 50.8271464,10.317386 51.2275391,9.67285156 C51.5498063,9.12597383 51.854979,8.72070444 52.1430664,8.45703125 C52.4311538,8.19335806 52.7827128,8.01513718 53.1977539,7.92236328 C53.612795,7.82958938 54.1962853,7.78320312 54.9482422,7.78320312 Z M68.2636719,15.3857422 L68.2636719,16.3085938 C67.4140583,17.1777387 66.6792023,17.8881808 66.059082,18.4399414 C65.4389617,18.991702 64.896975,19.4091783 64.4331055,19.6923828 C63.969236,19.9755874 63.5761735,20.1171875 63.2539063,20.1171875 C62.4921837,20.1171875 62.1113281,19.6679732 62.1113281,18.7695312 C62.1113281,18.0468714 62.3481422,17.2094774 62.8217773,16.2573242 C63.2954125,15.305171 63.9765581,14.1845768 64.8652344,12.8955078 C64.4257791,13.1396497 64.0107441,13.4204086 63.6201172,13.737793 C63.2294902,14.0551774 62.882814,14.3872053 62.5800781,14.7338867 C62.2773422,15.0805681 62.0234385,15.3759753 61.8183594,15.6201172 C61.1835906,16.3330114 60.5732451,17.0629845 59.9873047,17.8100586 C59.4013643,18.5571326 59.0058604,19.0429676 58.8007813,19.2675781 C58.5957021,19.4921886 58.4003916,19.6044922 58.2148438,19.6044922 C57.4531212,19.6044922 57.0722656,18.6670016 57.0722656,16.7919922 C57.0722656,16.1767547 57.1650381,15.4980506 57.3505859,14.7558594 C57.5361337,14.0136682 58.0341756,13.0322327 58.8447266,11.8115234 C60.5537195,9.25291689 62.0161072,7.16065266 63.2319336,5.53466797 C64.44776,3.90868328 65.4560507,2.67822683 66.2568359,1.84326172 C67.0576212,1.00829661 67.5947252,0.60058584 67.8681641,0.620117187 C68.2099626,0.649414209 68.4858388,0.7177729 68.6958008,0.825195312 C68.9057628,0.932617725 69.0107422,1.05468682 69.0107422,1.19140625 C69.0107422,1.4355481 68.8422868,1.8383761 68.5053711,2.39990234 C68.1684553,2.96142859 67.5898479,3.83788467 66.7695312,5.02929687 C65.8808549,6.2890688 65.2509784,7.17529041 64.8798828,7.68798828 C64.5087872,8.20068616 63.9545935,8.92821794 63.2172852,9.87060547 C62.4799768,10.812993 61.8061554,11.6528283 61.1958008,12.3901367 C60.5854462,13.1274451 59.8896523,13.925777 59.1083984,14.7851562 L59.1083984,16.5429688 C60.4169987,15.0878833 61.5497999,13.896489 62.5068359,12.96875 C63.463872,12.041011 64.2744107,11.3403344 64.9384766,10.8666992 C65.6025424,10.393064 66.0908188,10.15625 66.4033203,10.15625 C66.6962905,10.15625 66.9697253,10.3295881 67.2236328,10.6762695 C67.4775403,11.022951 67.6044922,11.3085926 67.6044922,11.5332031 C67.6044922,11.6308599 67.5556646,11.752929 67.4580078,11.8994141 C66.7548793,12.739262 66.1958029,13.4350558 65.7807617,13.9868164 C65.3657206,14.538577 65.0458996,15.0317361 64.8212891,15.4663086 C64.5966786,15.9008811 64.484375,16.2744125 64.484375,16.5869141 C64.484375,17.0459007 64.7040994,17.2753906 65.1435547,17.2753906 C65.612307,17.2753906 66.6523357,16.6455141 68.2636719,15.3857422 Z M75.0166016,15.9570312 L72.4091797,18.1689453 C71.1689391,19.2529351 70.3388693,19.7949219 69.9189453,19.7949219 C69.538084,19.7949219 69.1376974,19.3579145 68.7177734,18.4838867 C68.2978495,17.6098589 68.0878906,16.8457064 68.0878906,16.1914062 C68.0878906,15.6347628 68.173339,15.1635761 68.3442383,14.777832 C68.5151376,14.3920879 68.8105448,13.8916046 69.2304688,13.2763672 C69.8261749,12.4462849 70.3974582,11.7431669 70.9443359,11.1669922 C71.4912137,10.5908174 71.9746073,10.1440446 72.3945312,9.82666016 C72.8144552,9.50927576 73.107421,9.35058594 73.2734375,9.35058594 C73.5371107,9.35058594 73.7934558,9.48730332 74.0424805,9.76074219 C74.2915052,10.0341811 74.4160156,10.3173813 74.4160156,10.6103516 C74.4160156,10.7958994 74.2817396,11.0937479 74.0131836,11.5039062 C73.7446276,11.9140646 73.3198271,12.4340789 72.7387695,13.0639648 C72.1577119,13.6938508 71.3496146,14.4482378 70.3144531,15.3271484 L70.0361328,16.1328125 C69.9580074,16.2890633 69.9189453,16.4257807 69.9189453,16.5429688 C69.9189453,16.8066419 70.0507799,16.9384766 70.3144531,16.9384766 C70.587892,16.9384766 71.2299754,16.5918003 72.2407227,15.8984375 C73.2514699,15.2050747 74.3476503,14.2724668 75.5292969,13.1005859 C75.9882835,12.6415993 76.3691391,12.2363299 76.671875,11.8847656 C76.9746109,11.5332014 77.2480457,11.2036148 77.4921875,10.8959961 C77.7363293,10.5883774 77.938964,10.3564461 78.1000977,10.2001953 C78.2612313,10.0439445 78.4052728,9.96093755 78.5322266,9.95117188 C78.7763684,9.92187485 78.9667962,10.0244129 79.1035156,10.2587891 C79.2402351,10.4931652 79.3085938,10.8398415 79.3085938,11.2988281 C79.3085938,11.5625013 79.1914074,11.8920879 78.9570312,12.2875977 C78.7226551,12.6831074 78.2832063,13.3569288 77.6386719,14.309082 C76.9941374,15.2612352 76.352054,16.2475535 75.7124023,17.2680664 C75.0727507,18.2885793 74.4209018,19.4384702 73.7568359,20.7177734 C73.786133,20.6884764 74.0864229,20.3955106 74.6577148,19.8388672 C75.2290068,19.2822238 75.8320281,18.7011749 76.4667969,18.0957031 C77.1015657,17.4902313 77.6240214,17.0043964 78.0341797,16.6381836 C78.444338,16.2719708 78.9570282,15.844729 79.5722656,15.3564453 L79.5722656,16.3378906 C78.2538997,17.7539133 77.0600639,19.0966733 75.9907227,20.3662109 C74.9213814,21.6357485 74.0961943,22.6513634 73.5151367,23.4130859 C72.9340791,24.1748085 72.5947271,24.61914 72.4970703,24.7460938 C72.2333971,25.0878923 71.9965831,25.4077134 71.7866211,25.7055664 C71.5766591,26.0034195 71.4008796,26.2329094 71.2592773,26.394043 C71.1176751,26.5551766 71.0029301,26.6357422 70.9150391,26.6357422 C70.7099599,26.6357422 70.5268563,26.4331075 70.3657227,26.027832 C70.204589,25.6225566 70.1240234,25.2636734 70.1240234,24.9511719 C70.1240234,24.6679673 70.1777338,24.4189464 70.2851562,24.2041016 C70.9882848,22.6220624 72.5654174,19.8730665 75.0166016,15.9570312 Z M94.2060547,9.8046875 L94.4697266,8.09082031 C94.5576176,7.50487988 94.7138661,7.02636904 94.9384766,6.65527344 C95.1630871,6.28417783 95.5561495,5.87646707 96.1176758,5.43212891 C96.679202,4.98779075 97.5507753,4.35547285 98.7324219,3.53515625 C101.574233,1.55272446 103.786125,0.561523438 105.368164,0.561523438 C105.846682,0.561523438 106.186034,0.659178711 106.38623,0.854492188 C106.586427,1.04980566 106.686523,1.39159912 106.686523,1.87988281 C106.686523,2.2216814 106.55713,2.69042671 106.29834,3.28613281 C106.039549,3.88183892 105.565921,4.8242123 104.877441,6.11328125 C104.188961,7.4023502 103.581057,8.55956519 103.053711,9.58496094 C102.624021,10.4248089 102.135745,11.3159133 101.588867,12.2583008 C101.041989,13.2006883 100.675782,13.8476545 100.490234,14.1992188 C100.304687,14.550783 100.211914,14.8144522 100.211914,14.9902344 C100.211914,15.1855479 100.27539,15.3540032 100.402344,15.4956055 C100.529298,15.6372077 100.685546,15.7080078 100.871094,15.7080078 C101.125001,15.7080078 101.410643,15.5712904 101.728027,15.2978516 C102.045412,15.0244127 102.667964,14.4335983 103.595703,13.5253906 C104.044924,13.0761696 104.525876,12.5439484 105.038574,11.9287109 C105.551272,11.3134735 106.188473,10.5224658 106.950195,9.55566406 C107.711918,8.58886235 108.415036,7.69043384 109.05957,6.86035156 C109.459963,6.34277085 109.821287,5.8789083 110.143555,5.46875 C110.465822,5.0585917 110.741698,4.74365344 110.971191,4.52392578 C111.200685,4.30419812 111.383788,4.19433594 111.520508,4.19433594 C111.637696,4.19433594 111.828124,4.34081885 112.091797,4.63378906 L112.443359,5.08789062 C112.707033,5.45898623 112.838867,5.72753823 112.838867,5.89355469 C112.838867,6.08886816 112.475101,6.80419304 111.747559,8.03955078 C111.020016,9.27490852 110.402346,10.3442338 109.894531,11.2475586 C109.386716,12.1508834 108.729984,13.4545813 107.924316,15.1586914 C107.118648,16.8628015 106.34473,18.7548724 105.602539,20.8349609 C107.584971,19.3408128 108.942379,18.3422877 109.674805,17.8393555 C110.40723,17.3364233 110.939451,17.0849609 111.271484,17.0849609 C111.496095,17.0849609 111.608398,17.1777334 111.608398,17.3632812 C111.608398,17.5683604 111.500978,17.834471 111.286133,18.1616211 C111.071288,18.4887712 110.783205,18.8500957 110.421875,19.2456055 C110.060545,19.6411153 109.516117,20.2123986 108.788574,20.9594727 C108.061032,21.7065467 107.267582,22.5146441 106.408203,23.3837891 C105.880857,23.9209011 105.368167,24.5458949 104.870117,25.2587891 C104.372068,25.9716833 103.986329,26.5234355 103.712891,26.9140625 C103.439452,27.3046895 103.190431,27.5292966 102.96582,27.5878906 C102.633787,27.6855474 102.331056,27.6123059 102.057617,27.3681641 C101.784178,27.1240222 101.647461,26.7382839 101.647461,26.2109375 C101.647461,25.8398419 101.835447,25.073248 102.211426,23.9111328 C102.587404,22.7490176 103.156246,21.3037196 103.917969,19.5751953 C104.36719,18.5400339 104.82617,17.5610398 105.294922,16.6381836 C105.763674,15.7153274 106.30322,14.6997126 106.913574,13.5913086 C107.523929,12.4829046 108.122067,11.430669 108.708008,10.4345703 C109.293948,9.43847158 109.79199,8.5888707 110.202148,7.88574219 C109.225581,9.16504546 108.256352,10.4077088 107.294434,11.6137695 C106.332515,12.8198302 105.258307,14.0893488 104.071777,15.4223633 C102.885248,16.7553778 101.686529,18.0029239 100.475586,19.1650391 C99.9482396,19.6630884 99.5698254,20.0024405 99.340332,20.1831055 C99.1108387,20.3637704 98.8105487,20.4541016 98.4394531,20.4541016 C98.205077,20.4541016 97.9780284,20.373536 97.7583008,20.2124023 C97.5385731,20.0512687 97.3554695,19.8413099 97.2089844,19.5825195 C97.0624993,19.3237292 96.9892578,19.0722668 96.9892578,18.828125 C96.9892578,18.4179667 97.0502924,18.0566422 97.1723633,17.7441406 C97.2944342,17.4316391 97.5068344,16.9628938 97.8095703,16.3378906 C99.137702,13.6523303 100.104489,11.8115284 100.709961,10.8154297 C102.877941,7.3388498 103.961914,5.3906271 103.961914,4.97070312 C103.961914,4.83398369 103.913086,4.72412151 103.81543,4.64111328 C103.717773,4.55810505 103.595704,4.51660156 103.449219,4.51660156 C103.17578,4.51660156 102.848635,4.63622927 102.467773,4.87548828 C102.086912,5.11474729 101.608401,5.46874766 101.032227,5.9375 C100.456052,6.40625234 99.7553752,6.96777017 98.9301758,7.62207031 C98.1049763,8.27637046 97.2382858,8.90136421 96.3300781,9.49707031 C95.9687482,9.73144648 95.5610374,10.009764 95.1069336,10.3320312 C94.6528298,10.6542985 94.3916019,10.8154297 94.3232422,10.8154297 C94.1865228,10.8154297 94.1181641,10.747071 94.1181641,10.6103516 C94.1181641,10.4833978 94.1474606,10.2148458 94.2060547,9.8046875 Z M122.331055,15.3564453 L122.331055,16.3378906 C121.68652,16.9238311 121.168947,17.3144521 120.77832,17.5097656 C120.387693,17.7050791 119.826176,17.7832033 119.09375,17.7441406 C117.824212,19.2480544 116.70606,20 115.739258,20 C115.19238,20 114.694338,19.8193377 114.245117,19.4580078 C113.795896,19.0966779 113.437013,18.6035188 113.168457,17.9785156 C112.899901,17.3535125 112.765625,16.6552773 112.765625,15.8837891 C112.765625,15.2587859 112.973142,14.5654335 113.388184,13.8037109 C113.803225,13.0419884 114.340329,12.3315463 114.999512,11.6723633 C115.658695,11.0131803 116.364254,10.4809591 117.116211,10.0756836 C117.868168,9.67040813 118.566403,9.46777344 119.210938,9.46777344 C119.669924,9.46777344 120.031249,9.53857351 120.294922,9.68017578 C120.558595,9.82177805 120.69043,10.01953 120.69043,10.2734375 C120.69043,10.468751 120.578126,10.6933581 120.353516,10.9472656 C120.724611,11.025391 120.978515,11.1547843 121.115234,11.3354492 C121.251954,11.5161142 121.320313,11.8457007 121.320313,12.3242188 C121.320313,12.7929711 121.21045,13.3837855 120.990723,14.0966797 C120.770995,14.8095739 120.470705,15.4785125 120.089844,16.1035156 L120.353516,16.3671875 L120.573242,16.3671875 C120.739259,16.3671875 120.902831,16.325684 121.063965,16.2426758 C121.225098,16.1596676 121.36914,16.0717778 121.496094,15.9790039 C121.623048,15.88623 121.901365,15.6787125 122.331055,15.3564453 Z M119.313477,11.5039062 C118.502926,11.9921899 117.809573,12.4340801 117.233398,12.8295898 C116.657224,13.2250996 116.168947,13.6254863 115.768555,14.0307617 C115.368162,14.4360372 115.09961,14.8437479 114.962891,15.2539062 C114.718749,16.3476617 114.59668,16.9384761 114.59668,17.0263672 C114.59668,17.6709017 115.045894,17.9931641 115.944336,17.9931641 C116.36426,17.9931641 117.067378,17.6318396 118.053711,16.9091797 C117.887694,16.450193 117.804688,16.0107443 117.804688,15.5908203 C117.804688,14.9755829 117.931639,14.3481477 118.185547,13.7084961 C118.439454,13.0688445 118.815427,12.3339885 119.313477,11.5039062 Z M129.201172,14.3896484 C127.785149,16.2646578 126.7085,17.5976523 125.971191,18.3886719 C125.233883,19.1796915 124.630862,19.5751953 124.162109,19.5751953 C123.791014,19.5751953 123.44922,19.4213883 123.136719,19.1137695 C122.824217,18.8061508 122.58252,18.3911159 122.411621,17.8686523 C122.240722,17.3461888 122.155273,16.7871124 122.155273,16.1914062 C122.155273,15.8007793 122.191894,15.4492203 122.265137,15.1367188 C122.338379,14.8242172 122.477538,14.4799823 122.682617,14.1040039 C122.887696,13.7280255 123.15869,13.3203147 123.495605,12.8808594 C123.832521,12.4414041 124.245115,11.9433622 124.733398,11.3867188 C125.026369,11.0449202 125.272948,10.7568371 125.473145,10.5224609 C125.673341,10.2880848 125.868651,10.1293949 126.059082,10.0463867 C126.249513,9.96337849 126.559568,9.921875 126.989258,9.921875 C127.301759,9.921875 127.599608,9.96337849 127.882813,10.0463867 C128.166017,10.1293949 128.307617,10.2148433 128.307617,10.3027344 C128.307617,10.4785165 128.163576,10.7958961 127.875488,11.2548828 C127.587401,11.7138695 127.123538,12.2729459 126.483887,12.9321289 C125.844235,13.5913119 125.104496,14.2382781 124.264648,14.8730469 C124.079101,15.4492216 123.986328,15.8886704 123.986328,16.1914062 C123.986328,16.6113302 124.147459,16.8212891 124.469727,16.8212891 C124.586915,16.8212891 124.782225,16.7211924 125.055664,16.5209961 C125.329103,16.3207998 125.790524,15.9350615 126.439941,15.3637695 C127.089359,14.7924776 127.672849,14.2871116 128.19043,13.8476562 C128.571291,13.5156233 129.013181,13.0200228 129.516113,12.3608398 C130.019045,11.7016569 130.426756,11.2060563 130.739258,10.8740234 C131.461918,10.1123009 131.955077,9.61670037 132.21875,9.38720703 C132.482423,9.1577137 132.736327,9.04296875 132.980469,9.04296875 C133.214845,9.04296875 133.373535,9.11621021 133.456543,9.26269531 C133.539551,9.40918042 133.581055,9.707029 133.581055,10.15625 C133.581055,10.3613292 133.561524,10.5273431 133.522461,10.6542969 C133.483398,10.7812506 133.402833,10.9448232 133.280762,11.1450195 C133.158691,11.3452158 132.912111,11.7138645 132.541016,12.2509766 C132.16992,12.7880886 131.730471,13.4228479 131.222656,14.1552734 C130.949217,14.5459004 130.709962,14.9731422 130.504883,15.4370117 C130.299804,15.9008812 130.197266,16.2499988 130.197266,16.484375 C130.197266,16.99219 130.397459,17.2460938 130.797852,17.2460938 C131.129884,17.2460938 131.515623,17.1093764 131.955078,16.8359375 C132.394533,16.5624986 133.068355,16.0693395 133.976562,15.3564453 L133.976562,16.3378906 C132.833979,17.3925834 131.989261,18.1591773 131.442383,18.6376953 C130.895505,19.1162133 130.421877,19.4775378 130.021484,19.7216797 C129.621092,19.9658215 129.240236,20.0878906 128.878906,20.0878906 C128.05859,20.0878906 127.648438,19.5996143 127.648438,18.6230469 C127.648438,18.2519513 127.770507,17.751468 128.014648,17.121582 C128.25879,16.4916961 128.654294,15.5810606 129.201172,14.3896484 Z" id="Healthy-You"></path>
        </g>
    </g>
</svg>