<?xml version="1.0" encoding="UTF-8"?>
<svg width="1385px" height="142px" viewBox="0 0 1385 142" version="1.1" xmlns="http://www.w3.org/2000/svg" xmlns:xlink="http://www.w3.org/1999/xlink">
    <!-- Generator: Sketch 55.2 (78181) - https://sketchapp.com -->
    <title>HEALTHY BLUE</title>
    <desc>Created with Sketch.</desc>
    <defs>
        <path d="M86.16748,135 L86.16748,78.559322 L32.9633984,78.559322 L32.9633984,135 L0,135 L0,0 L32.9633984,0 L32.9633984,51.1016949 L86.16748,51.1016949 L86.16748,0 L119.130878,0 L119.130878,135 L86.16748,135 Z M147.275067,135 L147.275067,0 L239.032831,0 L239.032831,27.6483051 L179.081854,27.6483051 L179.081854,53.0084746 L235.755768,53.0084746 L235.755768,79.1313559 L179.081854,79.1313559 L179.081854,107.161017 L242.502662,107.161017 L242.502662,135 L147.275067,135 Z M356.81433,135 L346.212067,108.495763 L293.393523,108.495763 L283.369565,135 L247.514641,135 L304.766859,0 L336.766415,0 L393.440328,135 L356.81433,135 Z M320.188332,36.0381356 L302.839175,82.3728814 L337.151952,82.3728814 L320.188332,36.0381356 Z M404.813665,135 L404.813665,0 L437.969831,0 L437.969831,106.588983 L490.788376,106.588983 L490.788376,135 L404.813665,135 Z M549.389973,27.8389831 L549.389973,135 L516.426575,135 L516.426575,27.8389831 L477.872893,27.8389831 L477.872893,0 L587.943656,0 L587.943656,27.8389831 L549.389973,27.8389831 Z M689.147072,135 L689.147072,78.559322 L635.94299,78.559322 L635.94299,135 L602.979592,135 L602.979592,0 L635.94299,0 L635.94299,51.1016949 L689.147072,51.1016949 L689.147072,0 L722.11047,0 L722.11047,135 L689.147072,135 Z M816.566992,77.7966102 L816.566992,135 L783.603594,135 L783.603594,77.7966102 L732.327196,0 L772.230257,0 L801.338287,49.9576271 L830.446318,0 L869,0 L816.566992,77.7966102 Z" id="path-1"></path>
        <path d="M106.304293,98.0522696 C106.304293,105.604806 104.82786,111.952748 101.874948,117.096286 C98.9220361,122.239824 95.006277,126.374125 90.1275531,129.499312 C85.2488293,132.6245 79.6961545,134.870695 73.4693622,136.237964 C67.2425699,137.605234 60.8553891,138.288858 54.3076282,138.288858 L0,138.288858 L0,0 L54.3076282,0 C59.5715144,0 64.9637073,0.55341033 70.4843685,1.66024759 C76.0050297,2.76708486 81.0120659,4.65519069 85.5056273,7.32462173 C89.9991888,9.99405278 93.6581768,13.6074967 96.4827011,18.1650619 C99.3072255,22.7226271 100.719466,28.5171588 100.719466,35.5488308 C100.719466,43.2315836 98.6652977,49.5795256 94.5568987,54.5928473 C90.4484997,59.606169 85.0563068,63.219613 78.3801584,65.4332875 L78.3801584,65.823934 C82.2317825,66.4750147 85.8586741,67.679496 89.2609421,69.437414 C92.66321,71.195332 95.6160775,73.4415269 98.1196332,76.176066 C100.623189,78.9106051 102.613165,82.1008529 104.089621,85.7469051 C105.566077,89.3929572 106.304293,93.4947044 106.304293,98.0522696 Z M68.9437266,40.0412655 C68.9437266,35.3534841 67.1784253,31.9353615 63.6477699,29.786795 C60.1171145,27.6382286 54.8854036,26.5639615 47.9524802,26.5639615 L31.7757399,26.5639615 L31.7757399,55.0811554 L49.4931221,55.0811554 C55.6557207,55.0811554 60.4380822,53.811567 63.8403501,51.2723521 C67.2426181,48.7331372 68.9437266,44.9894791 68.9437266,40.0412655 Z M73.3730721,94.9270977 C73.3730721,89.1975871 71.2547106,85.2260542 67.0179241,83.0123796 C62.7811376,80.7987051 57.1321737,79.6918845 50.0708629,79.6918845 L31.7757399,79.6918845 L31.7757399,111.33425 L50.2634431,111.33425 C52.8311925,111.33425 55.4951925,111.106376 58.2555231,110.650619 C61.0158537,110.194862 63.5193718,109.381024 65.7661526,108.209078 C68.0129333,107.037133 69.8424273,105.376902 71.2546895,103.228336 C72.6669516,101.079769 73.3730721,98.3127175 73.3730721,94.9270977 Z M128.065861,138.288858 L128.065861,0 L161.189662,0 L161.189662,109.185695 L213.956649,109.185695 L213.956649,138.288858 L128.065861,138.288858 Z M340.289287,86.1375516 C340.289287,94.4713851 338.909143,102.056362 336.148812,108.89271 C333.388481,115.729058 329.440626,121.588696 324.305127,126.471802 C319.169628,131.354907 312.975026,135.163673 305.721134,137.898212 C298.467242,140.632751 290.411049,142 281.552313,142 C272.565191,142 264.476901,140.632751 257.287203,137.898212 C250.097505,135.163673 243.999191,131.354907 238.99208,126.471802 C233.984969,121.588696 230.133402,115.729058 227.437266,108.89271 C224.741129,102.056362 223.39308,94.4713851 223.39308,86.1375516 L223.39308,0 L256.131722,0 L256.131722,83.4030261 C256.131722,87.1792944 256.613167,90.7601848 257.576073,94.1458047 C258.538979,97.5314245 260.015413,100.558905 262.005419,103.228336 C263.995425,105.897767 266.627328,108.013747 269.901209,109.576341 C273.175089,111.138935 277.122945,111.92022 281.744894,111.92022 C286.366843,111.92022 290.314698,111.138935 293.588579,109.576341 C296.862459,108.013747 299.526459,105.897767 301.580659,103.228336 C303.634858,100.558905 305.111292,97.5314245 306.010004,94.1458047 C306.908716,90.7601848 307.358066,87.1792944 307.358066,83.4030261 L307.358066,0 L340.289287,0 L340.289287,86.1375516 Z M366.865361,138.288858 L366.865361,0 L458.533556,0 L458.533556,28.3218707 L398.6411,28.3218707 L398.6411,54.2998624 L455.259692,54.2998624 L455.259692,81.0591472 L398.6411,81.0591472 L398.6411,109.771664 L462,109.771664 L462,138.288858 L366.865361,138.288858 Z" id="path-3"></path>
    </defs>
    <g id="Page-1" stroke="none" stroke-width="1" fill="none" fill-rule="evenodd">
        <g id="Artboard-Copy-8" transform="translate(-412.000000, -550.000000)">
            <g id="HEALTHY-BLUE" transform="translate(412.000000, 550.000000)">
                <g id="Group" transform="translate(0.000000, 5.000000)">
                    <mask id="mask-2" fill="white">
                        <use xlink:href="#path-1"></use>
                    </mask>
                    <use id="HEALTHY" fill="#000000" fill-rule="nonzero" xlink:href="#path-1"></use>
                    <ellipse id="Oval-Copy" fill="#2B579C" mask="url(#mask-2)" cx="459.362398" cy="-230.921053" rx="563.547684" ry="531.710526"></ellipse>
                    <ellipse id="Oval" fill="#3669B6" mask="url(#mask-2)" cx="169.30109" cy="487.894737" rx="484.224796" ry="457.105263"></ellipse>
                </g>
                <g id="Group-2" transform="translate(923.000000, 0.000000)">
                    <mask id="mask-4" fill="white">
                        <use xlink:href="#path-3"></use>
                    </mask>
                    <use id="BLUE" fill-opacity="0.999508304" fill="#0EE9DF" fill-rule="nonzero" xlink:href="#path-3"></use>
                    <ellipse id="Oval-Copy" fill="#7DFFF9" mask="url(#mask-4)" cx="175.323077" cy="165.666667" rx="286.676923" ry="269.8"></ellipse>
                </g>
            </g>
        </g>
    </g>
</svg>