<?xml version="1.0" encoding="UTF-8"?>
<svg width="100%" height="100%" viewBox="0 0 18 19" version="1.1" xmlns="http://www.w3.org/2000/svg" xmlns:xlink="http://www.w3.org/1999/xlink">
    <!-- Generator: Sketch 49.2 (51160) - http://www.bohemiancoding.com/sketch -->
    <title>Artboard 2</title>
    <desc>Created with Sketch.</desc>
    <defs></defs>
    <g id="Artboard-2" stroke="none" stroke-width="1" fill="none" fill-rule="evenodd">
        <path d="M9,0.8125 C11.463554,0.8125 13.5690017,1.68618918 15.3164062,3.43359375 C17.0638108,5.18099832 17.9375,7.28644602 17.9375,9.75 C17.9375,12.213554 17.0638108,14.3190017 15.3164062,16.0664062 C13.5690017,17.8138108 11.463554,18.6875 9,18.6875 C6.53644602,18.6875 4.43099832,17.8138108 2.68359375,16.0664062 C0.93618918,14.3190017 0.0625,12.213554 0.0625,9.75 C0.0625,7.28644602 0.93618918,5.18099832 2.68359375,3.43359375 C4.43099832,1.68618918 6.53644602,0.8125 9,0.8125 Z M9,2.1875 C6.90884371,2.1875 5.12565842,2.92512283 3.65039062,4.40039062 C2.17512283,5.87565842 1.4375,7.65884371 1.4375,9.75 C1.4375,11.8411563 2.17512283,13.6243416 3.65039062,15.0996094 C5.12565842,16.5748772 6.90884371,17.3125 9,17.3125 C11.0911563,17.3125 12.8743416,16.5748772 14.3496094,15.0996094 C15.8248772,13.6243416 16.5625,11.8411563 16.5625,9.75 C16.5625,7.65884371 15.8248772,5.87565842 14.3496094,4.40039062 C12.8743416,2.92512283 11.0911563,2.1875 9,2.1875 Z M8.3125,5.625 L9.6875,5.625 L9.6875,7 L8.3125,7 L8.3125,5.625 Z M8.3125,8.375 L9.6875,8.375 L9.6875,13.875 L8.3125,13.875 L8.3125,8.375 Z" id="" fill="#120107"></path>
    </g>
</svg>