<?xml version="1.0" encoding="UTF-8"?>
<svg width="22px" height="22px" viewBox="0 0 22 22" version="1.1" xmlns="http://www.w3.org/2000/svg" xmlns:xlink="http://www.w3.org/1999/xlink">
    <!-- Generator: Sketch 52.2 (67145) - http://www.bohemiancoding.com/sketch -->
    <title>info_icon_rewards</title>
    <desc>Created with Sketch.</desc>
    <g id="Flows" stroke="none" stroke-width="1" fill="none" fill-rule="evenodd">
        <g id="Dollars-and-Points" transform="translate(-2176.000000, -1382.000000)">
            <g id="info_icon_rewards" transform="translate(2177.000000, 1383.000000)">
                <g id="Group">
                    <g>
                        <g>
                            <g>
                                <g>
                                    <circle id="Oval" stroke="#626B7A" cx="10" cy="10" r="10"></circle>
                                    <path d="M12.2734375,14.9765625 L12.1015625,15.6796875 C11.5859349,15.8828135 11.1744807,16.0377599 10.8671875,16.1445312 C10.5598943,16.2513026 10.203127,16.3046875 9.796875,16.3046875 C9.1718719,16.3046875 8.6861996,16.1523453 8.3398438,15.8476562 C7.9934879,15.5429672 7.8203125,15.1562523 7.8203125,14.6875 C7.8203125,14.5052074 7.8333332,14.3190114 7.859375,14.1289062 C7.8854168,13.9388011 7.927083,13.7239595 7.984375,13.484375 L8.625,11.203125 C8.682292,10.9843739 8.7304686,10.7773447 8.7695312,10.5820312 C8.8085939,10.3867178 8.828125,10.2083341 8.828125,10.046875 C8.828125,9.7552069 8.7682298,9.5520839 8.6484375,9.4375 C8.5286452,9.3229161 8.2994809,9.265625 7.9609375,9.265625 C7.79427,9.265625 7.6236988,9.2916664 7.4492188,9.34375 C7.2747387,9.3958336 7.1250006,9.4453123 7,9.4921875 L7.171875,8.7890625 C7.5937521,8.6171866 7.9973939,8.4700527 8.3828125,8.3476562 C8.7682311,8.2252598 9.1328108,8.1640625 9.4765625,8.1640625 C10.0963573,8.1640625 10.5742171,8.3138006 10.9101562,8.6132812 C11.2460954,8.9127619 11.4140625,9.3020809 11.4140625,9.78125 C11.4140625,9.8802088 11.4023439,10.0546862 11.3789062,10.3046875 C11.3554686,10.5546888 11.3125003,10.7838531 11.25,10.9921875 L10.609375,13.265625 C10.5572914,13.4479176 10.5104169,13.6562488 10.46875,13.890625 C10.4270831,14.1250012 10.40625,14.3020827 10.40625,14.421875 C10.40625,14.7239598 10.4739577,14.929687 10.609375,15.0390625 C10.7447923,15.148438 10.979165,15.203125 11.3125,15.203125 C11.4687508,15.203125 11.6458323,15.1757815 11.84375,15.1210938 C12.0416677,15.066406 12.1848954,15.0182294 12.2734375,14.9765625 Z M12.4375,5.4375 C12.4375,5.8333353 12.2877619,6.1705715 11.9882812,6.4492188 C11.6888006,6.727866 11.3281271,6.8671875 10.90625,6.8671875 C10.4843729,6.8671875 10.1223973,6.727866 9.8203125,6.4492188 C9.5182277,6.1705715 9.3671875,5.8333353 9.3671875,5.4375 C9.3671875,5.0416647 9.5182277,4.7031264 9.8203125,4.421875 C10.1223973,4.1406236 10.4843729,4 10.90625,4 C11.3281271,4 11.6888006,4.1406236 11.9882812,4.421875 C12.2877619,4.7031264 12.4375,5.0416647 12.4375,5.4375 Z" id="Shape" fill="#626B7A" fill-rule="nonzero"></path>
                                </g>
                            </g>
                        </g>
                    </g>
                </g>
            </g>
        </g>
    </g>
</svg>