<?xml version="1.0" encoding="UTF-8"?>
<svg width="34px" height="34px" viewBox="0 0 34 34" version="1.1" xmlns="http://www.w3.org/2000/svg" xmlns:xlink="http://www.w3.org/1999/xlink">
    <!-- Generator: Sketch 51.1 (57501) - http://www.bohemiancoding.com/sketch -->
    <title>Group 4</title>
    <desc>Created with Sketch.</desc>
    <defs>
        <linearGradient x1="50%" y1="0%" x2="50%" y2="100%" id="linearGradient-1">
            <stop stop-color="#B7CDDA" offset="0%"></stop>
            <stop stop-color="#607785" offset="100%"></stop>
        </linearGradient>
    </defs>
    <g id="Symbols" stroke="none" stroke-width="1" fill="none" fill-rule="evenodd">
        <g id="Group-4">
            <circle id="Mask" fill="url(#linearGradient-1)" cx="17" cy="17" r="17"></circle>
            <path d="M23.8002697,25.4547782 L23.8002697,25.0746274 L23.8002697,24.761562 L23.8002697,20.4010083 C25.4550439,18.8804049 26.4836874,16.7113089 26.4836874,14.296233 C26.4836874,9.71206113 22.7716262,6 18.1874543,6 C16.9128309,6 15.7276548,6.29070358 14.6542877,6.80502531 C11.8366992,8.10201052 9.86885952,10.9643227 9.86885952,14.296233 L9.86885952,15.4143237 L9.86885952,15.6826655 L8.16936165,18.9027667 C7.74448719,19.707792 8.14699984,20.3786464 9.06383422,20.3786464 L9.86885952,20.3786464 L9.86885952,20.4010083 L9.86885952,21.8098025 L9.86885952,23.442215 C9.86885952,24.403773 10.651523,25.1864365 11.613081,25.1864365 L14.0057951,24.8286474 L14.0057951,27.2213615 L14.0057951,27.2437234 C14.0281569,27.5567887 14.2741369,27.7580451 14.5872023,27.6909596 L23.1965007,26.1703563 C23.5319279,26.1032708 23.8002697,25.7902054 23.8002697,25.4547782 Z M15.0791622,19.5288975 C14.1623278,20.1997519 13.178408,20.3339228 12.4851918,20.2221137 C12.2615736,20.1773901 12.21685,19.8866865 12.4181063,19.7748775 C13.0442371,19.4618121 13.4467498,18.8580431 13.6703679,18.3660832 L13.6032825,18.3213595 C11.5012719,15.9510073 11.5907192,12.3060316 13.8492624,10.0251265 C16.2196147,7.65477424 20.0434849,7.65477424 22.4138372,10.0251265 C24.7841895,12.3954788 24.7841895,16.219349 22.4138372,18.5897013 C20.4459976,20.5799028 17.4047909,20.8929682 15.0791622,19.5288975 Z M18.1427307,9.44371936 C15.459313,9.44371936 13.2902171,11.6128153 13.2902171,14.296233 C13.2902171,16.9796507 15.459313,19.1711085 18.1427307,19.1711085 C20.8261484,19.1711085 22.9952444,17.0020125 22.9952444,14.3185948 C22.9952444,11.6351771 20.8261484,9.44371936 18.1427307,9.44371936 Z M16.7115746,10.9866845 C16.420871,11.3891972 16.1301675,11.9258807 15.9289111,12.5520115 L14.9673531,12.5520115 C15.3698658,11.8587953 15.9736348,11.2997499 16.7115746,10.9866845 Z M14.6766495,15.3248765 C14.5872023,14.9894492 14.5201168,14.654022 14.5201168,14.296233 C14.5201168,13.938444 14.5648405,13.6030168 14.6766495,13.2675896 L15.7723784,13.2675896 C15.7276548,13.580655 15.6829312,13.938444 15.6829312,14.296233 C15.6829312,14.654022 15.705293,15.0118111 15.7723784,15.3248765 L14.6766495,15.3248765 Z M14.9673531,16.0628163 L15.9289111,16.0628163 C16.1301675,16.7113089 16.420871,17.2256307 16.7115746,17.6281433 C15.9736348,17.3150779 15.3698658,16.7560326 14.9673531,16.0628163 Z M17.7849417,17.7623142 C17.4271527,17.4045252 17.0022782,16.8454798 16.7115746,16.0628163 L17.7849417,16.0628163 L17.7849417,17.7623142 Z M17.7849417,15.3248765 L16.5103183,15.3248765 C16.4432329,15.0118111 16.420871,14.6763839 16.420871,14.296233 C16.420871,13.9160822 16.4655947,13.580655 16.5103183,13.2675896 L17.7849417,13.2675896 L17.7849417,15.3248765 Z M17.7849417,12.5520115 L16.7115746,12.5520115 C17.0022782,11.7469862 17.4495145,11.1879409 17.7849417,10.8301518 L17.7849417,12.5520115 Z M21.2957465,12.5520115 L20.3341885,12.5520115 C20.1329322,11.9035189 19.8422286,11.3891972 19.551525,10.9866845 C20.3118267,11.2997499 20.9155957,11.8587953 21.2957465,12.5520115 Z M18.5005197,10.8525136 C18.8583088,11.2103027 19.2831832,11.769348 19.5738868,12.5520115 L18.5005197,12.5520115 L18.5005197,10.8525136 Z M18.5005197,13.2899514 L19.7751431,13.2899514 C19.8422286,13.6030168 19.8645904,13.938444 19.8645904,14.3185948 C19.8645904,14.6987457 19.8198668,15.0341729 19.7751431,15.3472383 L18.5005197,15.3472383 L18.5005197,13.2899514 Z M18.5005197,16.0628163 L19.5738868,16.0628163 C19.2831832,16.8678416 18.835947,17.426887 18.5005197,17.784676 L18.5005197,16.0628163 Z M19.5738868,17.6281433 C19.8645904,17.2256307 20.155294,16.6889471 20.3565503,16.0628163 L21.3181083,16.0628163 C20.9155957,16.7560326 20.3118267,17.3150779 19.5738868,17.6281433 Z M20.513083,15.3248765 C20.5578066,15.0118111 20.6025303,14.654022 20.6025303,14.296233 C20.6025303,13.938444 20.5801685,13.580655 20.513083,13.2675896 L21.6088119,13.2675896 C21.6982592,13.6030168 21.7653446,13.938444 21.7653446,14.296233 C21.7653446,14.654022 21.720621,14.9894492 21.6088119,15.3248765 L20.513083,15.3248765 Z" id="Shape" fill="#FFFFFF" fill-rule="nonzero"></path>
        </g>
    </g>
</svg>