<?xml version="1.0" encoding="UTF-8"?>
<svg width="16px" height="13px" viewBox="0 0 16 13" version="1.1" xmlns="http://www.w3.org/2000/svg" xmlns:xlink="http://www.w3.org/1999/xlink">
    <!-- Generator: Sketch 50 (54983) - http://www.bohemiancoding.com/sketch -->
    <title>💎 icon</title>
    <desc>Created with Sketch.</desc>
    <defs>
        <path d="M16,4.05357143 L16,11.1428571 C16,11.5357162 15.8601204,11.8720224 15.5803571,12.1517857 C15.3005938,12.431549 14.9642877,12.5714286 14.5714286,12.5714286 L1.42857143,12.5714286 C1.03571232,12.5714286 0.699406161,12.431549 0.419642857,12.1517857 C0.139879554,11.8720224 0,11.5357162 0,11.1428571 L0,4.05357143 C0.261906071,4.34523955 0.562498304,4.60416554 0.901785714,4.83035714 C3.05655839,6.29465018 4.53571027,7.32142562 5.33928571,7.91071429 C5.67857312,8.16071554 5.95386799,8.35565406 6.16517857,8.49553571 C6.37648915,8.63541737 6.65773634,8.77827308 7.00892857,8.92410714 C7.3601208,9.06994121 7.68749848,9.14285714 7.99107143,9.14285714 L8.00892857,9.14285714 C8.31250152,9.14285714 8.6398792,9.06994121 8.99107143,8.92410714 C9.34226366,8.77827308 9.62351085,8.63541737 9.83482143,8.49553571 C10.046132,8.35565406 10.3214269,8.16071554 10.6607143,7.91071429 C11.6726241,7.17856777 13.1547521,6.15179232 15.1071429,4.83035714 C15.4464303,4.59821312 15.7440463,4.33928714 16,4.05357143 Z M16,1.42857143 C16,1.89881187 15.8541681,2.34821214 15.5625,2.77678571 C15.2708319,3.20535929 14.9077403,3.57142705 14.4732143,3.875 C12.2351079,5.4285792 10.8422646,6.39583143 10.2946429,6.77678571 C10.2351187,6.81845259 10.1086319,6.90922549 9.91517857,7.04910714 C9.72172522,7.18898879 9.56101254,7.3020829 9.43303571,7.38839286 C9.30505888,7.47470281 9.15029853,7.57142804 8.96875,7.67857143 C8.78720147,7.78571482 8.61607223,7.86607116 8.45535714,7.91964286 C8.29464205,7.97321455 8.14583402,8 8.00892857,8 L7.99107143,8 C7.85416598,8 7.70535795,7.97321455 7.54464286,7.91964286 C7.38392777,7.86607116 7.21279853,7.78571482 7.03125,7.67857143 C6.84970147,7.57142804 6.69494112,7.47470281 6.56696429,7.38839286 C6.43898746,7.3020829 6.27827478,7.18898879 6.08482143,7.04910714 C5.89136808,6.90922549 5.76488125,6.81845259 5.70535714,6.77678571 C5.16368777,6.39583143 4.38393366,5.8526821 3.36607143,5.14732143 C2.3482092,4.44196076 1.73809625,4.01785786 1.53571429,3.875 C1.16666482,3.62499875 0.818454018,3.28125219 0.491071429,2.84375 C0.163688839,2.40624781 0,2.00000187 0,1.625 C0,1.16071196 0.12351067,0.773811071 0.370535714,0.464285714 C0.617560759,0.154760357 0.970235804,0 1.42857143,0 L14.5714286,0 C14.9583353,0 15.2931533,0.139879554 15.5758929,0.419642857 C15.8586324,0.699406161 16,1.03571232 16,1.42857143 Z" id="path-1"></path>
    </defs>
    <g id="Symbols" stroke="none" stroke-width="1" fill="none" fill-rule="evenodd">
        <g id="💎-icon">
            <mask id="mask-2" fill="white">
                <use xlink:href="#path-1"></use>
            </mask>
            <use id="" fill="#006DFF" xlink:href="#path-1"></use>
            <g id="Color/Primary" mask="url(#mask-2)" fill="#006DFF">
                <g transform="translate(-4.000000, -6.000000)" id="Rectangle">
                    <rect x="0" y="0" width="24" height="24"></rect>
                </g>
            </g>
        </g>
    </g>
</svg>