<?xml version="1.0" encoding="UTF-8"?>
<svg width="25px" height="24px" viewBox="0 0 25 24" version="1.1" xmlns="http://www.w3.org/2000/svg" xmlns:xlink="http://www.w3.org/1999/xlink">
    <!-- Generator: Sketch 49.2 (51160) - http://www.bohemiancoding.com/sketch -->
    <title>icon/Nav bar/Notification</title>
    <desc>Created with Sketch.</desc>
    <defs></defs>
    <g id="Symbols" stroke="none" stroke-width="1" fill="none" fill-rule="evenodd">
        <g id="icon/Nav-bar/Notification" transform="translate(-8.000000, -9.000000)">
            <g id="Group-10" transform="translate(9.000000, 9.000000)">
                <g id="Group" transform="translate(0.000000, 1.000000)" fill="#626B7A" fill-rule="nonzero" stroke="#626B7A">
                    <path d="M16.4986423,0 C14.4939102,0 12.7222865,1.05942623 11.7665422,2.6147541 C11.6966097,2.59221311 11.649988,2.56967213 11.5800555,2.56967213 L10.9040412,1.05942623 C10.7641762,0.631147541 10.3678919,0.31557377 9.90167517,0.31557377 L8.47971406,0.31557377 C8.0134973,0.31557377 7.61721306,0.608606557 7.50065887,1.03688525 L6.84795541,2.52459016 C3.5145056,3.31352459 1.36990852,6.24385246 1.36990852,10.0532787 L1.36990852,15.9815574 L0.181055791,18.4159836 C-0.0753634247,18.8668033 -0.0520525869,19.3852459 0.204366629,19.8135246 C0.460785845,20.2418033 0.95031344,20.5122951 1.46315187,20.5122951 L6.80133374,20.5122951 C7.19761798,21.4139344 8.10674065,22 9.15572836,22 C10.2047161,22 11.1138387,21.4139344 11.510123,20.5122951 L16.824994,20.5122951 C17.3611433,20.5122951 17.82736,20.2418033 18.0837792,19.8135246 C18.3401985,19.3852459 18.3635093,18.8668033 18.1070901,18.4159836 L16.9182374,15.9815574 L16.9182374,10.6393443 C19.7621596,10.4364754 22,8.13729508 22,5.31967213 C22,2.38934426 19.5290512,0 16.4986423,0 Z M16.4986423,9.57991803 C14.0743151,9.57991803 12.1162048,7.68647541 12.1162048,5.34221311 C12.1162048,2.99795082 14.0743151,1.08196721 16.4986423,1.08196721 C18.9229694,1.08196721 20.8810798,2.97540984 20.8810798,5.31967213 C20.8810798,7.66393443 18.8996586,9.57991803 16.4986423,9.57991803 Z M17.1047241,18.8893443 C17.1047241,18.8893443 17.1047241,18.9118852 17.1280349,18.9118852 C17.2212782,19.0696721 17.1513457,19.182377 17.1280349,19.227459 C17.1047241,19.272541 17.0114807,19.3852459 16.824994,19.3852459 L11.0905279,19.3852459 C10.8341087,19.3852459 10.6010003,19.5655738 10.5310678,19.8135246 C10.3912028,20.4672131 9.80843182,20.9180328 9.13241752,20.9180328 C8.45640322,20.9180328 7.89694311,20.4672131 7.73376725,19.8360656 C7.66383473,19.5881148 7.45403719,19.4077869 7.17430714,19.4077869 L1.46315187,19.4077869 C1.27666517,19.4077869 1.20673266,19.295082 1.16011098,19.25 C1.13680014,19.204918 1.06686763,19.0696721 1.16011098,18.9344262 C1.16011098,18.9344262 1.18342182,18.9118852 1.18342182,18.9118852 L2.44220706,16.3422131 C2.48882874,16.2745902 2.48882874,16.1844262 2.48882874,16.1168033 L2.48882874,10.0532787 C2.48882874,6.67213115 4.40031744,4.10245902 7.33748301,3.53893443 C7.52396971,3.49385246 7.66383473,3.38114754 7.73376725,3.22336066 L8.52633573,1.44262295 C8.52633573,1.44262295 8.52633573,1.42008197 8.52633573,1.42008197 L9.83174265,1.42008197 C9.83174265,1.42008197 9.83174265,1.44262295 9.83174265,1.44262295 L10.6243111,3.24590164 C10.6942437,3.40368852 10.8341087,3.51639344 11.0205954,3.56147541 C11.0905279,3.58401639 11.1837712,3.60655738 11.2537038,3.62909836 C11.0672171,4.17008197 10.9506629,4.73360656 10.9506629,5.34221311 C10.9506629,8.04713115 13.0486383,10.3012295 15.7526955,10.6168033 L15.7526955,16.0942623 C15.7526955,16.1844262 15.7760063,16.2520492 15.7993171,16.3196721 L17.1047241,18.8893443 Z" id="Shape"></path>
                </g>
                <g id="Group-2-Copy-5" transform="translate(10.000000, 0.000000)" fill="#FE136D">
                    <path d="M7,14 C10.8659932,14 14,10.8659932 14,7 C14,3.13400675 10.8659932,0 7,0 C3.13400675,0 0,3.13400675 0,7 C0,10.8659932 3.13400675,14 7,14 Z" id="Oval-35"></path>
                </g>
            </g>
        </g>
    </g>
</svg>