<?xml version="1.0" encoding="UTF-8"?>
<svg width="52px" height="64px" viewBox="0 0 52 64" version="1.1" xmlns="http://www.w3.org/2000/svg" xmlns:xlink="http://www.w3.org/1999/xlink">
    <!-- Generator: Sketch 52.2 (67145) - http://www.bohemiancoding.com/sketch -->
    <title>illustration/wallet copy</title>
    <desc>Created with Sketch.</desc>
    <defs>
        <linearGradient x1="50.0001583%" y1="100.00015%" x2="50.0001583%" y2="0.0041204196%" id="linearGradient-1">
            <stop stop-color="#808080" stop-opacity="0.25" offset="0%"></stop>
            <stop stop-color="#808080" stop-opacity="0.12" offset="54%"></stop>
            <stop stop-color="#808080" stop-opacity="0.1" offset="100%"></stop>
        </linearGradient>
        <linearGradient x1="50%" y1="100%" x2="50%" y2="0%" id="linearGradient-2">
            <stop stop-color="#808080" stop-opacity="0.25" offset="0%"></stop>
            <stop stop-color="#808080" stop-opacity="0.12" offset="54%"></stop>
            <stop stop-color="#808080" stop-opacity="0.1" offset="100%"></stop>
        </linearGradient>
    </defs>
    <g id="Flows" stroke="none" stroke-width="1" fill="none" fill-rule="evenodd">
        <g id="Dollars-and-Points" transform="translate(-1071.000000, -1348.000000)">
            <g id="Home-Firsttime-Points" transform="translate(1038.000000, 1156.000000)">
                <g id="Incentive-Card" transform="translate(16.000000, 181.000000)">
                    <g id="Homepage-Incentive-Banner">
                        <g id="illustration/wallet-copy" transform="translate(16.000000, 10.000000)">
                            <path d="M12.2306063,11.3155842 C5.60656221,14.6693952 -2.82662529,21.9093649 -1.04255842,34.8345291 C0.492368593,46.3380214 3.14821395,54.6727508 11.3042562,57.0731209 C25.8061159,61.3411014 50.1543884,62.2465911 54.9749095,39.5846251 C56.0941219,34.3230456 54.7029437,15.3723748 37.5406942,9.54050707 C30.1641042,7.03388175 17.6045426,9.05906306 12.2306063,11.3155842 Z" id="Fill-1" fill="#DEF9FF" transform="translate(26.990108, 33.930199) rotate(-87.000000) translate(-26.990108, -33.930199) "></path>
                            <path d="M52.1165488,15.7602392 C51.8264535,15.0566375 46.9037712,13.996719 45.5438986,16.6837728 C44.1840259,19.3708267 46.6770581,20.4628093 48.7926413,19.4548254 C50.9078182,18.4472931 52.9474241,17.7757554 52.1165488,15.7602392" id="Fill-3" fill="#AFE6FA"></path>
                            <path d="M9.37104432,17.111703 C9.39207635,16.8793509 9.91548113,12.77254 6.10389099,14.9189114 C2.29203463,17.0650318 2.49010846,19.3978369 3.62876677,20.004311 C4.76715885,20.6110361 6.6483278,21.7773132 7.53939382,20.6577072 C8.43045984,19.5378504 9.22248894,18.7446916 9.37104432,17.111703" id="Fill-5" fill="#AFE6FA"></path>
                            <path d="M34.36618,5.2 C34.36618,5.2 32.3987835,3.29532421 34.2504142,2.04528068 C36.1020449,0.795237155 37.5488064,2.64069194 36.8542115,3.59302983 C36.1599278,4.54536773 34.36618,5.2 34.36618,5.2" id="Fill-7" fill="#AFE6FA"></path>
                            <path d="M43.225,62.5625 C43.225,63.7292894 35.9496408,64.675 26.9751044,64.675 C18.0003592,64.675 10.725,63.7292894 10.725,62.5625 C10.725,61.3957106 18.0003592,60.45 26.9751044,60.45 C35.9496408,60.45 43.225,61.3957106 43.225,62.5625" id="Fill-1" fill="#C1D1E0"></path>
                            <g id="gift" transform="translate(10.725000, 21.775000)">
                                <g id="Group" opacity="0.5" transform="translate(9.425000, 0.000000)" fill="url(#linearGradient-1)" fill-rule="nonzero">
                                    <path d="M14.4075762,0.921594787 C13.6859107,0.261637037 12.6336217,-0.00102002743 11.4425939,0.182074897 C10.3298864,0.353439506 9.21661947,0.90272428 8.30978244,1.7289465 C8.04668883,1.97027309 7.82558652,2.24683179 7.65412975,2.54904856 C7.48711532,2.23678661 7.26780402,1.95012766 7.00407137,1.69936571 C6.10898237,0.859373114 5.00858234,0.292747874 3.89923142,0.103532785 C2.71379794,-0.100472702 1.6570335,0.147393964 0.923060524,0.796131413 C0.18908755,1.44486886 -0.114683277,2.40012455 0.0699288275,3.48441372 C0.242233459,4.50444115 0.826279026,5.52446859 1.72136802,6.36548121 C3.59993604,8.13216872 7.34868063,7.44212016 7.50755893,7.41151934 L7.5545511,7.40284911 L7.6988842,7.43293992 C7.85720306,7.4655808 11.5919619,8.21428093 13.5029769,6.47768422 C14.4120516,5.65197202 15.017915,4.63857476 15.2097997,3.62466749 C15.4139919,2.54190837 15.1292417,1.58155254 14.4075762,0.921594787 Z M6.87260517,6.39149191 C5.966887,6.5026749 3.70902501,6.65363896 2.58792605,5.5994406 C1.86737941,4.92163237 1.3957794,4.11071056 1.26151605,3.31712922 C1.13844131,2.59290974 1.31745911,1.97732318 1.76164702,1.58308258 C1.93589279,1.43049983 2.14429542,1.31410269 2.37254526,1.2418834 C2.74624492,1.12101015 3.19099226,1.09856955 3.67713747,1.18170178 C4.54313607,1.32909575 5.4169667,1.78402798 6.1386322,2.46183621 C7.25973116,3.51858464 7.02253258,5.57138985 6.87260517,6.39149191 Z M14.0210096,3.43698244 C13.8716417,4.22852373 13.384937,5.03128532 12.6515235,5.69787325 C11.510285,6.73473114 9.25577961,6.54806612 8.35285859,6.42260274 C8.21803581,5.59842058 8.0205568,3.54255528 9.16123584,2.50569739 C9.89464938,1.83910947 10.7768715,1.39845761 11.6456672,1.26432401 C12.1334907,1.18935199 12.5776786,1.21842277 12.9491406,1.34490617 C13.1759437,1.420763 13.3820554,1.54046541 13.5533256,1.69579561 C13.9913598,2.09819643 14.1575107,2.71633306 14.0210096,3.43800247 L14.0210096,3.43698244 Z" id="Shape"></path>
                                </g>
                                <path d="M16.605416,7.24713813 L16.2649214,7.31852709 C16.1202912,7.34866909 12.6982664,8.03294544 10.9813834,6.2804788 C10.1659039,5.44707885 9.63061217,4.43229807 9.47317341,3.42492059 C9.30506084,2.34721178 9.57991155,1.39906069 10.2512945,0.755502481 C10.9226774,0.111944271 11.8865228,-0.13183579 12.9683139,0.0680532842 C13.9823262,0.255779796 14.9877995,0.817901716 15.8027452,1.65130167 C17.5169598,3.40429712 16.7196258,6.77174057 16.6844023,6.91398967 L16.605416,7.24713813 Z M11.5775159,1.198114 C11.3691484,1.26973679 11.1788918,1.38519134 11.0198091,1.53655053 C10.6131368,1.92681015 10.4508948,2.53758232 10.5629698,3.25623114 C10.6857187,4.04362487 11.1158734,4.84794043 11.7739141,5.52058303 C12.7969991,6.56656342 14.8581127,6.41955506 15.6847996,6.30639034 C15.8219581,5.49149864 16.0375691,3.45453379 15.014484,2.4085534 C14.3564434,1.7359108 13.5585758,1.28483836 12.7681798,1.13941642 C12.3252166,1.0558649 11.9190779,1.0786036 11.5775159,1.198114 Z" id="Shape" fill="#F79438" fill-rule="nonzero"></path>
                                <path d="M16.5088122,7.21074519 L16.4318223,6.87266297 C16.3994335,6.72860592 15.6645783,3.33024172 17.400302,1.5983677 C18.2254213,0.774425187 19.2369091,0.226902094 20.247335,0.0567978327 C21.3267864,-0.126064249 22.2825229,0.13600263 22.9382644,0.794093492 C23.5940059,1.45218435 23.8520547,2.41008398 23.6662171,3.49024604 C23.4920606,4.50024009 22.9414502,5.51023415 22.116331,6.33577139 C20.3816691,8.06498753 16.9898663,7.32078138 16.8459748,7.28782368 L16.5088122,7.21074519 Z M21.6151002,1.21722784 C21.2774066,1.0907128 20.8717496,1.06147613 20.4315798,1.13642832 C19.6425662,1.26985385 18.8386855,1.70946705 18.1749796,2.3744684 C17.1390674,3.40838336 17.3180025,5.45760814 17.4406554,6.28101908 C18.2609959,6.4059394 20.307865,6.59252251 21.3448392,5.55807597 C22.0111999,4.89307462 22.4529626,4.09252144 22.5888896,3.30313135 C22.7131353,2.58284612 22.5623413,1.96621817 22.1641178,1.56700473 C22.0083121,1.41205217 21.8208311,1.29272418 21.6145693,1.21722784 L21.6151002,1.21722784 Z" id="Shape" fill="#F79438" fill-rule="nonzero"></path>
                                <g id="Group" opacity="0.5" transform="translate(0.000000, 6.825000)" fill="url(#linearGradient-2)">
                                    <polygon id="Path" points="32.3017057 0.0110398088 0.0109080004 0.0110398088 0.0109080004 6.55028658 1.68866234 6.55028658 1.68866234 25.4761989 30.6239513 25.4761989 30.6239513 6.55028658 32.3017057 6.55028658"></polygon>
                                </g>
                                <rect id="Rectangle" fill="#E13A5E" x="1.95" y="8.45" width="28.6" height="23.725"></rect>
                                <rect id="Rectangle" fill="#F79438" x="13.325" y="12.025" width="5.85" height="20.15"></rect>
                                <rect id="Rectangle" fill="#000000" opacity="0.1" x="1.95" y="7.475" width="28.6" height="5.85"></rect>
                                <rect id="Rectangle" fill="#D7113B" x="0" y="7.475" width="31.525" height="5.85"></rect>
                                <rect id="Rectangle" fill="#F79438" transform="translate(16.087500, 10.400000) scale(1, -1) translate(-16.087500, -10.400000) " x="12.35" y="7.475" width="7.475" height="5.85"></rect>
                            </g>
                            <g id="Group-2" transform="translate(10.400000, 3.900000)" fill="#415C8A">
                                <path d="M15.6380975,1.23145685 L16.5978631,2.19122247" id="Stroke-12"></path>
                                <path d="M18.5173943,4.4306756 L19.47716,5.39044122" id="Stroke-13"></path>
                                <path d="M19.47716,1.23145685 L18.5173943,2.19122247" id="Stroke-14"></path>
                                <path d="M16.5978631,4.4306756 L15.6380975,5.39044122" id="Stroke-15"></path>
                                <path d="M19.1572381,11.9488397 C19.1572381,12.7435256 18.5122756,13.3884881 17.7175897,13.3884881 C16.9229037,13.3884881 16.2779412,12.7435256 16.2779412,11.9488397 C16.2779412,11.1541537 16.9229037,10.5091912 17.7175897,10.5091912 C18.5122756,10.5091912 19.1572381,11.1541537 19.1572381,11.9488397" id="Fill-16"></path>
                                <path d="M9.76206804,10.2248047 C9.76206804,10.6662969 9.40375554,11.0246094 8.96226335,11.0246094 C8.52077116,11.0246094 8.16245866,10.6662969 8.16245866,10.2248047 C8.16245866,9.7833125 8.52077116,9.425 8.96226335,9.425 C9.40375554,9.425 9.76206804,9.7833125 9.76206804,10.2248047" id="Fill-17"></path>
                                <polygon id="Star" points="27.9550897 10.8536904 26.5447495 11.3611812 26.626058 9.9524656 25.6731113 8.85739652 27.1337029 8.49425318 27.9550897 7.30997247 28.7764764 8.49425318 30.237068 8.85739652 29.2841213 9.9524656 29.3654299 11.3611812"></polygon>
                                <polygon id="Star-Copy" transform="translate(5.086674, 4.534578) rotate(45.000000) translate(-5.086674, -4.534578) " points="5.08667442 6.66515098 3.01817546 7.42829816 3.17734985 5.40405506 1.7397728 3.85146286 3.90664694 3.36355901 5.08667442 1.64085708 6.26670191 3.36355901 8.43357605 3.85146286 6.995999 5.40405506 7.15517338 7.42829816"></polygon>
                            </g>
                        </g>
                    </g>
                </g>
            </g>
        </g>
    </g>
</svg>