<?xml version="1.0" encoding="UTF-8"?>
<svg width="40px" height="40px" viewBox="0 0 40 40" version="1.1" xmlns="http://www.w3.org/2000/svg" xmlns:xlink="http://www.w3.org/1999/xlink">
    <!-- Generator: Sketch 48.1 (47250) - http://www.bohemiancoding.com/sketch -->
    <title>noun_698777_cc</title>
    <desc>Created with Sketch.</desc>
    <defs></defs>
    <g id="Artboard-2" stroke="none" stroke-width="1" fill="none" fill-rule="evenodd" transform="translate(-990.000000, -7661.000000)">
        <g id="noun_698777_cc" transform="translate(990.000000, 7661.000000)" fill="#000000" fill-rule="nonzero">
            <g id="Group">
                <path d="M38.3668293,27.5029268 L29.702439,25.0746341 L29.6526829,25.124878 L26.4141463,28.362439 L26.3692683,28.417561 C25.0278049,29.7595122 21.7063415,27.2297561 17.2380488,22.7609756 C12.7707317,18.2926829 10.2409756,14.9717073 11.582439,13.6297561 L11.637561,13.584878 L14.8756098,10.3468293 L14.9258537,10.2965854 L12.4970732,1.63268293 C10.7097561,-0.154634146 7.81707317,-0.155121951 6.0297561,1.63268293 L6.09073171,1.57121951 L1.1795122,6.48390244 C-1.50195122,9.16487805 1.94341463,20.1829268 10.8804878,29.12 C19.8170732,38.0570732 30.8356098,41.502439 33.5165854,38.8214634 L38.3687805,33.9687805 C40.1541463,32.1809756 40.1531707,29.2892683 38.3668293,27.5029268 Z M36.7502439,32.3541463 L31.9,37.2043902 C30.1126829,38.9917073 20.5414634,35.5463415 12.497561,27.502439 C4.45463415,19.4585366 1.00878049,9.88682927 2.79609756,8.0995122 L7.64634146,3.24926829 L7.62682927,3.26926829 C8.5204878,2.37560976 9.96682927,2.37512195 10.8609756,3.26926829 L12.4970732,9.48097561 L9.1595122,12.8185366 C7.3697561,14.6082927 10.26,19.015122 15.6219512,24.377561 C20.9839024,29.74 25.3907317,32.6302439 27.1809756,30.84 L30.5185366,27.502439 L36.7302439,29.1390244 C37.6243902,30.0326829 37.6239024,31.4795122 36.7302439,32.3731707 L36.7502439,32.3541463 Z" id="Shape"></path>
            </g>
        </g>
    </g>
</svg>