<?xml version="1.0" encoding="UTF-8"?>
<svg width="22px" height="22px" viewBox="0 0 22 22" version="1.1" xmlns="http://www.w3.org/2000/svg" xmlns:xlink="http://www.w3.org/1999/xlink">
    <!-- Generator: Sketch 55.2 (78181) - https://sketchapp.com -->
    <title>Artboard</title>
    <desc>Created with Sketch.</desc>
    <defs>
        <path d="M11.6648237,7 C12.0880029,7 12.4857854,7.13541531 12.8581831,7.40625 L12.9597456,7.5078125 L16.2097456,10.859375 L16.2605268,10.9101562 L16.2097456,10.9609375 C16.5821433,11.2656265 16.7683393,11.663409 16.7683393,12.1542969 C16.7683393,12.6451847 16.5990702,13.0598941 16.2605268,13.3984375 L14.6355268,15.0234375 C15.2110505,16.3437566 15.9727617,17.4609329 16.9206831,18.375 C17.8686045,19.2890671 18.9688539,20.0338513 20.2214643,20.609375 L21.8464643,18.984375 C22.1850077,18.679686 22.6081805,18.5273438 23.1159956,18.5273438 C23.6238106,18.5273438 24.0469835,18.679686 24.3855268,18.984375 L24.4363081,19.0859375 L27.6863081,22.3359375 C28.0248514,22.6744809 28.1941206,23.0976537 28.1941206,23.6054687 C28.1941206,24.1132838 28.0248514,24.5364566 27.6863081,24.875 L25.1980268,27.4140625 L25.1472456,27.4140625 C24.3008872,28.1588579 23.35298,28.3619809 22.3034956,28.0234375 C18.6472273,26.5677011 15.5665289,24.604179 13.0613081,22.1328125 C10.3529612,19.3906113 8.38943916,16.3099129 7.17068307,12.890625 C6.79828537,11.8072863 7.03526217,10.8932329 7.88162057,10.1484375 L7.88162057,10.0976562 L10.4206831,7.5078125 L10.4206831,7.45703125 L10.4714643,7.40625 C10.843862,7.13541531 11.2416445,7 11.6648237,7 Z M11.6648237,8.625 C11.6140422,8.625 11.554798,8.65885383 11.4870893,8.7265625 L8.99880807,11.2148438 L8.99880807,11.265625 C8.66026471,11.5364597 8.55870323,11.8919249 8.69412057,12.3320312 C9.81131366,15.5143388 11.6563473,18.3919142 14.2292768,20.9648438 C16.5313717,23.2669386 19.3920201,25.0950453 22.8113081,26.4492187 C23.2852688,26.6184904 23.7084416,26.5338549 24.0808393,26.1953125 L26.5691206,23.7578125 C26.6368292,23.6562495 26.6368292,23.5716149 26.5691206,23.5039062 L23.2175581,20.203125 C23.1498494,20.101562 23.0821417,20.101562 23.0144331,20.203125 L20.9831831,22.234375 L20.5769331,22.5898438 L20.0691206,22.3359375 C18.5795298,21.7265595 17.2084497,20.8463599 15.9558393,19.6953125 L15.8034956,19.5429688 C15.1941175,19.0012994 14.6524563,18.3665401 14.1784956,17.6386719 C13.7045349,16.9108037 13.3659966,16.3098982 13.1628706,15.8359375 L12.8581831,15.1757812 L12.7058393,14.6679688 L15.0925581,12.28125 C15.1941211,12.2135413 15.2279749,12.1458337 15.1941206,12.078125 L15.1433393,12.078125 L15.0925581,12.0273438 L11.8425581,8.7265625 C11.7748494,8.65885383 11.7156052,8.625 11.6648237,8.625 Z" id="path-1"></path>
    </defs>
    <g id="Artboard" stroke="none" stroke-width="1" fill="none" fill-rule="evenodd">
        <g id="SVG/call" transform="translate(-7.000000, -7.000000)">
            <mask id="mask-2" fill="white">
                <use xlink:href="#path-1"></use>
            </mask>
            <g id=""></g>
            <g id="Color/Castlight/blue50" mask="url(#mask-2)" fill="#006DFF" fill-rule="evenodd">
                <rect id="Rectangle" x="0" y="0" width="36" height="36"></rect>
            </g>
        </g>
    </g>
</svg>