<?xml version="1.0" encoding="UTF-8"?>
<svg width="25px" height="25px" viewBox="0 0 25 25" version="1.1" xmlns="http://www.w3.org/2000/svg" xmlns:xlink="http://www.w3.org/1999/xlink">
    <!-- Generator: Sketch 48.2 (47327) - http://www.bohemiancoding.com/sketch -->
    <title>Artboard 2</title>
    <desc>Created with Sketch.</desc>
    <defs></defs>
    <g id="Timeline-1" stroke="none" stroke-width="1" fill="none" fill-rule="evenodd">
        <g id="Artboard-2">
            <ellipse id="Oval-2" fill="#F44ADC" transform="translate(12.702929, 12.718750) rotate(180.000000) translate(-12.702929, -12.718750) " cx="12.7029289" cy="12.71875" rx="12.7029289" ry="12.71875"></ellipse>
            <path d="M16.1085346,8.64314977 C15.6022739,8.64314977 15.1154846,8.72383232 14.660558,8.87302548 C14.2056313,9.02221863 13.7822132,9.23957463 13.4030486,9.51257377 C13.1814268,9.67220001 12.9215698,9.75218701 12.6617129,9.75218701 C12.4018559,9.75218701 12.1423531,9.67220001 11.9203772,9.51257377 C11.5412126,9.23957463 11.1177945,9.02221863 10.6628678,8.87302548 C10.2079412,8.72383232 9.72115196,8.64314977 9.21489117,8.64314977 C7.9456989,8.64314977 6.79687633,9.148459 5.96526332,9.96536978 C5.13365031,10.7822806 4.61924686,11.9111407 4.61924686,13.1575469 C4.61924686,13.8270034 4.69182271,14.7061649 5.18781668,15.5811533 C6.38372504,17.6893325 8.44346301,19.4368747 10.5265669,20.7163191 C11.1103599,21.0745218 11.6527316,21.3878622 11.9727734,21.5248834 C12.4135389,21.7140701 12.9102409,21.7140701 13.3506525,21.5248834 C13.6706942,21.3878622 14.2130659,21.0745218 14.7968589,20.7163191 C16.8803169,19.4368747 18.9397008,17.6893325 20.1356091,15.5811533 C20.6319571,14.7061649 20.7041789,13.8270034 20.7041789,13.1575469 C20.7041789,11.9111407 20.1897755,10.7822806 19.3581625,9.96536978 C18.5265495,9.148459 17.3777269,8.64314977 16.1085346,8.64314977" id="Fill-1" fill="#FFFFFF" fill-rule="nonzero"></path>
            <path d="M12.8128547,10.0513999 C12.7948696,10.0513999 12.7761504,10.0502911 12.7574313,10.0473343 C12.5511531,10.0166575 12.4080065,9.82298712 12.438104,9.61453272 C12.7232963,7.65971832 11.4166237,6.39864312 11.3608332,6.34579032 C11.2088774,6.20201592 11.2008025,5.96140632 11.3428481,5.80765272 C11.4848936,5.65463832 11.7242056,5.64465912 11.8761613,5.78806392 C11.9444313,5.85126552 13.5311576,7.36440792 13.1868714,9.72541272 C13.1589761,9.91538712 12.9978443,10.0513999 12.8128547,10.0513999" id="Fill-3" fill="#FFFFFF" fill-rule="nonzero"></path>
            <path d="M15.6302628,7.28329065 C15.1254334,7.28329065 14.5864697,7.15168138 14.0290914,6.89208097 C13.8745884,6.82017075 13.7721853,6.66911406 13.761406,6.49860996 C13.7591604,6.46333325 13.7137976,5.63342602 14.3569609,4.94281656 C15.1065697,4.13778392 16.4310731,3.87320859 18.2729816,4.17170384 C18.4054769,4.19296032 18.5222524,4.27074999 18.5932159,4.38562543 C18.6637304,4.50050087 18.6816958,4.64025092 18.6421718,4.76959886 C18.6111814,4.87181087 17.8476494,7.28329065 15.6302628,7.28329065" id="Fill-5" stroke="#FFFFFF" stroke-width="0.7" transform="translate(16.211346, 5.667946) rotate(-15.000000) translate(-16.211346, -5.667946) "></path>
        </g>
    </g>
</svg>