<?xml version="1.0" encoding="UTF-8"?>
<svg width="10px" height="14px" viewBox="0 0 10 14" version="1.1" xmlns="http://www.w3.org/2000/svg" xmlns:xlink="http://www.w3.org/1999/xlink">
    <!-- Generator: Sketch 50 (54983) - http://www.bohemiancoding.com/sketch -->
    <title>Artboard</title>
    <desc>Created with Sketch.</desc>
    <defs>
        <path d="M6.85714286,4.57142857 C6.85714286,3.94047304 6.6339308,3.40178795 6.1875,2.95535714 C5.7410692,2.50892634 5.20238411,2.28571429 4.57142857,2.28571429 C3.94047304,2.28571429 3.40178795,2.50892634 2.95535714,2.95535714 C2.50892634,3.40178795 2.28571429,3.94047304 2.28571429,4.57142857 C2.28571429,5.20238411 2.50892634,5.7410692 2.95535714,6.1875 C3.40178795,6.6339308 3.94047304,6.85714286 4.57142857,6.85714286 C5.20238411,6.85714286 5.7410692,6.6339308 6.1875,6.1875 C6.6339308,5.7410692 6.85714286,5.20238411 6.85714286,4.57142857 Z M9.14285714,4.57142857 C9.14285714,5.22024134 9.04464384,5.75297411 8.84821429,6.16964286 L5.59821429,13.0803571 C5.50297571,13.2767867 5.36160808,13.4315471 5.17410714,13.5446429 C4.98660621,13.6577387 4.78571536,13.7142857 4.57142857,13.7142857 C4.35714179,13.7142857 4.15625094,13.6577387 3.96875,13.5446429 C3.78124906,13.4315471 3.64285759,13.2767867 3.55357143,13.0803571 L0.294642857,6.16964286 C0.0982133036,5.75297411 0,5.22024134 0,4.57142857 C0,3.3095175 0.446424107,2.23214732 1.33928571,1.33928571 C2.23214732,0.446424107 3.3095175,0 4.57142857,0 C5.83333964,0 6.91070982,0.446424107 7.80357143,1.33928571 C8.69643304,2.23214732 9.14285714,3.3095175 9.14285714,4.57142857 Z" id="path-1"></path>
    </defs>
    <g id="Artboard" stroke="none" stroke-width="1" fill="none" fill-rule="evenodd">
        <g id="ðŸ’Ž-icon">
            <mask id="mask-2" fill="white">
                <use xlink:href="#path-1"></use>
            </mask>
            <use id="ï" fill="#006DFF" xlink:href="#path-1"></use>
            <g id="Color/Primary" mask="url(#mask-2)" fill="#006DFF">
                <g transform="translate(-7.000000, -5.000000)" id="Rectangle">
                    <rect x="0" y="0" width="24" height="24"></rect>
                </g>
            </g>
        </g>
    </g>
</svg>