<svg xmlns="http://www.w3.org/2000/svg" xmlns:xlink="http://www.w3.org/1999/xlink" viewBox="0 0 36 36">
    <path id="points-a" d="M18.2262123,11.597675 L18.9655172,9.85502771 L19.1956627,10.3975134 L19.7031296,11.5937779 L21.5353907,15.7163653 L26.0486208,16.174751 L27.930131,16.3838077 L27.492978,16.7585103 L26.4796379,17.6269716 L23.1670564,20.6223911 L24.0822552,25.0580419 L24.5036396,26.8489259 L24.0072838,26.5697258 L22.8403326,25.9132854 L18.9655164,23.6588468 L15.0875438,25.9150922 L13.4273949,26.8489259 L13.5578311,26.2945721 L13.847292,25.0647788 L14.7639763,20.6223857 L11.4563754,17.6313551 L10.0009035,16.3838077 L10.5731464,16.3202252 L11.8847609,16.1745015 L16.3956453,15.7163648 L18.2262123,11.597675 Z M31.1908001,9.37318157 L29.6505927,10.7606412 L30.0833782,12.7972791 L28.2758621,11.7662311 L26.4683459,12.7972791 L26.9011315,10.7606412 L25.360924,9.37318157 L27.4230199,9.15678879 L28.2758621,7.24744073 L29.1287042,9.15678879 L31.1908001,9.37318157 Z M10.757139,21.9257812 L9.43696121,23.1150323 L9.80792026,24.860722 L8.25862069,23.9769666 L6.70932112,24.860722 L7.08028017,23.1150323 L5.76010237,21.9257812 L7.52761315,21.7403017 L8.25862069,20.1037177 L8.98962823,21.7403017 L10.757139,21.9257812 Z M17.7028602,16.8157049 L17.4914015,17.2914871 L17.3289332,17.2914871 L17.0289515,17.2899882 L13.9445773,17.6292693 L16.2206606,19.6900886 L16.6231939,20.0423052 L16.5910295,20.1870451 L16.5181748,20.5148889 L15.8417893,23.5278788 L18.5627656,21.9822122 L18.9655172,21.7808363 L19.0773206,21.836738 L19.3799679,21.9884548 L22.0892294,23.527808 L21.412742,20.5143619 L21.3078405,20.0423052 L21.4194256,19.9446683 L21.7072061,19.6929082 L23.9866771,17.6290628 L20.9294181,17.2914871 L20.439633,17.2914871 L20.3736484,17.1430217 L20.227871,16.8150197 L18.9655171,13.9516318 L17.7028602,16.8157049 Z"/>
</svg>
