<?xml version="1.0" encoding="UTF-8"?>
<svg width="15px" height="11px" viewBox="0 0 15 11" version="1.1" xmlns="http://www.w3.org/2000/svg" xmlns:xlink="http://www.w3.org/1999/xlink">
    <!-- Generator: Sketch 55.2 (78181) - https://sketchapp.com -->
    <title>SVG/points</title>
    <desc>Created with Sketch.</desc>
    <defs>
        <path d="M7.12567351,2.4431528 L7.53639847,1.47501539 L7.66425705,1.77639633 L7.94618312,2.44098771 L8.96410593,4.73131403 L11.471456,4.98597281 L12.5167394,5.10211541 L12.2738767,5.31028348 L11.7109099,5.79276201 L9.87058687,7.45688393 L10.3790306,9.92113438 L10.6131331,10.91607 L10.3373799,10.7609588 L9.68907369,10.3962696 L7.53639801,9.14380379 L5.38196875,10.3972734 L4.45966381,10.91607 L4.53212836,10.6080956 L4.69293998,9.92487713 L5.20220903,7.45688095 L3.36465302,5.79519728 L2.5560575,5.10211541 L2.87397024,5.06679177 L3.60264493,4.98583414 L6.10869182,4.73131376 L7.12567351,2.4431528 Z M14.3282223,1.2073231 L13.4725515,1.97813398 L13.7129879,3.1095995 L12.7088123,2.53679508 L11.7046366,3.1095995 L11.945073,1.97813398 L11.0894022,1.2073231 L12.2350111,1.08710489 L12.7088123,0.0263559626 L13.1826134,1.08710489 L14.3282223,1.2073231 Z M2.97618834,8.18098958 L2.24275623,8.84168463 L2.44884459,9.81151221 L1.58812261,9.320537 L0.727400623,9.81151221 L0.933488985,8.84168463 L0.200056873,8.18098958 L1.1820073,8.0779454 L1.58812261,7.16873204 L1.99423791,8.0779454 L2.97618834,8.18098958 Z M6.83492234,5.34205826 L6.71744526,5.6063817 L6.62718511,5.6063817 L6.46052861,5.60554898 L4.74698737,5.79403851 L6.01147813,6.9389381 L6.23510775,7.13461402 L6.21723862,7.21502506 L6.17676375,7.3971605 L5.80099404,9.07104378 L7.31264754,8.21234009 L7.53639847,8.10046463 L7.59851147,8.13152113 L7.76664882,8.21580824 L9.27179412,9.07104378 L8.89596779,7.39686774 L8.83768919,7.13461402 L8.89968087,7.08037129 L9.05955895,6.94050453 L10.3259317,5.79392377 L8.6274545,5.6063817 L8.35535168,5.6063817 L8.31869356,5.52390094 L8.23770611,5.34167764 L7.53639842,3.75090653 L6.83492234,5.34205826 Z" id="path-1"></path>
    </defs>
    <g id="Page-1" stroke="none" stroke-width="1" fill="none" fill-rule="evenodd">
        <g id="Intro-Blue" transform="translate(-19.000000, -204.000000)">
            <g id="1-of-4" transform="translate(0.000000, 1.000000)">
                <g id="Get-Active">
                    <g id="🔶-Card-1">
                        <g id="Group-3" transform="translate(16.000000, 199.000000)">
                            <g id="Group-2">
                                <g id="Group-4">
                                    <g id="SVG/points" transform="translate(3.000000, 4.000000)">
                                        <mask id="mask-2" fill="white">
                                            <use xlink:href="#path-1"></use>
                                        </mask>
                                        <g id="Mask" fill-rule="nonzero"></g>
                                        <g id="Color/Castlight/sunset50" mask="url(#mask-2)" fill="#FFB84B">
                                            <g transform="translate(-3.000000, -4.000000)" id="Rectangle">
                                                <rect x="0" y="0" width="20" height="20"></rect>
                                            </g>
                                        </g>
                                    </g>
                                </g>
                            </g>
                        </g>
                    </g>
                </g>
            </g>
        </g>
    </g>
</svg>