<?xml version="1.0" encoding="UTF-8"?>
<svg width="40px" height="40px" viewBox="0 0 40 40" version="1.1" xmlns="http://www.w3.org/2000/svg" xmlns:xlink="http://www.w3.org/1999/xlink">
    <!-- Generator: Sketch 48.1 (47250) - http://www.bohemiancoding.com/sketch -->
    <title>noun_81429_cc</title>
    <desc>Created with Sketch.</desc>
    <defs></defs>
    <g id="Artboard-2" stroke="none" stroke-width="1" fill="none" fill-rule="evenodd" transform="translate(-718.000000, -7661.000000)">
        <g id="noun_81429_cc" transform="translate(718.000000, 7661.000000)" fill="#000000" fill-rule="nonzero">
            <path d="M20.8089888,0.0449438202 C14.9213483,-0.269662921 9.43820225,1.93258427 5.43820225,6.15730337 C1.66292135,10.1123596 -0.269662921,15.3258427 0.0449438202,20.8089888 C0.539325843,30.7865169 8.76404494,39.011236 18.7865169,39.5505618 C19.1460674,39.5505618 19.4606742,39.5955056 19.8202247,39.5955056 C25.3033708,39.5955056 30.3820225,37.3932584 34.1573034,33.4382022 C37.9325843,29.4831461 39.8651685,24.2696629 39.5505618,18.7865169 C39.011236,8.76404494 30.7865169,0.539325843 20.8089888,0.0449438202 Z M33.1235955,32.4494382 C29.3932584,36.4044944 24.2696629,38.4719101 18.8314607,38.1573034 C9.52808989,37.7078652 1.84269663,30.0224719 1.39325843,20.7191011 C1.12359551,15.6404494 2.92134831,10.7865169 6.42696629,7.1011236 C9.93258427,3.37078652 14.6966292,1.34831461 19.7752809,1.34831461 C20.0898876,1.34831461 20.4044944,1.34831461 20.7191011,1.39325843 C30.0224719,1.84269663 37.7078652,9.52808989 38.1573034,18.8314607 C38.4269663,23.9101124 36.6292135,28.7640449 33.1235955,32.4494382 Z" id="Shape"></path>
            <path d="M19.7752809,26.9662921 C18.7865169,26.9662921 17.9775281,27.7752809 17.9775281,28.7640449 C17.9775281,29.752809 18.7865169,30.5617978 19.7752809,30.5617978 C20.7640449,30.5617978 21.5730337,29.752809 21.5730337,28.7640449 C21.5730337,27.7752809 20.7640449,26.9662921 19.7752809,26.9662921 Z" id="Shape"></path>
            <path d="M19.9101124,10.1123596 C18.5168539,10.0674157 17.1685393,10.6067416 16.1797753,11.5955056 C15.1910112,12.5842697 14.6067416,13.8876404 14.6067416,15.2808989 C14.6067416,15.6404494 14.9213483,15.9550562 15.2808989,15.9550562 C15.6404494,15.9550562 15.9550562,15.6404494 15.9550562,15.2808989 C15.9550562,14.247191 16.3595506,13.258427 17.1235955,12.5393258 C17.8876404,11.8202247 18.8764045,11.4157303 19.9101124,11.4606742 C21.8876404,11.505618 23.5505618,13.1685393 23.6404494,15.1910112 C23.6853933,16.4494382 23.1011236,17.6179775 22.1123596,18.3370787 C20.2247191,19.7303371 19.1460674,21.7977528 19.1460674,24 L19.1460674,24.2696629 C19.1460674,24.6292135 19.4606742,24.9438202 19.8202247,24.9438202 C20.1797753,24.9438202 20.494382,24.6292135 20.494382,24.2696629 L20.494382,24 C20.494382,22.247191 21.3932584,20.5842697 22.9213483,19.4157303 C24.2696629,18.4269663 25.0337079,16.8089888 24.988764,15.1460674 C24.8539326,12.4494382 22.6067416,10.2022472 19.9101124,10.1123596 Z" id="Shape"></path>
        </g>
    </g>
</svg>