<?xml version="1.0" encoding="UTF-8"?>
<svg width="25px" height="28px" viewBox="0 0 25 28" version="1.1" xmlns="http://www.w3.org/2000/svg" xmlns:xlink="http://www.w3.org/1999/xlink">
    <!-- Generator: Sketch 52.2 (67145) - http://www.bohemiancoding.com/sketch -->
    <title>conversation-questions</title>
    <desc>Created with Sketch.</desc>
    <g id="Flows" stroke="none" stroke-width="1" fill="none" fill-rule="evenodd">
        <g id="Dollars-and-Points" transform="translate(-2685.000000, -1033.000000)" fill="#006DFF" fill-rule="nonzero">
            <g id="desgin-4:-Points-Balance-Firsttime-Copy" transform="translate(2350.000000, 1004.000000)">
                <g id="desgin-4:-Points-Balance-Firsttime">
                    <g id="top-nav-with-icons">
                        <g id="top-nav">
                            <g id="conversation-questions" transform="translate(335.000000, 29.000000)">
                                <path d="M12.811,0 C6.18316,0 0.811,5.37216 0.811,12 C0.811,16.53408 3.32428,20.47488 7.0318,22.5168 L6.89068,27.47616 L12.55276,23.98656 C12.6382,23.98848 12.72364,24 12.811,24 C19.43884,24 24.811,18.62784 24.811,12 C24.811,5.37216 19.43884,0 12.811,0 Z M12.75,20.018 C11.634,20.018 10.874,19.196 10.874,18.1 C10.874,16.981 11.653,16.18 12.75,16.18 C13.89,16.18 14.628,16.981 14.648,18.1 C14.649,19.193 13.891,20.018 12.75,20.018 Z M15.301,12.173 C14.522,13.038 14.205,13.859 14.227,14.811 L14.227,15.188 L11.422,15.188 L11.4,14.641 C11.337,13.567 11.695,12.468 12.646,11.331 C13.319,10.528 13.869,9.854 13.869,9.137 C13.869,8.4 13.382,7.915 12.327,7.874 C11.634,7.874 10.788,8.125 10.243,8.506 L9.525,6.205 C10.284,5.763 11.547,5.344 13.045,5.344 C15.83,5.344 17.093,6.882 17.093,8.633 C17.094,10.233 16.104,11.287 15.301,12.173 Z" id="Shape"></path>
                            </g>
                        </g>
                    </g>
                </g>
            </g>
        </g>
    </g>
</svg>