<?xml version="1.0" encoding="UTF-8"?>
<svg width="1147px" height="216px" viewBox="0 0 1147 216" version="1.1" xmlns="http://www.w3.org/2000/svg" xmlns:xlink="http://www.w3.org/1999/xlink">
    <!-- Generator: Sketch 51.1 (57501) - http://www.bohemiancoding.com/sketch -->
    <title>Group 6</title>
    <desc>Created with Sketch.</desc>
    <defs></defs>
    <g id="Symbols" stroke="none" stroke-width="1" fill="none" fill-rule="evenodd" fill-opacity="0.8">
        <g id="illustration/incentive_wallet-with-sparkles" transform="translate(-44.000000, -11.000000)" fill="#FFB700">
            <g id="Group-6" transform="translate(44.000000, 11.000000)">
                <polygon id="Path" points="1113 188.208384 1127.78105 186.166998 1129.61267 171 1131.79546 186.166998 1147 188.208384 1131.79546 189.949541 1129.12956 205 1127.78105 189.949541"></polygon>
                <polygon id="Path-Copy-4" points="201 36.3922528 228.823145 32.5496432 232.270917 4 236.379692 32.5496432 265 36.3922528 236.379692 39.6697248 231.361524 68 228.823145 39.6697248"></polygon>
                <polygon id="Path-Copy-6" points="1039 32.3922528 1066.82314 28.5496432 1070.27092 0 1074.37969 28.5496432 1103 32.3922528 1074.37969 35.6697248 1069.36152 64 1066.82314 35.6697248"></polygon>
                <polygon id="Path-Copy" points="597 194.110321 604.825259 193.029587 605.794946 185 606.950538 193.029587 615 194.110321 606.950538 195.03211 605.539179 203 604.825259 195.03211"></polygon>
                <polygon id="Path-Copy-2" points="57 129.085805 63.0863129 128.245234 63.8405132 122 64.7393076 128.245234 71 129.085805 64.7393076 129.802752 63.6415834 136 63.0863129 129.802752"></polygon>
                <polygon id="Path-Copy-5" points="0 7.0858053 6.08631294 6.24523445 6.84051318 0 7.73930759 6.24523445 14 7.0858053 7.73930759 7.80275229 6.64158339 14 6.08631294 7.80275229"></polygon>
                <path d="M466.574661,14.594914 C467.779348,14.9993167 469.357684,15.100929 471.309669,14.8997509 C473.899997,14.4840643 474.457057,12.7658928 474.457057,12.7658928 C474.457057,12.7658928 475.348353,10.1886355 474.846999,7.52824087 C474.345645,4.86784626 472.228818,4.34130983 472.228818,4.34130983 C472.228818,4.34130983 469.220695,3.53764896 466.602514,4.39673472 C464.290716,5.17268315 464.123598,7.02941688 464.095745,7.25111643 C463.817215,9.46811194 464.23501,11.9899443 464.23501,11.9899443 C464.70851,13.9575278 465.878336,14.2900772 466.574661,14.594914 Z" id="Page-1-Copy-3"></path>
                <path d="M898.276841,20.4844361 C899.810079,20.9991303 901.81887,21.128455 904.303215,20.8724103 C907.599997,20.3433545 908.308982,18.1565908 908.308982,18.1565908 C908.308982,18.1565908 909.443358,14.8764452 908.805272,11.4904884 C908.167185,8.10453161 905.473041,7.43439433 905.473041,7.43439433 C905.473041,7.43439433 901.644521,6.41155322 898.31229,7.5049351 C895.370002,8.49250582 895.157306,10.8556215 895.121857,11.1377845 C894.767364,13.9594152 895.299103,17.16902 895.299103,17.16902 C895.901741,19.6732172 897.39061,20.0964618 898.276841,20.4844361 Z" id="Page-1-Copy-6"></path>
                <path d="M300.340601,204.63174 C301.435771,204.999379 302.870622,205.091754 304.645154,204.908864 C306.999998,204.530968 307.506416,202.968993 307.506416,202.968993 C307.506416,202.968993 308.316684,200.626032 307.860908,198.207492 C307.405132,195.788951 305.480744,195.310282 305.480744,195.310282 C305.480744,195.310282 302.746086,194.579681 300.365922,195.360668 C298.264287,196.066076 298.112361,197.754015 298.087041,197.95556 C297.833832,199.971011 298.213645,202.263586 298.213645,202.263586 C298.6441,204.052298 299.707578,204.354616 300.340601,204.63174 Z" id="Page-1-Copy-7"></path>
                <path d="M906.340601,215.63174 C907.435771,215.999379 908.870622,216.091754 910.645154,215.908864 C912.999998,215.530968 913.506416,213.968993 913.506416,213.968993 C913.506416,213.968993 914.316684,211.626032 913.860908,209.207492 C913.405132,206.788951 911.480744,206.310282 911.480744,206.310282 C911.480744,206.310282 908.746086,205.579681 906.365922,206.360668 C904.264287,207.066076 904.112361,208.754015 904.087041,208.95556 C903.833832,210.971011 904.213645,213.263586 904.213645,213.263586 C904.6441,215.052298 905.707578,215.354616 906.340601,215.63174 Z" id="Page-1-Copy-11"></path>
                <path d="M240.1703,196.81587 C240.717885,196.999689 241.435311,197.045877 242.322577,196.954432 C243.499999,196.765484 243.753208,195.984497 243.753208,195.984497 C243.753208,195.984497 244.158342,194.813016 243.930454,193.603746 C243.702566,192.394476 242.740372,192.155141 242.740372,192.155141 C242.740372,192.155141 241.373043,191.78984 240.182961,192.180334 C239.132143,192.533038 239.056181,193.377008 239.04352,193.47778 C238.916916,194.485505 239.106823,195.631793 239.106823,195.631793 C239.32205,196.526149 239.853789,196.677308 240.1703,196.81587 Z" id="Page-1-Copy-4"></path>
                <path d="M202.1703,111.81587 C202.717885,111.999689 203.435311,112.045877 204.322577,111.954432 C205.499999,111.765484 205.753208,110.984497 205.753208,110.984497 C205.753208,110.984497 206.158342,109.813016 205.930454,108.603746 C205.702566,107.394476 204.740372,107.155141 204.740372,107.155141 C204.740372,107.155141 203.373043,106.78984 202.182961,107.180334 C201.132143,107.533038 201.056181,108.377008 201.04352,108.47778 C200.916916,109.485505 201.106823,110.631793 201.106823,110.631793 C201.32205,111.526149 201.853789,111.677308 202.1703,111.81587 Z" id="Page-1-Copy-8"></path>
            </g>
        </g>
    </g>
</svg>