<?xml version="1.0" encoding="UTF-8"?>
<svg width="30px" height="30px" viewBox="0 0 30 30" version="1.1" xmlns="http://www.w3.org/2000/svg" xmlns:xlink="http://www.w3.org/1999/xlink">
    <!-- Generator: Sketch 48.1 (47250) - http://www.bohemiancoding.com/sketch -->
    <title>Artboard 17</title>
    <desc>Created with Sketch.</desc>
    <defs></defs>
    <g id="Timeline-1" stroke="none" stroke-width="1" fill="none" fill-rule="evenodd">
        <g id="Artboard-17">
            <g id="Group-28">
                <circle id="Oval-6" fill="#F7C59E" cx="15" cy="15" r="15"></circle>
                <path d="M19.0208622,20.7145877 C19.0008833,20.5935617 18.9922848,20.519916 18.9763524,20.4480729 C18.6759112,19.0884612 18.3729412,17.7298795 18.0783166,16.3692378 C18.0611197,16.2894121 18.0788224,16.161691 18.131172,16.1127656 C18.864825,15.4262647 19.6075822,14.7498064 20.3475576,14.0700005 C20.7013599,13.7450328 21.0538977,13.4182624 21.4254027,13.075527 C21.329302,13.0556993 21.265825,13.0376742 21.2013364,13.0304641 C20.4831101,12.9496084 19.7651368,12.8674652 19.0466576,12.792017 C18.4088525,12.7250665 17.7707944,12.6557984 17.1314719,12.6107355 C16.9668362,12.5991479 16.8879325,12.5533125 16.8234439,12.4021587 C16.2718765,11.1102701 15.7127221,9.82172899 15.1550852,8.5326729 C15.1247376,8.4626323 15.0878147,8.39542422 15.0400173,8.29911839 C14.991714,8.40366429 14.9593433,8.47009986 14.9297544,8.53782294 C14.3776812,9.81323142 13.8202971,11.0860649 13.2793514,12.3663659 C13.1979187,12.5594925 13.101818,12.6290181 12.9050644,12.6076455 C12.7819038,12.5942553 12.6544439,12.612023 12.5300188,12.6256706 C11.6284426,12.7245515 10.7271192,12.8252348 9.82604871,12.9266907 C9.44822123,12.9691786 9.07089955,13.0147565 8.66500056,13.0623944 C8.70571691,13.1110623 8.72139649,13.13501 8.74188112,13.1538077 C9.79924167,14.126136 10.8553377,15.0994944 11.9175033,16.0664152 C12.013604,16.153966 12.0482509,16.2301866 12.0199264,16.3550752 C11.8502328,17.1072392 11.6843327,17.8599182 11.5181797,18.6128546 C11.3672004,19.298068 11.2177385,19.9837964 11.0571492,20.7166477 C11.2154625,20.6267795 11.3353354,20.5598289 11.4539439,20.4913333 C12.5818626,19.8398527 13.7102871,19.1899171 14.8356768,18.5343165 C14.9856445,18.4467657 15.1088051,18.4480532 15.2585199,18.537149 C15.7289075,18.8175689 16.2071349,19.0840837 16.6810631,19.3583236 C17.4486042,19.8019999 18.2151337,20.2474787 19.0208622,20.7145877 M15.0478571,5 C15.2198267,5.4068535 15.3725763,5.77636918 15.5316482,6.14279483 C16.2577142,7.81527173 16.9865622,9.48646111 17.7100992,11.159968 C17.7649778,11.2864016 17.8357888,11.3355845 17.972353,11.3492321 C19.0878798,11.4591856 20.2026478,11.5786666 21.3174159,11.6950576 C22.38818,11.8070711 23.458944,11.9185695 24.5909091,12.0365055 C24.4824165,12.1397639 24.4085707,12.2131521 24.3316901,12.2831927 C22.9989252,13.4944831 21.6656545,14.7052585 20.3333954,15.9170639 C20.1131224,16.1174007 19.9052415,16.33293 19.6761172,16.5216791 C19.5504276,16.625195 19.5413233,16.7336035 19.5699006,16.8734272 C19.8243146,18.1205104 20.0739235,19.3691386 20.331878,20.6157069 C20.522562,21.5378223 20.7233619,22.4576202 20.9254262,23.4062584 C20.8394414,23.3617105 20.769389,23.3292652 20.703383,23.2903824 C18.8792401,22.2153106 17.0548442,21.1412689 15.2339889,20.0607896 C15.0959074,19.9789039 14.9970249,19.9760714 14.857173,20.0592446 C13.0365707,21.1399814 11.2119219,22.2135081 9.38777895,23.2883224 C9.32076136,23.3279777 9.24995032,23.3611955 9.15814887,23.4090909 C9.31469185,22.6873122 9.47098193,21.9954037 9.61412138,21.3009203 C9.91987333,19.81951 10.2175326,18.3362973 10.522273,16.8546295 C10.5511032,16.7148058 10.5225259,16.6244225 10.4132745,16.5252842 C8.8534085,15.1103095 7.2983475,13.6896698 5.74227491,12.2703176 C5.67272836,12.206972 5.60368759,12.142854 5.5,12.0475781 C5.97443396,11.9914427 6.40208206,11.9368522 6.83048885,11.8910168 C7.95233803,11.7712783 9.074693,11.6546298 10.197048,11.5379813 C10.8206909,11.4733482 11.4438281,11.4022776 12.0687355,11.3525797 C12.2401994,11.3391895 12.3246668,11.2822816 12.3939605,11.1213427 C13.2409111,9.15093572 14.0957015,7.1843913 14.9484687,5.21681687 C14.9740113,5.15784886 15.0018299,5.10016836 15.0478571,5" id="Fill-1" fill="#274B7D"></path>
            </g>
        </g>
    </g>
</svg>