<?xml version="1.0" encoding="UTF-8"?>
<svg width="64px" height="78px" viewBox="0 0 64 78" version="1.1" xmlns="http://www.w3.org/2000/svg" xmlns:xlink="http://www.w3.org/1999/xlink">
    <!-- Generator: Sketch 55.2 (78181) - https://sketchapp.com -->
    <title>illustration/wallet</title>
    <desc>Created with Sketch.</desc>
    <defs>
        <path d="M4.04486449,5.92802911 C5.09895603,6.44830465 6.8808657,7.14748917 6.8808657,9.22800379 C6.8808657,11.4871336 5.11506468,12.2353786 4.04486449,12.4142875 L4.04486449,13.1451998 C4.04486449,13.4222296 3.99595277,13.4707025 3.70482551,13.4707025 L3.3806023,13.4707025 C3.08918217,13.4707025 3.04056333,13.4222296 3.04056333,13.1451998 L3.04056333,12.4142875 C2.4890617,12.4142875 0.220377888,12.0400182 0.220377888,11.5529392 C0.220377888,11.5038788 0.220377888,11.5038788 0.252888074,11.4063455 L0.722382026,10.041173 C0.738490677,10.0082702 0.80351105,9.91044314 0.868531422,9.91044314 C0.965769097,9.91044314 2.05207793,10.5447034 3.04056333,10.6586881 L3.04056333,7.47211056 C2.05207793,7.03350447 0.187867702,6.46446228 0.187867702,4.31843583 C0.187867702,1.9288699 2.29458635,1.24643055 3.04056333,1.21352775 L3.04056333,0.417103698 C3.04056333,0.140073864 3.08918217,0.0916009869 3.3806023,0.0916009869 L3.70482551,0.0916009869 C3.99595277,0.0916009869 4.04486449,0.140073864 4.04486449,0.417103698 L4.04486449,1.21352775 C4.51552998,1.24643055 6.58944556,1.60395474 6.58944556,2.15625176 C6.58944556,2.22146981 6.57362979,2.26994268 6.54111961,2.33545451 L6.03882258,3.44092987 C6.00601951,3.52230555 5.95769356,3.57077843 5.8923803,3.57077843 C5.7957284,3.57077843 4.74192975,2.92065433 4.04486449,2.92065433 L4.04486449,5.92802911 Z M3.93151816,10.6586881 C4.40189077,10.5288395 5.01753412,10.2194945 5.01753412,9.3255371 C5.01753412,8.38251931 4.30436021,8.04115275 3.93151816,7.84579237 L3.93151816,10.6586881 Z M3.15361677,5.5707987 L3.15361677,2.92065433 C2.82997933,3.00203001 2.05207793,3.22970564 2.05207793,4.1882935 C2.05207793,5.066387 2.79659049,5.40745979 3.15361677,5.5707987 Z" id="path-1"></path>
    </defs>
    <g id="mocks-for-1/1" stroke="none" stroke-width="1" fill="none" fill-rule="evenodd">
        <g id="Mocks/B/money/1-prog-1-act---in-progress" transform="translate(-294.000000, -106.000000)">
            <g id="Design-element/Incentives/Tracker---$" transform="translate(0.000000, 64.000000)">
                <g id="illustration/wallet" transform="translate(295.000000, 40.000000)">
                    <path d="M13.0758917,13.9268729 C4.92322197,18.0546402 -5.45608573,26.9653722 -3.26031113,42.8732666 C-1.37117018,57.0314109 1.89756257,67.2895395 11.9357685,70.2438411 C29.7842111,75.4967401 59.7513158,76.611189 65.6842647,48.7195386 C67.061757,42.2437484 65.3495377,18.9198459 44.226769,11.7421626 C35.147889,8.65708523 19.689967,11.1496161 13.0758917,13.9268729 Z" id="Fill-1" fill="#DEF9FF" transform="translate(31.241432, 41.760245) rotate(-87.000000) translate(-31.241432, -41.760245) "></path>
                    <g id="Group-3" stroke-width="1" transform="translate(9.200000, 16.800000)">
                        <path d="M45.6,19.4295516 L45.6,43.5715076 C45.6,45.2758805 43.9585146,46.6575673 41.9336683,46.6575673 L3.66633166,46.6575673 C1.64148543,46.6575673 0,45.2758805 0,43.5715076 L0,27.3817065 C-7.18310873e-16,21.5162531 4.75488946,16.7613636 10.6203429,16.7613636 L42.4301126,16.7613636 C44.1807859,16.7613636 45.6,17.9559581 45.6,19.4295516 Z" id="Shape-Copy" fill="#050505" fill-rule="nonzero"></path>
                        <g id="Group-4" transform="translate(0.566460, 0.000000)" fill-rule="nonzero">
                            <g id="Group-5">
                                <polygon id="Rectangle-path-Copy" fill="#27A25B" transform="translate(20.847721, 18.296965) rotate(152.212640) translate(-20.847721, -18.296965) " points="3.35934841 6.96080191 38.3360936 6.96080191 38.3360936 29.6331281 25.4079815 29.2553923 16.8650404 29.4248326 3.35934841 29.6331281 3.87031759 19.5997398"></polygon>
                                <path d="M36.1623975,15.96279 C34.5452161,13.3724413 33.4271058,11.487352 32.8080665,10.3075221 C32.4101773,9.5491829 32.0028948,8.5270186 31.5862193,7.24102918 C29.8733044,8.14754112 27.7529418,7.48780721 26.8503139,5.76752158 C22.5910297,8.33691982 19.5082061,10.1260634 17.6018432,11.1349524 C15.0970783,12.4605289 11.5632101,14.1730834 7.00023865,16.272616 C7.90286655,17.9929017 7.24595934,20.1223882 5.53304443,21.0289002 L10.1093096,29.750661 C11.8222245,28.844149 13.9425871,29.503883 14.845215,31.2241686 L34.6952033,20.7191614 C33.7925754,18.9987885 34.4494826,16.8693019 36.1623975,15.96279 Z" id="Shape-Copy-4" fill="#D5F5E3"></path>
                                <polygon id="Rectangle-path-Copy-2" fill="#2ECC71" transform="translate(22.823808, 25.655527) rotate(168.282191) translate(-22.823808, -25.655527) " points="5.3354357 14.3193639 40.3121809 14.3193639 40.3121809 36.9916902 5.3354357 36.9916902"></polygon>
                                <path d="M38.3360936,27.1929416 L36.3420323,17.4692965 C34.4463047,17.8672392 32.5906582,16.6350597 32.1974104,14.717124 L10.2294365,19.3283852 C10.6227713,21.2463208 9.40485934,23.1237057 7.50913173,23.5215603 L9.50319303,33.2451174 C11.3989206,32.8471748 13.254567,34.0793543 13.6478149,35.9972899 L35.6157888,31.3861167 C35.222454,29.468269 36.4404529,27.5908842 38.3360936,27.1929416 Z" id="Shape-Copy-5" fill="#D5F5E3"></path>
                            </g>
                        </g>
                        <path d="M43.5620112,22.5545516 L43.5620112,46.6965076 C43.5620112,48.4008805 41.9938882,49.7825673 40.0595379,49.7825673 L3.50247326,49.7825673 C1.56812295,49.7825673 0,48.4008805 0,46.6965076 L0,19.8863636 L40.5337947,19.8863636 C42.2062257,19.8863636 43.5620112,21.0809581 43.5620112,22.5545516 Z" id="Shape" fill="#4E6A7E" fill-rule="nonzero"></path>
                        <path d="M45.6,29.8962037 C45.6,31.3122914 44.0448953,32.4602712 42.1265995,32.4602712 L36.9480584,32.4602712 C33.9882167,32.4602712 31.5888268,34.2315031 31.5888268,36.4164612 C31.5888268,38.6014192 33.9882167,40.3726511 36.9480584,40.3726511 L41.6836384,40.3726511 C43.8466037,40.3726511 45.6,39.0782923 45.6,37.4815892 L45.6,29.8962037 Z" id="Shape" fill="#2E3842" fill-rule="nonzero"></path>
                        <path d="M34.6173288,36.5374238 C34.6173288,36.8654219 34.749075,37.187062 34.9802523,37.4188175 C35.2126724,37.6519442 35.5320947,37.7840909 35.8589743,37.7840909 C36.1870969,37.7840909 36.5065192,37.6519442 36.7389393,37.4188175 C36.9701165,37.187062 37.1031056,36.8654219 37.1031056,36.5374238 C37.1031056,36.2095504 36.9701165,35.8879103 36.7389393,35.6561549 C36.5065192,35.4242748 36.1870969,35.2907567 35.8589743,35.2907567 C35.5320947,35.2907567 35.2126724,35.4241501 34.9802523,35.6561549 C34.749075,35.8879103 34.6173288,36.2095504 34.6173288,36.5374238 Z" id="Shape" fill="#D9D8D9" fill-rule="nonzero"></path>
                        <g id="SVG/Savings" transform="translate(17.559618, 28.306953)">
                            <mask id="mask-2" fill="white">
                                <use xlink:href="#path-1"></use>
                            </mask>
                            <g id="Mask"></g>
                            <rect id="Rectangle" fill="#FFFFFF" mask="url(#mask-2)" x="-6.86017699" y="-4.03225806" width="21.1441341" height="21.208418"></rect>
                        </g>
                    </g>
                    <path d="M62.1662824,19.3972175 C61.809242,18.5312462 55.7505562,17.2267311 54.0768667,20.5338743 C52.4031772,23.8410175 55.4715246,25.184996 58.0753193,23.9444004 C60.678614,22.7043607 63.1888982,21.8778528 62.1662824,19.3972175" id="Fill-3" fill="#AFE6FA"></path>
                    <path d="M9.55643071,21.0605575 C9.58231629,20.7745857 10.2265068,15.7200492 5.53531892,18.3617371 C0.843803399,21.0031161 1.08758658,23.8742608 2.48901219,24.6206905 C3.89011013,25.367429 6.205395,26.802847 7.30209164,25.4248704 C8.39878828,24.0465851 9.37359332,23.0703897 9.55643071,21.0605575" id="Fill-5" fill="#AFE6FA"></path>
                    <path d="M40.3196746,6.4 C40.3196746,6.4 37.8982636,4.05578364 40.1771936,2.51726853 C42.4561237,0.978753422 44.2367533,3.25008238 43.3818672,4.42219057 C42.5273642,5.59429875 40.3196746,6.4 40.3196746,6.4" id="Fill-7" fill="#AFE6FA"></path>
                    <path d="M52,77 C52,78.4360486 43.0457118,79.6 32.0001285,79.6 C20.9542882,79.6 12,78.4360486 12,77 C12,75.5639514 20.9542882,74.4 32.0001285,74.4 C43.0457118,74.4 52,75.5639514 52,77" id="Fill-1" fill="#C1D1E0"></path>
                </g>
            </g>
        </g>
    </g>
</svg>