<?xml version="1.0" encoding="UTF-8"?>
<svg width="230px" height="251px" viewBox="0 0 230 251" version="1.1" xmlns="http://www.w3.org/2000/svg" xmlns:xlink="http://www.w3.org/1999/xlink">
    <!-- Generator: Sketch 51.1 (57501) - http://www.bohemiancoding.com/sketch -->
    <title>Group 11</title>
    <desc>Created with Sketch.</desc>
    <defs></defs>
    <g id="Page-1" stroke="none" stroke-width="1" fill="none" fill-rule="evenodd">
        <g id="Artboard" transform="translate(-1014.000000, -1666.000000)">
            <g id="Group-11" transform="translate(1014.000000, 1666.000000)">
                <rect id="Rectangle-2" fill="#FF5D5D" x="1" y="84" width="228.347656" height="167" rx="20"></rect>
                <g id="Group-4" transform="translate(6.000000, 0.000000)" fill-rule="nonzero">
                    <g id="Group-5">
                        <polygon id="Rectangle-path-Copy" fill="#0FB857" transform="translate(105.500000, 92.000000) rotate(152.212640) translate(-105.500000, -92.000000) " points="17 35 194 35 194 149 128.577222 147.100685 85.3456241 147.952658 17 149 19.5857622 98.550555"></polygon>
                        <path d="M183,80.2634031 C174.816245,67.2387249 169.158042,57.7602012 166.025391,51.827832 C164.01187,48.0147841 161.950815,42.8751823 159.842226,36.4090265 C151.174012,40.9671102 140.443906,37.649865 135.876153,29 C114.322023,41.9193359 98.7213781,50.9154297 89.0742188,55.9882812 C76.3988429,62.6534868 58.5156846,71.2644787 35.4247439,81.8212569 C39.9924971,90.471122 36.6682147,101.178513 28,105.736597 L51.1582137,149.590973 C59.8264285,145.03289 70.5565343,148.350135 75.1242875,157 L175.575256,104.179182 C171.007503,95.528878 174.331785,84.8214868 183,80.2634031 Z" id="Shape-Copy-4" fill="#77E8A7"></path>
                        <rect id="Rectangle-path-Copy-2" fill="#18C662" transform="translate(115.500000, 129.000000) rotate(168.282191) translate(-115.500000, -129.000000) " x="27" y="72" width="177" height="114"></rect>
                        <path d="M194,136.73036 L183.909042,87.8383535 C174.315703,89.8392712 164.925195,83.64368 162.935162,74 L51.7661164,97.1861419 C53.7565891,106.829822 47.5933394,116.269606 38,118.270082 L48.0909576,167.161646 C57.6842969,165.160729 67.0748052,171.35632 69.0648379,181 L180.233884,157.8143 C178.243411,148.171063 184.407101,138.731278 194,136.73036 Z" id="Shape-Copy-5" fill="#75F0A9"></path>
                    </g>
                </g>
                <path d="M220,114.387258 L220,235.516129 C220,244.067581 212.080553,251 202.311558,251 L17.6884422,251 C7.91944724,251 0,244.067581 0,235.516129 L0,101 L204.706683,101 C213.152915,101 220,106.99371 220,114.387258 Z" id="Shape" fill="#40596B" fill-rule="nonzero"></path>
                <path d="M229.614172,151 C229.614172,158.028772 221.776682,163.726787 212.108765,163.726787 L186.009709,163.726787 C171.092558,163.726787 159,172.518322 159,183.363393 C159,194.208465 171.092558,203 186.009709,203 L209.876308,203 C220.777323,203 229.614172,196.575431 229.614172,188.650172 L229.614172,151 Z" id="Shape" fill="#2E3842" fill-rule="nonzero"></path>
                <path d="M176,182 C176,183.3155 176.53,184.6055 177.46,185.535 C178.395,186.47 179.68,187 180.995,187 C182.315,187 183.6,186.47 184.535,185.535 C185.465,184.6055 186,183.3155 186,182 C186,180.685 185.465,179.395 184.535,178.4655 C183.6,177.5355 182.315,177 180.995,177 C179.68,177 178.395,177.535 177.46,178.4655 C176.53,179.395 176,180.685 176,182 Z" id="Shape" fill="#FF5D5D" fill-rule="nonzero"></path>
                <path d="M130.64944,200.11601 C122.717973,207.557121 112.741542,209.196605 109.159363,205.665864 C107.367776,203.899509 106.280453,199.675405 108.264567,197.719236 C110.694583,195.323446 116.770619,197.530406 123.039182,192.612939 L110.310529,180.063562 C102.315219,183.657247 93.2335839,187.693504 85.0467456,179.621974 C76.9237501,171.613386 79.418606,162.219057 84.9839003,155.093647 L83.1923125,153.327293 C82.3613589,152.508043 82.5528872,150.805616 83.767895,149.607721 C84.8552172,148.535713 86.7106479,148.220995 87.5416015,149.040245 L89.2045063,150.679728 C93.49095,146.707398 101.48626,141.220489 105.195126,144.879084 C106.665505,146.328753 108.583781,150.239123 106.217608,152.572953 C104.427018,154.338324 100.90968,153.770848 96.3030248,157.680235 L107.559304,168.777975 C115.362088,165.24625 124.636249,161.779435 133.334827,170.354515 C141.203449,178.112311 140.818397,187.442713 134.806203,195.641115 L136.788322,197.595316 C137.620273,198.41555 137.301059,200.243864 136.213737,201.315872 C134.998729,202.513767 133.271981,202.702598 132.44003,201.882364 L130.64944,200.11601 Z M102.316216,171.172781 L92.6570038,161.649614 C89.9726146,165.307226 89.5875629,168.713064 92.0175785,171.108854 C94.8316483,173.883289 98.2222982,172.938152 102.316216,171.172781 Z M115.683297,177.794643 L126.811891,188.766496 C129.050378,185.424585 129.369592,181.829916 126.364991,178.866651 C123.229712,175.774547 119.648532,176.281046 115.683297,177.794643 Z" id="Shape-Copy-3" fill="#FFFFFF" fill-rule="nonzero" transform="translate(109.563077, 175.563077) rotate(45.000000) translate(-109.563077, -175.563077) "></path>
            </g>
        </g>
    </g>
</svg>