<?xml version="1.0" encoding="UTF-8"?>
<svg width="8px" height="8px" viewBox="0 0 8 8" version="1.1" xmlns="http://www.w3.org/2000/svg" xmlns:xlink="http://www.w3.org/1999/xlink">
    <!-- Generator: Sketch 52.2 (67145) - http://www.bohemiancoding.com/sketch -->
    <title>Fill 4</title>
    <desc>Created with Sketch.</desc>
    <g id="Leaderboard" stroke="none" stroke-width="1" fill="none" fill-rule="evenodd">
        <g id="leaderboard_history" transform="translate(-225.000000, -63.000000)" fill="#C4CBD6">
            <g id="Group-3-Copy">
                <g id="Component/Profile-3-stats">
                    <path d="M229.454641,63.295326 L230.297808,65.0824272 C230.371418,65.2362065 230.516407,65.345716 230.679241,65.3713458 L232.568559,65.6579344 C232.98122,65.7208441 233.146285,66.2544115 232.847384,66.55964 L231.482257,67.9506431 C231.361804,68.0694725 231.30827,68.2465517 231.337268,68.4166408 L231.658474,70.3808212 C231.729853,70.811869 231.294886,71.1427274 230.922376,70.9376884 L229.236042,70.010353 C229.088823,69.9311334 228.912605,69.9311334 228.763155,70.010353 L227.079052,70.9376884 C226.706542,71.1427274 226.271575,70.811869 226.340723,70.3808212 L226.66416,68.4166408 C226.693158,68.2465517 226.637393,68.0694725 226.519171,67.9506431 L225.154044,66.55964 C224.852913,66.2544115 225.017977,65.7208441 225.4351,65.6579344 L227.322187,65.3713458 C227.485021,65.345716 227.63001,65.2362065 227.70362,65.0824272 L228.546787,63.295326 C228.731927,62.901558 229.269501,62.901558 229.454641,63.295326" id="Fill-4"></path>
                </g>
            </g>
        </g>
    </g>
</svg>