<?xml version="1.0" encoding="UTF-8"?>
<svg width="10px" height="10px" viewBox="0 0 10 10" version="1.1" xmlns="http://www.w3.org/2000/svg" xmlns:xlink="http://www.w3.org/1999/xlink">
    <!-- Generator: Sketch 52.2 (67145) - http://www.bohemiancoding.com/sketch -->
    <title>Fill 1 Copy</title>
    <desc>Created with Sketch.</desc>
    <g id="Leaderboard" stroke="none" stroke-width="1" fill="none" fill-rule="evenodd">
        <g id="leaderboard_team_formation" transform="translate(-148.000000, -634.000000)" fill="#1F1F1F">
            <g id="Diamond-team-Copy" transform="translate(-1.000000, 1.000000)">
                <g id="Content-Copy-5">
                    <path d="M154.265529,633.292319 L155.383195,635.744055 C155.453748,635.898781 155.590125,636.006079 155.747897,636.030918 L158.247051,636.424074 C158.644377,636.486529 158.803033,637.015173 158.515516,637.318547 L156.707083,639.226899 C156.592943,639.347359 156.540868,639.520989 156.56779,639.691077 L156.994689,642.385743 C157.062546,642.814171 156.647228,643.140852 156.291854,642.938602 L154.056567,641.666336 C153.91546,641.586029 153.746858,641.586029 153.605751,641.666336 L151.370464,642.938602 C151.01509,643.140852 150.599772,642.814171 150.667629,642.385743 L151.094529,639.691077 C151.12145,639.520989 151.069375,639.347359 150.955235,639.226899 L149.146802,637.318547 C148.859329,637.015173 149.017941,636.486529 149.415267,636.424074 L151.914421,636.030918 C152.072193,636.006079 152.20857,635.898781 152.279123,635.744055 L153.396789,633.292319 C153.574453,632.90256 154.087865,632.90256 154.265529,633.292319" id="Fill-1-Copy"></path>
                </g>
            </g>
        </g>
    </g>
</svg>