<?xml version="1.0" encoding="UTF-8"?>
<svg width="92px" height="92px" viewBox="0 0 92 92" version="1.1" xmlns="http://www.w3.org/2000/svg" xmlns:xlink="http://www.w3.org/1999/xlink">
    <!-- Generator: Sketch 49.3 (51167) - http://www.bohemiancoding.com/sketch -->
    <title>noun_81480_cc</title>
    <desc>Created with Sketch.</desc>
    <defs></defs>
    <g id="v2" stroke="none" stroke-width="1" fill="none" fill-rule="evenodd">
        <g id="Artboard-2" transform="translate(-6963.000000, -4128.000000)" fill="#979797" fill-rule="nonzero" stroke="#979797" stroke-width="3">
            <g id="noun_81480_cc" transform="translate(6965.000000, 4130.000000)">
                <path d="M44,0 C19.7,0 0,19.7 0,44 C0,68.3 19.7,88 44,88 C68.3,88 88,68.3 88,44 C88,19.7 68.3,0 44,0 Z M44,85 C21.4,85 3,66.6 3,44 C3,21.4 21.4,3 44,3 C66.6,3 85,21.4 85,44 C85,66.6 66.6,85 44,85 Z" id="Shape"></path>
                <path d="M57.1,30.9 C57.7,31.5 58.6,31.5 59.2,30.9 C59.8,30.3 59.8,29.4 59.2,28.8 C50.8,20.4 37.2,20.4 28.8,28.8 C20.4,37.2 20.4,50.8 28.8,59.2 C33,63.4 38.5,65.5 44,65.5 C49.5,65.5 55,63.4 59.2,59.2 C59.8,58.6 59.8,57.7 59.2,57.1 C58.6,56.5 57.7,56.5 57.1,57.1 C49.9,64.3 38.1,64.3 30.9,57.1 C23.7,49.9 23.7,38.1 30.9,30.9 C38.1,23.7 49.9,23.7 57.1,30.9 Z" id="Shape"></path>
            </g>
        </g>
    </g>
</svg>