<?xml version="1.0" encoding="UTF-8"?>
<svg width="30px" height="30px" viewBox="0 0 30 30" version="1.1" xmlns="http://www.w3.org/2000/svg" xmlns:xlink="http://www.w3.org/1999/xlink">
    <!-- Generator: Sketch 53.2 (72643) - https://sketchapp.com -->
    <title>copyright_footer</title>
    <desc>Created with Sketch.</desc>
    <g id="complete-packages" stroke="none" stroke-width="1" fill="none" fill-rule="evenodd">
        <g id="Complete-Express" transform="translate(-2437.000000, -2135.000000)" fill="#626B7A" fill-rule="nonzero">
            <g id="copyright_footer" transform="translate(2437.000000, 2135.000000)">
                <path d="M0.0536470588,14.9368235 C0.0557647059,6.71082353 6.72247059,0.0412941176 14.9484706,0.0412941176 L14.9484706,0.0412941176 C23.1755294,0.0412941176 29.8418824,6.71117647 29.8418824,14.9368235 L29.8418824,14.9368235 C29.8418824,23.1638824 23.1751765,29.8323529 14.9484706,29.8337647 L14.9484706,29.8337647 C6.72247059,29.8323529 0.0557647059,23.1645882 0.0536470588,14.9368235 L0.0536470588,14.9368235 Z M2.64352941,14.9368235 C2.65835294,21.7327059 8.154,27.2301176 14.9484706,27.2431765 L14.9484706,27.2431765 C21.7436471,27.2301176 27.2403529,21.7327059 27.252,14.9368235 L27.252,14.9368235 C27.2403529,8.14235294 21.7436471,2.64423529 14.9484706,2.63188235 L14.9484706,2.63188235 C8.15435294,2.64458824 2.65835294,8.14235294 2.64352941,14.9368235 L2.64352941,14.9368235 Z" id="Shape"></path>
                <path d="M14.9474118,22.7029412 C12.9649412,22.7036471 10.9694118,21.942 9.45705882,20.4282353 L9.45705882,20.4282353 C7.94576471,18.9169412 7.18129412,16.9256471 7.182,14.9438824 L7.182,14.9438824 C7.18129412,12.9592941 7.94082353,10.9602353 9.45847059,9.44717647 L9.45847059,9.44717647 C10.9708235,7.93129412 12.9663529,7.17 14.9474118,7.17282353 L14.9474118,7.17282353 C16.932,7.17 18.9264706,7.93305882 20.4398824,9.44717647 L20.4398824,9.44717647 L18.618,11.2704706 C17.6004706,10.2543529 16.2797647,9.75176471 14.9474118,9.75035294 L14.9474118,9.75035294 C13.6164706,9.75176471 12.2971765,10.2543529 11.2792941,11.2704706 L11.2792941,11.2704706 C10.2638824,12.2851765 9.762,13.6072941 9.76058824,14.9438824 L9.76058824,14.9438824 C9.762,16.2730588 10.266,17.5902353 11.2814118,18.6070588 L11.2814118,18.6070588 C12.2957647,19.6203529 13.6154118,20.1236471 14.9474118,20.1250588 L14.9474118,20.1250588 C16.2797647,20.1236471 17.6008235,19.6203529 18.6155294,18.6056471 L18.6155294,18.6056471 L18.6183529,18.6070588 L20.4395294,20.4282353 C18.9268235,21.942 16.9348235,22.7029412 14.9523529,22.7029412 L14.9523529,22.7029412 C14.9512941,22.7029412 14.9491765,22.7029412 14.9474118,22.7029412 L14.9474118,22.7029412 Z" id="Path"></path>
            </g>
        </g>
    </g>
</svg>