<?xml version="1.0" encoding="UTF-8"?>
<svg width="20px" height="26px" viewBox="0 0 20 26" version="1.1" xmlns="http://www.w3.org/2000/svg" xmlns:xlink="http://www.w3.org/1999/xlink">
    <!-- Generator: Sketch 49.3 (51167) - http://www.bohemiancoding.com/sketch -->
    <title>Notifications</title>
    <desc>Created with Sketch.</desc>
    <defs>
        <path d="M22.7365749,20.314004 C23.2185668,20.314004 23.6120222,20.7119505 23.5997191,21.1919935 C23.5997191,21.6774865 23.2097405,22.0699831 22.7273622,22.0699831 L17.27473,22.0699831 C16.8778286,23.7670123 15.3630444,25 13.5975564,25 C11.8364174,25 10.3219288,23.7669773 9.92084806,22.0699831 L4.47235688,22.0699831 C3.98997855,22.0699831 3.6,21.6774865 3.6,21.1919935 C3.6,20.7065006 3.98997855,20.314004 4.47235688,20.314004 L4.72235265,20.314004 C5.79694463,18.897795 6.38224154,17.170896 6.38224154,15.3968651 L6.38224154,11.2892781 C6.38224154,8.09338615 8.46256066,5.30559698 11.4366939,4.36378464 C11.3005161,4.05937978 11.2281324,3.72904441 11.2281324,3.38935904 C11.2281324,2.07247647 12.2921545,1 13.6021627,1 C14.9121709,1 15.976193,2.07247647 15.976193,3.38935904 C15.976193,3.72904441 15.9038094,4.05937978 15.7676315,4.36378464 C18.7417648,5.30559698 20.8220839,8.09338615 20.8220839,11.2892781 L20.8220839,15.3968651 C20.8220839,17.1680123 21.4083953,18.8989476 22.481977,20.314004 L22.7365749,20.314004 Z M12.9728462,3.38935904 C12.9728462,3.73836457 13.2553962,4.02273898 13.6021627,4.02273898 C13.9489292,4.02273898 14.2314793,3.73836457 14.2314793,3.38935904 C14.2314793,3.04035352 13.9489292,2.7559791 13.6021627,2.7559791 C13.2553962,2.7559791 12.9728462,3.04035352 12.9728462,3.38935904 Z M13.6021627,23.2440209 C14.4015423,23.2440209 15.110539,22.7739732 15.4429244,22.0699831 L11.7614011,22.0699831 C12.0937864,22.7739732 12.8027832,23.2440209 13.6021627,23.2440209 Z M20.3846167,20.314004 C19.533895,18.8237009 19.0819765,17.1259426 19.0819765,15.3968651 L19.0819765,11.2892781 C19.0819765,8.25133298 16.6252245,5.77871808 13.6067691,5.77871808 C10.5883137,5.77871808 8.13156165,8.25133298 8.13156165,11.2892781 L8.13156165,15.3968651 C8.13156165,17.1227213 7.67729259,18.8209068 6.82438586,20.314004 L20.3846167,20.314004 Z" id="path-1"></path>
    </defs>
    <g id="SymbolsU" stroke="none" stroke-width="1" fill="none" fill-rule="evenodd">
        <g id="Notifications" transform="translate(-4.000000, -1.000000)">
            <path d="M14.0625,1.6875 C14.5898464,1.6875 15.0341779,1.86816226 15.3955078,2.22949219 C15.7568377,2.59082212 15.9375,3.03515361 15.9375,3.5625 C15.9375,3.6015627 15.9326172,3.6406248 15.9228516,3.6796875 C15.9130859,3.7187502 15.9082031,3.7578123 15.9082031,3.796875 C16.7285197,4.01171982 17.4853481,4.35839604 18.1787109,4.83691406 C18.8720738,5.31543208 19.4677709,5.89159819 19.9658203,6.56542969 C20.4638697,7.23926118 20.8544908,7.98144126 21.1376953,8.79199219 C21.4208999,9.60254312 21.5625,10.4472612 21.5625,11.3261719 L21.5625,19.5 C21.5625,19.7734389 21.6503897,19.998046 21.8261719,20.1738281 C22.001954,20.3496103 22.2265611,20.4375 22.5,20.4375 L23.4375,20.4375 L23.4375,22.3125 L16.6992188,22.3125 C16.7578128,22.4687508 16.8017577,22.6249992 16.8310547,22.78125 C16.8603517,22.9375008 16.875,23.0937492 16.875,23.25 C16.875,24.0117226 16.5966825,24.6708957 16.0400391,25.2275391 C15.4833957,25.7841825 14.8242226,26.0625 14.0625,26.0625 C13.3007774,26.0625 12.6416043,25.7841825 12.0849609,25.2275391 C11.5283175,24.6708957 11.25,24.0117226 11.25,23.25 C11.25,23.0937492 11.2646483,22.9375008 11.2939453,22.78125 C11.3232423,22.6249992 11.3671872,22.4687508 11.4257812,22.3125 L4.6875,22.3125 L4.6875,20.4375 L5.625,20.4375 C5.89843887,20.4375 6.123046,20.3496103 6.29882812,20.1738281 C6.47461025,19.998046 6.5625,19.7734389 6.5625,19.5 L6.5625,11.0625 C6.5625,10.1835894 6.70410015,9.35351953 6.98730469,8.57226562 C7.27050923,7.79101172 7.66601309,7.07812822 8.17382812,6.43359375 C8.68164316,5.78905928 9.2822231,5.24218975 9.97558594,4.79296875 C10.6689488,4.34374775 11.4160116,4.01171982 12.2167969,3.796875 C12.2167969,3.7578123 12.2119141,3.7187502 12.2021484,3.6796875 C12.1923828,3.6406248 12.1875,3.6015627 12.1875,3.5625 C12.1875,3.03515361 12.3681623,2.59082212 12.7294922,2.22949219 C13.0908221,1.86816226 13.5351536,1.6875 14.0625,1.6875 Z M13.6523438,5.4375 C12.1874927,5.53515674 10.9521535,6.12597114 9.94628906,7.20996094 C8.94042466,8.29395073 8.4375,9.57811758 8.4375,11.0625 L8.4375,19.5 C8.4375,19.6562508 8.42285171,19.8124992 8.39355469,19.96875 C8.36425767,20.1250008 8.32031279,20.2812492 8.26171875,20.4375 L19.8632812,20.4375 C19.8046872,20.2812492 19.7607423,20.1250008 19.7314453,19.96875 C19.7021483,19.8124992 19.6875,19.6562508 19.6875,19.5 L19.6875,11.3261719 C19.6875,10.544918 19.5458999,9.80273789 19.2626953,9.09960938 C18.9794908,8.39648086 18.5937524,7.77636987 18.1054688,7.23925781 C17.6171851,6.70214575 17.0410189,6.27246255 16.3769531,5.95019531 C15.7128873,5.62792808 15.0000038,5.45703135 14.2382812,5.4375 L13.6523438,5.4375 Z M14.0625,22.3125 C13.7890611,22.3125 13.564454,22.4003897 13.3886719,22.5761719 C13.2128897,22.751954 13.125,22.9765611 13.125,23.25 C13.125,23.5234389 13.2128897,23.748046 13.3886719,23.9238281 C13.564454,24.0996103 13.7890611,24.1875 14.0625,24.1875 C14.3359389,24.1875 14.560546,24.0996103 14.7363281,23.9238281 C14.9121103,23.748046 15,23.5234389 15,23.25 C15,22.9765611 14.9121103,22.751954 14.7363281,22.5761719 C14.560546,22.4003897 14.3359389,22.3125 14.0625,22.3125 Z" id="" fill="#FFFFFF"></path>
            <mask id="mask-2" fill="white">
                <use xlink:href="#path-1"></use>
            </mask>
            <g fill-rule="nonzero"></g>
        </g>
    </g>
</svg>