<?xml version="1.0" encoding="UTF-8"?>
<svg width="19px" height="25px" viewBox="0 0 19 25" version="1.1" xmlns="http://www.w3.org/2000/svg" xmlns:xlink="http://www.w3.org/1999/xlink">
    <!-- Generator: Sketch 50 (54983) - http://www.bohemiancoding.com/sketch -->
    <title>Desktop icon/bell</title>
    <desc>Created with Sketch.</desc>
    <defs>
        <path d="M9.375,0 C9.90234639,0 10.3466779,0.180662256 10.7080078,0.541992188 C11.0693377,0.903322119 11.25,1.34765361 11.25,1.875 C11.25,1.9140627 11.2451172,1.9531248 11.2353516,1.9921875 C11.2255859,2.0312502 11.2207031,2.0703123 11.2207031,2.109375 C12.0410197,2.32421982 12.7978481,2.67089604 13.4912109,3.14941406 C14.1845738,3.62793208 14.7802709,4.20409819 15.2783203,4.87792969 C15.7763697,5.55176118 16.1669908,6.29394126 16.4501953,7.10449219 C16.7333999,7.91504312 16.875,8.75976123 16.875,9.63867188 L16.875,17.8125 C16.875,18.0859389 16.9628897,18.310546 17.1386719,18.4863281 C17.314454,18.6621103 17.5390611,18.75 17.8125,18.75 L18.75,18.75 L18.75,20.625 L12.0117188,20.625 C12.0703128,20.7812508 12.1142577,20.9374992 12.1435547,21.09375 C12.1728517,21.2500008 12.1875,21.4062492 12.1875,21.5625 C12.1875,22.3242226 11.9091825,22.9833957 11.3525391,23.5400391 C10.7958957,24.0966825 10.1367226,24.375 9.375,24.375 C8.61327744,24.375 7.95410435,24.0966825 7.39746094,23.5400391 C6.84081753,22.9833957 6.5625,22.3242226 6.5625,21.5625 C6.5625,21.4062492 6.57714829,21.2500008 6.60644531,21.09375 C6.63574233,20.9374992 6.67968721,20.7812508 6.73828125,20.625 L0,20.625 L0,18.75 L0.9375,18.75 C1.21093887,18.75 1.435546,18.6621103 1.61132812,18.4863281 C1.78711025,18.310546 1.875,18.0859389 1.875,17.8125 L1.875,9.375 C1.875,8.49608936 2.01660015,7.66601953 2.29980469,6.88476562 C2.58300923,6.10351172 2.97851309,5.39062822 3.48632812,4.74609375 C3.99414316,4.10155928 4.5947231,3.55468975 5.28808594,3.10546875 C5.98144878,2.65624775 6.72851162,2.32421982 7.52929688,2.109375 C7.52929688,2.0703123 7.52441411,2.0312502 7.51464844,1.9921875 C7.50488276,1.9531248 7.5,1.9140627 7.5,1.875 C7.5,1.34765361 7.68066226,0.903322119 8.04199219,0.541992188 C8.40332212,0.180662256 8.84765361,0 9.375,0 Z M8.96484375,3.75 C7.49999268,3.84765674 6.26465347,4.43847114 5.25878906,5.52246094 C4.25292466,6.60645073 3.75,7.89061758 3.75,9.375 L3.75,17.8125 C3.75,17.9687508 3.73535171,18.1249992 3.70605469,18.28125 C3.67675767,18.4375008 3.63281279,18.5937492 3.57421875,18.75 L15.1757812,18.75 C15.1171872,18.5937492 15.0732423,18.4375008 15.0439453,18.28125 C15.0146483,18.1249992 15,17.9687508 15,17.8125 L15,9.63867188 C15,8.85741797 14.8583999,8.11523789 14.5751953,7.41210938 C14.2919908,6.70898086 13.9062524,6.08886987 13.4179688,5.55175781 C12.9296851,5.01464575 12.3535189,4.58496255 11.6894531,4.26269531 C11.0253873,3.94042808 10.3125038,3.76953135 9.55078125,3.75 L8.96484375,3.75 Z M9.375,20.625 C9.10156113,20.625 8.876954,20.7128897 8.70117188,20.8886719 C8.52538975,21.064454 8.4375,21.2890611 8.4375,21.5625 C8.4375,21.8359389 8.52538975,22.060546 8.70117188,22.2363281 C8.876954,22.4121103 9.10156113,22.5 9.375,22.5 C9.64843887,22.5 9.873046,22.4121103 10.0488281,22.2363281 C10.2246103,22.060546 10.3125,21.8359389 10.3125,21.5625 C10.3125,21.2890611 10.2246103,21.064454 10.0488281,20.8886719 C9.873046,20.7128897 9.64843887,20.625 9.375,20.625 Z" id="path-1"></path>
    </defs>
    <g id="Symbols" stroke="none" stroke-width="1" fill="none" fill-rule="evenodd">
        <g id="Component/Top-Nav/Wellbeing" transform="translate(-1204.000000, -20.000000)">
            <g id="Element/Top-Nav/Home-On" transform="translate(1004.000000, 18.000000)">
                <g id="notifications" transform="translate(200.000000, 0.000000)">
                    <g id="Desktop-icon/bell" transform="translate(0.000000, 2.000000)">
                        <mask id="mask-2" fill="white">
                            <use xlink:href="#path-1"></use>
                        </mask>
                        <use id="Mask" fill="#FFFFFF" xlink:href="#path-1"></use>
                        <g id="🎨-Color/White" mask="url(#mask-2)" fill="#282C37">
                            <g transform="translate(-3.000000, 0.000000)" id="Rectangle">
                                <rect x="0" y="0" width="24" height="24"></rect>
                            </g>
                        </g>
                    </g>
                </g>
            </g>
        </g>
    </g>
</svg>