<?xml version="1.0" encoding="UTF-8"?>
<svg width="12px" height="12px" viewBox="0 0 12 12" version="1.1" xmlns="http://www.w3.org/2000/svg" xmlns:xlink="http://www.w3.org/1999/xlink">
    <!-- Generator: Sketch 53.2 (72643) - https://sketchapp.com -->
    <title>Group</title>
    <desc>Created with Sketch.</desc>
    <g id="complete-packages" stroke="none" stroke-width="1" fill="none" fill-rule="evenodd">
        <g id="packages/wellbeing/navigator/wellbeing-navigator" transform="translate(-1274.000000, -508.000000)">
            <g id="Right-Rail" transform="translate(528.000000, 141.000000)">
                <g id="Component/personalized/personalized" transform="translate(0.000000, 360.000000)">
                    <g id="Group" transform="translate(747.000000, 8.000000)">
                        <path d="M8.60644596,1.47680837 C7.16458915,0.0349239107 4.99613424,-0.396424804 3.11223572,0.383900929 C1.2283372,1.16422666 1.15521183e-15,3.00255366 0,5.04166667 C-1.15521183e-15,7.08077968 1.2283372,8.91910667 3.11223572,9.6994324 C4.99613424,10.4797581 7.16458915,10.0484094 8.60644596,8.60652496 C9.55511804,7.66277422 10.0884921,6.3798162 10.0884921,5.04166667 C10.0884921,3.70351714 9.55511804,2.42055911 8.60644596,1.47680837 Z" id="Shape" stroke="#777777" fill-rule="nonzero"></path>
                        <polygon id="Path" fill="#777777" points="5.71362219 7.72022587 4.36854484 7.72022587 4.36854484 4.39282313 5.71362219 4.39282313"></polygon>
                        <path d="M5.04108352,3.83220619 C4.74287478,3.83220591 4.4740487,3.65251525 4.36002358,3.37696721 C4.24599847,3.10141917 4.30924408,2.78431321 4.52025378,2.57359218 C4.73126348,2.36287114 5.04845572,2.30005967 5.3238474,2.41446189 C5.59923909,2.52886411 5.77856158,2.79793592 5.77815364,3.09614437 C5.77815382,3.29153493 5.70046628,3.4789081 5.56220975,3.61697549 C5.42395323,3.75504288 5.23647389,3.83247385 5.04108352,3.83220619 Z" id="Path" fill="#777777"></path>
                    </g>
                </g>
            </g>
        </g>
    </g>
</svg>