<?xml version="1.0" encoding="UTF-8" standalone="no"?>
<svg width="100%" height="100%" viewBox="0 0 1136 629" version="1.1" xmlns="http://www.w3.org/2000/svg" xmlns:xlink="http://www.w3.org/1999/xlink">
    <!-- Generator: Sketch 47 (45396) - http://www.bohemiancoding.com/sketch -->
    <title>Artboard</title>
    <desc>Created with Sketch.</desc>
    <defs></defs>
    <g id="Page-1" stroke="none" stroke-width="1" fill="none" fill-rule="evenodd">
        <g id="Artboard" fill="#D0E2F0">
            <polygon id="Fill-1" points="479.581931 0 474.55559 71.3735652 474.55559 80.9509668 458.977253 80.9509668 458.977253 99.4649207 450.43674 99.4649207 442.523532 235.577095 348.934999 235.577095 348.934999 283.965217 348.160743 284.284839 348.160743 314.803069 235.972695 314.803069 235.972695 265.012788 198.81633 265.1991 198.81633 367.21778 183.49081 367.21778 183.49081 373.093033 168.038882 373.093033 168.038882 378.327437 159.247131 378.327437 159.247131 427.740276 153.593486 427.740276 153.593486 380.115069 146.934888 380.115069 151.202774 375.773678 144.798575 375.773678 144.798575 370.791437 138.644033 370.791437 138.644033 360.19735 131.859027 360.19735 131.859027 366.960798 128.340114 366.960798 128.340114 372.966148 119.926011 372.966148 119.926011 376.795182 114.149116 376.795182 114.149116 381.77421 110.254137 381.77421 110.254137 375.134435 96.0583984 375.134435 96.0583984 363.515632 88.1420305 363.515632 88.1420305 376.536593 82.7427832 376.536593 82.7427832 384.072593 74.7031665 384.072593 74.7031665 389.305391 70.8081871 389.305391 70.8081871 437.317678 59 437.317678 59 628 1044 628 1044 439.489176 1030.0555 439.489176 1030.0555 359.684992 996.893661 359.684992 996.893661 280.394772 976.793039 280.394772 976.793039 249.491069 950.288217 249.491069 950.288217 235.064737 915.361392 235.064737 915.361392 250.387294 899.536557 250.387294 894.886283 254.984061 860.96757 254.984061 860.96757 212.339488 790.620924 212.339488 790.620924 235.064737 761.728551 235.064737 761.728551 242.088379 720.523935 242.088379 720.523935 294.438844 668.516084 294.438844 668.516084 175.18309 608.215799 175.18309 608.215799 245.15289 588.872051 245.15289 588.872051 289.970568 574.298665 289.970568 574.298665 250.260409 546.032018 250.260409 546.032018 224.851304 508.098237 224.851304 503.82561 96.0181483 498.047136 96.0181483 498.047136 85.2923581 488.247272 85.2923581 488.247272 69.5875396"></polygon>
        </g>
    </g>
</svg>