<?xml version="1.0" encoding="UTF-8"?>
<svg width="77px" height="84px" viewBox="0 0 77 84" version="1.1" xmlns="http://www.w3.org/2000/svg" xmlns:xlink="http://www.w3.org/1999/xlink">
    <!-- Generator: Sketch 47.1 (45422) - http://www.bohemiancoding.com/sketch -->
    <title>Artboard</title>
    <desc>Created with Sketch.</desc>
    <defs></defs>
    <g id="Onboarding" stroke="none" stroke-width="1" fill="none" fill-rule="evenodd">
        <g id="Artboard" fill-rule="nonzero" fill="#2A27D8">
            <path d="M45.844412,20.85695 L48.997237,0.678447936 C49.0076972,0.609199967 48.9881994,0.538894281 48.9431257,0.483331762 C48.8980519,0.427769243 48.8311834,0.391610923 48.7575486,0.38298322 L45.6600363,0.0006171176 C45.586648,-0.00414930978 45.5142691,0.0188415794 45.4589079,0.0645048045 C45.4035467,0.11016803 45.3697652,0.174740687 45.3650351,0.243941001 L44.0006547,20.5962458 C43.9955983,20.6654256 44.0199878,20.733654 44.0684288,20.7858405 C44.1168699,20.8380271 44.1853707,20.8698714 44.2587807,20.8743303 L45.5494108,20.9959922 C45.6695115,21.0160347 45.789361,20.9595463 45.844412,20.85695 Z" id="Shape"></path>
            <path d="M40.9993453,20.5972027 L39.6349649,0.243952334 C39.6302348,0.174748805 39.5964533,0.110173148 39.5410921,0.0645078014 C39.4857309,0.0188424547 39.413352,-0.00414950255 39.3399637,0.000617146271 L36.2424514,0.313476674 C36.1688166,0.322104777 36.1019481,0.358264777 36.0568743,0.413829878 C36.0118006,0.469394978 35.9923028,0.53970393 36.002763,0.608955117 L39.1371504,20.7883946 C39.1651751,20.9260394 39.3036233,21.0181677 39.4505892,20.9969677 L40.7412193,20.8753001 C40.8146293,20.8708409 40.8831301,20.8389952 40.9315712,20.7868062 C40.9800122,20.7346172 41.0044017,20.6663857 40.9993453,20.5972027 Z" id="Shape"></path>
            <path d="M36.9833145,22.1346108 L31.4104249,2.3263386 C31.3773632,2.20860329 31.2970893,2.10948848 31.1883544,2.05214645 C31.0796194,1.99480442 30.9519465,1.98425725 30.8351588,2.02296867 L28.31837,2.84385202 C28.198678,2.8800737 28.0996175,2.96418983 28.0450264,3.07595864 C27.9904353,3.18772744 27.9852567,3.31702846 28.0307369,3.4327466 L35.2215623,22.7056601 C35.3060335,22.9371967 35.5635145,23.0570062 35.7968283,22.9733395 L36.6597273,22.6878148 C36.7774704,22.6585512 36.8782835,22.5832563 36.9392314,22.4790598 C37.0001793,22.3748634 37.0160795,22.2506256 36.9833145,22.1346108 Z" id="Shape"></path>
            <path d="M31.9480544,22.898731 L22.9629995,5.23414895 C22.9096591,5.12813693 22.8160908,5.04944417 22.7043976,5.01665969 C22.5927044,4.98387522 22.472792,4.99990656 22.3729865,5.06096677 L20.2152248,6.34251488 C20.1148901,6.40034788 20.0419315,6.49780689 20.0132798,6.61227546 C19.984628,6.72674404 20.0027742,6.84827022 20.0635071,6.9486525 L30.4645932,23.7992784 C30.5873561,23.9976479 30.8417655,24.0591449 31.0377486,23.9378241 L31.7794792,23.4875504 C31.8780399,23.4326357 31.951237,23.3396362 31.9828743,23.2291297 C32.0145116,23.1186233 32.0019807,22.9997206 31.9480544,22.898731 Z" id="Shape"></path>
            <path d="M27.8523923,25.6183063 L14.7440191,10.1335607 C14.6598669,10.0482148 14.5438217,10 14.4225604,10 C14.3012991,10 14.1852538,10.0482148 14.1011016,10.1335607 L12.1366315,11.8793043 C12.0493234,11.9615651 12,12.0750022 12,12.1935381 C12,12.312074 12.0493234,12.4255111 12.1366315,12.507772 L26.5308397,26.8752417 C26.7044469,27.0415861 26.9822912,27.0415861 27.1558984,26.8752417 L27.8345335,26.2816889 C27.9360037,26.2013519 27.9964102,26.0816187 27.9998452,25.9540204 C28.0032803,25.8264221 27.9493996,25.703749 27.8523923,25.6183063 Z" id="Shape"></path>
            <path d="M24.8562055,28.5925849 L9.21806879,16.1331325 C9.13619306,16.0480603 9.02328704,16 8.90530606,16 C8.78732508,16 8.67441906,16.0480603 8.59254333,16.1331325 L7.08085678,18.2213089 C7.01353002,18.3157519 6.98666956,18.4332191 7.00624749,18.5475931 C7.02582543,18.661967 7.09021898,18.7637675 7.18511102,18.8303603 L23.8484145,29.9324981 C24.0459798,30.0577472 24.3070935,30.0039088 24.4391885,29.8106878 L24.9604597,29.0972275 C25.0396331,28.9242799 24.9974041,28.7198708 24.8562055,28.5925849 Z" id="Shape"></path>
            <path d="M22.6898583,32.2917802 L4.68706108,23.048149 C4.58061913,22.992944 4.45694955,22.9848489 4.34458957,23.0257316 C4.2322296,23.0666143 4.14088642,23.1529429 4.09163783,23.2647966 L3.04089091,25.7020822 C2.98927158,25.8164108 2.98640187,25.9477888 3.03297682,26.064397 C3.07955177,26.1810052 3.17132349,26.2722082 3.28606519,26.315917 L22.0418977,33.9707991 C22.2642802,34.0573512 22.513027,33.9451593 22.602296,33.7180436 L22.9700574,32.8875611 C23.0143622,32.7704898 23.0093175,32.6396767 22.9561373,32.5266009 C22.9029571,32.4135252 22.8064568,32.3284254 22.6898583,32.2917802 Z" id="Shape"></path>
            <path d="M21.6719072,37.2058823 L2.09870737,32.0155458 C1.98212164,31.9833693 1.85768285,32.0016039 1.7547042,32.065954 C1.65172556,32.1303042 1.57931136,32.2350808 1.55451975,32.3556024 L1.01033213,34.9507706 C0.984570139,35.0696783 1.00745593,35.194155 1.07370851,35.2954772 C1.13996109,35.3967994 1.24385666,35.4662135 1.36142091,35.4877019 L21.303264,38.9956535 C21.5343932,39.0285579 21.7503563,38.8712821 21.7947883,38.6376992 C21.7947883,38.339404 21.8591546,38.0411088 21.9878871,37.7428136 C22.0433964,37.5059934 21.9029805,37.2673906 21.6719072,37.2058823 Z" id="Shape"></path>
            <path d="M20.738154,40.7540193 L0.279302377,40.0005035 C0.206884896,39.9963261 0.135707604,40.0182852 0.0827585532,40.0611399 C0.0298095023,40.1039946 -0.000160829019,40.1638999 6.49166185e-07,40.2265582 L6.49166185e-07,42.7734418 C-0.000160829019,42.8361001 0.0298095023,42.8960054 0.0827585532,42.9388601 C0.135707604,42.9817148 0.206884896,43.0036739 0.279302377,42.9994965 L20.7556103,42.261051 C20.8933651,42.2531053 21.0003065,42.1541867 20.9999993,42.0349963 L20.9999993,40.9650037 C20.9907956,40.8460781 20.8762156,40.7537542 20.738154,40.7540193 Z" id="Shape"></path>
            <path d="M21.3808427,46.0154599 L1.21604397,49.5572917 C1.14576843,49.5700489 1.08366353,49.6112586 1.0440602,49.6714115 C1.00445688,49.7315643 0.990776603,49.8054635 1.00617616,49.8760566 L1.61829061,52.7980678 C1.65279514,52.9393684 1.79317372,53.0262353 1.93309232,52.9928685 L21.8005783,47.7863758 C21.9401222,47.7514369 22.0259091,47.609291 21.9929572,47.467611 C21.8996826,47.0662034 21.8122377,46.6588927 21.7306224,46.245679 C21.7244742,46.1630572 21.680605,46.0880721 21.6119986,46.0429165 C21.5433922,45.997761 21.4579068,45.987607 21.3808427,46.0154599 Z" id="Shape"></path>
            <path d="M22.1385495,50.017146 L3.16202159,57.7332444 C3.09664139,57.7607642 3.04492374,57.8142941 3.01867797,57.8816109 C2.99243219,57.9489276 2.99389931,58.0242833 3.02274433,58.0904711 L4.20660111,60.8411173 C4.23643115,60.9098058 4.29302446,60.9624711 4.36255937,60.9862507 C4.43209428,61.0100304 4.50816901,61.0027351 4.57220395,60.9661467 L22.8523455,51.6603892 C22.9820201,51.5961513 23.0365383,51.4363437 22.9742131,51.3031624 C22.8001166,50.9280743 22.62602,50.5529862 22.469333,50.1600367 C22.4134972,50.0299015 22.2682999,49.9671797 22.1385495,50.017146 L22.1385495,50.017146 Z" id="Shape"></path>
            <path d="M23.8277609,54.0742344 L7.07360597,65.214327 C6.97546468,65.3144446 6.97546468,65.4746747 7.07360597,65.5747923 L8.79022021,67.9263989 C8.89034435,68.0245337 9.05058505,68.0245337 9.1507092,67.9263989 L24.926394,55.4302703 C25.0245353,55.3301528 25.0245353,55.1699226 24.926394,55.0698051 C24.686068,54.7436699 24.4285759,54.4346997 24.2054161,54.0913994 C24.1591222,54.0365576 24.0920385,54.0035247 24.0203411,54.0002659 C23.9486436,53.9970071 23.8788395,54.0238183 23.8277609,54.0742344 Z" id="Shape"></path>
            <path d="M26.6197714,57.0548714 L12.0760505,71.5997801 C11.9746498,71.7010157 11.9746498,71.8630351 12.0760505,71.9642707 L14.3108174,73.925577 C14.4142667,74.0248077 14.5798292,74.0248077 14.6832785,73.925577 L27.9322536,58.3045533 C28.0225821,58.2057241 28.0225821,58.0562487 27.9322536,57.9574194 C27.6130012,57.697069 27.311485,57.4193619 27.0099688,57.1242982 C26.9704064,57.0611332 26.9052188,57.017454 26.8307339,57.0042011 C26.756249,56.9909482 26.6795222,57.009377 26.6197714,57.0548714 L26.6197714,57.0548714 Z" id="Shape"></path>
            <path d="M30.5199454,60.1255394 L20.0395017,78.0596353 C20.0028739,78.1217418 19.9910732,78.1973405 20.0068084,78.2690779 C20.0225436,78.3408153 20.0644632,78.40253 20.1229447,78.4400556 L22.559481,79.9617364 C22.6187643,80.0000586 22.6899908,80.0101201 22.7563352,79.9895441 C22.8226796,79.9689682 22.8782581,79.9195795 22.9099417,79.8530449 L31.971854,61.0313018 C32.0341021,60.9009991 31.9897686,60.7405875 31.8717224,60.6689969 L30.8537175,60.0349632 C30.7379444,59.9642344 30.5914353,60.0039928 30.5199454,60.1255394 L30.5199454,60.1255394 Z" id="Shape"></path>
            <path d="M34.2852015,62.1904836 L27.0148145,81.726109 C26.967126,81.8633539 27.0382969,82.0134654 27.1747986,82.0635425 L30.0367358,82.9870448 C30.1050893,83.0091571 30.1794821,83.0027744 30.2430612,82.9693424 C30.3066403,82.9359105 30.3540247,82.878259 30.3744799,82.8094482 L35.9916982,62.7410331 C36.0265678,62.6042529 35.9486009,62.4640414 35.8139381,62.4213592 L34.6940497,62.0484064 C34.6238507,61.999142 34.5342146,61.9866307 34.4531895,62.0147875 C34.3721643,62.0429442 34.3096476,62.1083296 34.2852015,62.1904836 Z" id="Shape"></path>
            <path d="M39.1444047,63.131673 L36.0027532,83.3864654 C35.9923301,83.4560351 36.0117588,83.5266674 36.0566728,83.5824881 C36.1015868,83.6383088 36.1682183,83.6746351 36.2415922,83.6833029 L39.328127,83.9976014 C39.404238,84.0074561 39.4812229,83.9866731 39.540518,83.9402637 C39.5998131,83.8938543 39.636037,83.8260305 39.6404549,83.753147 L41,63.3062833 C40.9613942,63.2024894 40.8586167,63.132718 40.7427888,63.131673 L39.4567326,63.0094459 C39.3354736,62.9776719 39.2069648,63.0279628 39.1444047,63.131673 Z" id="Shape"></path>
            <path d="M44.000616,63.400784 L45.3650069,83.7560238 C45.3697371,83.8252341 45.4035189,83.8898161 45.4588805,83.9354859 C45.5142422,83.9811557 45.5866216,84.0041499 45.6600104,83.9993828 L48.7575467,83.6864927 C48.8311821,83.6778637 48.8980512,83.6417002 48.9431252,83.5861297 C48.9881993,83.5305591 49.0076972,83.4602433 48.997237,83.3909854 L45.8628253,63.2095734 C45.8351782,63.0793639 45.7081501,62.9895439 45.5678218,63.00098 L44.2771817,63.1226594 C44.2005227,63.1224986 44.1272317,63.1523427 44.0748014,63.2050685 C44.022371,63.2577944 43.9955052,63.3286717 44.000616,63.400784 Z" id="Shape"></path>
            <path d="M48.0083146,62.7251212 L53.6163707,82.8094656 C53.6368574,82.8782701 53.6843147,82.9359164 53.7479916,82.9693452 C53.8116685,83.0027741 53.8861758,83.0091563 53.9546344,82.987046 L56.8031709,82.0636279 C56.8764891,82.0436964 56.9378218,81.9935524 56.9718066,81.9257556 C57.0057915,81.8579589 57.0092094,81.7789312 56.9812044,81.7084671 L49.7174364,62.1746219 C49.6672362,62.0382582 49.5167553,61.9671592 49.3791727,62.0147996 L48.1863481,62.4054765 C48.0514782,62.4481548 47.9733913,62.5883534 48.0083146,62.7251212 Z" id="Shape"></path>
            <path d="M53.1446906,60.0349315 L52.1280995,60.6864903 C52.0102172,60.7580162 51.9659452,60.9182826 52.0281069,61.0484674 L61.0940996,79.8531779 C61.1257392,79.9196523 61.1812405,79.9689962 61.2474927,79.9895536 C61.313745,80.010111 61.3848726,80.0000586 61.4440736,79.9617711 L63.877226,78.4233684 C63.9356263,78.3858767 63.9774877,78.3242179 63.9932011,78.2525454 C64.0089144,78.1808729 63.9971301,78.1053427 63.9605532,78.0432924 L53.4779991,60.1254258 C53.4066085,60.0039891 53.2603029,59.9642667 53.1446906,60.0349315 L53.1446906,60.0349315 Z" id="Shape"></path>
            <path d="M55.9900312,57.1242982 C55.688515,57.4020053 55.3869988,57.6797123 55.0677464,57.9574194 C54.9774179,58.0562487 54.9774179,58.2057241 55.0677464,58.3045533 L68.3167215,73.925577 C68.4201708,74.0248077 68.5857333,74.0248077 68.6891826,73.925577 L70.9239495,71.9642707 C71.0253502,71.8630351 71.0253502,71.7010157 70.9239495,71.5997801 L56.3802286,57.0548714 C56.3204778,57.009377 56.243751,56.9909482 56.1692661,57.0042011 C56.0947812,57.017454 56.0295936,57.0611332 55.9900312,57.1242982 Z" id="Shape"></path>
            <path d="M59.7945839,54.0913994 C59.5714241,54.4175346 59.313932,54.7436699 59.073606,55.0698051 C58.9754647,55.1699226 58.9754647,55.3301528 59.073606,55.4302703 L74.8492908,67.9263989 C74.9494149,68.0245337 75.1096556,68.0245337 75.2097798,67.9263989 L76.926394,65.5747923 C77.0245353,65.4746747 77.0245353,65.3144446 76.926394,65.214327 L60.1722391,54.0742344 C60.1211605,54.0238183 60.0513564,53.9970071 59.9796589,54.0002659 C59.9079615,54.0035247 59.8408778,54.0365576 59.7945839,54.0913994 Z" id="Shape"></path>
            <path d="M60.1876902,29.9235484 L76.9176877,18.7922832 C76.9701711,18.7435977 77,18.6752278 77,18.6036177 C77,18.5320076 76.9701711,18.4636377 76.9176877,18.4149522 L75.2035486,16.0823604 C75.1548916,16.0298463 75.0865616,16 75.0149933,16 C74.943425,16 74.8750951,16.0298463 74.826438,16.0823604 L59.0734998,28.568587 C58.9755001,28.6686252 58.9755001,28.8287283 59.0734998,28.9287666 C59.3134793,29.2374919 59.5534588,29.5633687 59.7934383,29.8892455 C59.8370037,29.9521614 59.9063047,29.9924009 59.9825138,29.9990317 C60.0587228,30.0056624 60.1339253,29.9779958 60.1876902,29.9235484 Z" id="Shape"></path>
            <path d="M56.4031855,26.9295148 L70.915018,12.4056564 C70.9692036,12.3564594 71,12.2873714 71,12.2150091 C71,12.1426467 70.9692036,12.0735587 70.915018,12.0243618 L68.685151,10.0832255 C68.6349158,10.0301598 68.5643696,10 68.4904801,10 C68.4165906,10 68.3460444,10.0301598 68.2958092,10.0832255 L55.0758837,25.6816415 C54.9747054,25.7827306 54.9747054,25.9445155 55.0758837,26.0456046 C55.3944362,26.3055782 55.6952912,26.5828833 55.9961463,26.8775201 C56.0381943,26.9435997 56.108271,26.9877441 56.1871067,26.9978144 C56.2659424,27.0078848 56.3452367,26.982821 56.4031855,26.9295148 L56.4031855,26.9295148 Z" id="Shape"></path>
            <path d="M53.4800546,24.8746876 L63.9604983,6.95493849 C63.9971261,6.89294429 64.0089268,6.81748234 63.9931916,6.74587466 C63.9774564,6.67426699 63.9355368,6.61266389 63.8770553,6.57520616 L61.440519,5.03819438 C61.3812357,4.99994146 61.3100092,4.98989817 61.2436648,5.01043694 C61.1773204,5.03097572 61.1217419,5.08027506 61.0900583,5.14668933 L52.028146,23.9524805 C51.9658979,24.0825476 52.0102314,24.2426692 52.1282776,24.3141304 L53.1462825,24.9651001 C53.2620556,25.035701 53.4085647,24.9960145 53.4800546,24.8746876 L53.4800546,24.8746876 Z" id="Shape"></path>
            <path d="M49.7147985,22.8252303 L56.9851855,3.27485295 C57.032874,3.13750444 56.9617031,2.98727952 56.8252014,2.93716462 L53.9632642,2.01296496 C53.8949107,1.99083594 53.8205179,1.99722354 53.7569388,2.0306807 C53.6933597,2.06413787 53.6459753,2.12183295 53.6255201,2.19069566 L48.0083018,22.2742651 C47.9734322,22.4111486 48.0513991,22.5514659 48.1860619,22.5941804 L49.3770544,22.9851879 C49.5144256,23.0328686 49.6646753,22.9617094 49.7147985,22.8252303 Z" id="Shape"></path>
        </g>
    </g>
</svg>