<?xml version="1.0" encoding="UTF-8" standalone="no"?>
<svg width="37px" height="37px" viewBox="0 0 37 37" version="1.1" xmlns="http://www.w3.org/2000/svg" xmlns:xlink="http://www.w3.org/1999/xlink">
    <!-- Generator: Sketch 47 (45396) - http://www.bohemiancoding.com/sketch -->
    <title>Artboard</title>
    <desc>Created with Sketch.</desc>
    <defs></defs>
    <g id="Onboarding" stroke="none" stroke-width="1" fill="none" fill-rule="evenodd">
        <g id="Artboard">
            <circle id="Oval" fill="#006DFF" cx="18.5" cy="18.5" r="18.5"></circle>
            <path d="M25.9312395,8.5928952 C25.8289823,8.5928952 25.7267251,8.5673309 25.6372501,8.51620231 C23.1830777,7.2507697 21.0612412,6.7139195 18.5175938,6.7139195 C15.9867286,6.7139195 13.5836848,7.31468043 11.3979376,8.51620231 C11.0911661,8.68237023 10.7077016,8.5673309 10.5287516,8.26055936 C10.3625836,7.95378782 10.477623,7.55754124 10.7843945,7.39137332 C13.161874,6.10037641 15.7694321,5.43570473 18.5175938,5.43570473 C21.2401913,5.43570473 23.6176707,6.03646567 26.2252289,7.37859117 C26.5447825,7.54475909 26.6598219,7.92822352 26.493654,8.23499506 C26.3786146,8.46507372 26.1613181,8.5928952 25.9312395,8.5928952 L25.9312395,8.5928952 Z M7.6399862,15.3035227 C7.51216472,15.3035227 7.38434325,15.2651763 7.26930392,15.1884834 C6.97531452,14.983969 6.91140378,14.5877224 7.11591815,14.293733 C8.38135076,12.5042324 9.99190136,11.0981961 11.9092235,10.1139708 C15.9228179,8.04326285 21.0612412,8.0304807 25.0876177,10.1011886 C27.0049399,11.085414 28.6154905,12.4786681 29.8809231,14.2553866 C30.0854374,14.5365938 30.0215267,14.9456226 29.7275373,15.1501369 C29.4335479,15.3546513 29.0373013,15.2907406 28.832787,14.9967512 C27.6823937,13.3862006 26.2252289,12.1207679 24.4996389,11.2387998 C20.8311626,9.35982406 16.1401144,9.35982406 12.4844202,11.2515819 C10.7460481,12.1463322 9.28888324,13.424547 8.13848996,15.0350976 C8.03623278,15.2140477 7.84450056,15.3035227 7.6399862,15.3035227 L7.6399862,15.3035227 Z M15.6288285,30.7315749 C15.4626606,30.7315749 15.2964926,30.6676642 15.1814533,30.5398427 C14.0694065,29.4277958 13.4686455,28.7119956 12.6122416,27.1653557 C11.7302734,25.5931516 11.2701161,23.6758294 11.2701161,21.6179036 C11.2701161,17.8216058 14.5167816,14.7283261 18.5048117,14.7283261 C22.4928417,14.7283261 25.7395072,17.8216058 25.7395072,21.6179036 C25.7395072,21.9758038 25.4583,22.257011 25.1003999,22.257011 C24.7424997,22.257011 24.4612925,21.9758038 24.4612925,21.6179036 C24.4612925,18.5246239 21.7898236,16.0065408 18.5048117,16.0065408 C15.2197997,16.0065408 12.5483309,18.5246239 12.5483309,21.6179036 C12.5483309,23.4585329 12.9573596,25.1585585 13.7370706,26.5390305 C14.5551281,28.0089775 15.1175426,28.6353027 16.1017679,29.6323102 C16.3446287,29.8879532 16.3446287,30.2841997 16.1017679,30.5398427 C15.9611643,30.6676642 15.7949964,30.7315749 15.6288285,30.7315749 L15.6288285,30.7315749 Z M24.7936283,28.3668776 C23.2725528,28.3668776 21.9304273,27.9834132 20.8311626,27.2292664 C18.9266226,25.9382695 17.7890114,23.8419973 17.7890114,21.6179036 C17.7890114,21.2600035 18.0702187,20.9787963 18.4281188,20.9787963 C18.7860189,20.9787963 19.0672262,21.2600035 19.0672262,21.6179036 C19.0672262,23.4201865 19.9875408,25.1202121 21.5469628,26.1683482 C22.4544953,26.7818913 23.5154136,27.0758807 24.7936283,27.0758807 C25.1003999,27.0758807 25.6116858,27.0375342 26.1229717,26.9480592 C26.4680897,26.8841485 26.8004255,27.1142271 26.8643362,27.4721273 C26.928247,27.8172452 26.6981683,28.1495811 26.3402682,28.2134918 C25.6116858,28.3540954 24.9725784,28.3668776 24.7936283,28.3668776 L24.7936283,28.3668776 Z M22.2244166,31 C22.1732881,31 22.1093773,30.9872179 22.0582487,30.9744357 C20.0258873,30.4120212 18.6965439,29.6578745 17.3032898,28.2901847 C15.5137891,26.5134662 14.5295638,24.1487689 14.5295638,21.6179036 C14.5295638,19.5471957 16.2935001,17.8599522 18.4664652,17.8599522 C20.6394303,17.8599522 22.4033667,19.5471957 22.4033667,21.6179036 C22.4033667,22.9855934 23.5921064,24.0976403 25.0620534,24.0976403 C26.5320004,24.0976403 27.7207401,22.9855934 27.7207401,21.6179036 C27.7207401,16.799034 23.5665422,12.8876968 18.4536831,12.8876968 C14.8235532,12.8876968 11.5001948,14.9072761 10.0046835,18.0389023 C9.50617975,19.0742563 9.2505368,20.2885603 9.2505368,21.6179036 C9.2505368,22.6149112 9.34001183,24.1871153 10.1069407,26.2322589 C10.2347622,26.5645948 10.0685942,26.9352771 9.73625841,27.0503164 C9.40392257,27.1781379 9.03324029,26.9991878 8.91820096,26.6796341 C8.29187573,25.0051728 7.98510418,23.3434936 7.98510418,21.6179036 C7.98510418,20.0840459 8.27909358,18.6907918 8.85429022,17.4764878 C10.5543159,13.9102686 14.3250494,11.5966999 18.4536831,11.5966999 C24.2695603,11.5966999 28.9989549,16.0832337 28.9989549,21.6051215 C28.9989549,23.6758294 27.2350185,25.3630729 25.0620534,25.3630729 C22.8890883,25.3630729 21.125152,23.6758294 21.125152,21.6051215 C21.125152,20.2374317 19.9364122,19.1253848 18.4664652,19.1253848 C16.9965183,19.1253848 15.8077785,20.2374317 15.8077785,21.6051215 C15.8077785,23.7908687 16.6514003,25.8360124 18.1980401,27.3698701 C19.4123442,28.5713919 20.5755196,29.2360636 22.3778024,29.7345674 C22.7229204,29.8240424 22.9146526,30.1819426 22.8251776,30.5142784 C22.7612668,30.8082678 22.4928417,31 22.2244166,31 L22.2244166,31 Z" id="Shape" fill="#FFFFFF"></path>
        </g>
    </g>
</svg>