<?xml version="1.0" encoding="UTF-8" standalone="no"?>
<svg width="100%" height="100%" viewBox="0 0 1136 629" version="1.1" xmlns="http://www.w3.org/2000/svg" xmlns:xlink="http://www.w3.org/1999/xlink">
    <!-- Generator: Sketch 47 (45396) - http://www.bohemiancoding.com/sketch -->
    <title>Artboard</title>
    <desc>Created with Sketch.</desc>
    <defs></defs>
    <g id="Page-1" stroke="none" stroke-width="1" fill="none" fill-rule="evenodd">
        <g id="Artboard">
            <g id="Group" transform="translate(1.000000, 255.000000)">
                <path d="M207.508983,47.0368403 L213.405292,47.0368403 L214.157744,32.1025227 L226.051532,32.1025227 L233.955432,22.6096644 C240.730655,22.7798103 246.37562,22.6096644 250.891908,22.6096644 L250.891908,45.5552867 L260.302291,45.5552867 L286.021581,23.7573468 L297.18663,23.7573468 L314.376031,6.42011931 L327.673552,19.805467 L339.843976,19.805467 L346.086476,31.7413639 L358.381783,31.7413639 L358.381783,182.15678 L373.813357,182.15678 L373.813357,151.691029 L377.577194,151.691029 L377.577194,126.451647 L381.089687,122.881793 L381.089687,109.498051 L385.229749,109.498051 L385.229749,54.3033554 L392.131435,54.3033554 L392.131435,50.8619133 L395.768809,50.8619133 L395.768809,44.7430807 L401.288893,44.7430807 L401.288893,30.4652695 L409.820362,30.4652695 L409.820362,43.5953983 L415.843134,43.5953983 L415.843134,15.6786258 L426.129269,15.6786258 L426.129269,-0.000481545064 L436.416985,-0.000481545064 L436.668329,14.6593554 L441.687305,14.6593554 L441.687305,47.0368403 L448.460947,47.0368403 L448.460947,69.7272438 L454.984826,69.7272438 L454.984826,84.3870807 L460.504909,84.3870807 L460.504909,100.066188 L467.656358,100.066188 L467.656358,201.660961 L501.530891,201.660961 L501.530891,141.111484 L516.962465,141.111484 L516.962465,31.4861451 L520.601421,31.4861451 L520.601421,14.6593554 L559.117124,14.6593554 L559.117124,31.7413639 L564.260982,31.7413639 L564.260982,142.641192 L571.537312,142.641192 L571.537312,172.469699 L575.803837,172.469699 L575.803837,180.500265 L584.836414,180.500265 L584.836414,166.479278 L590.105153,166.479278 L590.105153,124.029476 L594.747904,124.029476 L594.747904,104.400094 L603.279373,104.400094 L603.279373,89.7402567 L647.691386,89.8686687 L647.691386,78.523467 L654.59149,73.6791236 L654.59149,54.5585742 L666.385689,54.5585742 L666.385689,46.2727888 L676.173879,46.2727888 L676.173879,42.4477159 L683.073983,42.4477159 L683.073983,51.3707459 L694.487214,51.3707459 L694.487214,69.216806 L709.669025,69.216806 L709.669025,170.811579 L722.215675,170.811579 L722.215675,163.801888 L748.312772,163.801888 L748.312772,184.452145 L758.598907,184.452145 L758.598907,194.394445 L791.719408,194.394445 L791.719408,189.678514 L798.118405,189.678514 L806.474408,195.338274 L816.155104,195.338274 L816.155104,182.994669 L835.186114,182.994669 L842.002437,195.338274 L862.53993,195.338274 L862.53993,185.542042 L888.355648,185.542042 L888.355648,197.630428 L899.723036,197.630428 L899.723036,184.452145 L916.556762,170.811579 L916.556762,197.630428 L940.356985,197.630428 L940.356985,184.452145 L968.909032,184.452145 L968.909032,217.466875 L1040.25437,217.466875 L1133.59627,217.466875 L1133.59627,372.962591 L0,372.962591 L0,187.251527 L13.2991017,187.251527 L13.2991017,173.272274 L50.5849582,173.272274 L50.5849582,182.832548 L163.874714,182.832548 L174.16243,166.132566 L205.501393,166.132566 L207.508983,47.0368403 Z" id="Fill-2" fill="#FFFFFF"></path>
                <path d="M207.508983,47.0368403 L213.405292,47.0368403 L214.157744,32.1025227 L226.051532,32.1025227 L233.955432,22.6096644 C240.730655,22.7798103 246.37562,22.6096644 250.891908,22.6096644 L250.891908,45.5552867 L260.302291,45.5552867 L286.021581,23.7573468 L297.18663,23.7573468 L314.376031,6.42011931 L327.673552,19.805467 L339.843976,19.805467 L346.086476,31.7413639 L358.381783,31.7413639 L358.381783,182.15678 L373.813357,182.15678 L373.813357,151.691029 L377.577194,151.691029 L377.577194,126.451647 L381.089687,122.881793 L381.089687,109.498051 L385.229749,109.498051 L385.229749,54.3033554 L392.131435,54.3033554 L392.131435,50.8619133 L395.768809,50.8619133 L395.768809,44.7430807 L401.288893,44.7430807 L401.288893,30.4652695 L409.820362,30.4652695 L409.820362,43.5953983 L415.843134,43.5953983 L415.843134,15.6786258 L426.129269,15.6786258 L426.129269,-0.000481545064 L436.416985,-0.000481545064 L436.668329,14.6593554 L441.687305,14.6593554 L441.687305,47.0368403 L448.460947,47.0368403 L448.460947,69.7272438 L454.984826,69.7272438 L454.984826,84.3870807 L460.504909,84.3870807 L460.504909,100.066188 L467.656358,100.066188 L467.656358,201.660961 L501.530891,201.660961 L501.530891,141.111484 L516.962465,141.111484 L516.962465,31.4861451 L520.601421,31.4861451 L520.601421,14.6593554 L559.117124,14.6593554 L559.117124,31.7413639 L564.260982,31.7413639 L564.260982,142.641192 L571.537312,142.641192 L571.537312,172.469699 L575.803837,172.469699 L575.803837,180.500265 L584.836414,180.500265 L584.836414,166.479278 L590.105153,166.479278 L590.105153,124.029476 L594.747904,124.029476 L594.747904,104.400094 L603.279373,104.400094 L603.279373,89.7402567 L647.691386,89.8686687 L647.691386,78.523467 L654.59149,73.6791236 L654.59149,54.5585742 L666.385689,54.5585742 L666.385689,46.2727888 L676.173879,46.2727888 L676.173879,42.4477159 L683.073983,42.4477159 L683.073983,51.3707459 L694.487214,51.3707459 L694.487214,69.216806 L709.669025,69.216806 L709.669025,170.811579 L722.215675,170.811579 L722.215675,163.801888 L748.312772,163.801888 L748.312772,184.452145 L758.598907,184.452145 L758.598907,194.394445 L791.719408,194.394445 L791.719408,189.678514 L798.118405,189.678514 L806.474408,195.338274 L816.155104,195.338274 L816.155104,182.994669 L835.186114,182.994669 L842.002437,195.338274 L862.53993,195.338274 L862.53993,185.542042 L888.355648,185.542042 L888.355648,197.630428 L899.723036,197.630428 L899.723036,184.452145 L916.556762,170.811579 L916.556762,197.630428 L940.356985,197.630428 L940.356985,184.452145 L968.909032,184.452145 L968.909032,217.466875 L1040.25437,217.466875 L1133.59627,217.466875 L1133.59627,372.962591 L0,372.962591 L0,187.251527 L13.2991017,187.251527 L13.2991017,173.272274 L50.5849582,173.272274 L50.5849582,182.832548 L163.874714,182.832548 L174.16243,166.132566 L205.501393,166.132566 L207.508983,47.0368403 Z" id="Stroke-4" stroke="#91B4CE" stroke-width="2"></path>
            </g>
            <rect id="Rectangle" fill="#FFFFFF" x="-308" y="474" width="2090" height="596"></rect>
        </g>
    </g>
</svg>