<?xml version="1.0" encoding="UTF-8" standalone="no"?>
<svg width="21px" height="20px" viewBox="0 0 21 20" version="1.1" xmlns="http://www.w3.org/2000/svg" xmlns:xlink="http://www.w3.org/1999/xlink">
    <!-- Generator: Sketch 47.1 (45422) - http://www.bohemiancoding.com/sketch -->
    <title>Artboard 4 Copy 4</title>
    <desc>Created with Sketch.</desc>
    <defs>
        <path d="M5.73857391,13.76023 L6.19539017,14.2229944 C5.89091011,14.7880111 4.82513374,16.0732731 0.81476786,17.2040854 C0.306980525,17.3583403 0.00250046794,17.8723282 0.155029012,18.3861213 C0.306980525,18.7460492 0.662431659,19.0031406 1.11944026,19.0031406 C1.22080538,19.0031406 1.27177646,19.0031406 1.37314158,18.9515275 C5.63701644,17.7694916 7.26155123,16.2275279 7.87070369,15.147939 C8.4796638,15.4050303 9.19037372,15.5078669 9.95186238,15.5592851 L10.0534198,15.5592851 L10.154785,15.5592851 C10.9670524,15.5592851 11.728541,15.4050303 12.4392509,15.0967155 C13.0482111,16.2275279 14.6727458,17.8207151 19.1905144,19.0543641 C19.2920718,19.0543641 19.3426582,19.1059771 19.4442157,19.1059771 C19.8504456,19.1059771 20.2564831,18.7974675 20.3580406,18.3861213 C20.5103768,17.8723282 20.2058967,17.3583403 19.6981094,17.2040854 C15.1293698,15.9704365 14.266516,14.4796962 14.0635934,14.0685449 L14.3680734,13.76023 C16.6015683,11.1902904 16.2463096,6.82110085 16.1955308,6.3585312 C15.9466381,1.37018002 12.3803938,0.0862814139 10.1838289,0.0862814139 C10.1393975,0.0862814139 10.0963125,0.0866709462 10.0534198,0.0876447771 C10.0103349,0.0866709462 9.96686519,0.0860866477 9.92281849,0.0860866477 C7.72625358,0.0860866477 4.16000927,1.36979048 3.91130888,6.3585312 C3.8603378,6.82110085 3.50507901,11.1902904 5.73857391,13.76023 Z M7.21077249,12.4239393 C5.43409385,10.4190163 5.84013138,6.51259124 5.84013138,6.51259124 L5.84013138,6.46136773 C6.04305397,2.34907479 8.98745113,1.98953644 9.90127599,1.98953644 L10.0534198,1.98953644 L10.1041986,1.98953644 C10.7641298,1.9379234 14.1143721,2.04075994 14.266516,6.46136773 L14.266516,6.51259124 C14.3680734,7.59218012 14.3680734,10.7789442 12.8960672,12.4239393 C12.1853573,13.1948238 11.2715324,13.6059752 10.0534198,13.6059752 C8.83511493,13.6059752 7.92129008,13.1948238 7.21077249,12.4239393 L7.21077249,12.4239393 Z" id="path-1"></path>
    </defs>
    <g id="Onboarding" stroke="none" stroke-width="1" fill="none" fill-rule="evenodd">
        <g id="Artboard-4-Copy-4">
            <mask id="mask-2" fill="white">
                <use xlink:href="#path-1"></use>
            </mask>
            <use id="Clip-15" fill="#B8BDC6" xlink:href="#path-1"></use>
        </g>
    </g>
</svg>