<?xml version="1.0" encoding="UTF-8" standalone="no"?>
<svg width="18px" height="18px" viewBox="0 0 18 18" version="1.1" xmlns="http://www.w3.org/2000/svg" xmlns:xlink="http://www.w3.org/1999/xlink">
    <!-- Generator: Sketch 47.1 (45422) - http://www.bohemiancoding.com/sketch -->
    <title>Artboard 4 Copy 8</title>
    <desc>Created with Sketch.</desc>
    <defs></defs>
    <g id="Onboarding" stroke="none" stroke-width="1" fill="none" fill-rule="evenodd">
        <g id="Artboard-4-Copy-8" fill="#006DFF">
            <path d="M10.1189722,13.8347281 C9.99268003,13.8430835 9.86702042,13.8542242 9.73861991,13.8542242 C6.51637859,13.8542242 3.89544803,11.1907578 3.89544803,7.91669952 C3.89544803,4.64242698 6.51637859,1.97917488 9.73861991,1.97917488 C12.9608612,1.97917488 15.5817918,4.64242698 15.5817918,7.91669952 C15.5817918,11.0604982 13.1636877,13.6339826 10.1189722,13.8347281 M9.73861991,0 C5.44279011,0 1.94772406,3.5515027 1.94772406,7.91669952 C1.94772406,9.89458894 2.67026682,11.7010841 3.85475624,13.0900201 L0.250054291,16.6708741 C-0.0830701793,17.0089492 -0.0834918559,17.5574108 0.249632615,17.8959144 C0.415984012,18.0649519 0.634201624,18.1495778 0.852840913,18.1495778 C1.07105853,18.1495778 1.28885446,18.0649519 1.45520586,17.8963428 L5.06560044,14.2360048 C6.36921348,15.2339477 7.98444549,15.833399 9.73861991,15.833399 C9.86702042,15.833399 9.99204752,15.820116 10.1189722,15.8139029 C14.2376978,15.6103723 17.5295158,12.1514225 17.5295158,7.91669952 C17.5295158,3.5515027 14.0344497,0 9.73861991,0" id="Fill-9"></path>
        </g>
    </g>
</svg>