<?xml version="1.0" encoding="UTF-8"?>
<svg width="90px" height="56px" viewBox="0 0 90 56" version="1.1" xmlns="http://www.w3.org/2000/svg" xmlns:xlink="http://www.w3.org/1999/xlink">
    <!-- Generator: Sketch 47.1 (45422) - http://www.bohemiancoding.com/sketch -->
    <title>Shape</title>
    <desc>Created with Sketch.</desc>
    <defs></defs>
    <g id="Onboarding" stroke="none" stroke-width="1" fill="none" fill-rule="evenodd">
        <path d="M62.5,0.5 L27.5,0.5 C19.9,0.5 13,3.6 8,8.6 C3.1,13.5 0,20.4 0,28 C0,43.2 12.3,55.5 27.5,55.5 L62.4,55.5 C70,55.5 76.9,52.4 81.9,47.4 C86.9,42.4 90,35.5 90,27.9 C90,12.8 77.7,0.5 62.5,0.5 Z M28.5,53 C14.7,53 3.5,41.8 3.5,28 C3.5,14.2 14.7,3 28.5,3 C42.3,3 53.5,14.2 53.5,28 C53.5,41.8 42.3,53 28.5,53 Z" id="Shape" fill="#000000" fill-rule="nonzero"></path>
    </g>
</svg>