<?xml version="1.0" encoding="UTF-8" standalone="no"?>
<svg width="105px" height="68px" viewBox="0 0 105 68" version="1.1" xmlns="http://www.w3.org/2000/svg" xmlns:xlink="http://www.w3.org/1999/xlink">
    <!-- Generator: Sketch 47.1 (45422) - http://www.bohemiancoding.com/sketch -->
    <title>Artboard</title>
    <desc>Created with Sketch.</desc>
    <defs>
        <path d="M71,0 L31,0 C13.879,0 0,13.879 0,31 C0,48.121 13.879,62 31,62 L71,62 C88.121,62 102,48.121 102,31 C102,13.879 88.121,0 71,0 L71,0 L71,0 Z" id="path-1"></path>
        <circle id="path-2" cx="31" cy="31" r="28"></circle>
        <filter x="-17.9%" y="-14.3%" width="135.7%" height="135.7%" filterUnits="objectBoundingBox" id="filter-3">
            <feOffset dx="0" dy="2" in="SourceAlpha" result="shadowOffsetOuter1"></feOffset>
            <feGaussianBlur stdDeviation="3" in="shadowOffsetOuter1" result="shadowBlurOuter1"></feGaussianBlur>
            <feColorMatrix values="0 0 0 0 0   0 0 0 0 0   0 0 0 0 0  0 0 0 0.5 0" type="matrix" in="shadowBlurOuter1"></feColorMatrix>
        </filter>
    </defs>
    <g id="Page-1" stroke="none" stroke-width="1" fill="none" fill-rule="evenodd">
        <g id="Artboard">
            <g id="Switch---Active" transform="translate(1.000000, 1.000000)">
                <g id="Shape">
                    <use fill="#FFFFFF" fill-rule="evenodd" xlink:href="#path-1"></use>
                    <path stroke="#E5E5E5" stroke-width="3" d="M71,1.5 L31,1.5 C14.7074271,1.5 1.5,14.7074271 1.5,31 C1.5,47.2925729 14.7074271,60.5 31,60.5 L71,60.5 C87.2925729,60.5 100.5,47.2925729 100.5,31 C100.5,14.7074271 87.2925729,1.5 71,1.5 Z"></path>
                </g>
                <circle id="Oval" fill="#000000" opacity="0.05" cx="31" cy="38" r="28"></circle>
                <g id="Oval">
                    <use fill="black" fill-opacity="1" filter="url(#filter-3)" xlink:href="#path-2"></use>
                    <use fill="#FFFFFF" fill-rule="evenodd" xlink:href="#path-2"></use>
                </g>
            </g>
        </g>
    </g>
</svg>