<?xml version="1.0" encoding="UTF-8" standalone="no"?>
<svg width="19px" height="22px" viewBox="0 0 19 22" version="1.1" xmlns="http://www.w3.org/2000/svg" xmlns:xlink="http://www.w3.org/1999/xlink">
    <!-- Generator: Sketch 47.1 (45422) - http://www.bohemiancoding.com/sketch -->
    <title>Artboard 4 Copy 3</title>
    <desc>Created with Sketch.</desc>
    <defs></defs>
    <g id="Onboarding" stroke="none" stroke-width="1" fill="none" fill-rule="evenodd">
        <g id="Artboard-4-Copy-3" stroke="#B8BDC6" stroke-width="0.4" fill="#B8BDC6" fill-rule="nonzero">
            <path d="M17.973622,18.2216535 L17.6470472,18.2216535 C16.6218504,16.9153543 16.0555118,15.2990157 16.0555118,13.6372047 L16.0555118,9.9746063 C16.0555118,7.08503937 14.0919291,4.65019685 11.4297244,3.9226378 C11.6033465,3.63326772 11.7066929,3.29429134 11.7066929,2.93051181 C11.7066929,1.86811024 10.8427165,1 9.7761811,1 C8.70964567,1 7.84566929,1.86811024 7.84566929,2.93051181 C7.84566929,3.29429134 7.94901575,3.63326772 8.1226378,3.9226378 C5.46043307,4.65019685 3.49685039,7.08503937 3.49685039,9.9746063 L3.49685039,13.6372047 C3.49685039,15.3031496 2.93051181,16.9153543 1.90531496,18.2216535 L1.58287402,18.2216535 C1.26043307,18.2216535 1,18.4820866 1,18.8045276 C1,19.1269685 1.26043307,19.3874016 1.58287402,19.3874016 L6.63444882,19.3874016 C6.91141732,20.8714567 8.21358268,22 9.77204724,22 C11.3346457,22 12.636811,20.8714567 12.9096457,19.3874016 L17.3535433,19.3874016 L17.9653543,19.3874016 C18.2877953,19.3874016 18.5482283,19.1269685 18.5482283,18.8045276 C18.5564961,18.4820866 18.2919291,18.2216535 17.973622,18.2216535 Z M9.01141732,2.93051181 C9.01141732,2.50885827 9.35452756,2.16574803 9.7761811,2.16574803 C10.1978346,2.16574803 10.5409449,2.50885827 10.5409449,2.93051181 C10.5409449,3.35216535 10.1978346,3.69527559 9.7761811,3.69527559 C9.35452756,3.69527559 9.01141732,3.35216535 9.01141732,2.93051181 Z M9.7761811,20.834252 C8.85846457,20.834252 8.08543307,20.2224409 7.83326772,19.3874016 L11.7190945,19.3874016 C11.4669291,20.2224409 10.6938976,20.834252 9.7761811,20.834252 Z M3.33976378,18.2216535 C4.1996063,16.8574803 4.66673228,15.2659449 4.66673228,13.6372047 L4.66673228,9.9746063 C4.66673228,7.15531496 6.96102362,4.86102362 9.78031496,4.86102362 C12.5996063,4.86102362 14.8938976,7.15531496 14.8938976,9.9746063 L14.8938976,13.6372047 C14.8938976,15.2659449 15.3568898,16.8574803 16.2167323,18.2216535 L3.33976378,18.2216535 Z" id="Notifications"></path>
        </g>
    </g>
</svg>