<?xml version="1.0" encoding="UTF-8"?>
<svg width="25px" height="26px" viewBox="0 0 25 26" version="1.1" xmlns="http://www.w3.org/2000/svg" xmlns:xlink="http://www.w3.org/1999/xlink">
    <!-- Generator: Sketch 49.3 (51167) - http://www.bohemiancoding.com/sketch -->
    <title>Tab 2</title>
    <desc>Created with Sketch.</desc>
    <defs>
        <path d="M23.9150339,25.0745054 L13.2179747,25.0745054 C12.9382054,25.0745054 12.6823736,24.9581094 12.4998504,24.7681057 C12.3179256,24.9581094 12.0617946,25.0745054 11.7817261,25.0745054 L1.08466685,25.0745054 C0.603822815,25.0745054 0.191499803,24.7304042 0.105923328,24.2573398 C0.035906213,23.8707496 0,23.4787734 0,23.0921832 C0,21.3178179 0.637634499,19.7861187 1.89554883,18.5401731 C2.7306675,17.6891958 3.70462352,17.1218777 4.80185755,16.8459983 C4.38384939,16.6527031 3.99965291,16.378619 3.65166186,16.0249428 C2.89074936,15.2768967 2.49847399,14.3436344 2.49847399,13.2628574 C2.49847399,12.1754976 2.88865483,11.2338572 3.65764623,10.4648658 C4.4116767,9.69796891 5.34493902,9.30569353 6.42571603,9.30569353 C6.94964752,9.30569353 7.44275951,9.39845125 7.90086295,9.58187215 C8.00708549,9.45979103 8.11869397,9.34010365 8.23568838,9.22310924 C9.07918517,8.37153355 10.0558342,7.80421539 11.1512729,7.52743833 C10.737753,7.33922993 10.3553518,7.07322474 10.0073608,6.73121806 C9.23208579,5.95564386 8.84190494,5.01938936 8.84190494,3.94190375 C8.84190494,2.86770954 9.22999126,1.92846286 9.99509282,1.14989647 C10.7757537,0.382700387 11.7099137,0 12.7841079,0 C13.8714677,0 14.8080214,0.385094134 15.5671386,1.14421132 C16.3385238,1.92906129 16.7266101,2.86830798 16.7266101,3.94250218 C16.7266101,5.01998779 16.3364292,5.9562423 15.5674379,6.72553291 C15.2212421,7.07172864 14.8382425,7.33982837 14.4214312,7.52953286 C15.5138778,7.80720757 16.4857392,8.37602183 17.3241493,9.23029048 C17.3932688,9.29940994 17.4617898,9.37032471 17.5282163,9.44213714 C17.8561597,9.35177317 18.2005601,9.30629197 18.5590238,9.30629197 C19.4333401,9.30629197 20.2223791,9.56391904 20.9039988,10.071992 C21.0637814,10.1919786 21.2151859,10.3236347 21.3570155,10.4654642 C22.1263061,11.2347548 22.5164869,12.176096 22.5164869,13.2634559 C22.5164869,13.9980371 22.3246879,14.6784599 21.9473735,15.2852749 C21.7947721,15.5396105 21.5936973,15.7954423 21.3570155,16.0315257 C21.0105205,16.3846034 20.6233319,16.6583883 20.1993393,16.8507857 C21.2902898,17.127862 22.2642458,17.6939833 23.1077426,18.5443621 C24.3632632,19.7897093 25,21.3199124 25,23.0927817 C25,23.4793719 24.964393,23.871348 24.8940767,24.2579383 C24.8079018,24.7304042 24.395878,25.0745054 23.9150339,25.0745054 Z M14.1228112,23.0847028 L23.0095989,23.0847028 C23.0081028,21.8468361 22.5805197,20.8229106 21.7035104,19.9539802 C21.7014159,19.9515865 21.6990222,19.9494919 21.6969276,19.9476966 C20.8265012,19.0685928 19.7998827,18.6416081 18.5590238,18.6416081 C17.3280392,18.6416081 16.3065074,19.0688921 15.4357817,19.9476966 C14.5518905,20.8229106 14.1246065,21.8468361 14.1228112,23.0847028 Z M1.98980264,23.0847028 L10.8613302,23.0847028 C10.8598341,21.8450408 10.4361408,20.8202176 9.56691123,19.9503896 C9.56571435,19.9491927 9.5648167,19.9482951 9.56361983,19.9473974 C8.69289416,19.0682936 7.66657491,18.6413089 6.42541681,18.6413089 C5.18635325,18.6413089 4.16571914,19.067396 3.30546612,19.944106 C2.41858266,20.8229106 1.99129873,21.8468361 1.98980264,23.0847028 Z M10.9750332,18.5443621 C11.6778973,19.2478247 12.1850726,20.0416512 12.4935668,20.9186605 C12.8050532,20.0398559 13.3182128,19.2445333 14.0288566,18.5404723 C14.8708573,17.6903927 15.845711,17.1233737 16.9375591,16.8474943 C16.5186533,16.6541992 16.1332599,16.3798159 15.7846704,16.0252421 C15.5542722,15.7948439 15.3531974,15.5390121 15.1925171,15.2709124 C14.8232816,14.6778614 14.6317818,13.9974387 14.6317818,13.2631566 C14.6317818,12.1871671 15.0135845,11.254204 15.7670166,10.4894017 C14.9312994,9.70155953 13.9552489,9.32095367 12.7841079,9.32095367 C11.543249,9.32095367 10.5166306,9.7482376 9.6459049,10.6270422 C9.59653385,10.6764132 9.5486589,10.7260835 9.50257926,10.7760529 C10.0770787,11.4837046 10.367919,12.318524 10.367919,13.2631566 C10.367919,13.9920528 10.1841989,14.6673888 9.82214456,15.2709124 C9.66146426,15.5390121 9.46009024,15.7951431 9.22370768,16.0312264 C8.87122835,16.384005 8.48224438,16.6568922 8.06004716,16.8486912 C9.15398978,17.1254683 10.1300403,17.6924872 10.9750332,18.5443621 Z M17.714031,11.4974686 C17.6957786,11.507642 17.6778255,11.5169178 17.6586755,11.5261936 C17.4964991,11.6042896 17.3504805,11.7123075 17.2131393,11.8559323 C16.8047061,12.2649639 16.6212852,12.7069096 16.6212852,13.2628574 C16.6212852,13.6252109 16.7092554,13.9426817 16.8896841,14.2332228 C16.9755598,14.37595 17.0760972,14.5025194 17.1972807,14.6243013 C17.5856662,15.0192697 18.0162416,15.200596 18.5584254,15.200596 C19.1209561,15.200596 19.5611064,15.0195689 19.9432083,14.6302857 C20.0706754,14.5028186 20.1712128,14.37595 20.2487104,14.2475853 C20.4384149,13.9429809 20.5260859,13.6255102 20.5260859,13.2631566 C20.5260859,12.707508 20.3432634,12.2655624 19.9497911,11.8720901 C19.8737897,11.7963878 19.7938983,11.7266699 19.7116133,11.6650309 C19.3794808,11.4172781 19.0012687,11.2960946 18.5584254,11.2960946 C18.2406554,11.2954962 17.9641776,11.3616234 17.714031,11.4974686 Z M6.42571603,11.2954962 C5.88353221,11.2954962 5.4532561,11.4765233 5.07085493,11.8655073 C4.67169753,12.2646647 4.48857584,12.7069096 4.48857584,13.2625582 C4.48857584,13.804742 4.669603,14.2353174 5.05858697,14.6174193 C5.4532561,15.0189704 5.88353221,15.1999976 6.42571603,15.1999976 C6.98136468,15.1999976 7.42360953,15.0168759 7.81678256,14.6237029 C7.93796603,14.5022202 8.03850343,14.3753516 8.11600101,14.2466877 C8.29253989,13.9525559 8.37811636,13.6302977 8.37811636,13.262259 C8.37811636,12.7113978 8.20307357,12.2721452 7.82755443,11.8825627 C7.73659202,11.7996792 7.64892102,11.7233785 7.56454142,11.6536606 C7.2333066,11.4127898 6.86048043,11.2954962 6.42571603,11.2954962 Z M12.7841079,1.98980264 C12.2350421,1.98980264 11.7957894,2.17023136 11.4017187,2.5571208 C11.0166246,2.94909696 10.8317076,3.39313713 10.8317076,3.94190375 C10.8317076,4.48737897 11.0148293,4.92483633 11.4080023,5.31830858 C11.7957894,5.69921365 12.2350421,5.87934316 12.7841079,5.87934316 C13.3397566,5.87934316 13.7769147,5.70100896 14.1605127,5.31800936 C14.5533866,4.92483633 14.7368075,4.48767818 14.7368075,3.94190375 C14.7368075,3.39313713 14.5515912,2.94909696 14.1542292,2.54485284 C13.7769147,2.16813683 13.3397566,1.98980264 12.7841079,1.98980264 Z" id="path-1"></path>
    </defs>
    <g id="Symbols" stroke="none" stroke-width="1" fill="none" fill-rule="evenodd">
        <g id="Component/Bottom-tab-bar---5-tabs" transform="translate(-104.000000, -6.000000)">
            <g id="Tab-2" transform="translate(104.000000, 6.000000)">
                <mask id="mask-2" fill="white">
                    <use xlink:href="#path-1"></use>
                </mask>
                <g id="Mask" fill-rule="nonzero"></g>
                <g id="🎨-Colors/Grey-color" mask="url(#mask-2)" fill="#CFD3E0">
                    <g transform="translate(-2.000000, -1.000000)" id="Rectangle">
                        <rect x="0" y="0" width="28" height="28"></rect>
                    </g>
                </g>
            </g>
        </g>
    </g>
</svg>