<?xml version="1.0" encoding="UTF-8" standalone="no"?>
<svg width="19px" height="20px" viewBox="0 0 19 20" version="1.1" xmlns="http://www.w3.org/2000/svg" xmlns:xlink="http://www.w3.org/1999/xlink">
    <!-- Generator: Sketch 47.1 (45422) - http://www.bohemiancoding.com/sketch -->
    <title>Artboard 4 Copy 2</title>
    <desc>Created with Sketch.</desc>
    <defs></defs>
    <g id="Onboarding" stroke="none" stroke-width="1" fill="none" fill-rule="evenodd">
        <g id="Artboard-4-Copy-2" fill="#B8BDC6">
            <path d="M13.5539945,14.847746 C11.8087088,16.3199153 9.97573077,17.4729312 9.38004945,17.4729312 C8.79146703,17.4729312 6.97039011,16.3260529 5.23470879,14.861291 C2.78913736,12.7984339 1.4963022,9.48097354 1.4963022,4.86637037 C1.4963022,3.56414815 1.49713736,3.05049735 1.99406044,2.64393651 C2.40997253,2.30383069 3.98571978,2.75166138 5.42721429,2.75166138 C7.07353297,2.75166138 8.41125824,2.42171429 9.38318132,2.40245503 C10.3599066,2.38340741 11.7569286,2.75166138 13.3731813,2.75166138 C14.7879505,2.75166138 16.515489,2.54192593 16.8046648,2.64287831 C17.4652802,2.87377778 17.3040934,3.57896296 17.3040934,4.86637037 C17.3040934,9.46446561 16.0070824,12.7776931 13.5539945,14.847746 M18.3737308,0.976634921 C18.2943901,0.719703704 18.030478,0.570708995 17.773456,0.638857143 C17.7490275,0.644994709 15.5517088,1.06277249 13.656511,1.06277249 C11.8003571,1.06277249 9.60637912,0.256846561 9.58675275,0.248592593 C9.46398352,0.198222222 9.32680769,0.199280423 9.20508242,0.251555556 C9.1865,0.259809524 7.08668681,1.06277249 5.18564286,1.06277249 C3.25265385,1.06277249 1.09500549,0.64562963 1.07099451,0.639280423 C0.81606044,0.570708995 0.550478022,0.717164021 0.469675824,0.973248677 C0.450675824,1.0344127 0.000104395604,2.27737566 0.000104395604,4.52330159 C0.000104395604,11.0608677 2.36466484,14.4052063 4.34818132,16.0595979 C4.94511538,16.557164 7.99471978,19.0411852 9.39967582,19.0411852 C10.8468077,19.0411852 14.1139725,16.3516614 14.4818626,16.0447831 C16.4710165,14.3853122 18.8420495,11.0392804 18.8420495,4.52330159 C18.8420495,2.3133545 18.3927308,1.03885714 18.3737308,0.976634921" id="Fill-1"></path>
            <path d="M11.4962319,5.55669841 C10.8404187,5.55669841 10.2244846,5.8024127 9.75762747,6.24897354 C9.66388022,6.33870899 9.54173736,6.38315344 9.41959451,6.38251852 C9.29766044,6.38315344 9.17551758,6.33870899 9.08177033,6.24897354 C8.61491319,5.8024127 7.99877033,5.55669841 7.34316593,5.55669841 C5.97892418,5.55817989 4.87045165,6.64050794 4.87045165,7.96939683 C4.87045165,7.97511111 4.87086923,7.98061376 4.87086923,7.9861164 C4.87128681,8.06251852 4.87483626,8.13807407 4.88005604,8.21299471 C4.88214396,8.24093122 4.88506703,8.26865608 4.88778132,8.29638095 C4.8930011,8.34992593 4.89926484,8.40283598 4.90678132,8.45553439 C4.91116593,8.48622222 4.91555055,8.51669841 4.92077033,8.5471746 C4.92995714,8.60050794 4.94060549,8.65320635 4.95188022,8.70548148 C4.95751758,8.73130159 4.96252857,8.75733333 4.96879231,8.78336508 C4.98361648,8.84431746 4.9999022,8.90484656 5.01785824,8.96495238 C5.02871538,9.0013545 5.04103407,9.03775661 5.05314396,9.07415873 C5.06045165,9.09638095 5.06713297,9.11902646 5.07485824,9.14124868 C5.11640769,9.25913228 5.16442967,9.37659259 5.2182978,9.49299471 C5.21850659,9.49341799 5.21871538,9.49384127 5.21892418,9.49426455 C6.15681429,11.5088677 8.71179231,12.7478095 9.41959451,13.0593439 C10.1276055,12.7478095 12.6821659,11.5090794 13.6202648,9.49447619 C13.6206824,9.49405291 13.6208912,9.49341799 13.6211,9.49278307 C13.6749681,9.37638095 13.7227813,9.25934392 13.7643308,9.14124868 C13.7735176,9.11479365 13.7816604,9.08812698 13.7902209,9.06146032 C13.8008692,9.02929101 13.8119352,8.99712169 13.8215396,8.96495238 C13.8392868,8.90484656 13.8557813,8.84431746 13.8703967,8.78336508 C13.8766604,8.75754497 13.8816714,8.73151323 13.8873088,8.70548148 C13.8987923,8.65320635 13.9094407,8.60050794 13.9184187,8.5471746 C13.9236385,8.51669841 13.9282319,8.48622222 13.9326165,8.45553439 C13.940133,8.40283598 13.9463967,8.34992593 13.9516165,8.29638095 C13.9543308,8.26865608 13.9572538,8.24093122 13.959133,8.21299471 C13.9645615,8.13807407 13.9679022,8.06251852 13.9683198,7.9861164 C13.9683198,7.98061376 13.9689462,7.97511111 13.9689462,7.96939683 C13.9689462,6.64050794 12.8604736,5.55817989 11.4962319,5.55669841" id="Fill-4"></path>
        </g>
    </g>
</svg>