<?xml version="1.0" encoding="UTF-8"?>
<svg width="24px" height="16px" viewBox="0 0 24 16" version="1.1" xmlns="http://www.w3.org/2000/svg" xmlns:xlink="http://www.w3.org/1999/xlink">
    <!-- Generator: Sketch 49.3 (51167) - http://www.bohemiancoding.com/sketch -->
    <title>Tab 5</title>
    <desc>Created with Sketch.</desc>
    <defs>
        <path d="M1.13207547,2.5 C0.506847453,2.5 0,1.94035594 0,1.25 C0,0.559644063 0.506847453,0 1.13207547,0 L22.8679245,0 C23.4931525,0 24,0.559644063 24,1.25 C24,1.94035594 23.4931525,2.5 22.8679245,2.5 L1.13207547,2.5 Z M1.13207547,9 C0.506847453,9 0,8.44035594 0,7.75 C0,7.05964406 0.506847453,6.5 1.13207547,6.5 L22.8679245,6.5 C23.4931525,6.5 24,7.05964406 24,7.75 C24,8.44035594 23.4931525,9 22.8679245,9 L1.13207547,9 Z M1.13207547,16 C0.506847453,16 0,15.4403559 0,14.75 C0,14.0596441 0.506847453,13.5 1.13207547,13.5 L22.8679245,13.5 C23.4931525,13.5 24,14.0596441 24,14.75 C24,15.4403559 23.4931525,16 22.8679245,16 L1.13207547,16 Z" id="path-1"></path>
    </defs>
    <g id="Symbols" stroke="none" stroke-width="1" fill="none" fill-rule="evenodd">
        <g id="Component/Bottom-tab-bar---5-tabs" transform="translate(-320.000000, -11.000000)">
            <g id="Tab-5" transform="translate(320.000000, 11.000000)">
                <mask id="mask-2" fill="white">
                    <use xlink:href="#path-1"></use>
                </mask>
                <g id="Mask" fill-rule="nonzero"></g>
                <g id="🎨-Colors/Grey-color" mask="url(#mask-2)" fill="#CFD3E0">
                    <g transform="translate(-2.000000, -6.000000)" id="Rectangle">
                        <rect x="0" y="0" width="28" height="28"></rect>
                    </g>
                </g>
            </g>
        </g>
    </g>
</svg>