<?xml version="1.0" encoding="UTF-8" standalone="no"?>
<svg width="14px" height="17px" viewBox="0 0 14 17" version="1.1" xmlns="http://www.w3.org/2000/svg" xmlns:xlink="http://www.w3.org/1999/xlink">
    <!-- Generator: Sketch 47.1 (45422) - http://www.bohemiancoding.com/sketch -->
    <title>Artboard 4 Copy 9</title>
    <desc>Created with Sketch.</desc>
    <defs></defs>
    <g id="Onboarding" stroke="none" stroke-width="1" fill="none" fill-rule="evenodd">
        <g id="Artboard-4-Copy-9" fill="#006DFF">
            <path d="M7.51160494,0.245336842 C7.35397531,0.0817789474 7.14691358,0 6.94002469,0 C6.73296296,0 6.52607407,0.0817789474 6.36844444,0.245336842 L0.236617284,6.59349474 C0.085037037,6.75043158 0,6.96302105 0,7.18527368 L0,16.0737684 C0,16.5359895 0.361753086,16.9105263 0.808197531,16.9105263 L6.06165432,16.9105263 L6.06165432,10.8526211 C6.06165432,10.3904 6.42340741,10.0158632 6.86985185,10.0158632 C7.31698765,10.0158632 7.67874074,10.3904 7.67874074,10.8526211 L7.67874074,16.9105263 L13.0718519,16.9105263 C13.5182963,16.9105263 13.8800494,16.5359895 13.8800494,16.0737684 L13.8800494,7.18527368 C13.8800494,6.96302105 13.7950123,6.75043158 13.6434321,6.59349474 L7.51160494,0.245336842 Z" id="Fill-1"></path>
        </g>
    </g>
</svg>