<?xml version="1.0" encoding="UTF-8"?>
<svg width="66px" height="66px" viewBox="0 0 66 66" version="1.1" xmlns="http://www.w3.org/2000/svg" xmlns:xlink="http://www.w3.org/1999/xlink">
    <!-- Generator: Sketch 48.1 (47250) - http://www.bohemiancoding.com/sketch -->
    <title>Artboard 4</title>
    <desc>Created with Sketch.</desc>
    <defs></defs>
    <g id="Timeline-2" stroke="none" stroke-width="1" fill="none" fill-rule="evenodd">
        <g id="Artboard-4">
            <g id="Group-13">
                <g id="eap-copy-5">
                    <g id="Group-8-Copy">
                        <path d="M33,66 C51.2253967,66 66,51.2253967 66,33 C66,14.7746032 51.2253967,0 33,0 C14.7746032,0 0,14.7746032 0,33 C0,51.2253967 14.7746032,66 33,66 Z" id="Mask" fill="#CBE9FF"></path>
                        <g id="Page-1" transform="translate(15.000000, 9.000000)" stroke="#00396F">
                            <path d="M28.2034268,13.1327444 C28.2034268,20.1503 23.5142805,25.8398185 17.7298902,25.8398185 C11.9455,25.8398185 7.25635366,20.1503 7.25635366,13.1327444 C7.25635366,6.11518889 11.9455,0.42567037 17.7298902,0.42567037 C23.5142805,0.42567037 28.2034268,6.11518889 28.2034268,13.1327444 Z" id="Stroke-1"></path>
                            <path d="M7.68309756,9.65420741 C7.68309756,9.65420741 14.9391951,11.6415778 16.3622439,5.25268889 C16.3622439,5.25268889 15.9354146,11.2156519 28.0283415,11.3579111" id="Stroke-3" stroke-linecap="round" stroke-linejoin="round"></path>
                            <path d="M7.50510976,15.2623741 C7.50510976,15.2623741 8.46547561,22.2901519 4.51730488,26.7623741 C4.51730488,26.7623741 9.21242683,28.1466333 13.6941341,25.1651519" id="Stroke-5" stroke-linecap="round" stroke-linejoin="round"></path>
                            <path d="M28.1091829,15.084763 C28.1091829,15.084763 27.1488171,22.1125407 31.0969878,26.584763 C31.0969878,26.584763 26.4018659,27.9690222 21.9201585,24.9875407" id="Stroke-7" stroke-linecap="round" stroke-linejoin="round"></path>
                            <polyline id="Stroke-9" stroke-linecap="round" stroke-linejoin="round" points="13.4807195 25.2707815 13.3740122 28.3587444 17.6423049 39.9652259 22.0173049 28.252263 22.2307195 25.0578185"></polyline>
                            <path d="M15.1526098,33.2219667 C15.1526098,33.2219667 17.2867561,34.4290407 20.0611463,33.2219667" id="Stroke-11" stroke-width="0.575757576" stroke-linecap="round" stroke-linejoin="round"></path>
                            <path d="M12.7337683,28.5372074 L2.06303659,32.6610222 C1.07706098,33.0426519 0.426573171,33.9890593 0.426573171,35.0436519 L0.426573171,42.7350222 C0.426573171,44.1465407 1.57303659,45.2905778 2.98754878,45.2905778 L32.1545,45.2905778 C33.5690122,45.2905778 34.7154756,44.1465407 34.7154756,42.7350222 L34.7154756,34.9022444 C34.7154756,33.8118741 34.0214512,32.8416148 32.989378,32.4863926 L22.1240122,28.7501704" id="Stroke-13" stroke-linecap="round" stroke-linejoin="round"></path>
                            <path d="M5.23887743,41.8923714 C5.23887743,42.9316307 4.39460914,43.7741122 3.35399938,43.7741122 C2.31253597,43.7741122 1.46826767,42.9316307 1.46826767,41.8923714 C1.46826767,40.8531122 2.31253597,40.0114825 3.35399938,40.0114825 C4.39460914,40.0114825 5.23887743,40.8531122 5.23887743,41.8923714 Z" id="Stroke-15"></path>
                            <path d="M13.8725488,41.8923714 C13.8725488,42.9316307 13.0282805,43.7741122 11.9876707,43.7741122 C10.9462073,43.7741122 10.101939,42.9316307 10.101939,41.8923714 C10.101939,40.8531122 10.9462073,40.0114825 11.9876707,40.0114825 C13.0282805,40.0114825 13.8725488,40.8531122 13.8725488,41.8923714 Z" id="Stroke-17"></path>
                            <path d="M30.0961585,38.0693444 C30.0961585,39.3743815 29.0359146,40.4315296 27.7289634,40.4315296 C26.4203049,40.4315296 25.3609146,39.3743815 25.3609146,38.0693444 C25.3609146,36.7651593 26.4203049,35.7071593 27.7289634,35.7071593 C29.0359146,35.7071593 30.0961585,36.7651593 30.0961585,38.0693444 Z" id="Stroke-19"></path>
                            <path d="M27.7261463,30.8086704 L27.7261463,35.7068185" id="Stroke-21" stroke-width="0.617324464"></path>
                            <path d="M2.4365122,40.338763 L2.4365122,37.037837 C2.4365122,37.037837 2.75663415,33.0980222 7.50468293,32.8850593 L7.50468293,30.701763" id="Stroke-23"></path>
                            <path d="M12.6312439,40.338763 L12.6312439,37.037837 C12.6312439,37.037837 12.311122,33.0980222 7.56307317,32.8850593 L7.56307317,30.701763" id="Stroke-25"></path>
                        </g>
                    </g>
                </g>
            </g>
        </g>
    </g>
</svg>