<?xml version="1.0" encoding="UTF-8"?>
<svg width="66px" height="66px" viewBox="0 0 66 66" version="1.1" xmlns="http://www.w3.org/2000/svg" xmlns:xlink="http://www.w3.org/1999/xlink">
    <!-- Generator: Sketch 48.1 (47250) - http://www.bohemiancoding.com/sketch -->
    <title>Artboard 5</title>
    <desc>Created with Sketch.</desc>
    <defs></defs>
    <g id="Timeline-2" stroke="none" stroke-width="1" fill="none" fill-rule="evenodd">
        <g id="Artboard-5">
            <g id="Group-13">
                <g id="eap-copy-5">
                    <g id="Group-8-Copy">
                        <path d="M33,66 C51.2253967,66 66,51.2253967 66,33 C66,14.7746032 51.2253967,0 33,0 C14.7746032,0 0,14.7746032 0,33 C0,51.2253967 14.7746032,66 33,66 Z" id="Mask" fill-opacity="0.3" fill="#0AC392"></path>
                        <g id="Page-1" transform="translate(17.000000, 11.000000)" stroke="#00396F" stroke-width="1.24">
                            <path d="M24.9770996,9.82978723 C24.9791519,11.6170213 24.980178,12.5501792 24.980178,12.629261 C24.980178,18.9002681 20.8269341,23.9845187 15.7036171,23.9845187 C10.5803,23.9845187 6.4270561,18.9002681 6.4270561,12.629261 C6.4270561,12.629261 6.4270561,11.9939754 6.4270561,10.7234043" id="Stroke-1"></path>
                            <path d="M6.24311118,9.82978723 C6.24311118,9.82978723 12.2296266,12.858156 13.4900412,7.14893617 C13.4900412,7.14893617 13.2716213,10.9161144 23.9824993,11.0432397 C23.9824993,11.0432397 25.0043269,11.0432397 25.7288255,10.7234043 C26.453324,10.4035688 23.9573969,-1.18751344e-13 15.100254,-5.68434189e-14 C6.24311118,5.06450673e-15 5.51861262,6.25531915 5.35739689,8.04255319 C5.46487404,9.23404255 5.76011214,9.82978723 6.24311118,9.82978723 Z" id="Stroke-3" stroke-linecap="round" stroke-linejoin="round" transform="translate(15.602163, 5.521620) scale(-1, 1) translate(-15.602163, -5.521620) "></path>
                            <polyline id="Stroke-9" stroke-linecap="round" stroke-linejoin="round" points="11.9400659 23.4760175 11.8455537 26.2354738 15.6260415 36.6072232 19.5010415 26.1403201 19.6900659 23.2857102"></polyline>
                            <path d="M13.4208829,30.5813319 C13.4208829,30.5813319 15.3111268,31.6599939 17.7684439,30.5813319" id="Stroke-11" stroke-linecap="round" stroke-linejoin="round"></path>
                            <path d="M11.2784805,26.3949513 L1.82726098,30.0800624 C0.953968293,30.4210931 0.377821951,31.2668189 0.377821951,32.2092208 L0.377821951,39.0823603 C0.377821951,40.3437173 1.39326098,41.3660482 2.64611463,41.3660482 L28.4797,41.3660482 C29.7325537,41.3660482 30.7479927,40.3437173 30.7479927,39.0823603 L30.7479927,32.0828567 C30.7479927,31.1084832 30.1332854,30.241443 29.2191634,29.9240104 L19.5955537,26.5852586" id="Stroke-13" stroke-linecap="round" stroke-linejoin="round"></path>
                            <path d="M4.64014858,38.3293532 C4.64014858,39.2580529 3.89236809,40.0109087 2.97068517,40.0109087 C2.04824614,40.0109087 1.30046565,39.2580529 1.30046565,38.3293532 C1.30046565,37.4006534 2.04824614,36.6485588 2.97068517,36.6485588 C3.89236809,36.6485588 4.64014858,37.4006534 4.64014858,38.3293532 Z" id="Stroke-15"></path>
                            <path d="M12.2871146,38.3293532 C12.2871146,39.2580529 11.5393341,40.0109087 10.6176512,40.0109087 C9.6952122,40.0109087 8.94743171,39.2580529 8.94743171,38.3293532 C8.94743171,37.4006534 9.6952122,36.6485588 10.6176512,36.6485588 C11.5393341,36.6485588 12.2871146,37.4006534 12.2871146,38.3293532 Z" id="Stroke-17"></path>
                            <path d="M26.6565976,34.9130312 C26.6565976,36.0792345 25.7175244,37.0239201 24.559939,37.0239201 C23.4008415,37.0239201 22.4625244,36.0792345 22.4625244,34.9130312 C22.4625244,33.7475891 23.4008415,32.8021423 24.559939,32.8021423 C25.7175244,32.8021423 26.6565976,33.7475891 26.6565976,34.9130312 Z" id="Stroke-19"></path>
                            <path d="M24.5574439,28.4247693 L24.5574439,32.8018378" id="Stroke-21"></path>
                            <path d="M2.15805366,36.9410222 L2.15805366,33.9912586 C2.15805366,33.9912586 2.44159024,30.470573 6.64700488,30.2802657 L6.64700488,28.329235" id="Stroke-23"></path>
                            <path d="M11.1876732,36.9410222 L11.1876732,33.9912586 C11.1876732,33.9912586 10.9041366,30.470573 6.69872195,30.2802657 L6.69872195,28.329235" id="Stroke-25"></path>
                        </g>
                    </g>
                </g>
            </g>
        </g>
    </g>
</svg>