<?xml version="1.0" encoding="UTF-8"?>
<svg width="12px" height="13px" viewBox="0 0 12 13" version="1.1" xmlns="http://www.w3.org/2000/svg" xmlns:xlink="http://www.w3.org/1999/xlink">
    <!-- Generator: Sketch 48.1 (47250) - http://www.bohemiancoding.com/sketch -->
    <title>Artboard 2</title>
    <desc>Created with Sketch.</desc>
    <defs></defs>
    <g id="Timeline-1" stroke="none" stroke-width="1" fill="none" fill-rule="evenodd">
        <g id="Artboard-2" fill="#00C388">
            <path d="M9.2109375,5.40234375 C9.32031305,5.2929682 9.375,5.16211014 9.375,5.00976563 C9.375,4.85742111 9.32031305,4.72265684 9.2109375,4.60546875 L9.1640625,4.55859375 C9.10937473,4.50390598 9.04882846,4.46289076 8.98242188,4.43554688 C8.91601529,4.40820299 8.84375039,4.39453125 8.765625,4.39453125 C8.68749961,4.39453125 8.61523471,4.40820299 8.54882813,4.43554688 C8.48242154,4.46289076 8.42187527,4.50390598 8.3671875,4.55859375 L4.78125,8.07421875 L3.6328125,6.9140625 C3.58593727,6.85937473 3.5273441,6.81835951 3.45703125,6.79101563 C3.3867184,6.76367174 3.31250039,6.75 3.234375,6.75 C3.16406215,6.75 3.09375035,6.76367174 3.0234375,6.79101563 C2.95312465,6.81835951 2.89062527,6.85937473 2.8359375,6.9140625 L2.7890625,6.9609375 C2.73437473,7.00781273 2.69335951,7.0664059 2.66601563,7.13671875 C2.63867174,7.2070316 2.625,7.2773434 2.625,7.34765625 C2.625,7.42578164 2.63867174,7.49999965 2.66601563,7.5703125 C2.69335951,7.64062535 2.73437473,7.69921852 2.7890625,7.74609375 L4.3828125,9.36328125 C4.42968773,9.41796902 4.4882809,9.45898424 4.55859375,9.48632812 C4.6289066,9.51367201 4.70312461,9.52734375 4.78125,9.52734375 C4.85156285,9.52734375 4.92187465,9.51367201 4.9921875,9.48632812 C5.06250035,9.45898424 5.12109352,9.42187523 5.16796875,9.375 L9.2109375,5.40234375 Z M5.61328125,0.76171875 C6.51953578,0.707030977 7.37108977,0.837889043 8.16796875,1.15429688 C8.96484773,1.47070471 9.65624707,1.92187207 10.2421875,2.5078125 C10.8281279,3.09375293 11.2792953,3.78515227 11.5957031,4.58203125 C11.912111,5.37891023 12.042969,6.23046422 11.9882812,7.13671875 C11.941406,7.8867225 11.7636734,8.58984047 11.4550781,9.24609375 C11.1464828,9.90234703 10.7402369,10.4824194 10.2363281,10.9863281 C9.73241936,11.4902369 9.15234703,11.8964828 8.49609375,12.2050781 C7.83984047,12.5136734 7.1367225,12.691406 6.38671875,12.7382812 C5.48046422,12.792969 4.62891023,12.662111 3.83203125,12.3457031 C3.03515227,12.0292953 2.34375293,11.5781279 1.7578125,10.9921875 C1.17187207,10.4062471 0.720704707,9.71484773 0.404296875,8.91796875 C0.087889043,8.12108977 -0.0429690234,7.26953578 0.01171875,6.36328125 C0.0585939844,5.6132775 0.236326582,4.91015953 0.544921875,4.25390625 C0.853517168,3.59765297 1.25976311,3.01758064 1.76367188,2.51367188 C2.26758064,2.00976311 2.84765297,1.60351717 3.50390625,1.29492188 C4.16015953,0.986326582 4.8632775,0.808593984 5.61328125,0.76171875 Z" id="check-circle---Jiff-Icon-Font"></path>
        </g>
    </g>
</svg>