<?xml version="1.0" encoding="UTF-8"?>
<svg width="13px" height="12px" viewBox="0 0 13 12" version="1.1" xmlns="http://www.w3.org/2000/svg" xmlns:xlink="http://www.w3.org/1999/xlink">
    <!-- Generator: Sketch 48.1 (47250) - http://www.bohemiancoding.com/sketch -->
    <title>Artboard 3</title>
    <desc>Created with Sketch.</desc>
    <defs></defs>
    <g id="Timeline-1" stroke="none" stroke-width="1" fill="none" fill-rule="evenodd">
        <g id="Artboard-3" fill="#6D1EBD">
            <path d="M10.71875,0.75 C11.109377,0.75 11.4365221,0.886717383 11.7001953,1.16015625 C11.9638685,1.43359512 12.0957031,1.76562305 12.0957031,2.15625 C12.0957031,2.54687695 11.9687513,2.87890488 11.7148438,3.15234375 L6.96875,7.8984375 L6.82226562,7.8984375 L5.18164062,8.25 L4.5078125,8.3671875 L4.625,7.69335938 L4.9765625,6.05273438 L4.9765625,5.90625 L9.72265625,1.16015625 C9.99609512,0.886717383 10.328123,0.75 10.71875,0.75 Z M10.71875,1.6875 C10.6015619,1.6875 10.4941411,1.73632764 10.3964844,1.83398438 L5.85546875,6.375 L5.6796875,7.1953125 L6.5,7.01953125 L11.0410156,2.47851562 C11.2558604,2.2636708 11.2558604,2.0488292 11.0410156,1.83398438 C10.9433589,1.73632764 10.8359381,1.6875 10.71875,1.6875 Z M0.875,2.625 L7.05664062,2.625 L6.11914062,3.5625 L1.8125,3.5625 L1.8125,11.0625 L9.3125,11.0625 L9.3125,6.75585938 L10.25,5.81835938 L10.25,12 L0.875,12 L0.875,2.625 Z" id="ï‡"></path>
        </g>
    </g>
</svg>